<?xml version="1.0" encoding="UTF-8" standalone="no"?>
<!-- Created with Inkscape (http://www.inkscape.org/) -->

<svg
   xmlns:dc="http://purl.org/dc/elements/1.1/"
   xmlns:cc="http://creativecommons.org/ns#"
   xmlns:rdf="http://www.w3.org/1999/02/22-rdf-syntax-ns#"
   xmlns:svg="http://www.w3.org/2000/svg"
   xmlns="http://www.w3.org/2000/svg"
   version="1.0"
   width="100"
   height="46"
   id="svg2457">
  <metadata
     id="metadata2462">
    <rdf:RDF>
      <cc:Work
         rdf:about="">
        <dc:format>image/svg+xml</dc:format>
        <dc:type
           rdf:resource="http://purl.org/dc/dcmitype/StillImage" />
        <dc:title></dc:title>
      </cc:Work>
    </rdf:RDF>
  </metadata>
  <defs
     id="defs2460" />
  <g
     transform="translate(0,-0.063455)"
     id="g2984">
    <path
       d="m 3.1126245,21.287 c 17.3355985,1.173421 47.1452295,22.871672 47.6552025,23.304 1e-6,0 25.295734,-19.475595 47.344797,-23.679 C 98.249798,20.88585 98.229681,1.53591 98.229681,1.53591 76.010723,3.538277 50.878431,22.922213 50.823223,22.788277 50.722575,22.544103 17.912538,2.715978 2.9482235,2.663277 2.8305145,2.662862 3.1126245,21.287 3.1126245,21.287 z"
       id="path2485"
       style="fill:#636a3e;fill-opacity:1;fill-rule:evenodd;stroke:none" />
    <path
       d="m 6.5102665,17.150487 c 14.3129565,1.57529 44.3129565,21.57529 44.3129565,21.57529 1e-6,10e-7 19.737973,-16.381983 42.33172,-21.82529 0.120511,-0.02903 0.129246,-7.640831 0.129246,-7.640831 -22.460966,5.466121 -42.410722,21.092826 -42.460966,20.958786 -0.0916,-0.244363 -27,-18.492665 -44.1954815,-20.956417 -0.106097,-0.0152 -0.117475,7.888462 -0.117475,7.888462 z"
       id="path2489"
       style="fill:#d0d1a9;fill-opacity:1;fill-rule:evenodd;stroke:none" />
  </g>
</svg>
