<?xml version="1.0" encoding="UTF-8" standalone="no"?>
<!-- Created with Inkscape (http://www.inkscape.org/) -->

<svg
   xmlns:dc="http://purl.org/dc/elements/1.1/"
   xmlns:cc="http://creativecommons.org/ns#"
   xmlns:rdf="http://www.w3.org/1999/02/22-rdf-syntax-ns#"
   xmlns:svg="http://www.w3.org/2000/svg"
   xmlns="http://www.w3.org/2000/svg"
   version="1.0"
   width="100"
   height="66"
   id="svg2457">
  <metadata
     id="metadata2462">
    <rdf:RDF>
      <cc:Work
         rdf:about="">
        <dc:format>image/svg+xml</dc:format>
        <dc:type
           rdf:resource="http://purl.org/dc/dcmitype/StillImage" />
        <dc:title></dc:title>
      </cc:Work>
    </rdf:RDF>
  </metadata>
  <defs
     id="defs2460" />
  <path
     d="m 3.1126245,39.940856 c 17.3355985,1.173421 47.1452295,22.873125 47.6552025,23.305453 1e-6,0 25.295734,-19.477048 47.344797,-23.680453 C 98.249798,39.539705 98.229681,4.9869097 98.229681,4.9869097 76.010723,6.9892767 50.878431,26.373213 50.823223,26.239277 50.722575,25.995103 17.912538,6.1669784 2.9482235,6.1142767 2.8305145,6.1138622 3.1126245,39.940856 3.1126245,39.940856 z"
     id="path2485"
     style="fill:#636a3e;fill-opacity:1;fill-rule:evenodd;stroke:none" />
  <path
     d="m 6.5102665,20.601487 c 14.3129565,1.57529 44.3129565,21.57529 44.3129565,21.57529 1e-6,10e-7 19.737973,-16.381983 42.33172,-21.82529 0.120511,-0.02903 0.129246,-7.640831 0.129246,-7.640831 -22.460966,5.466121 -42.410722,21.092826 -42.460966,20.958786 -0.0916,-0.244363 -27,-18.492665 -44.1954815,-20.956417 -0.106097,-0.0152 -0.117475,7.888462 -0.117475,7.888462 z"
     id="path2489"
     style="fill:#d0d1a9;fill-opacity:1;fill-rule:evenodd;stroke:none" />
  <path
     d="m 6.5102665,35.226487 c 14.3129565,1.57529 44.3129565,21.57529 44.3129565,21.57529 11.176972,-7.532306 22.954838,-17.14299 42.39422,-21.57529 0.178168,-0.04062 0.06675,-7.890831 0.06675,-7.890831 -22.460966,5.466121 -42.410722,21.092826 -42.460966,20.958786 -0.0916,-0.244363 -27,-18.492665 -44.1954815,-20.956417 -0.106097,-0.0152 -0.117475,7.888462 -0.117475,7.888462 z"
     id="path2491"
     style="fill:#d0d1a9;fill-opacity:1;fill-rule:evenodd;stroke:none" />
</svg>
