<?xml version="1.0" encoding="UTF-8" standalone="no"?>
<!-- Created with Inkscape (http://www.inkscape.org/) -->
<svg xmlns:dc="http://purl.org/dc/elements/1.1/" xmlns:cc="http://creativecommons.org/ns#" xmlns:rdf="http://www.w3.org/1999/02/22-rdf-syntax-ns#" xmlns:svg="http://www.w3.org/2000/svg" xmlns="http://www.w3.org/2000/svg" version="1.0" width="100" height="76" id="svg2457">
  <metadata id="metadata2462">
    <rdf:RDF>
      <cc:Work rdf:about="">
        <dc:format>image/svg+xml</dc:format>
        <dc:type rdf:resource="http://purl.org/dc/dcmitype/StillImage"/>
        <dc:title/>
      </cc:Work>
    </rdf:RDF>
  </metadata>
  <defs id="defs2460"/>
  <path d="M 2.1583804,51.284758 C 19.493979,52.458179 50.286329,74.117462 49.813583,74.590211 49.636808,74.766988 75.109317,55.113163 97.15838,50.909758 97.295554,50.883607 97.452214,1.1280148 97.452214,1.1280148 75.233256,3.1303818 50.100964,22.514319 50.045756,22.380383 49.945108,22.136209 17.135071,2.3080835 2.1707561,2.2553818 2.0530471,2.2549673 2.1583804,51.284758 2.1583804,51.284758 z" id="path2485" style="fill:#636a3e;fill-opacity:1;fill-rule:evenodd;stroke:none"/>
  <path d="m 5.7327991,16.742593 c 14.3129569,1.57529 44.3129569,21.57529 44.3129569,21.57529 1e-6,10e-7 19.737973,-16.381983 42.33172,-21.82529 0.120511,-0.02903 0.129246,-7.6408319 0.129246,-7.6408319 C 70.045756,14.317883 50.096,29.944588 50.045756,29.810548 c -0.0916,-0.244363 -27,-18.492665 -44.1954819,-20.9564179 -0.106097,-0.015201 -0.117475,7.8884629 -0.117475,7.8884629 z" id="path2489" style="fill:#d0d1a9;fill-opacity:1;fill-rule:evenodd;stroke:none"/>
  <path d="m 5.7327991,31.367593 c 14.3129569,1.57529 44.3129569,21.57529 44.3129569,21.57529 11.176972,-7.532306 22.954838,-17.14299 42.39422,-21.57529 0.178168,-0.04062 0.06675,-7.890831 0.06675,-7.890831 -22.46097,5.466121 -42.410726,21.092826 -42.46097,20.958786 -0.0916,-0.244363 -27,-18.492665 -44.1954819,-20.956417 -0.106097,-0.0152 -0.117475,7.888462 -0.117475,7.888462 z" id="path2491" style="fill:#d0d1a9;fill-opacity:1;fill-rule:evenodd;stroke:none"/>
  <path d="m 5.8461723,45.576158 c 14.3129567,1.57529 44.3129567,21.57529 44.3129567,21.57529 11.176972,-7.532306 22.954838,-17.14299 42.39422,-21.57529 0.178168,-0.04062 0.06675,-7.890831 0.06675,-7.890831 -22.460966,5.466121 -42.410722,21.092826 -42.460966,20.958786 -0.0916,-0.244363 -27,-18.492665 -44.1954817,-20.956417 -0.106097,-0.0152 -0.117475,7.888462 -0.117475,7.888462 z" id="path4891" style="fill:#d0d1a9;fill-opacity:1;fill-rule:evenodd;stroke:none"/>
</svg>