<?xml version="1.0" encoding="UTF-8" standalone="no"?>
<!-- Created with Inkscape (http://www.inkscape.org/) -->

<svg
   xmlns:dc="http://purl.org/dc/elements/1.1/"
   xmlns:cc="http://creativecommons.org/ns#"
   xmlns:rdf="http://www.w3.org/1999/02/22-rdf-syntax-ns#"
   xmlns:svg="http://www.w3.org/2000/svg"
   xmlns="http://www.w3.org/2000/svg"
   version="1.0"
   width="100"
   height="95"
   id="svg2457">
  <metadata
     id="metadata2462">
    <rdf:RDF>
      <cc:Work
         rdf:about="">
        <dc:format>image/svg+xml</dc:format>
        <dc:type
           rdf:resource="http://purl.org/dc/dcmitype/StillImage" />
        <dc:title></dc:title>
      </cc:Work>
    </rdf:RDF>
  </metadata>
  <defs
     id="defs2460" />
  <path
     d="M 2.1583804,70.284758 C 19.493979,71.458179 50.286329,93.117462 49.813583,93.590211 49.636808,93.766988 75.109317,74.113163 97.15838,69.909758 97.295554,69.883607 97.452214,20.128015 97.452214,20.128015 75.233256,22.130382 50.100964,41.514319 50.045756,41.380383 49.945108,41.136209 17.135071,21.308084 2.1707561,21.255382 2.0530471,21.254967 2.1583804,70.284758 2.1583804,70.284758 z"
     id="path2485"
     style="fill:#636a3e;fill-opacity:1;fill-rule:evenodd;stroke:none" />
  <path
     d="m 5.7327991,35.742593 c 14.3129569,1.57529 44.3129569,21.57529 44.3129569,21.57529 1e-6,10e-7 19.737973,-16.381983 42.33172,-21.82529 0.120511,-0.02903 0.129246,-7.640832 0.129246,-7.640832 C 70.045756,33.317883 50.096,48.944588 50.045756,48.810548 c -0.0916,-0.244363 -27,-18.492665 -44.1954819,-20.956418 -0.106097,-0.0152 -0.117475,7.888463 -0.117475,7.888463 z"
     id="path2489"
     style="fill:#d0d1a9;fill-opacity:1;fill-rule:evenodd;stroke:none" />
  <path
     d="m 5.7327991,50.367593 c 14.3129569,1.57529 44.3129569,21.57529 44.3129569,21.57529 11.176972,-7.532306 22.954838,-17.14299 42.39422,-21.57529 0.178168,-0.04062 0.06675,-7.890831 0.06675,-7.890831 -22.46097,5.466121 -42.410726,21.092826 -42.46097,20.958786 -0.0916,-0.244363 -27,-18.492665 -44.1954819,-20.956417 -0.106097,-0.0152 -0.117475,7.888462 -0.117475,7.888462 z"
     id="path2491"
     style="fill:#d0d1a9;fill-opacity:1;fill-rule:evenodd;stroke:none" />
  <path
     d="m 5.8461723,64.576158 c 14.3129567,1.57529 44.3129567,21.57529 44.3129567,21.57529 11.176972,-7.532306 22.954838,-17.14299 42.39422,-21.57529 0.178168,-0.04062 0.06675,-7.890831 0.06675,-7.890831 -22.460966,5.466121 -42.410722,21.092826 -42.460966,20.958786 -0.0916,-0.244363 -27,-18.492665 -44.1954817,-20.956417 -0.106097,-0.0152 -0.117475,7.888462 -0.117475,7.888462 z"
     id="path4891"
     style="fill:#d0d1a9;fill-opacity:1;fill-rule:evenodd;stroke:none" />
  <g
     transform="matrix(0.15882026,0,0,0.15882026,33.107494,1.497096)"
     id="g3306">
    <path
       d="m 84.656254,3.8805619 0,34.5513801 c -8.442274,-3.203643 -19.074818,-5.875 -31.218754,-5.875 -26.97896,0 -51.78125,20.307176 -51.78125,51.78125 0,32.863298 30.71792,60.693718 41.9375,88.593748 8.28647,20.60618 35.886236,23.1875 61.40625,23.1875 25.52002,0 53.11978,-2.58132 61.40625,-23.1875 11.21958,-27.90003 41.9375,-55.73045 41.9375,-88.593748 0,-31.474074 -24.80228,-51.78125 -51.78125,-51.78125 -12.15183,0 -22.80514,2.668577 -31.25,5.875 l 0,-34.5513801 -40.656246,0 z"
       id="rect4368"
       style="fill:#636b3e;fill-opacity:1;fill-rule:nonzero;stroke:none" />
    <g
       transform="translate(158.745,106.588)"
       id="g3997">
      <g
         id="g3942">
        <path
           d="m -100.34375,-54.78125 c -18.53289,0 -32.34375,15.101846 -32.34375,31.46875 0,15.549802 7.71751,25.9582241 10.8125,29.9375 l 7.09375,-5.53125 c -2.89653,-3.7241138 -8.90625,-11.771894 -8.90625,-24.40625 0,-11.270938 9.71464,-22.46875 23.34375,-22.46875 22.392431,0 38.0625,15.96875 38.0625,15.96875 l 6.46875,-6.28125 c 0,0 -17.896451,-18.6875 -44.53125,-18.6875 z"
           id="path3863"
           style="font-size:medium;font-style:normal;font-variant:normal;font-weight:normal;font-stretch:normal;text-indent:0;text-align:start;text-decoration:none;line-height:normal;letter-spacing:normal;word-spacing:normal;text-transform:none;direction:ltr;block-progression:tb;writing-mode:lr-tb;text-anchor:start;color:#000000;fill:#b5b690;fill-opacity:1;stroke:#636b3e;stroke-width:1;stroke-miterlimit:4;stroke-opacity:1;stroke-dasharray:none;marker:none;visibility:visible;display:inline;overflow:visible;enable-background:accumulate;font-family:Bitstream Vera Sans;-inkscape-font-specification:Bitstream Vera Sans" />
        <g
           id="g3927">
          <path
             d="m -47.504237,-46.96928 a 5.8845339,5.8845339 0 1 1 -11.769068,0 5.8845339,5.8845339 0 1 1 11.769068,0 z"
             transform="matrix(0.818182,0,0,0.818182,-87.7039,39.0714)"
             id="path3869"
             style="fill:#b5b690;fill-opacity:1;stroke:#636b3e;stroke-width:1.22222221;stroke-linecap:round;stroke-linejoin:round;stroke-miterlimit:4;stroke-opacity:1;stroke-dasharray:none;stroke-dashoffset:0" />
          <path
             d="m -47.504237,-46.96928 a 5.8845339,5.8845339 0 1 1 -11.769068,0 5.8845339,5.8845339 0 1 1 11.769068,0 z"
             transform="matrix(0.818182,0,0,0.818182,-91.6626,30.405)"
             id="path3873"
             style="fill:#b5b690;fill-opacity:1;stroke:#636b3e;stroke-width:1.22222221;stroke-linecap:round;stroke-linejoin:round;stroke-miterlimit:4;stroke-opacity:1;stroke-dasharray:none;stroke-dashoffset:0" />
          <path
             d="m -47.504237,-46.96928 a 5.8845339,5.8845339 0 1 1 -11.769068,0 5.8845339,5.8845339 0 1 1 11.769068,0 z"
             transform="matrix(0.818182,0,0,0.818182,-93.5884,20.9898)"
             id="path3875"
             style="fill:#b5b690;fill-opacity:1;stroke:#636b3e;stroke-width:1.22222221;stroke-linecap:round;stroke-linejoin:round;stroke-miterlimit:4;stroke-opacity:1;stroke-dasharray:none;stroke-dashoffset:0" />
          <path
             d="m -47.504237,-46.96928 a 5.8845339,5.8845339 0 1 1 -11.769068,0 5.8845339,5.8845339 0 1 1 11.769068,0 z"
             transform="matrix(0.818182,0,0,0.818182,-93.9094,11.2536)"
             id="path3877"
             style="fill:#b5b690;fill-opacity:1;stroke:#636b3e;stroke-width:1.22222221;stroke-linecap:round;stroke-linejoin:round;stroke-miterlimit:4;stroke-opacity:1;stroke-dasharray:none;stroke-dashoffset:0" />
          <path
             d="m -47.504237,-46.96928 a 5.8845339,5.8845339 0 1 1 -11.769068,0 5.8845339,5.8845339 0 1 1 11.769068,0 z"
             transform="matrix(0.818182,0,0,0.818182,-91.4486,1.9453)"
             id="path3879"
             style="fill:#b5b690;fill-opacity:1;stroke:#636b3e;stroke-width:1.22222221;stroke-linecap:round;stroke-linejoin:round;stroke-miterlimit:4;stroke-opacity:1;stroke-dasharray:none;stroke-dashoffset:0" />
          <path
             d="m -47.504237,-46.96928 a 5.8845339,5.8845339 0 1 1 -11.769068,0 5.8845339,5.8845339 0 1 1 11.769068,0 z"
             transform="matrix(0.818182,0,0,0.818182,-86.527,-6.40004)"
             id="path3881"
             style="fill:#b5b690;fill-opacity:1;stroke:#636b3e;stroke-width:1.22222221;stroke-linecap:round;stroke-linejoin:round;stroke-miterlimit:4;stroke-opacity:1;stroke-dasharray:none;stroke-dashoffset:0" />
          <path
             d="m -47.504237,-46.96928 a 5.8845339,5.8845339 0 1 1 -11.769068,0 5.8845339,5.8845339 0 1 1 11.769068,0 z"
             transform="matrix(0.818182,0,0,0.818182,-79.7865,-13.4615)"
             id="path3883"
             style="fill:#b5b690;fill-opacity:1;stroke:#636b3e;stroke-width:1.22222221;stroke-linecap:round;stroke-linejoin:round;stroke-miterlimit:4;stroke-opacity:1;stroke-dasharray:none;stroke-dashoffset:0" />
          <path
             d="m -47.504237,-46.96928 a 5.8845339,5.8845339 0 1 1 -11.769068,0 5.8845339,5.8845339 0 1 1 11.769068,0 z"
             transform="matrix(0.818182,0,0,0.818182,-71.3342,-18.2761)"
             id="path3885"
             style="fill:#b5b690;fill-opacity:1;stroke:#636b3e;stroke-width:1.22222221;stroke-linecap:round;stroke-linejoin:round;stroke-miterlimit:4;stroke-opacity:1;stroke-dasharray:none;stroke-dashoffset:0" />
          <path
             d="m -47.504237,-46.96928 a 5.8845339,5.8845339 0 1 1 -11.769068,0 5.8845339,5.8845339 0 1 1 11.769068,0 z"
             transform="matrix(0.818182,0,0,0.818182,-61.8119,-20.7369)"
             id="path3887"
             style="fill:#b5b690;fill-opacity:1;stroke:#636b3e;stroke-width:1.22222221;stroke-linecap:round;stroke-linejoin:round;stroke-miterlimit:4;stroke-opacity:1;stroke-dasharray:none;stroke-dashoffset:0" />
          <path
             d="m -47.504237,-46.96928 a 5.8845339,5.8845339 0 1 1 -11.769068,0 5.8845339,5.8845339 0 1 1 11.769068,0 z"
             transform="matrix(0.818182,0,0,0.818182,-52.0757,-20.9509)"
             id="path3889"
             style="fill:#b5b690;fill-opacity:1;stroke:#636b3e;stroke-width:1.22222221;stroke-linecap:round;stroke-linejoin:round;stroke-miterlimit:4;stroke-opacity:1;stroke-dasharray:none;stroke-dashoffset:0" />
          <path
             d="m -47.504237,-46.96928 a 5.8845339,5.8845339 0 1 1 -11.769068,0 5.8845339,5.8845339 0 1 1 11.769068,0 z"
             transform="matrix(0.818182,0,0,0.818182,-42.4464,-19.56)"
             id="path3891"
             style="fill:#b5b690;fill-opacity:1;stroke:#636b3e;stroke-width:1.22222221;stroke-linecap:round;stroke-linejoin:round;stroke-miterlimit:4;stroke-opacity:1;stroke-dasharray:none;stroke-dashoffset:0" />
          <path
             d="m -47.504237,-46.96928 a 5.8845339,5.8845339 0 1 1 -11.769068,0 5.8845339,5.8845339 0 1 1 11.769068,0 z"
             transform="matrix(0.818182,0,0,0.818182,-33.1382,-16.6712)"
             id="path3893"
             style="fill:#b5b690;fill-opacity:1;stroke:#636b3e;stroke-width:1.22222221;stroke-linecap:round;stroke-linejoin:round;stroke-miterlimit:4;stroke-opacity:1;stroke-dasharray:none;stroke-dashoffset:0" />
          <path
             d="m -47.504237,-46.96928 a 5.8845339,5.8845339 0 1 1 -11.769068,0 5.8845339,5.8845339 0 1 1 11.769068,0 z"
             transform="matrix(0.818182,0,0,0.818182,-24.2579,-12.6055)"
             id="path3895"
             style="fill:#b5b690;fill-opacity:1;stroke:#636b3e;stroke-width:1.22222221;stroke-linecap:round;stroke-linejoin:round;stroke-miterlimit:4;stroke-opacity:1;stroke-dasharray:none;stroke-dashoffset:0" />
        </g>
      </g>
      <g
         transform="matrix(-1,0,0,1,-107.489,0)"
         id="g3965">
        <path
           d="m -100.34375,-54.78125 c -18.53289,0 -32.34375,15.101846 -32.34375,31.46875 0,15.549802 7.71751,25.9582241 10.8125,29.9375 l 7.09375,-5.53125 c -2.89653,-3.7241138 -8.90625,-11.771894 -8.90625,-24.40625 0,-11.270938 9.71464,-22.46875 23.34375,-22.46875 22.392431,0 38.0625,15.96875 38.0625,15.96875 l 6.46875,-6.28125 c 0,0 -17.896451,-18.6875 -44.53125,-18.6875 z"
           id="path3967"
           style="font-size:medium;font-style:normal;font-variant:normal;font-weight:normal;font-stretch:normal;text-indent:0;text-align:start;text-decoration:none;line-height:normal;letter-spacing:normal;word-spacing:normal;text-transform:none;direction:ltr;block-progression:tb;writing-mode:lr-tb;text-anchor:start;color:#000000;fill:#b5b690;fill-opacity:1;stroke:#636b3e;stroke-width:1;stroke-miterlimit:4;stroke-opacity:1;stroke-dasharray:none;marker:none;visibility:visible;display:inline;overflow:visible;enable-background:accumulate;font-family:Bitstream Vera Sans;-inkscape-font-specification:Bitstream Vera Sans" />
        <g
           id="g3969">
          <path
             d="m -47.504237,-46.96928 a 5.8845339,5.8845339 0 1 1 -11.769068,0 5.8845339,5.8845339 0 1 1 11.769068,0 z"
             transform="matrix(0.818182,0,0,0.818182,-87.7039,39.0714)"
             id="path3971"
             style="fill:#b5b690;fill-opacity:1;stroke:#636b3e;stroke-width:1.22222221;stroke-linecap:round;stroke-linejoin:round;stroke-miterlimit:4;stroke-opacity:1;stroke-dasharray:none;stroke-dashoffset:0" />
          <path
             d="m -47.504237,-46.96928 a 5.8845339,5.8845339 0 1 1 -11.769068,0 5.8845339,5.8845339 0 1 1 11.769068,0 z"
             transform="matrix(0.818182,0,0,0.818182,-91.6626,30.405)"
             id="path3973"
             style="fill:#b5b690;fill-opacity:1;stroke:#636b3e;stroke-width:1.22222221;stroke-linecap:round;stroke-linejoin:round;stroke-miterlimit:4;stroke-opacity:1;stroke-dasharray:none;stroke-dashoffset:0" />
          <path
             d="m -47.504237,-46.96928 a 5.8845339,5.8845339 0 1 1 -11.769068,0 5.8845339,5.8845339 0 1 1 11.769068,0 z"
             transform="matrix(0.818182,0,0,0.818182,-93.5884,20.9898)"
             id="path3975"
             style="fill:#b5b690;fill-opacity:1;stroke:#636b3e;stroke-width:1.22222221;stroke-linecap:round;stroke-linejoin:round;stroke-miterlimit:4;stroke-opacity:1;stroke-dasharray:none;stroke-dashoffset:0" />
          <path
             d="m -47.504237,-46.96928 a 5.8845339,5.8845339 0 1 1 -11.769068,0 5.8845339,5.8845339 0 1 1 11.769068,0 z"
             transform="matrix(0.818182,0,0,0.818182,-93.9094,11.2536)"
             id="path3977"
             style="fill:#b5b690;fill-opacity:1;stroke:#636b3e;stroke-width:1.22222221;stroke-linecap:round;stroke-linejoin:round;stroke-miterlimit:4;stroke-opacity:1;stroke-dasharray:none;stroke-dashoffset:0" />
          <path
             d="m -47.504237,-46.96928 a 5.8845339,5.8845339 0 1 1 -11.769068,0 5.8845339,5.8845339 0 1 1 11.769068,0 z"
             transform="matrix(0.818182,0,0,0.818182,-91.4486,1.9453)"
             id="path3979"
             style="fill:#b5b690;fill-opacity:1;stroke:#636b3e;stroke-width:1.22222221;stroke-linecap:round;stroke-linejoin:round;stroke-miterlimit:4;stroke-opacity:1;stroke-dasharray:none;stroke-dashoffset:0" />
          <path
             d="m -47.504237,-46.96928 a 5.8845339,5.8845339 0 1 1 -11.769068,0 5.8845339,5.8845339 0 1 1 11.769068,0 z"
             transform="matrix(0.818182,0,0,0.818182,-86.527,-6.40004)"
             id="path3981"
             style="fill:#b5b690;fill-opacity:1;stroke:#636b3e;stroke-width:1.22222221;stroke-linecap:round;stroke-linejoin:round;stroke-miterlimit:4;stroke-opacity:1;stroke-dasharray:none;stroke-dashoffset:0" />
          <path
             d="m -47.504237,-46.96928 a 5.8845339,5.8845339 0 1 1 -11.769068,0 5.8845339,5.8845339 0 1 1 11.769068,0 z"
             transform="matrix(0.818182,0,0,0.818182,-79.7865,-13.4615)"
             id="path3983"
             style="fill:#b5b690;fill-opacity:1;stroke:#636b3e;stroke-width:1.22222221;stroke-linecap:round;stroke-linejoin:round;stroke-miterlimit:4;stroke-opacity:1;stroke-dasharray:none;stroke-dashoffset:0" />
          <path
             d="m -47.504237,-46.96928 a 5.8845339,5.8845339 0 1 1 -11.769068,0 5.8845339,5.8845339 0 1 1 11.769068,0 z"
             transform="matrix(0.818182,0,0,0.818182,-71.3342,-18.2761)"
             id="path3985"
             style="fill:#b5b690;fill-opacity:1;stroke:#636b3e;stroke-width:1.22222221;stroke-linecap:round;stroke-linejoin:round;stroke-miterlimit:4;stroke-opacity:1;stroke-dasharray:none;stroke-dashoffset:0" />
          <path
             d="m -47.504237,-46.96928 a 5.8845339,5.8845339 0 1 1 -11.769068,0 5.8845339,5.8845339 0 1 1 11.769068,0 z"
             transform="matrix(0.818182,0,0,0.818182,-61.8119,-20.7369)"
             id="path3987"
             style="fill:#b5b690;fill-opacity:1;stroke:#636b3e;stroke-width:1.22222221;stroke-linecap:round;stroke-linejoin:round;stroke-miterlimit:4;stroke-opacity:1;stroke-dasharray:none;stroke-dashoffset:0" />
          <path
             d="m -47.504237,-46.96928 a 5.8845339,5.8845339 0 1 1 -11.769068,0 5.8845339,5.8845339 0 1 1 11.769068,0 z"
             transform="matrix(0.818182,0,0,0.818182,-52.0757,-20.9509)"
             id="path3989"
             style="fill:#b5b690;fill-opacity:1;stroke:#636b3e;stroke-width:1.22222221;stroke-linecap:round;stroke-linejoin:round;stroke-miterlimit:4;stroke-opacity:1;stroke-dasharray:none;stroke-dashoffset:0" />
          <path
             d="m -47.504237,-46.96928 a 5.8845339,5.8845339 0 1 1 -11.769068,0 5.8845339,5.8845339 0 1 1 11.769068,0 z"
             transform="matrix(0.818182,0,0,0.818182,-42.4464,-19.56)"
             id="path3991"
             style="fill:#b5b690;fill-opacity:1;stroke:#636b3e;stroke-width:1.22222221;stroke-linecap:round;stroke-linejoin:round;stroke-miterlimit:4;stroke-opacity:1;stroke-dasharray:none;stroke-dashoffset:0" />
          <path
             d="m -47.504237,-46.96928 a 5.8845339,5.8845339 0 1 1 -11.769068,0 5.8845339,5.8845339 0 1 1 11.769068,0 z"
             transform="matrix(0.818182,0,0,0.818182,-33.1382,-16.6712)"
             id="path3993"
             style="fill:#b5b690;fill-opacity:1;stroke:#636b3e;stroke-width:1.22222221;stroke-linecap:round;stroke-linejoin:round;stroke-miterlimit:4;stroke-opacity:1;stroke-dasharray:none;stroke-dashoffset:0" />
          <path
             d="m -47.504237,-46.96928 a 5.8845339,5.8845339 0 1 1 -11.769068,0 5.8845339,5.8845339 0 1 1 11.769068,0 z"
             transform="matrix(0.818182,0,0,0.818182,-24.2579,-12.6055)"
             id="path3995"
             style="fill:#b5b690;fill-opacity:1;stroke:#636b3e;stroke-width:1.22222221;stroke-linecap:round;stroke-linejoin:round;stroke-miterlimit:4;stroke-opacity:1;stroke-dasharray:none;stroke-dashoffset:0" />
        </g>
      </g>
    </g>
    <path
       d="m 103.45046,114.71319 c -5.261269,16.04099 -25.228566,12.81976 -30.170602,3 l -5.195541,1.28125 c -2.925845,15.03351 -20.542347,17.00997 -27.466487,7.71875 l -3.12948,2.78125 c 8.11388,9.53086 14.98257,22.7614 20.59987,35.09375 l 93.82357,0 c 5.6173,-12.33235 12.48599,-25.56289 20.59987,-35.09375 l -3.12948,-2.78125 c -6.92414,9.29122 -24.51026,7.31476 -27.43611,-7.71875 l -5.22592,-1.28125 c -4.94204,9.81976 -24.87895,13.04099 -30.14022,-3 l -3.12947,0 z"
       id="path3616"
       style="fill:#b5b690;fill-opacity:1;stroke:#636b3e;stroke-width:1;stroke-linecap:square;stroke-linejoin:miter;stroke-miterlimit:4;stroke-opacity:1;stroke-dasharray:none;stroke-dashoffset:0" />
    <path
       d="m 72.540255,85.860703 a 19.418962,2.4073093 0 1 1 -38.837925,0 19.418962,2.4073093 0 1 1 38.837925,0 z"
       transform="matrix(2.85126,0,0,7.38976,-46.4627,-464.872)"
       id="path3592"
       style="fill:#b5b690;fill-opacity:1;stroke:#636b3e;stroke-width:0.21785444;stroke-linecap:square;stroke-linejoin:miter;stroke-miterlimit:4;stroke-opacity:1;stroke-dasharray:none;stroke-dashoffset:0" />
    <path
       d="m 72.540255,85.860703 a 19.418962,2.4073093 0 1 1 -38.837925,0 19.418962,2.4073093 0 1 1 38.837925,0 z"
       transform="matrix(2.04134,0,0,2.94531,-3.43883,-77.2774)"
       id="path2818"
       style="fill:none;stroke:#636b3e;stroke-width:0.4078272;stroke-linecap:square;stroke-linejoin:miter;stroke-miterlimit:4;stroke-opacity:1;stroke-dasharray:none;stroke-dashoffset:0" />
    <path
       d="m -49.216101,53.709747 a 4.2796612,4.2796612 0 1 1 -8.559322,0 4.2796612,4.2796612 0 1 1 8.559322,0 z"
       transform="translate(158.496,105.732)"
       id="path3594"
       style="fill:none;stroke:#636b3e;stroke-width:1;stroke-linecap:square;stroke-linejoin:miter;stroke-miterlimit:4;stroke-opacity:1;stroke-dasharray:none;stroke-dashoffset:0" />
    <path
       d="m -49.216101,53.709747 a 4.2796612,4.2796612 0 1 1 -8.559322,0 4.2796612,4.2796612 0 1 1 8.559322,0 z"
       transform="translate(134.637,107.23)"
       id="path3596"
       style="fill:none;stroke:#636b3e;stroke-width:1;stroke-linecap:square;stroke-linejoin:miter;stroke-miterlimit:4;stroke-opacity:1;stroke-dasharray:none;stroke-dashoffset:0" />
    <path
       d="m -49.216101,53.709747 a 4.2796612,4.2796612 0 1 1 -8.559322,0 4.2796612,4.2796612 0 1 1 8.559322,0 z"
       transform="translate(182.355,107.23)"
       id="path3600"
       style="fill:none;stroke:#636b3e;stroke-width:1;stroke-linecap:square;stroke-linejoin:miter;stroke-miterlimit:4;stroke-opacity:1;stroke-dasharray:none;stroke-dashoffset:0" />
    <path
       d="m -49.216101,53.709747 a 4.2796612,4.2796612 0 1 1 -8.559322,0 4.2796612,4.2796612 0 1 1 8.559322,0 z"
       transform="translate(115.271,111.938)"
       id="path3598"
       style="fill:none;stroke:#636b3e;stroke-width:1;stroke-linecap:square;stroke-linejoin:miter;stroke-miterlimit:4;stroke-opacity:1;stroke-dasharray:none;stroke-dashoffset:0" />
    <path
       d="m -49.216101,53.709747 a 4.2796612,4.2796612 0 1 1 -8.559322,0 4.2796612,4.2796612 0 1 1 8.559322,0 z"
       transform="translate(201.72,111.938)"
       id="path3602"
       style="fill:none;stroke:#636b3e;stroke-width:1;stroke-linecap:square;stroke-linejoin:miter;stroke-miterlimit:4;stroke-opacity:1;stroke-dasharray:none;stroke-dashoffset:0" />
    <path
       d="m 40.5222,132.83819 c 4.60706,3.53744 10.64718,4.74287 16.28125,3.53125 6.327586,-1.36076 12.283699,-6.0293 14.84375,-13.34375 3.981695,4.71738 10.182647,7.34671 16.59375,7.375 6.16466,0.0272 12.7092,-2.86492 16.78125,-8.84375 4.06969,5.97185 10.62435,8.87095 16.78125,8.84375 6.43477,-0.0284 12.61819,-2.68075 16.59375,-7.4375 2.54693,7.34477 8.47392,12.04128 14.8125,13.40625 5.62961,1.2123 11.67701,0.006 16.28125,-3.53125"
       id="path2820"
       style="font-size:medium;font-style:normal;font-variant:normal;font-weight:normal;font-stretch:normal;text-indent:0;text-align:start;text-decoration:none;line-height:normal;letter-spacing:normal;word-spacing:normal;text-transform:none;direction:ltr;block-progression:tb;writing-mode:lr-tb;text-anchor:start;color:#000000;fill:none;stroke:#636b3e;stroke-width:1;stroke-linecap:round;stroke-linejoin:round;stroke-miterlimit:4;stroke-opacity:1;stroke-dasharray:none;marker:none;visibility:visible;display:inline;overflow:visible;enable-background:accumulate;font-family:Bitstream Vera Sans;-inkscape-font-specification:Bitstream Vera Sans" />
    <path
       d="M 49.25031,147.06475 C 63.532585,139.77107 83.2382,135.26192 105,135.26192 c 21.74421,0 41.43556,4.50187 55.71505,11.78514"
       id="path3599"
       style="fill:none;stroke:#636b3e;stroke-width:1;stroke-linecap:round;stroke-linejoin:round;stroke-miterlimit:4;stroke-opacity:1;stroke-dasharray:none;stroke-dashoffset:0" />
    <path
       d="M 47.28842,143.72319 C 62.143769,135.84336 82.519473,130.98226 105,130.98226 c 22.46838,0 42.83421,4.85585 57.68749,12.72816"
       id="path3601"
       style="fill:none;stroke:#636b3e;stroke-width:1;stroke-linecap:round;stroke-linejoin:round;stroke-miterlimit:4;stroke-opacity:1;stroke-dasharray:none;stroke-dashoffset:0" />
    <path
       d="M 50.4793,149.58984 C 64.059258,142.61956 83.460075,138.25768 105,138.25768 c 21.52928,0 40.92155,4.35756 54.50055,11.32182"
       id="path3613"
       style="fill:none;stroke:#636b3e;stroke-width:1;stroke-linecap:round;stroke-linejoin:round;stroke-miterlimit:4;stroke-opacity:1;stroke-dasharray:none;stroke-dashoffset:0" />
    <path
       d="m -73.182201,38.409958 a 8.0243645,5.4565678 0 1 1 -16.048729,0 8.0243645,5.4565678 0 1 1 16.048729,0 z"
       transform="matrix(0.98464,-0.174599,0.174599,0.98464,150.317,92.5716)"
       id="path3621"
       style="fill:#b5b690;fill-opacity:1;stroke:#636b3e;stroke-width:1;stroke-linecap:round;stroke-linejoin:round;stroke-miterlimit:4;stroke-opacity:1;stroke-dasharray:none;stroke-dashoffset:0" />
    <path
       d="m -73.182201,38.409958 a 8.0243645,5.4565678 0 1 1 -16.048729,0 8.0243645,5.4565678 0 1 1 16.048729,0 z"
       transform="matrix(0.877063,-0.350328,0.350721,0.876082,112.348,90.0784)"
       id="path3623"
       style="fill:#b5b690;fill-opacity:1;stroke:#636b3e;stroke-width:1.05925667;stroke-linecap:round;stroke-linejoin:round;stroke-miterlimit:4;stroke-opacity:1;stroke-dasharray:none;stroke-dashoffset:0" />
    <path
       d="m -73.182201,38.409958 a 8.0243645,5.4565678 0 1 1 -16.048729,0 8.0243645,5.4565678 0 1 1 16.048729,0 z"
       transform="matrix(-0.98464,-0.174599,-0.174599,0.98464,59.6829,92.5716)"
       id="path3631"
       style="fill:#b5b690;fill-opacity:1;stroke:#636b3e;stroke-width:1;stroke-linecap:round;stroke-linejoin:round;stroke-miterlimit:4;stroke-opacity:1;stroke-dasharray:none;stroke-dashoffset:0" />
    <path
       d="m -73.182201,38.409958 a 8.0243645,5.4565678 0 1 1 -16.048729,0 8.0243645,5.4565678 0 1 1 16.048729,0 z"
       transform="matrix(-0.877063,-0.350328,-0.350721,0.876082,97.6518,90.0784)"
       id="path3633"
       style="fill:#b5b690;fill-opacity:1;stroke:#636b3e;stroke-width:1.05925667;stroke-linecap:round;stroke-linejoin:round;stroke-miterlimit:4;stroke-opacity:1;stroke-dasharray:none;stroke-dashoffset:0" />
    <rect
       width="19.044491"
       height="12.411017"
       x="95.47776"
       y="135.6899"
       id="rect3643"
       style="fill:#b5b690;fill-opacity:1;stroke:#636b3e;stroke-width:1;stroke-linecap:round;stroke-linejoin:round;stroke-miterlimit:4;stroke-opacity:1;stroke-dasharray:none;stroke-dashoffset:0" />
    <path
       d="m 89.748809,136.06435 1.575747,16.20922"
       id="path3645"
       style="fill:none;stroke:#636b3e;stroke-width:0.99999994;stroke-linecap:round;stroke-linejoin:round;stroke-miterlimit:4;stroke-opacity:1;stroke-dasharray:none;stroke-dashoffset:0" />
    <path
       d="m 62.932869,141.46743 5.56356,14.33686"
       id="path3647"
       style="fill:none;stroke:#636b3e;stroke-width:1;stroke-linecap:round;stroke-linejoin:round;stroke-miterlimit:4;stroke-opacity:1;stroke-dasharray:none;stroke-dashoffset:0" />
    <path
       d="m 120.2512,136.06435 -1.57575,16.20922"
       id="path3655"
       style="fill:none;stroke:#636b3e;stroke-width:0.99999994;stroke-linecap:round;stroke-linejoin:round;stroke-miterlimit:4;stroke-opacity:1;stroke-dasharray:none;stroke-dashoffset:0" />
    <path
       d="m 147.06714,141.46743 -5.56356,14.33686"
       id="path3657"
       style="fill:none;stroke:#636b3e;stroke-width:1;stroke-linecap:round;stroke-linejoin:round;stroke-miterlimit:4;stroke-opacity:1;stroke-dasharray:none;stroke-dashoffset:0" />
    <g
       transform="matrix(0.946404,-0.322986,0.322986,0.946404,363.461,16.3838)"
       id="g3702"
       style="fill:#b5b690;fill-opacity:1">
      <g
         transform="translate(0.189195,0)"
         id="g3696"
         style="fill:#b5b690;fill-opacity:1">
        <path
           d="m -295.65753,0.0769861 c -0.20445,-2.957431 -9.15092,-9.0516242 -12.55863,-2.4209419 l -2.57225,-7.8680612 c 4.59273,-6.033654 20.6036,-2.662595 15.13088,10.2890031 z"
           id="path3692"
           style="fill:#b5b690;fill-opacity:1;stroke:#636b3e;stroke-width:1;stroke-linecap:round;stroke-linejoin:round;stroke-miterlimit:4;stroke-opacity:1;stroke-dasharray:none;stroke-dashoffset:0" />
        <path
           d="m -325.09586,0.0769861 c 0.20445,-2.957431 9.15092,-9.0516242 12.55863,-2.4209419 l 2.57225,-7.8680612 c -4.59273,-6.033654 -20.6036,-2.662595 -15.13088,10.2890031 z"
           id="path3694"
           style="fill:#b5b690;fill-opacity:1;stroke:#636b3e;stroke-width:1;stroke-linecap:round;stroke-linejoin:round;stroke-miterlimit:4;stroke-opacity:1;stroke-dasharray:none;stroke-dashoffset:0" />
      </g>
      <path
         d="m -310.1875,-28.53125 c -3.03314,4.68252 -5.71875,10.03574 -5.71875,16.03125 0,4.712496 3.03125,7.6343983 3.03125,10.28125 l 2.6875,-0.71875 2.6875,0.71875 c 0,-2.6468517 3.03125,-5.568754 3.03125,-10.28125 0,-5.99551 -2.68561,-11.34873 -5.71875,-16.03125 z"
         id="path3687"
         style="fill:#b5b690;fill-opacity:1;stroke:#636b3e;stroke-width:1;stroke-linecap:round;stroke-linejoin:round;stroke-miterlimit:4;stroke-opacity:1;stroke-dasharray:none;stroke-dashoffset:0" />
      <path
         d="m -304.58474,-1.1334848 a 5.4471192,5.4471192 0 1 1 -10.89424,0 5.4471192,5.4471192 0 1 1 10.89424,0 z"
         transform="translate(-0.15564,0)"
         id="path3700"
         style="fill:#b5b690;fill-opacity:1;stroke:#636b3e;stroke-width:1;stroke-linecap:round;stroke-linejoin:round;stroke-miterlimit:4;stroke-opacity:1;stroke-dasharray:none;stroke-dashoffset:0" />
    </g>
    <g
       transform="matrix(-0.946404,-0.322986,-0.322986,0.946404,-153.159,16.3838)"
       id="g3721"
       style="fill:#b5b690;fill-opacity:1">
      <g
         transform="translate(0.189195,0)"
         id="g3723"
         style="fill:#b5b690;fill-opacity:1">
        <path
           d="m -295.65753,0.0769861 c -0.20445,-2.957431 -9.15092,-9.0516242 -12.55863,-2.4209419 l -2.57225,-7.8680612 c 4.59273,-6.033654 20.6036,-2.662595 15.13088,10.2890031 z"
           id="path3725"
           style="fill:#b5b690;fill-opacity:1;stroke:#636b3e;stroke-width:1;stroke-linecap:round;stroke-linejoin:round;stroke-miterlimit:4;stroke-opacity:1;stroke-dasharray:none;stroke-dashoffset:0" />
        <path
           d="m -325.09586,0.0769861 c 0.20445,-2.957431 9.15092,-9.0516242 12.55863,-2.4209419 l 2.57225,-7.8680612 c -4.59273,-6.033654 -20.6036,-2.662595 -15.13088,10.2890031 z"
           id="path3727"
           style="fill:#b5b690;fill-opacity:1;stroke:#636b3e;stroke-width:1;stroke-linecap:round;stroke-linejoin:round;stroke-miterlimit:4;stroke-opacity:1;stroke-dasharray:none;stroke-dashoffset:0" />
      </g>
      <path
         d="m -310.1875,-28.53125 c -3.03314,4.68252 -5.71875,10.03574 -5.71875,16.03125 0,4.712496 3.03125,7.6343983 3.03125,10.28125 l 2.6875,-0.71875 2.6875,0.71875 c 0,-2.6468517 3.03125,-5.568754 3.03125,-10.28125 0,-5.99551 -2.68561,-11.34873 -5.71875,-16.03125 z"
         id="path3729"
         style="fill:#b5b690;fill-opacity:1;stroke:#636b3e;stroke-width:1;stroke-linecap:round;stroke-linejoin:round;stroke-miterlimit:4;stroke-opacity:1;stroke-dasharray:none;stroke-dashoffset:0" />
      <path
         d="m -304.58474,-1.1334848 a 5.4471192,5.4471192 0 1 1 -10.89424,0 5.4471192,5.4471192 0 1 1 10.89424,0 z"
         transform="translate(-0.15564,0)"
         id="path3731"
         style="fill:#b5b690;fill-opacity:1;stroke:#636b3e;stroke-width:1;stroke-linecap:round;stroke-linejoin:round;stroke-miterlimit:4;stroke-opacity:1;stroke-dasharray:none;stroke-dashoffset:0" />
    </g>
    <g
       transform="matrix(0.871481,-0.49043,0.49043,0.871481,80.3244,96.6169)"
       id="g3769">
      <g
         transform="translate(0.570028,0)"
         id="g3771">
        <path
           d="m -52.211865,1.9971771 10.699153,-4.7789535 2.567796,0 0,14.3368604 -2.567797,0 -10.699152,-4.7789533 0,-4.7789536 z"
           id="path3773"
           style="fill:#b5b690;fill-opacity:1;fill-rule:nonzero;stroke:#636b3e;stroke-width:1;stroke-linecap:round;stroke-linejoin:round;stroke-miterlimit:4;stroke-opacity:1;stroke-dasharray:none;stroke-dashoffset:0" />
      </g>
      <path
         d="m -53.879923,2.9136404 -0.394153,-13.6578464 8.302788,-0.168928 0,2.5677967 -4.778954,10.6991517 -3.129681,0.559826 z"
         id="path3777"
         style="fill:#b5b690;fill-opacity:1;fill-rule:nonzero;stroke:#636b3e;stroke-width:1;stroke-linecap:round;stroke-linejoin:round;stroke-miterlimit:4;stroke-opacity:1;stroke-dasharray:none;stroke-dashoffset:0" />
      <path
         d="m -304.58474,-1.1334848 a 5.4471192,5.4471192 0 1 1 -10.89424,0 5.4471192,5.4471192 0 1 1 10.89424,0 z"
         transform="matrix(0.869844,-0.493328,0.493328,0.869844,217.099,-147.575)"
         id="path3779"
         style="fill:#b5b690;fill-opacity:1;stroke:#636b3e;stroke-width:1;stroke-linecap:round;stroke-linejoin:round;stroke-miterlimit:4;stroke-opacity:1;stroke-dasharray:none;stroke-dashoffset:0" />
    </g>
    <g
       transform="matrix(-0.871481,-0.49043,-0.49043,0.871481,127.514,96.6169)"
       id="g3781">
      <g
         transform="translate(0.570028,0)"
         id="g3783">
        <path
           d="m -52.211865,1.9971771 10.699153,-4.7789535 2.567796,0 0,14.3368604 -2.567797,0 -10.699152,-4.7789533 0,-4.7789536 z"
           id="path3785"
           style="fill:#b5b690;fill-opacity:1;fill-rule:nonzero;stroke:#636b3e;stroke-width:1;stroke-linecap:round;stroke-linejoin:round;stroke-miterlimit:4;stroke-opacity:1;stroke-dasharray:none;stroke-dashoffset:0" />
      </g>
      <path
         d="m -53.879923,2.9136404 -0.394153,-13.6578464 8.302788,-0.168928 0,2.5677967 -4.778954,10.6991517 -3.129681,0.559826 z"
         id="path3787"
         style="fill:#b5b690;fill-opacity:1;fill-rule:nonzero;stroke:#636b3e;stroke-width:1;stroke-linecap:round;stroke-linejoin:round;stroke-miterlimit:4;stroke-opacity:1;stroke-dasharray:none;stroke-dashoffset:0" />
      <path
         d="m -304.58474,-1.1334848 a 5.4471192,5.4471192 0 1 1 -10.89424,0 5.4471192,5.4471192 0 1 1 10.89424,0 z"
         transform="matrix(0.869844,-0.493328,0.493328,0.869844,217.099,-147.575)"
         id="path3789"
         style="fill:#b5b690;fill-opacity:1;stroke:#636b3e;stroke-width:1;stroke-linecap:round;stroke-linejoin:round;stroke-miterlimit:4;stroke-opacity:1;stroke-dasharray:none;stroke-dashoffset:0" />
    </g>
    <rect
       width="19.686441"
       height="44.294491"
       x="95.156784"
       y="53.306412"
       id="rect3853"
       style="fill:#b5b690;fill-opacity:1;stroke:#636b3e;stroke-width:1;stroke-linecap:round;stroke-linejoin:round;stroke-miterlimit:4;stroke-opacity:1;stroke-dasharray:none;stroke-dashoffset:0" />
    <path
       d="m -47.504237,-46.96928 a 5.8845339,5.8845339 0 1 1 -11.769068,0 5.8845339,5.8845339 0 1 1 11.769068,0 z"
       transform="matrix(0.818182,0,0,0.818182,148.682,129.932)"
       id="path3925"
       style="fill:#b5b690;fill-opacity:1;stroke:#636b3e;stroke-width:1.22222221;stroke-linecap:round;stroke-linejoin:round;stroke-miterlimit:4;stroke-opacity:1;stroke-dasharray:none;stroke-dashoffset:0" />
    <path
       d="m -47.504237,-46.96928 a 5.8845339,5.8845339 0 1 1 -11.769068,0 5.8845339,5.8845339 0 1 1 11.769068,0 z"
       transform="matrix(0.818182,0,0,0.818182,148.682,119.518)"
       id="path3959"
       style="fill:#b5b690;fill-opacity:1;stroke:#636b3e;stroke-width:1.22222221;stroke-linecap:round;stroke-linejoin:round;stroke-miterlimit:4;stroke-opacity:1;stroke-dasharray:none;stroke-dashoffset:0" />
    <path
       d="m -47.504237,-46.96928 a 5.8845339,5.8845339 0 1 1 -11.769068,0 5.8845339,5.8845339 0 1 1 11.769068,0 z"
       transform="matrix(0.818182,0,0,0.818182,148.682,109.104)"
       id="path3961"
       style="fill:#b5b690;fill-opacity:1;stroke:#636b3e;stroke-width:1.22222221;stroke-linecap:round;stroke-linejoin:round;stroke-miterlimit:4;stroke-opacity:1;stroke-dasharray:none;stroke-dashoffset:0" />
    <g
       transform="translate(161.278,106.588)"
       id="g3841">
      <g
         id="g3817">
        <g
           transform="matrix(0.831783,0,0,0.831783,-11.6027,-87.4171)"
           id="g3793">
          <path
             d="m -52.211865,1.9971771 10.699153,-4.7789535 2.567796,0 0,14.3368604 -2.567797,0 -10.699152,-4.7789533 0,-4.7789536 z"
             id="path3795"
             style="fill:#b5b690;fill-opacity:1;fill-rule:nonzero;stroke:#636b3e;stroke-width:1.20223594;stroke-linecap:round;stroke-linejoin:round;stroke-miterlimit:4;stroke-opacity:1;stroke-dasharray:none;stroke-dashoffset:0" />
          <path
             d="m -55.207628,1.9971771 -10.699153,-4.7789535 -2.567796,0 0,14.3368604 2.567797,0 10.699152,-4.7789533 0,-4.7789536 z"
             id="path3797"
             style="fill:#b5b690;fill-opacity:1;fill-rule:nonzero;stroke:#636b3e;stroke-width:1.20223594;stroke-linecap:round;stroke-linejoin:round;stroke-miterlimit:4;stroke-opacity:1;stroke-dasharray:none;stroke-dashoffset:0" />
        </g>
        <g
           transform="matrix(0,-0.831783,0.831783,0,-59.9263,-128.443)"
           id="g3811">
          <path
             d="m -52.211865,1.9971771 10.699153,-4.7789535 2.567796,0 0,14.3368604 -2.567797,0 -10.699152,-4.7789533 0,-4.7789536 z"
             id="path3813"
             style="fill:#b5b690;fill-opacity:1;fill-rule:nonzero;stroke:#636b3e;stroke-width:1.20223594;stroke-linecap:round;stroke-linejoin:round;stroke-miterlimit:4;stroke-opacity:1;stroke-dasharray:none;stroke-dashoffset:0" />
          <path
             d="m -55.207628,1.9971771 -10.699153,-4.7789535 -2.567796,0 0,14.3368604 2.567797,0 10.699152,-4.7789533 0,-4.7789536 z"
             id="path3815"
             style="fill:#b5b690;fill-opacity:1;fill-rule:nonzero;stroke:#636b3e;stroke-width:1.20223594;stroke-linecap:round;stroke-linejoin:round;stroke-miterlimit:4;stroke-opacity:1;stroke-dasharray:none;stroke-dashoffset:0" />
        </g>
        <path
           d="m -304.58474,-1.1334848 a 5.4471192,5.4471192 0 1 1 -10.89424,0 5.4471192,5.4471192 0 1 1 10.89424,0 z"
           transform="matrix(0.723522,-0.410342,0.410342,0.723522,168.502,-210.167)"
           id="path3801"
           style="fill:#b5b690;fill-opacity:1;stroke:#636b3e;stroke-width:1.20223594;stroke-linecap:round;stroke-linejoin:round;stroke-miterlimit:4;stroke-opacity:1;stroke-dasharray:none;stroke-dashoffset:0" />
      </g>
      <path
         d="m -39.586864,-59.166313 a 12.731992,12.731992 0 1 1 -25.463983,0 12.731992,12.731992 0 1 1 25.463983,0 z"
         transform="translate(-3.95869,-4.06568)"
         id="path3826"
         style="fill:#b5b690;fill-opacity:1;fill-rule:nonzero;stroke:#636b3e;stroke-width:1;stroke-linecap:round;stroke-linejoin:round;stroke-miterlimit:4;stroke-opacity:1;stroke-dasharray:none;stroke-dashoffset:0" />
      <path
         d="m -56.293168,-75.96875 c -0.803965,0 -1.581124,0.07625 -2.34375,0.21875 l 0,10.15625 -10.15625,0 c -0.142503,0.762626 -0.21875,1.571035 -0.21875,2.375 0,0.803965 0.07625,1.581124 0.21875,2.34375 l 25.03125,0 c 0.142503,-0.762626 0.21875,-1.539785 0.21875,-2.34375 0,-0.803965 -0.07625,-1.612374 -0.21875,-2.375 l -10.1875,0 0,-10.15625 c -0.753287,-0.138891 -1.550279,-0.21875 -2.34375,-0.21875 z"
         id="rect3828"
         style="fill:#b5b690;fill-opacity:1;fill-rule:nonzero;stroke:#636b3e;stroke-width:1;stroke-linecap:round;stroke-linejoin:round;stroke-miterlimit:4;stroke-opacity:1;stroke-dasharray:none;stroke-dashoffset:0" />
    </g>
    <path
       d="m -47.504237,-46.96928 a 5.8845339,5.8845339 0 1 1 -11.769068,0 5.8845339,5.8845339 0 1 1 11.769068,0 z"
       transform="matrix(0.818182,0,0,0.818182,148.682,98.6903)"
       id="path3963"
       style="fill:#b5b690;fill-opacity:1;stroke:#636b3e;stroke-width:1.22222221;stroke-linecap:round;stroke-linejoin:round;stroke-miterlimit:4;stroke-opacity:1;stroke-dasharray:none;stroke-dashoffset:0" />
    <g
       transform="translate(158.14,106.588)"
       id="g3762">
      <g
         transform="translate(0.570028,0)"
         id="g3758">
        <path
           d="m -52.211865,1.9971771 10.699153,-4.7789535 2.567796,0 0,14.3368604 -2.567797,0 -10.699152,-4.7789533 0,-4.7789536 z"
           id="path3752"
           style="fill:#b5b690;fill-opacity:1;fill-rule:nonzero;stroke:#636b3e;stroke-width:1;stroke-linecap:round;stroke-linejoin:round;stroke-miterlimit:4;stroke-opacity:1;stroke-dasharray:none;stroke-dashoffset:0" />
        <path
           d="m -55.207628,1.9971771 -10.699153,-4.7789535 -2.567796,0 0,14.3368604 2.567797,0 10.699152,-4.7789533 0,-4.7789536 z"
           id="path3754"
           style="fill:#b5b690;fill-opacity:1;fill-rule:nonzero;stroke:#636b3e;stroke-width:1;stroke-linecap:round;stroke-linejoin:round;stroke-miterlimit:4;stroke-opacity:1;stroke-dasharray:none;stroke-dashoffset:0" />
      </g>
      <path
         d="m -55.529195,2.3538144 -4.778954,-10.6991527 0,-2.5677957 14.336861,0 0,2.5677967 -4.778954,10.6991517 -4.778953,0 z"
         id="path3756"
         style="fill:#b5b690;fill-opacity:1;fill-rule:nonzero;stroke:#636b3e;stroke-width:1;stroke-linecap:round;stroke-linejoin:round;stroke-miterlimit:4;stroke-opacity:1;stroke-dasharray:none;stroke-dashoffset:0" />
      <path
         d="m -304.58474,-1.1334848 a 5.4471192,5.4471192 0 1 1 -10.89424,0 5.4471192,5.4471192 0 1 1 10.89424,0 z"
         transform="matrix(0.869844,-0.493328,0.493328,0.869844,217.099,-147.575)"
         id="path3750"
         style="fill:#b5b690;fill-opacity:1;stroke:#636b3e;stroke-width:1;stroke-linecap:round;stroke-linejoin:round;stroke-miterlimit:4;stroke-opacity:1;stroke-dasharray:none;stroke-dashoffset:0" />
    </g>
  </g>
</svg>
