<?xml version="1.0" encoding="UTF-8" standalone="no"?>
<!-- Created with Inkscape (http://www.inkscape.org/) -->

<svg
   xmlns:dc="http://purl.org/dc/elements/1.1/"
   xmlns:cc="http://creativecommons.org/ns#"
   xmlns:rdf="http://www.w3.org/1999/02/22-rdf-syntax-ns#"
   xmlns:svg="http://www.w3.org/2000/svg"
   xmlns="http://www.w3.org/2000/svg"
   version="1.1"
   width="325"
   height="240"
   id="svg2">
  <metadata
     id="metadata8">
    <rdf:RDF>
      <cc:Work
         rdf:about="">
        <dc:format>image/svg+xml</dc:format>
        <dc:type
           rdf:resource="http://purl.org/dc/dcmitype/StillImage" />
        <dc:title></dc:title>
      </cc:Work>
    </rdf:RDF>
  </metadata>
  <defs
     id="defs6" />
  <path
     d="m 55.75353,1.135408 213.13652,0 c 0,0 54.53158,36.710804 54.53158,104.786172 0,68.07538 -59.5214,101.93486 -59.5214,101.93486 0,0 -37.78005,31.00815 -100.15278,31.00815 -62.37272,0 -96.94503,-26.01833 -96.94503,-26.01833 0,0 -65.22405,-38.13647 -65.22405,-106.92468 0,-68.788199 54.17516,-104.786172 54.17516,-104.786172 z"
     id="path4178"
     style="fill:#636b3e;fill-opacity:1;stroke:none" />
  <g
     transform="matrix(0.93866607,0,0,0.93866607,62.906464,9.2793221)"
     id="g4270">
    <g
       transform="translate(158.745,106.588)"
       id="g3997">
      <g
         id="g3942">
        <path
           d="m -100.34375,-54.78125 c -18.53289,0 -32.34375,15.101846 -32.34375,31.46875 0,15.549802 7.71751,25.9582241 10.8125,29.9375 l 7.09375,-5.53125 c -2.89653,-3.7241138 -8.90625,-11.771894 -8.90625,-24.40625 0,-11.270938 9.71464,-22.46875 23.34375,-22.46875 22.392431,0 38.0625,15.96875 38.0625,15.96875 l 6.46875,-6.28125 c 0,0 -17.896451,-18.6875 -44.53125,-18.6875 z"
           id="path3863"
           style="font-size:medium;font-style:normal;font-variant:normal;font-weight:normal;font-stretch:normal;text-indent:0;text-align:start;text-decoration:none;line-height:normal;letter-spacing:normal;word-spacing:normal;text-transform:none;direction:ltr;block-progression:tb;writing-mode:lr-tb;text-anchor:start;color:#000000;fill:#b5b690;fill-opacity:1;stroke:#636b3e;stroke-width:1;stroke-miterlimit:4;stroke-opacity:1;stroke-dasharray:none;marker:none;visibility:visible;display:inline;overflow:visible;enable-background:accumulate;font-family:Bitstream Vera Sans;-inkscape-font-specification:Bitstream Vera Sans" />
        <g
           id="g3927">
          <path
             d="m -47.504237,-46.96928 a 5.884534,5.884534 0 1 1 -11.769068,0 5.884534,5.884534 0 1 1 11.769068,0 z"
             transform="matrix(0.818182,0,0,0.818182,-87.7039,39.0714)"
             id="path3869"
             style="fill:#b5b690;fill-opacity:1;stroke:#636b3e;stroke-width:1.22222221;stroke-linecap:round;stroke-linejoin:round;stroke-miterlimit:4;stroke-opacity:1;stroke-dasharray:none;stroke-dashoffset:0" />
          <path
             d="m -47.504237,-46.96928 a 5.884534,5.884534 0 1 1 -11.769068,0 5.884534,5.884534 0 1 1 11.769068,0 z"
             transform="matrix(0.818182,0,0,0.818182,-91.6626,30.405)"
             id="path3873"
             style="fill:#b5b690;fill-opacity:1;stroke:#636b3e;stroke-width:1.22222221;stroke-linecap:round;stroke-linejoin:round;stroke-miterlimit:4;stroke-opacity:1;stroke-dasharray:none;stroke-dashoffset:0" />
          <path
             d="m -47.504237,-46.96928 a 5.884534,5.884534 0 1 1 -11.769068,0 5.884534,5.884534 0 1 1 11.769068,0 z"
             transform="matrix(0.818182,0,0,0.818182,-93.5884,20.9898)"
             id="path3875"
             style="fill:#b5b690;fill-opacity:1;stroke:#636b3e;stroke-width:1.22222221;stroke-linecap:round;stroke-linejoin:round;stroke-miterlimit:4;stroke-opacity:1;stroke-dasharray:none;stroke-dashoffset:0" />
          <path
             d="m -47.504237,-46.96928 a 5.884534,5.884534 0 1 1 -11.769068,0 5.884534,5.884534 0 1 1 11.769068,0 z"
             transform="matrix(0.818182,0,0,0.818182,-93.9094,11.2536)"
             id="path3877"
             style="fill:#b5b690;fill-opacity:1;stroke:#636b3e;stroke-width:1.22222221;stroke-linecap:round;stroke-linejoin:round;stroke-miterlimit:4;stroke-opacity:1;stroke-dasharray:none;stroke-dashoffset:0" />
          <path
             d="m -47.504237,-46.96928 a 5.884534,5.884534 0 1 1 -11.769068,0 5.884534,5.884534 0 1 1 11.769068,0 z"
             transform="matrix(0.818182,0,0,0.818182,-91.4486,1.9453)"
             id="path3879"
             style="fill:#b5b690;fill-opacity:1;stroke:#636b3e;stroke-width:1.22222221;stroke-linecap:round;stroke-linejoin:round;stroke-miterlimit:4;stroke-opacity:1;stroke-dasharray:none;stroke-dashoffset:0" />
          <path
             d="m -47.504237,-46.96928 a 5.884534,5.884534 0 1 1 -11.769068,0 5.884534,5.884534 0 1 1 11.769068,0 z"
             transform="matrix(0.818182,0,0,0.818182,-86.527,-6.40004)"
             id="path3881"
             style="fill:#b5b690;fill-opacity:1;stroke:#636b3e;stroke-width:1.22222221;stroke-linecap:round;stroke-linejoin:round;stroke-miterlimit:4;stroke-opacity:1;stroke-dasharray:none;stroke-dashoffset:0" />
          <path
             d="m -47.504237,-46.96928 a 5.884534,5.884534 0 1 1 -11.769068,0 5.884534,5.884534 0 1 1 11.769068,0 z"
             transform="matrix(0.818182,0,0,0.818182,-79.7865,-13.4615)"
             id="path3883"
             style="fill:#b5b690;fill-opacity:1;stroke:#636b3e;stroke-width:1.22222221;stroke-linecap:round;stroke-linejoin:round;stroke-miterlimit:4;stroke-opacity:1;stroke-dasharray:none;stroke-dashoffset:0" />
          <path
             d="m -47.504237,-46.96928 a 5.884534,5.884534 0 1 1 -11.769068,0 5.884534,5.884534 0 1 1 11.769068,0 z"
             transform="matrix(0.818182,0,0,0.818182,-71.3342,-18.2761)"
             id="path3885"
             style="fill:#b5b690;fill-opacity:1;stroke:#636b3e;stroke-width:1.22222221;stroke-linecap:round;stroke-linejoin:round;stroke-miterlimit:4;stroke-opacity:1;stroke-dasharray:none;stroke-dashoffset:0" />
          <path
             d="m -47.504237,-46.96928 a 5.884534,5.884534 0 1 1 -11.769068,0 5.884534,5.884534 0 1 1 11.769068,0 z"
             transform="matrix(0.818182,0,0,0.818182,-61.8119,-20.7369)"
             id="path3887"
             style="fill:#b5b690;fill-opacity:1;stroke:#636b3e;stroke-width:1.22222221;stroke-linecap:round;stroke-linejoin:round;stroke-miterlimit:4;stroke-opacity:1;stroke-dasharray:none;stroke-dashoffset:0" />
          <path
             d="m -47.504237,-46.96928 a 5.884534,5.884534 0 1 1 -11.769068,0 5.884534,5.884534 0 1 1 11.769068,0 z"
             transform="matrix(0.818182,0,0,0.818182,-52.0757,-20.9509)"
             id="path3889"
             style="fill:#b5b690;fill-opacity:1;stroke:#636b3e;stroke-width:1.22222221;stroke-linecap:round;stroke-linejoin:round;stroke-miterlimit:4;stroke-opacity:1;stroke-dasharray:none;stroke-dashoffset:0" />
          <path
             d="m -47.504237,-46.96928 a 5.884534,5.884534 0 1 1 -11.769068,0 5.884534,5.884534 0 1 1 11.769068,0 z"
             transform="matrix(0.818182,0,0,0.818182,-42.4464,-19.56)"
             id="path3891"
             style="fill:#b5b690;fill-opacity:1;stroke:#636b3e;stroke-width:1.22222221;stroke-linecap:round;stroke-linejoin:round;stroke-miterlimit:4;stroke-opacity:1;stroke-dasharray:none;stroke-dashoffset:0" />
          <path
             d="m -47.504237,-46.96928 a 5.884534,5.884534 0 1 1 -11.769068,0 5.884534,5.884534 0 1 1 11.769068,0 z"
             transform="matrix(0.818182,0,0,0.818182,-33.1382,-16.6712)"
             id="path3893"
             style="fill:#b5b690;fill-opacity:1;stroke:#636b3e;stroke-width:1.22222221;stroke-linecap:round;stroke-linejoin:round;stroke-miterlimit:4;stroke-opacity:1;stroke-dasharray:none;stroke-dashoffset:0" />
          <path
             d="m -47.504237,-46.96928 a 5.884534,5.884534 0 1 1 -11.769068,0 5.884534,5.884534 0 1 1 11.769068,0 z"
             transform="matrix(0.818182,0,0,0.818182,-24.2579,-12.6055)"
             id="path3895"
             style="fill:#b5b690;fill-opacity:1;stroke:#636b3e;stroke-width:1.22222221;stroke-linecap:round;stroke-linejoin:round;stroke-miterlimit:4;stroke-opacity:1;stroke-dasharray:none;stroke-dashoffset:0" />
        </g>
      </g>
      <g
         transform="matrix(-1,0,0,1,-107.489,0)"
         id="g3965">
        <path
           d="m -100.34375,-54.78125 c -18.53289,0 -32.34375,15.101846 -32.34375,31.46875 0,15.549802 7.71751,25.9582241 10.8125,29.9375 l 7.09375,-5.53125 c -2.89653,-3.7241138 -8.90625,-11.771894 -8.90625,-24.40625 0,-11.270938 9.71464,-22.46875 23.34375,-22.46875 22.392431,0 38.0625,15.96875 38.0625,15.96875 l 6.46875,-6.28125 c 0,0 -17.896451,-18.6875 -44.53125,-18.6875 z"
           id="path3967"
           style="font-size:medium;font-style:normal;font-variant:normal;font-weight:normal;font-stretch:normal;text-indent:0;text-align:start;text-decoration:none;line-height:normal;letter-spacing:normal;word-spacing:normal;text-transform:none;direction:ltr;block-progression:tb;writing-mode:lr-tb;text-anchor:start;color:#000000;fill:#b5b690;fill-opacity:1;stroke:#636b3e;stroke-width:1;stroke-miterlimit:4;stroke-opacity:1;stroke-dasharray:none;marker:none;visibility:visible;display:inline;overflow:visible;enable-background:accumulate;font-family:Bitstream Vera Sans;-inkscape-font-specification:Bitstream Vera Sans" />
        <g
           id="g3969">
          <path
             d="m -47.504237,-46.96928 a 5.884534,5.884534 0 1 1 -11.769068,0 5.884534,5.884534 0 1 1 11.769068,0 z"
             transform="matrix(0.818182,0,0,0.818182,-87.7039,39.0714)"
             id="path3971"
             style="fill:#b5b690;fill-opacity:1;stroke:#636b3e;stroke-width:1.22222221;stroke-linecap:round;stroke-linejoin:round;stroke-miterlimit:4;stroke-opacity:1;stroke-dasharray:none;stroke-dashoffset:0" />
          <path
             d="m -47.504237,-46.96928 a 5.884534,5.884534 0 1 1 -11.769068,0 5.884534,5.884534 0 1 1 11.769068,0 z"
             transform="matrix(0.818182,0,0,0.818182,-91.6626,30.405)"
             id="path3973"
             style="fill:#b5b690;fill-opacity:1;stroke:#636b3e;stroke-width:1.22222221;stroke-linecap:round;stroke-linejoin:round;stroke-miterlimit:4;stroke-opacity:1;stroke-dasharray:none;stroke-dashoffset:0" />
          <path
             d="m -47.504237,-46.96928 a 5.884534,5.884534 0 1 1 -11.769068,0 5.884534,5.884534 0 1 1 11.769068,0 z"
             transform="matrix(0.818182,0,0,0.818182,-93.5884,20.9898)"
             id="path3975"
             style="fill:#b5b690;fill-opacity:1;stroke:#636b3e;stroke-width:1.22222221;stroke-linecap:round;stroke-linejoin:round;stroke-miterlimit:4;stroke-opacity:1;stroke-dasharray:none;stroke-dashoffset:0" />
          <path
             d="m -47.504237,-46.96928 a 5.884534,5.884534 0 1 1 -11.769068,0 5.884534,5.884534 0 1 1 11.769068,0 z"
             transform="matrix(0.818182,0,0,0.818182,-93.9094,11.2536)"
             id="path3977"
             style="fill:#b5b690;fill-opacity:1;stroke:#636b3e;stroke-width:1.22222221;stroke-linecap:round;stroke-linejoin:round;stroke-miterlimit:4;stroke-opacity:1;stroke-dasharray:none;stroke-dashoffset:0" />
          <path
             d="m -47.504237,-46.96928 a 5.884534,5.884534 0 1 1 -11.769068,0 5.884534,5.884534 0 1 1 11.769068,0 z"
             transform="matrix(0.818182,0,0,0.818182,-91.4486,1.9453)"
             id="path3979"
             style="fill:#b5b690;fill-opacity:1;stroke:#636b3e;stroke-width:1.22222221;stroke-linecap:round;stroke-linejoin:round;stroke-miterlimit:4;stroke-opacity:1;stroke-dasharray:none;stroke-dashoffset:0" />
          <path
             d="m -47.504237,-46.96928 a 5.884534,5.884534 0 1 1 -11.769068,0 5.884534,5.884534 0 1 1 11.769068,0 z"
             transform="matrix(0.818182,0,0,0.818182,-86.527,-6.40004)"
             id="path3981"
             style="fill:#b5b690;fill-opacity:1;stroke:#636b3e;stroke-width:1.22222221;stroke-linecap:round;stroke-linejoin:round;stroke-miterlimit:4;stroke-opacity:1;stroke-dasharray:none;stroke-dashoffset:0" />
          <path
             d="m -47.504237,-46.96928 a 5.884534,5.884534 0 1 1 -11.769068,0 5.884534,5.884534 0 1 1 11.769068,0 z"
             transform="matrix(0.818182,0,0,0.818182,-79.7865,-13.4615)"
             id="path3983"
             style="fill:#b5b690;fill-opacity:1;stroke:#636b3e;stroke-width:1.22222221;stroke-linecap:round;stroke-linejoin:round;stroke-miterlimit:4;stroke-opacity:1;stroke-dasharray:none;stroke-dashoffset:0" />
          <path
             d="m -47.504237,-46.96928 a 5.884534,5.884534 0 1 1 -11.769068,0 5.884534,5.884534 0 1 1 11.769068,0 z"
             transform="matrix(0.818182,0,0,0.818182,-71.3342,-18.2761)"
             id="path3985"
             style="fill:#b5b690;fill-opacity:1;stroke:#636b3e;stroke-width:1.22222221;stroke-linecap:round;stroke-linejoin:round;stroke-miterlimit:4;stroke-opacity:1;stroke-dasharray:none;stroke-dashoffset:0" />
          <path
             d="m -47.504237,-46.96928 a 5.884534,5.884534 0 1 1 -11.769068,0 5.884534,5.884534 0 1 1 11.769068,0 z"
             transform="matrix(0.818182,0,0,0.818182,-61.8119,-20.7369)"
             id="path3987"
             style="fill:#b5b690;fill-opacity:1;stroke:#636b3e;stroke-width:1.22222221;stroke-linecap:round;stroke-linejoin:round;stroke-miterlimit:4;stroke-opacity:1;stroke-dasharray:none;stroke-dashoffset:0" />
          <path
             d="m -47.504237,-46.96928 a 5.884534,5.884534 0 1 1 -11.769068,0 5.884534,5.884534 0 1 1 11.769068,0 z"
             transform="matrix(0.818182,0,0,0.818182,-52.0757,-20.9509)"
             id="path3989"
             style="fill:#b5b690;fill-opacity:1;stroke:#636b3e;stroke-width:1.22222221;stroke-linecap:round;stroke-linejoin:round;stroke-miterlimit:4;stroke-opacity:1;stroke-dasharray:none;stroke-dashoffset:0" />
          <path
             d="m -47.504237,-46.96928 a 5.884534,5.884534 0 1 1 -11.769068,0 5.884534,5.884534 0 1 1 11.769068,0 z"
             transform="matrix(0.818182,0,0,0.818182,-42.4464,-19.56)"
             id="path3991"
             style="fill:#b5b690;fill-opacity:1;stroke:#636b3e;stroke-width:1.22222221;stroke-linecap:round;stroke-linejoin:round;stroke-miterlimit:4;stroke-opacity:1;stroke-dasharray:none;stroke-dashoffset:0" />
          <path
             d="m -47.504237,-46.96928 a 5.884534,5.884534 0 1 1 -11.769068,0 5.884534,5.884534 0 1 1 11.769068,0 z"
             transform="matrix(0.818182,0,0,0.818182,-33.1382,-16.6712)"
             id="path3993"
             style="fill:#b5b690;fill-opacity:1;stroke:#636b3e;stroke-width:1.22222221;stroke-linecap:round;stroke-linejoin:round;stroke-miterlimit:4;stroke-opacity:1;stroke-dasharray:none;stroke-dashoffset:0" />
          <path
             d="m -47.504237,-46.96928 a 5.884534,5.884534 0 1 1 -11.769068,0 5.884534,5.884534 0 1 1 11.769068,0 z"
             transform="matrix(0.818182,0,0,0.818182,-24.2579,-12.6055)"
             id="path3995"
             style="fill:#b5b690;fill-opacity:1;stroke:#636b3e;stroke-width:1.22222221;stroke-linecap:round;stroke-linejoin:round;stroke-miterlimit:4;stroke-opacity:1;stroke-dasharray:none;stroke-dashoffset:0" />
        </g>
      </g>
    </g>
    <path
       d="m 103.4375,114.71875 c -5.261269,16.04099 -25.214214,12.81976 -30.15625,3 L 68.09375,119 C 65.167905,134.03351 47.54914,136.00997 40.625,126.71875 L 37.5,129.5 c 7.848566,9.21921 14.518473,21.89384 20.03125,33.875 0.142903,0.38741 0.322257,0.77721 0.53125,1.15625 0.0096,0.021 0.02169,0.0415 0.03125,0.0625 4.532235,8.07615 23.800179,14.125 46.90625,14.125 23.09226,0 42.35909,-6.05608 46.90625,-14.125 0.22736,-0.40345 0.41016,-0.80576 0.5625,-1.21875 5.51278,-11.98116 12.18268,-24.65579 20.03125,-33.875 l -3.125,-2.78125 c -6.92414,9.29122 -24.51165,7.31476 -27.4375,-7.71875 l -5.21875,-1.28125 c -4.94204,9.81976 -24.86373,13.04099 -30.125,-3 l -3.15625,0 z"
       id="path3616"
       style="fill:#b5b690;fill-opacity:1;stroke:#636b3e;stroke-width:1;stroke-linecap:square;stroke-linejoin:miter;stroke-miterlimit:4;stroke-opacity:1;stroke-dasharray:none;stroke-dashoffset:0" />
    <path
       d="m 40.5222,132.83819 c 4.60706,3.53744 10.64718,4.74287 16.28125,3.53125 6.327586,-1.36076 12.283699,-6.0293 14.84375,-13.34375 3.981695,4.71738 10.182647,7.34671 16.59375,7.375 6.16466,0.0272 12.7092,-2.86492 16.78125,-8.84375 4.06969,5.97185 10.62435,8.87095 16.78125,8.84375 6.43477,-0.0284 12.61819,-2.68075 16.59375,-7.4375 2.54693,7.34477 8.47392,12.04128 14.8125,13.40625 5.62961,1.2123 11.67701,0.006 16.28125,-3.53125"
       id="path2820"
       style="font-size:medium;font-style:normal;font-variant:normal;font-weight:normal;font-stretch:normal;text-indent:0;text-align:start;text-decoration:none;line-height:normal;letter-spacing:normal;word-spacing:normal;text-transform:none;direction:ltr;block-progression:tb;writing-mode:lr-tb;text-anchor:start;color:#000000;fill:none;stroke:#636b3e;stroke-width:1;stroke-linecap:round;stroke-linejoin:round;stroke-miterlimit:4;stroke-opacity:1;stroke-dasharray:none;marker:none;visibility:visible;display:inline;overflow:visible;enable-background:accumulate;font-family:Bitstream Vera Sans;-inkscape-font-specification:Bitstream Vera Sans" />
    <path
       d="M 49.25031,147.06475 C 63.532585,139.77107 83.2382,135.26192 105,135.26192 c 21.74421,0 41.43556,4.50187 55.71505,11.78514"
       id="path3599"
       style="fill:none;stroke:#636b3e;stroke-width:1;stroke-linecap:round;stroke-linejoin:round;stroke-miterlimit:4;stroke-opacity:1;stroke-dasharray:none;stroke-dashoffset:0" />
    <path
       d="M 47.28842,143.72319 C 62.143769,135.84336 82.519473,130.98226 105,130.98226 c 22.46838,0 42.83421,4.85585 57.68749,12.72816"
       id="path3601"
       style="fill:none;stroke:#636b3e;stroke-width:1;stroke-linecap:round;stroke-linejoin:round;stroke-miterlimit:4;stroke-opacity:1;stroke-dasharray:none;stroke-dashoffset:0" />
    <path
       d="M 50.4793,149.58984 C 64.059258,142.61956 83.460075,138.25768 105,138.25768 c 21.52928,0 40.92155,4.35756 54.50055,11.32182"
       id="path3613"
       style="fill:none;stroke:#636b3e;stroke-width:1;stroke-linecap:round;stroke-linejoin:round;stroke-miterlimit:4;stroke-opacity:1;stroke-dasharray:none;stroke-dashoffset:0" />
    <path
       d="m 89.748809,136.06435 1.575747,16.20922"
       id="path3645"
       style="fill:none;stroke:#636b3e;stroke-width:0.99999994;stroke-linecap:round;stroke-linejoin:round;stroke-miterlimit:4;stroke-opacity:1;stroke-dasharray:none;stroke-dashoffset:0" />
    <path
       d="m 62.932869,141.46743 5.56356,14.33686"
       id="path3647"
       style="fill:none;stroke:#636b3e;stroke-width:1;stroke-linecap:round;stroke-linejoin:round;stroke-miterlimit:4;stroke-opacity:1;stroke-dasharray:none;stroke-dashoffset:0" />
    <path
       d="m 120.2512,136.06435 -1.57575,16.20922"
       id="path3655"
       style="fill:none;stroke:#636b3e;stroke-width:0.99999994;stroke-linecap:round;stroke-linejoin:round;stroke-miterlimit:4;stroke-opacity:1;stroke-dasharray:none;stroke-dashoffset:0" />
    <path
       d="m 147.06714,141.46743 -5.56356,14.33686"
       id="path3657"
       style="fill:none;stroke:#636b3e;stroke-width:1;stroke-linecap:round;stroke-linejoin:round;stroke-miterlimit:4;stroke-opacity:1;stroke-dasharray:none;stroke-dashoffset:0" />
    <g
       transform="matrix(0.946404,-0.322986,0.322986,0.946404,363.461,16.3838)"
       id="g3702"
       style="fill:#b5b690;fill-opacity:1">
      <g
         transform="translate(0.189195,0)"
         id="g3696"
         style="fill:#b5b690;fill-opacity:1">
        <path
           d="m -295.65753,0.0769861 c -0.20445,-2.957431 -9.15092,-9.0516242 -12.55863,-2.4209419 l -2.57225,-7.8680612 c 4.59273,-6.033654 20.6036,-2.662595 15.13088,10.2890031 z"
           id="path3692"
           style="fill:#b5b690;fill-opacity:1;stroke:#636b3e;stroke-width:1;stroke-linecap:round;stroke-linejoin:round;stroke-miterlimit:4;stroke-opacity:1;stroke-dasharray:none;stroke-dashoffset:0" />
        <path
           d="m -325.09586,0.0769861 c 0.20445,-2.957431 9.15092,-9.0516242 12.55863,-2.4209419 l 2.57225,-7.8680612 c -4.59273,-6.033654 -20.6036,-2.662595 -15.13088,10.2890031 z"
           id="path3694"
           style="fill:#b5b690;fill-opacity:1;stroke:#636b3e;stroke-width:1;stroke-linecap:round;stroke-linejoin:round;stroke-miterlimit:4;stroke-opacity:1;stroke-dasharray:none;stroke-dashoffset:0" />
      </g>
      <path
         d="m -310.1875,-28.53125 c -3.03314,4.68252 -5.71875,10.03574 -5.71875,16.03125 0,4.712496 3.03125,7.6343983 3.03125,10.28125 l 2.6875,-0.71875 2.6875,0.71875 c 0,-2.6468517 3.03125,-5.568754 3.03125,-10.28125 0,-5.99551 -2.68561,-11.34873 -5.71875,-16.03125 z"
         id="path3687"
         style="fill:#b5b690;fill-opacity:1;stroke:#636b3e;stroke-width:1;stroke-linecap:round;stroke-linejoin:round;stroke-miterlimit:4;stroke-opacity:1;stroke-dasharray:none;stroke-dashoffset:0" />
      <path
         d="m -304.58474,-1.1334848 a 5.44712,5.44712 0 1 1 -10.89424,0 5.44712,5.44712 0 1 1 10.89424,0 z"
         transform="translate(-0.15564,0)"
         id="path3700"
         style="fill:#b5b690;fill-opacity:1;stroke:#636b3e;stroke-width:1;stroke-linecap:round;stroke-linejoin:round;stroke-miterlimit:4;stroke-opacity:1;stroke-dasharray:none;stroke-dashoffset:0" />
    </g>
    <g
       transform="matrix(-0.946404,-0.322986,-0.322986,0.946404,-153.159,16.3838)"
       id="g3721"
       style="fill:#b5b690;fill-opacity:1">
      <g
         transform="translate(0.189195,0)"
         id="g3723"
         style="fill:#b5b690;fill-opacity:1">
        <path
           d="m -295.65753,0.0769861 c -0.20445,-2.957431 -9.15092,-9.0516242 -12.55863,-2.4209419 l -2.57225,-7.8680612 c 4.59273,-6.033654 20.6036,-2.662595 15.13088,10.2890031 z"
           id="path3725"
           style="fill:#b5b690;fill-opacity:1;stroke:#636b3e;stroke-width:1;stroke-linecap:round;stroke-linejoin:round;stroke-miterlimit:4;stroke-opacity:1;stroke-dasharray:none;stroke-dashoffset:0" />
        <path
           d="m -325.09586,0.0769861 c 0.20445,-2.957431 9.15092,-9.0516242 12.55863,-2.4209419 l 2.57225,-7.8680612 c -4.59273,-6.033654 -20.6036,-2.662595 -15.13088,10.2890031 z"
           id="path3727"
           style="fill:#b5b690;fill-opacity:1;stroke:#636b3e;stroke-width:1;stroke-linecap:round;stroke-linejoin:round;stroke-miterlimit:4;stroke-opacity:1;stroke-dasharray:none;stroke-dashoffset:0" />
      </g>
      <path
         d="m -310.1875,-28.53125 c -3.03314,4.68252 -5.71875,10.03574 -5.71875,16.03125 0,4.712496 3.03125,7.6343983 3.03125,10.28125 l 2.6875,-0.71875 2.6875,0.71875 c 0,-2.6468517 3.03125,-5.568754 3.03125,-10.28125 0,-5.99551 -2.68561,-11.34873 -5.71875,-16.03125 z"
         id="path3729"
         style="fill:#b5b690;fill-opacity:1;stroke:#636b3e;stroke-width:1;stroke-linecap:round;stroke-linejoin:round;stroke-miterlimit:4;stroke-opacity:1;stroke-dasharray:none;stroke-dashoffset:0" />
      <path
         d="m -304.58474,-1.1334848 a 5.44712,5.44712 0 1 1 -10.89424,0 5.44712,5.44712 0 1 1 10.89424,0 z"
         transform="translate(-0.15564,0)"
         id="path3731"
         style="fill:#b5b690;fill-opacity:1;stroke:#636b3e;stroke-width:1;stroke-linecap:round;stroke-linejoin:round;stroke-miterlimit:4;stroke-opacity:1;stroke-dasharray:none;stroke-dashoffset:0" />
    </g>
    <g
       transform="matrix(0.871481,-0.49043,0.49043,0.871481,80.3244,96.6169)"
       id="g3769">
      <g
         transform="translate(0.570028,0)"
         id="g3771">
        <path
           d="m -52.211865,1.9971771 10.699153,-4.7789535 2.567796,0 0,14.3368604 -2.567797,0 -10.699152,-4.7789533 0,-4.7789536 z"
           id="path3773"
           style="fill:#b5b690;fill-opacity:1;fill-rule:nonzero;stroke:#636b3e;stroke-width:1;stroke-linecap:round;stroke-linejoin:round;stroke-miterlimit:4;stroke-opacity:1;stroke-dasharray:none;stroke-dashoffset:0" />
      </g>
      <path
         d="m -53.879923,2.9136404 -0.394153,-13.6578464 8.302788,-0.168928 0,2.5677967 -4.778954,10.6991517 -3.129681,0.559826 z"
         id="path3777"
         style="fill:#b5b690;fill-opacity:1;fill-rule:nonzero;stroke:#636b3e;stroke-width:1;stroke-linecap:round;stroke-linejoin:round;stroke-miterlimit:4;stroke-opacity:1;stroke-dasharray:none;stroke-dashoffset:0" />
      <path
         d="m -304.58474,-1.1334848 a 5.44712,5.44712 0 1 1 -10.89424,0 5.44712,5.44712 0 1 1 10.89424,0 z"
         transform="matrix(0.869844,-0.493328,0.493328,0.869844,217.099,-147.575)"
         id="path3779"
         style="fill:#b5b690;fill-opacity:1;stroke:#636b3e;stroke-width:1;stroke-linecap:round;stroke-linejoin:round;stroke-miterlimit:4;stroke-opacity:1;stroke-dasharray:none;stroke-dashoffset:0" />
    </g>
    <g
       transform="matrix(-0.871481,-0.49043,-0.49043,0.871481,127.514,96.6169)"
       id="g3781">
      <g
         transform="translate(0.570028,0)"
         id="g3783">
        <path
           d="m -52.211865,1.9971771 10.699153,-4.7789535 2.567796,0 0,14.3368604 -2.567797,0 -10.699152,-4.7789533 0,-4.7789536 z"
           id="path3785"
           style="fill:#b5b690;fill-opacity:1;fill-rule:nonzero;stroke:#636b3e;stroke-width:1;stroke-linecap:round;stroke-linejoin:round;stroke-miterlimit:4;stroke-opacity:1;stroke-dasharray:none;stroke-dashoffset:0" />
      </g>
      <path
         d="m -53.879923,2.9136404 -0.394153,-13.6578464 8.302788,-0.168928 0,2.5677967 -4.778954,10.6991517 -3.129681,0.559826 z"
         id="path3787"
         style="fill:#b5b690;fill-opacity:1;fill-rule:nonzero;stroke:#636b3e;stroke-width:1;stroke-linecap:round;stroke-linejoin:round;stroke-miterlimit:4;stroke-opacity:1;stroke-dasharray:none;stroke-dashoffset:0" />
      <path
         d="m -304.58474,-1.1334848 a 5.44712,5.44712 0 1 1 -10.89424,0 5.44712,5.44712 0 1 1 10.89424,0 z"
         transform="matrix(0.869844,-0.493328,0.493328,0.869844,217.099,-147.575)"
         id="path3789"
         style="fill:#b5b690;fill-opacity:1;stroke:#636b3e;stroke-width:1;stroke-linecap:round;stroke-linejoin:round;stroke-miterlimit:4;stroke-opacity:1;stroke-dasharray:none;stroke-dashoffset:0" />
    </g>
    <rect
       width="19.686441"
       height="44.294491"
       x="95.156784"
       y="53.306412"
       id="rect3853"
       style="fill:#b5b690;fill-opacity:1;stroke:#636b3e;stroke-width:1;stroke-linecap:round;stroke-linejoin:round;stroke-miterlimit:4;stroke-opacity:1;stroke-dasharray:none;stroke-dashoffset:0" />
    <path
       d="m -47.504237,-46.96928 a 5.884534,5.884534 0 1 1 -11.769068,0 5.884534,5.884534 0 1 1 11.769068,0 z"
       transform="matrix(0.818182,0,0,0.818182,148.682,129.932)"
       id="path3925"
       style="fill:#b5b690;fill-opacity:1;stroke:#636b3e;stroke-width:1.22222221;stroke-linecap:round;stroke-linejoin:round;stroke-miterlimit:4;stroke-opacity:1;stroke-dasharray:none;stroke-dashoffset:0" />
    <path
       d="m -47.504237,-46.96928 a 5.884534,5.884534 0 1 1 -11.769068,0 5.884534,5.884534 0 1 1 11.769068,0 z"
       transform="matrix(0.818182,0,0,0.818182,148.682,119.518)"
       id="path3959"
       style="fill:#b5b690;fill-opacity:1;stroke:#636b3e;stroke-width:1.22222221;stroke-linecap:round;stroke-linejoin:round;stroke-miterlimit:4;stroke-opacity:1;stroke-dasharray:none;stroke-dashoffset:0" />
    <path
       d="m -47.504237,-46.96928 a 5.884534,5.884534 0 1 1 -11.769068,0 5.884534,5.884534 0 1 1 11.769068,0 z"
       transform="matrix(0.818182,0,0,0.818182,148.682,109.104)"
       id="path3961"
       style="fill:#b5b690;fill-opacity:1;stroke:#636b3e;stroke-width:1.22222221;stroke-linecap:round;stroke-linejoin:round;stroke-miterlimit:4;stroke-opacity:1;stroke-dasharray:none;stroke-dashoffset:0" />
    <g
       transform="translate(161.278,106.588)"
       id="g3841">
      <g
         id="g3817">
        <g
           transform="matrix(0.831783,0,0,0.831783,-11.6027,-87.4171)"
           id="g3793">
          <path
             d="m -52.211865,1.9971771 10.699153,-4.7789535 2.567796,0 0,14.3368604 -2.567797,0 -10.699152,-4.7789533 0,-4.7789536 z"
             id="path3795"
             style="fill:#b5b690;fill-opacity:1;fill-rule:nonzero;stroke:#636b3e;stroke-width:1.20223594;stroke-linecap:round;stroke-linejoin:round;stroke-miterlimit:4;stroke-opacity:1;stroke-dasharray:none;stroke-dashoffset:0" />
          <path
             d="m -55.207628,1.9971771 -10.699153,-4.7789535 -2.567796,0 0,14.3368604 2.567797,0 10.699152,-4.7789533 0,-4.7789536 z"
             id="path3797"
             style="fill:#b5b690;fill-opacity:1;fill-rule:nonzero;stroke:#636b3e;stroke-width:1.20223594;stroke-linecap:round;stroke-linejoin:round;stroke-miterlimit:4;stroke-opacity:1;stroke-dasharray:none;stroke-dashoffset:0" />
        </g>
        <g
           transform="matrix(0,-0.831783,0.831783,0,-59.9263,-128.443)"
           id="g3811">
          <path
             d="m -52.211865,1.9971771 10.699153,-4.7789535 2.567796,0 0,14.3368604 -2.567797,0 -10.699152,-4.7789533 0,-4.7789536 z"
             id="path3813"
             style="fill:#b5b690;fill-opacity:1;fill-rule:nonzero;stroke:#636b3e;stroke-width:1.20223594;stroke-linecap:round;stroke-linejoin:round;stroke-miterlimit:4;stroke-opacity:1;stroke-dasharray:none;stroke-dashoffset:0" />
          <path
             d="m -55.207628,1.9971771 -10.699153,-4.7789535 -2.567796,0 0,14.3368604 2.567797,0 10.699152,-4.7789533 0,-4.7789536 z"
             id="path3815"
             style="fill:#b5b690;fill-opacity:1;fill-rule:nonzero;stroke:#636b3e;stroke-width:1.20223594;stroke-linecap:round;stroke-linejoin:round;stroke-miterlimit:4;stroke-opacity:1;stroke-dasharray:none;stroke-dashoffset:0" />
        </g>
        <path
           d="m -304.58474,-1.1334848 a 5.44712,5.44712 0 1 1 -10.89424,0 5.44712,5.44712 0 1 1 10.89424,0 z"
           transform="matrix(0.723522,-0.410342,0.410342,0.723522,168.502,-210.167)"
           id="path3801"
           style="fill:#b5b690;fill-opacity:1;stroke:#636b3e;stroke-width:1.20223594;stroke-linecap:round;stroke-linejoin:round;stroke-miterlimit:4;stroke-opacity:1;stroke-dasharray:none;stroke-dashoffset:0" />
      </g>
      <path
         d="m -39.586864,-59.166313 a 12.731992,12.731992 0 1 1 -25.463983,0 12.731992,12.731992 0 1 1 25.463983,0 z"
         transform="translate(-3.95869,-4.06568)"
         id="path3826"
         style="fill:#b5b690;fill-opacity:1;fill-rule:nonzero;stroke:#636b3e;stroke-width:1;stroke-linecap:round;stroke-linejoin:round;stroke-miterlimit:4;stroke-opacity:1;stroke-dasharray:none;stroke-dashoffset:0" />
      <path
         d="m -56.293168,-75.96875 c -0.803965,0 -1.581124,0.07625 -2.34375,0.21875 l 0,10.15625 -10.15625,0 c -0.142503,0.762626 -0.21875,1.571035 -0.21875,2.375 0,0.803965 0.07625,1.581124 0.21875,2.34375 l 25.03125,0 c 0.142503,-0.762626 0.21875,-1.539785 0.21875,-2.34375 0,-0.803965 -0.07625,-1.612374 -0.21875,-2.375 l -10.1875,0 0,-10.15625 c -0.753287,-0.138891 -1.550279,-0.21875 -2.34375,-0.21875 z"
         id="rect3828"
         style="fill:#b5b690;fill-opacity:1;fill-rule:nonzero;stroke:#636b3e;stroke-width:1;stroke-linecap:round;stroke-linejoin:round;stroke-miterlimit:4;stroke-opacity:1;stroke-dasharray:none;stroke-dashoffset:0" />
    </g>
    <path
       d="m -47.504237,-46.96928 a 5.884534,5.884534 0 1 1 -11.769068,0 5.884534,5.884534 0 1 1 11.769068,0 z"
       transform="matrix(0.818182,0,0,0.818182,148.682,98.6903)"
       id="path3963"
       style="fill:#b5b690;fill-opacity:1;stroke:#636b3e;stroke-width:1.22222221;stroke-linecap:round;stroke-linejoin:round;stroke-miterlimit:4;stroke-opacity:1;stroke-dasharray:none;stroke-dashoffset:0" />
    <g
       transform="translate(158.14,106.588)"
       id="g3762">
      <g
         transform="translate(0.570028,0)"
         id="g3758">
        <path
           d="m -52.211865,1.9971771 10.699153,-4.7789535 2.567796,0 0,14.3368604 -2.567797,0 -10.699152,-4.7789533 0,-4.7789536 z"
           id="path3752"
           style="fill:#b5b690;fill-opacity:1;fill-rule:nonzero;stroke:#636b3e;stroke-width:1;stroke-linecap:round;stroke-linejoin:round;stroke-miterlimit:4;stroke-opacity:1;stroke-dasharray:none;stroke-dashoffset:0" />
        <path
           d="m -55.207628,1.9971771 -10.699153,-4.7789535 -2.567796,0 0,14.3368604 2.567797,0 10.699152,-4.7789533 0,-4.7789536 z"
           id="path3754"
           style="fill:#b5b690;fill-opacity:1;fill-rule:nonzero;stroke:#636b3e;stroke-width:1;stroke-linecap:round;stroke-linejoin:round;stroke-miterlimit:4;stroke-opacity:1;stroke-dasharray:none;stroke-dashoffset:0" />
      </g>
      <path
         d="m -55.529195,2.3538144 -4.778954,-10.6991527 0,-2.5677957 14.336861,0 0,2.5677967 -4.778954,10.6991517 -4.778953,0 z"
         id="path3756"
         style="fill:#b5b690;fill-opacity:1;fill-rule:nonzero;stroke:#636b3e;stroke-width:1;stroke-linecap:round;stroke-linejoin:round;stroke-miterlimit:4;stroke-opacity:1;stroke-dasharray:none;stroke-dashoffset:0" />
      <path
         d="m -304.58474,-1.1334848 a 5.44712,5.44712 0 1 1 -10.89424,0 5.44712,5.44712 0 1 1 10.89424,0 z"
         transform="matrix(0.869844,-0.493328,0.493328,0.869844,217.099,-147.575)"
         id="path3750"
         style="fill:#b5b690;fill-opacity:1;stroke:#636b3e;stroke-width:1;stroke-linecap:round;stroke-linejoin:round;stroke-miterlimit:4;stroke-opacity:1;stroke-dasharray:none;stroke-dashoffset:0" />
    </g>
    <path
       d="m 105,151.84375 c -20.909064,0 -38.904069,3.07276 -48.325271,8.56878 0,0 20.961988,5.43122 48.575271,5.43122 26.91063,0 47.70558,-5.35526 48.04194,-5.43122 -9.4212,-5.49602 -27.38288,-8.56878 -48.29194,-8.56878 z"
       id="path3592-6"
       style="fill:#70614d;fill-opacity:1;stroke:none" />
  </g>
  <path
     d="m 73.9899,36.562871 c 16.03487,-23.670523 53.44957,-14.889523 53.44957,-14.889523 0,0 9.92635,2.290696 9.92635,8.017436 0,5.726739 -11.0717,4.199609 -11.0717,4.199609 0,0 -23.28874,-1.145348 -29.77904,2.672478 -6.49031,3.817827 -15.27131,9.926349 -15.27131,9.926349 0,0 -6.4903,4.963174 -10.68991,3.436044 -4.19961,-1.527131 3.43604,-13.362393 3.43604,-13.362393 z"
     id="path4051"
     style="fill:#b5b690;fill-opacity:1;stroke:#636b3e;stroke-width:1px;stroke-linecap:butt;stroke-linejoin:miter;stroke-opacity:1" />
  <path
     d="m 45.3562,42.671394 c 4.58139,-16.416653 10.68991,-23.288741 10.68991,-23.288741 0,0 8.78101,-7.635653 9.92635,3.817826 1.14535,11.453479 -12.59882,47.722834 -12.59882,47.722834 0,0 -6.49031,17.562 -9.92635,4.1996 C 40.01124,61.760526 45.3562,42.671394 45.3562,42.671394 z"
     id="path4053"
     style="fill:#b5b690;fill-opacity:1;stroke:#636b3e;stroke-width:1px;stroke-linecap:butt;stroke-linejoin:miter;stroke-opacity:1" />
  <path
     d="m 64.82712,69.014393 c 10.68991,-15.271303 16.41665,-13.36239 16.41665,-13.36239 0,0 8.01744,5.344957 -5.72674,25.19765 -13.74417,19.852697 -19.47091,19.470917 -19.47091,19.470917 0,0 -1.52714,1.14535 0.76356,-10.689907 2.2907,-11.83527 8.01744,-20.61627 8.01744,-20.61627 z"
     id="path4055"
     style="fill:#b5b690;fill-opacity:1;stroke:#636b3e;stroke-width:1px;stroke-linecap:butt;stroke-linejoin:miter;stroke-opacity:1" />
  <path
     d="m 48.41046,111.01048 c 4.96317,27.48835 3.05427,31.68796 3.05427,31.68796 0,0 -11.17398,2.92038 -19.47091,-27.10657 C 23.97637,86.576393 30.0849,80.086093 30.0849,80.086093 c 0,0 8.3459,2.74271 12.98061,14.50774 4.96317,12.598827 5.34495,16.416647 5.34495,16.416647 z"
     id="path4057"
     style="fill:#b5b690;fill-opacity:1;stroke:#636b3e;stroke-width:1px;stroke-linecap:butt;stroke-linejoin:miter;stroke-opacity:1" />
  <path
     d="m 68.26316,128.57248 c -0.38178,-22.90695 4.58139,-23.67052 4.58139,-23.67052 0,0 10.30813,-2.2907 10.68992,28.6337 0.38178,30.92439 -5.34496,24.81587 -5.34496,24.81587 0,0 -0.76357,2.67248 -6.10852,-8.39922 -5.34496,-11.07169 -3.81783,-21.37983 -3.81783,-21.37983 z"
     id="path4059"
     style="fill:#b5b690;fill-opacity:1;stroke:#636b3e;stroke-width:1px;stroke-linecap:butt;stroke-linejoin:miter;stroke-opacity:1" />
  <path
     d="m 53.37364,169.42323 c 9.54456,8.01743 20.23448,12.59882 20.23448,12.59882 0,0 15.65309,5.72674 11.83526,-4.19961 -3.81783,-9.92634 -26.343,-25.57943 -26.343,-25.57943 0,0 -29.77905,-20.61626 -25.19766,-6.49031 4.5814,14.12596 19.47092,23.67053 19.47092,23.67053 z"
     id="path4063"
     style="fill:#b5b690;fill-opacity:1;stroke:#636b3e;stroke-width:1px;stroke-linecap:butt;stroke-linejoin:miter;stroke-opacity:1" />
  <path
     d="m 95.36973,153.38836 c 15.65309,5.72674 29.01548,21.76161 29.01548,21.76161 0,0 13.74417,17.94378 -6.10852,8.39922 -19.8527,-9.54457 -29.39727,-22.52518 -29.39727,-22.52518 0,0 -4.58139,-4.58139 -2.29069,-7.63565 2.29069,-3.05426 8.781,0 8.781,0 z"
     id="path4065"
     style="fill:#b5b690;fill-opacity:1;stroke:#636b3e;stroke-width:1px;stroke-linecap:butt;stroke-linejoin:miter;stroke-opacity:1" />
  <path
     d="m 111.4046,189.65771 c 23.67052,3.05426 27.10657,9.54456 27.10657,9.54456 0,0 9.54456,11.0717 -13.74418,9.16279 -23.28874,-1.90892 -38.56005,-8.78101 -38.56005,-8.78101 0,0 -16.41665,-8.39921 -5.72673,-10.30813 10.68991,-1.90891 30.92439,0.38179 30.92439,0.38179 z"
     id="path4067"
     style="fill:#b5b690;fill-opacity:1;stroke:#636b3e;stroke-width:1px;stroke-linecap:butt;stroke-linejoin:miter;stroke-opacity:1" />
  <path
     d="M 248.82271,36.562871 C 232.78784,12.892348 195.37314,21.673348 195.37314,21.673348 c 0,0 -9.92635,2.290696 -9.92635,8.017436 0,5.726739 11.0717,4.199609 11.0717,4.199609 0,0 23.28874,-1.145348 29.77904,2.672478 6.49031,3.817827 15.27131,9.926349 15.27131,9.926349 0,0 6.4903,4.963174 10.68991,3.436044 4.19961,-1.527131 -3.43604,-13.362393 -3.43604,-13.362393 z"
     id="path4143"
     style="fill:#b5b690;fill-opacity:1;stroke:#636b3e;stroke-width:1px;stroke-linecap:butt;stroke-linejoin:miter;stroke-opacity:1" />
  <path
     d="M 277.45641,42.671394 C 272.87502,26.254741 266.7665,19.382653 266.7665,19.382653 c 0,0 -8.78101,-7.635653 -9.92635,3.817826 -1.14535,11.453479 12.59882,47.722834 12.59882,47.722834 0,0 6.49031,17.562 9.92635,4.1996 3.43605,-13.362387 -1.90891,-32.451519 -1.90891,-32.451519 z"
     id="path4145"
     style="fill:#b5b690;fill-opacity:1;stroke:#636b3e;stroke-width:1px;stroke-linecap:butt;stroke-linejoin:miter;stroke-opacity:1" />
  <path
     d="m 257.98549,69.014393 c -10.68991,-15.271303 -16.41665,-13.36239 -16.41665,-13.36239 0,0 -8.01744,5.344957 5.72674,25.19765 13.74417,19.852697 19.47091,19.470917 19.47091,19.470917 0,0 1.52714,1.14535 -0.76356,-10.689907 -2.2907,-11.83527 -8.01744,-20.61627 -8.01744,-20.61627 z"
     id="path4147"
     style="fill:#b5b690;fill-opacity:1;stroke:#636b3e;stroke-width:1px;stroke-linecap:butt;stroke-linejoin:miter;stroke-opacity:1" />
  <path
     d="m 274.40215,111.01048 c -4.96317,27.48835 -3.05427,31.68796 -3.05427,31.68796 0,0 11.17398,2.92038 19.47091,-27.10657 8.01745,-29.015477 1.90892,-35.505777 1.90892,-35.505777 0,0 -8.3459,2.74271 -12.98061,14.50774 -4.96317,12.598827 -5.34495,16.416647 -5.34495,16.416647 z"
     id="path4149"
     style="fill:#b5b690;fill-opacity:1;stroke:#636b3e;stroke-width:1px;stroke-linecap:butt;stroke-linejoin:miter;stroke-opacity:1" />
  <path
     d="m 254.54945,128.57248 c 0.38178,-22.90695 -4.58139,-23.67052 -4.58139,-23.67052 0,0 -10.30813,-2.2907 -10.68992,28.6337 -0.38178,30.92439 5.34496,24.81587 5.34496,24.81587 0,0 0.76357,2.67248 6.10852,-8.39922 5.34496,-11.07169 3.81783,-21.37983 3.81783,-21.37983 z"
     id="path4151"
     style="fill:#b5b690;fill-opacity:1;stroke:#636b3e;stroke-width:1px;stroke-linecap:butt;stroke-linejoin:miter;stroke-opacity:1" />
  <path
     d="m 269.43897,169.42323 c -9.54456,8.01743 -20.23448,12.59882 -20.23448,12.59882 0,0 -15.65309,5.72674 -11.83526,-4.19961 3.81783,-9.92634 26.343,-25.57943 26.343,-25.57943 0,0 29.77905,-20.61626 25.19766,-6.49031 -4.5814,14.12596 -19.47092,23.67053 -19.47092,23.67053 z"
     id="path4153"
     style="fill:#b5b690;fill-opacity:1;stroke:#636b3e;stroke-width:1px;stroke-linecap:butt;stroke-linejoin:miter;stroke-opacity:1" />
  <path
     d="m 227.44288,153.38836 c -15.65309,5.72674 -29.01548,21.76161 -29.01548,21.76161 0,0 -13.74417,17.94378 6.10852,8.39922 19.8527,-9.54457 29.39727,-22.52518 29.39727,-22.52518 0,0 4.58139,-4.58139 2.29069,-7.63565 -2.29069,-3.05426 -8.781,0 -8.781,0 z"
     id="path4155"
     style="fill:#b5b690;fill-opacity:1;stroke:#636b3e;stroke-width:1px;stroke-linecap:butt;stroke-linejoin:miter;stroke-opacity:1" />
  <path
     d="m 211.40801,189.65771 c -23.67052,3.05426 -27.10657,9.54456 -27.10657,9.54456 0,0 -9.54456,11.0717 13.74418,9.16279 23.28874,-1.90892 38.56005,-8.78101 38.56005,-8.78101 0,0 16.41665,-8.39921 5.72673,-10.30813 -10.68991,-1.90891 -30.92439,0.38179 -30.92439,0.38179 z"
     id="path4157"
     style="fill:#b5b690;fill-opacity:1;stroke:#636b3e;stroke-width:1px;stroke-linecap:butt;stroke-linejoin:miter;stroke-opacity:1" />
  <path
     d="m 64.70452,52.386863 c 0,0 -35.98815,49.111457 -4.875,95.593747 31.11315,46.4823 90.34375,49.09375 90.34375,49.09375 l 0,3 -19.125,17.25 6.75,7.5 23.59375,-22.125 23.625,22.125 6.75,-7.5 -19.125,-17.25 0,-3 c 0,0 59.2306,-2.61145 90.34375,-49.09375 31.11315,-46.48229 -4.875,-95.593747 -4.875,-95.593747 l -9.375,6 c 0,0 35.98758,43.485587 3.375,87.718747 -32.61258,44.23315 -90.71875,43.09375 -90.71875,43.09375 0,0 -58.07492,1.1394 -90.6875,-43.09375 -32.61258,-44.23316 3.375,-87.718747 3.375,-87.718747 l -9.375,-6 z"
     id="path4043"
     style="fill:#8f5444;fill-opacity:1;stroke:none" />
</svg>
