<?xml version="1.0" encoding="UTF-8" standalone="no"?>
<!-- Created with Inkscape (http://www.inkscape.org/) -->
<svg
   xmlns:dc="http://purl.org/dc/elements/1.1/"
   xmlns:cc="http://creativecommons.org/ns#"
   xmlns:rdf="http://www.w3.org/1999/02/22-rdf-syntax-ns#"
   xmlns:svg="http://www.w3.org/2000/svg"
   xmlns="http://www.w3.org/2000/svg"
   xmlns:xlink="http://www.w3.org/1999/xlink"
   xmlns:sodipodi="http://sodipodi.sourceforge.net/DTD/sodipodi-0.dtd"
   xmlns:inkscape="http://www.inkscape.org/namespaces/inkscape"
   id="svg2"
   sodipodi:version="0.32"
   inkscape:version="0.46"
   width="138"
   height="356"
   version="1.0"
   sodipodi:docname="Rank insignia of матрос of the Soviet Navy.svg"
   inkscape:output_extension="org.inkscape.output.svg.inkscape">
  <metadata
     id="metadata7">
    <rdf:RDF>
      <cc:Work
         rdf:about="">
        <dc:format>image/svg+xml</dc:format>
        <dc:type
           rdf:resource="http://purl.org/dc/dcmitype/StillImage" />
      </cc:Work>
    </rdf:RDF>
  </metadata>
  <defs
     id="defs5">
    <linearGradient
       inkscape:collect="always"
       id="linearGradient3373">
      <stop
         style="stop-color:#9f872f;stop-opacity:1;"
         offset="0"
         id="stop3375" />
      <stop
         style="stop-color:#9f872f;stop-opacity:0;"
         offset="1"
         id="stop3377" />
    </linearGradient>
    <linearGradient
       inkscape:collect="always"
       id="linearGradient3348">
      <stop
         style="stop-color:#ffe474;stop-opacity:1;"
         offset="0"
         id="stop3350" />
      <stop
         style="stop-color:#ffe474;stop-opacity:0;"
         offset="1"
         id="stop3352" />
    </linearGradient>
    <linearGradient
       inkscape:collect="always"
       id="linearGradient6644">
      <stop
         style="stop-color:#000000;stop-opacity:1;"
         offset="0"
         id="stop6646" />
      <stop
         style="stop-color:#000000;stop-opacity:0;"
         offset="1"
         id="stop6648" />
    </linearGradient>
    <linearGradient
       inkscape:collect="always"
       xlink:href="#linearGradient3348"
       id="linearGradient2510"
       gradientUnits="userSpaceOnUse"
       x1="69.670692"
       y1="237.35391"
       x2="69.63298"
       y2="256.16403" />
    <linearGradient
       inkscape:collect="always"
       xlink:href="#linearGradient3373"
       id="linearGradient2512"
       gradientUnits="userSpaceOnUse"
       x1="56.660419"
       y1="240.875"
       x2="56.660419"
       y2="255.94603" />
    <linearGradient
       inkscape:collect="always"
       xlink:href="#linearGradient3373"
       id="linearGradient2514"
       gradientUnits="userSpaceOnUse"
       x1="69"
       y1="299.71112"
       x2="69"
       y2="282.01843" />
    <linearGradient
       inkscape:collect="always"
       xlink:href="#linearGradient3348"
       id="linearGradient2516"
       gradientUnits="userSpaceOnUse"
       x1="56.923801"
       y1="296.37448"
       x2="56.923801"
       y2="282.41403" />
    <linearGradient
       inkscape:collect="always"
       xlink:href="#linearGradient6644"
       id="linearGradient2532"
       gradientUnits="userSpaceOnUse"
       gradientTransform="matrix(1.1129032,0,0,1,2e-7,15.502496)"
       x1="62.933857"
       y1="340.00079"
       x2="62.933857"
       y2="334.98489" />
    <linearGradient
       inkscape:collect="always"
       xlink:href="#linearGradient3348"
       id="linearGradient3322"
       gradientUnits="userSpaceOnUse"
       x1="69.670692"
       y1="237.35391"
       x2="69.63298"
       y2="256.16403" />
    <linearGradient
       inkscape:collect="always"
       xlink:href="#linearGradient3373"
       id="linearGradient3324"
       gradientUnits="userSpaceOnUse"
       x1="56.660419"
       y1="240.875"
       x2="56.660419"
       y2="255.94603" />
    <linearGradient
       inkscape:collect="always"
       xlink:href="#linearGradient3373"
       id="linearGradient3326"
       gradientUnits="userSpaceOnUse"
       x1="69"
       y1="299.71112"
       x2="69"
       y2="282.01843" />
    <linearGradient
       inkscape:collect="always"
       xlink:href="#linearGradient3348"
       id="linearGradient3328"
       gradientUnits="userSpaceOnUse"
       x1="56.923801"
       y1="296.37448"
       x2="56.923801"
       y2="282.41403" />
    <linearGradient
       inkscape:collect="always"
       xlink:href="#linearGradient6644"
       id="linearGradient3330"
       gradientUnits="userSpaceOnUse"
       gradientTransform="matrix(1.1129032,0,0,1,2e-7,15.502496)"
       x1="62.933857"
       y1="340.00079"
       x2="62.933857"
       y2="334.98489" />
    <linearGradient
       inkscape:collect="always"
       xlink:href="#linearGradient6644"
       id="linearGradient3333"
       gradientUnits="userSpaceOnUse"
       gradientTransform="matrix(1.1129032,0,0,1,2e-7,15.999994)"
       x1="62.933857"
       y1="340.00079"
       x2="62.933857"
       y2="334.98489" />
  </defs>
  <sodipodi:namedview
     inkscape:window-height="881"
     inkscape:window-width="1440"
     inkscape:pageshadow="2"
     inkscape:pageopacity="0.0"
     guidetolerance="10.0"
     gridtolerance="10.0"
     objecttolerance="10.0"
     borderopacity="1.0"
     bordercolor="#666666"
     pagecolor="#ffffff"
     id="base"
     showgrid="false"
     inkscape:zoom="1.8960674"
     inkscape:cx="69"
     inkscape:cy="114.71111"
     inkscape:window-x="0"
     inkscape:window-y="0"
     inkscape:current-layer="svg2"
     inkscape:showpageshadow="false"
     showguides="true"
     inkscape:guide-bbox="true" />
  <g
     id="use3976"
     transform="translate(12,-75.435004)" />
  <use
     height="340"
     width="125"
     x="0"
     y="0"
     xlink:href="#use3976"
     id="use4026"
     transform="translate(2.9861464e-8,-56)" />
  <use
     height="340"
     width="125"
     x="0"
     y="0"
     xlink:href="#use3976"
     id="use4100"
     transform="translate(2.9861464e-8,-168)" />
  <use
     height="340"
     width="125"
     x="0"
     y="0"
     xlink:href="#use4026"
     id="use4124"
     transform="translate(2.9861464e-8,-168)" />
  <g
     id="g11129"
     transform="translate(0.853951,-645.22111)" />
  <use
     height="340"
     width="125"
     x="0"
     y="0"
     xlink:href="#use3976"
     id="use11131"
     transform="translate(-11.146049,-625.78611)" />
  <use
     height="340"
     width="125"
     x="0"
     y="0"
     xlink:href="#use3976"
     id="use11133"
     transform="translate(-11.146049,-737.78611)" />
  <use
     height="340"
     width="125"
     x="0"
     y="0"
     xlink:href="#use4026"
     id="use11135"
     transform="translate(-11.146049,-737.78611)" />
  <g
     id="g2663"
     transform="translate(-269.28548,-149.46591)" />
  <use
     height="340"
     width="125"
     x="0"
     y="0"
     xlink:href="#use3976"
     id="use2665"
     transform="translate(-281.28548,-130.0309)" />
  <use
     height="340"
     width="125"
     x="0"
     y="0"
     xlink:href="#use3976"
     id="use2667"
     transform="translate(-281.28548,-242.0309)" />
  <use
     height="340"
     width="125"
     x="0"
     y="0"
     xlink:href="#use4026"
     id="use2669"
     transform="translate(-281.28548,-242.0309)" />
  <g
     id="g2671"
     transform="translate(-280.43153,-719.25201)" />
  <use
     height="340"
     width="125"
     x="0"
     y="0"
     xlink:href="#use3976"
     id="use2673"
     transform="translate(-292.43153,-699.81701)" />
  <use
     height="340"
     width="125"
     x="0"
     y="0"
     xlink:href="#use3976"
     id="use2675"
     transform="translate(-292.43153,-811.81701)" />
  <use
     height="340"
     width="125"
     x="0"
     y="0"
     xlink:href="#use4026"
     id="use2677"
     transform="translate(-292.43153,-811.81701)" />
  <g
     id="g2695"
     transform="translate(-217.13594,-75.476414)" />
  <use
     height="340"
     width="125"
     x="0"
     y="0"
     xlink:href="#use3976"
     id="use2697"
     transform="translate(-229.13594,-56.04141)" />
  <use
     height="340"
     width="125"
     x="0"
     y="0"
     xlink:href="#use3976"
     id="use2699"
     transform="translate(-229.13594,-168.04141)" />
  <use
     height="340"
     width="125"
     x="0"
     y="0"
     xlink:href="#use4026"
     id="use2701"
     transform="translate(-229.13594,-168.04141)" />
  <g
     id="g2703"
     transform="translate(-228.28199,-645.26252)" />
  <use
     height="340"
     width="125"
     x="0"
     y="0"
     xlink:href="#use3976"
     id="use2705"
     transform="translate(-240.28199,-625.82752)" />
  <use
     height="340"
     width="125"
     x="0"
     y="0"
     xlink:href="#use3976"
     id="use2707"
     transform="translate(-240.28199,-737.82752)" />
  <use
     height="340"
     width="125"
     x="0"
     y="0"
     xlink:href="#use4026"
     id="use2709"
     transform="translate(-240.28199,-737.82752)" />
  <g
     id="g2688"
     transform="translate(-518.43841,-96.83102)" />
  <use
     height="340"
     width="125"
     x="0"
     y="0"
     xlink:href="#use3976"
     id="use2690"
     transform="translate(-530.43841,-77.396016)" />
  <use
     height="340"
     width="125"
     x="0"
     y="0"
     xlink:href="#use3976"
     id="use2692"
     transform="translate(-530.43841,-189.39602)" />
  <use
     height="340"
     width="125"
     x="0"
     y="0"
     xlink:href="#use4026"
     id="use2694"
     transform="translate(-530.43841,-189.39602)" />
  <g
     id="g2696"
     transform="translate(-529.58446,-666.61713)" />
  <use
     height="340"
     width="125"
     x="0"
     y="0"
     xlink:href="#use3976"
     id="use2698"
     transform="translate(-541.58446,-647.18213)" />
  <use
     height="340"
     width="125"
     x="0"
     y="0"
     xlink:href="#use3976"
     id="use2700"
     transform="translate(-541.58446,-759.18213)" />
  <use
     height="340"
     width="125"
     x="0"
     y="0"
     xlink:href="#use4026"
     id="use2702"
     transform="translate(-541.58446,-759.18213)" />
  <g
     id="g2768"
     transform="translate(-799.72389,-170.86193)" />
  <use
     height="340"
     width="125"
     x="0"
     y="0"
     xlink:href="#use3976"
     id="use2770"
     transform="translate(-811.72389,-151.42692)" />
  <use
     height="340"
     width="125"
     x="0"
     y="0"
     xlink:href="#use3976"
     id="use2772"
     transform="translate(-811.72389,-263.42692)" />
  <use
     height="340"
     width="125"
     x="0"
     y="0"
     xlink:href="#use4026"
     id="use2774"
     transform="translate(-811.72389,-263.42692)" />
  <g
     id="g2776"
     transform="translate(-810.86994,-740.64803)" />
  <use
     height="340"
     width="125"
     x="0"
     y="0"
     xlink:href="#use3976"
     id="use2778"
     transform="translate(-822.86994,-721.21303)" />
  <use
     height="340"
     width="125"
     x="0"
     y="0"
     xlink:href="#use3976"
     id="use2780"
     transform="translate(-822.86994,-833.21303)" />
  <use
     height="340"
     width="125"
     x="0"
     y="0"
     xlink:href="#use4026"
     id="use2782"
     transform="translate(-822.86994,-833.21303)" />
  <g
     id="g2978"
     transform="translate(-373.76563,-73.05061)" />
  <use
     height="340"
     width="125"
     x="0"
     y="0"
     xlink:href="#use3976"
     id="use2980"
     transform="translate(-385.76563,-53.615606)" />
  <use
     height="340"
     width="125"
     x="0"
     y="0"
     xlink:href="#use3976"
     id="use2982"
     transform="translate(-385.76563,-165.61561)" />
  <use
     height="340"
     width="125"
     x="0"
     y="0"
     xlink:href="#use4026"
     id="use2984"
     transform="translate(-385.76563,-165.61561)" />
  <g
     id="g2986"
     transform="translate(-384.91168,-642.83672)" />
  <use
     height="340"
     width="125"
     x="0"
     y="0"
     xlink:href="#use3976"
     id="use2988"
     transform="translate(-396.91168,-623.40172)" />
  <use
     height="340"
     width="125"
     x="0"
     y="0"
     xlink:href="#use3976"
     id="use2990"
     transform="translate(-396.91168,-735.40172)" />
  <use
     height="340"
     width="125"
     x="0"
     y="0"
     xlink:href="#use4026"
     id="use2992"
     transform="translate(-396.91168,-735.40172)" />
  <path
     style="fill:#000000;fill-opacity:1;stroke:none;stroke-width:14;stroke-linecap:butt;stroke-linejoin:round;stroke-miterlimit:4;stroke-dasharray:none;stroke-dashoffset:0;stroke-opacity:1"
     d="M 7.1875002,0.4374936 C 5.2987702,0.3870786 3.4698536,1.1022366 2.1163058,2.4204746 C 0.762758,3.7387126 -0.0004836,5.5480906 2e-07,7.4374936 L 2e-07,356 C 2e-07,356 138,356 138,356 L 138,36.343744 C 137.99805,33.093183 135.75888,30.271578 132.59375,29.531244 L 8.5937502,0.6249936 C 8.1325587,0.5150366 7.66139,0.4522136 7.1875002,0.4374936 L 7.1875002,0.4374936 z"
     id="path6772"
     sodipodi:nodetypes="cscccccccc" />
  <path
     style="opacity:0.3;fill:none;fill-opacity:1;stroke:#ffffff;stroke-width:1;stroke-linecap:round;stroke-linejoin:round;stroke-miterlimit:4;stroke-dasharray:3, 3;stroke-dashoffset:0;stroke-opacity:1"
     d="M 129.5,355.4995 L 129.5,38.778748 L 8.5,10.091248 L 8.5,355.4995"
     id="path2516"
     sodipodi:nodetypes="cccc" />
  <g
     id="g3555"
     transform="translate(0,0.4349976)">
    <path
       id="rect3351"
       d="M 58,226.565 L 58,231.065 L 63.5,231.065 L 63.5,239.1275 C 60.956386,236.91695 57.649987,235.565 54,235.565 C 45.967,235.565 39.5,242.032 39.5,250.065 L 39.5,288.065 C 39.5,296.098 45.967,302.565 54,302.565 C 57.649987,302.565 60.956386,301.21305 63.5,299.0025 L 63.5,311.065 L 58,311.065 L 58,315.565 L 80,315.565 L 80,311.065 L 74.5,311.065 L 74.5,299.0025 C 77.043614,301.21305 80.350013,302.565 84,302.565 C 92.033,302.565 98.5,296.098 98.5,288.065 L 98.5,250.065 C 98.5,242.032 92.033,235.565 84,235.565 C 80.350013,235.565 77.043614,236.91695 74.5,239.1275 L 74.5,231.065 L 80,231.065 L 80,226.565 L 58,226.565 z M 57,241.565 C 60.601,241.565 63.5,244.43547 63.5,248.0025 L 63.5,290.1275 C 63.5,293.69454 60.601,296.565 57,296.565 C 53.399,296.565 50.5,293.69453 50.5,290.1275 L 50.5,248.0025 C 50.5,244.43546 53.399,241.565 57,241.565 z M 81,241.565 C 84.601,241.565 87.5,244.43546 87.5,248.0025 L 87.5,290.1275 C 87.5,293.69453 84.601,296.565 81,296.565 C 77.399,296.565 74.5,293.69454 74.5,290.1275 L 74.5,248.0025 C 74.5,244.43547 77.399,241.565 81,241.565 z"
       style="fill:#ebc846;fill-opacity:1;stroke:none;stroke-width:1;stroke-linecap:round;stroke-linejoin:round;stroke-miterlimit:4;stroke-dasharray:3, 3;stroke-dashoffset:0;stroke-opacity:1" />
    <path
       id="path3426"
       d="M 58,226.5625 L 58,231.0625 L 63.5,231.0625 L 63.5,239.125 C 60.956386,236.91445 57.649987,235.5625 54,235.5625 C 45.967,235.5625 39.5,242.0295 39.5,250.0625 L 39.5,288.0625 C 39.5,296.0955 45.967,302.5625 54,302.5625 C 57.649987,302.5625 60.956386,301.21055 63.5,299 L 63.5,311.0625 L 58,311.0625 L 58,315.5625 L 80,315.5625 L 80,311.0625 L 74.5,311.0625 L 74.5,299 C 77.043614,301.21055 80.350013,302.5625 84,302.5625 C 92.033,302.5625 98.5,296.0955 98.5,288.0625 L 98.5,250.0625 C 98.5,242.0295 92.033,235.5625 84,235.5625 C 80.350013,235.5625 77.043614,236.91445 74.5,239.125 L 74.5,231.0625 L 80,231.0625 L 80,226.5625 L 58,226.5625 z M 58.6875,227.25 L 79.3125,227.25 L 79.3125,230.375 L 74.5,230.375 L 73.8125,230.375 L 73.8125,231.0625 L 73.8125,239.125 L 73.8125,240.65625 L 74.96875,239.65625 C 77.392327,237.55002 80.522866,236.25 84,236.25 C 91.657308,236.25 97.8125,242.40519 97.8125,250.0625 L 97.8125,288.0625 C 97.8125,295.71981 91.657308,301.875 84,301.875 C 80.522866,301.875 77.392327,300.57498 74.96875,298.46875 L 73.8125,297.46875 L 73.8125,299 L 73.8125,311.0625 L 73.8125,311.75 L 74.5,311.75 L 79.3125,311.75 L 79.3125,314.875 L 58.6875,314.875 L 58.6875,311.75 L 63.5,311.75 L 64.1875,311.75 L 64.1875,311.0625 L 64.1875,299 L 64.1875,297.46875 L 63.03125,298.46875 C 60.607673,300.57498 57.477135,301.875 54,301.875 C 46.342692,301.875 40.1875,295.71981 40.1875,288.0625 L 40.1875,250.0625 C 40.1875,242.40519 46.342692,236.25 54,236.25 C 57.477134,236.25 60.607673,237.55002 63.03125,239.65625 L 64.1875,240.65625 L 64.1875,239.125 L 64.1875,231.0625 L 64.1875,230.375 L 63.5,230.375 L 58.6875,230.375 L 58.6875,227.25 z M 57,240.875 C 53.027007,240.875 49.8125,244.05369 49.8125,248 L 49.8125,290.125 C 49.8125,294.0713 53.027006,297.25 57,297.25 C 60.972993,297.25 64.1875,294.07131 64.1875,290.125 L 64.1875,248 C 64.1875,244.0537 60.972995,240.875 57,240.875 z M 81,240.875 C 77.027005,240.875 73.8125,244.0537 73.8125,248 L 73.8125,290.125 C 73.8125,294.07131 77.027007,297.25 81,297.25 C 84.972995,297.25 88.1875,294.0713 88.1875,290.125 L 88.1875,248 C 88.1875,244.05369 84.972994,240.875 81,240.875 z M 57,241.5625 C 60.601,241.5625 63.5,244.43297 63.5,248 L 63.5,290.125 C 63.5,293.69204 60.601,296.5625 57,296.5625 C 53.399,296.5625 50.5,293.69203 50.5,290.125 L 50.5,248 C 50.5,244.43296 53.399,241.5625 57,241.5625 z M 81,241.5625 C 84.601,241.5625 87.5,244.43296 87.5,248 L 87.5,290.125 C 87.5,293.69203 84.601,296.5625 81,296.5625 C 77.399,296.5625 74.5,293.69204 74.5,290.125 L 74.5,248 C 74.5,244.43297 77.399,241.5625 81,241.5625 z"
       style="fill:#d2b340;fill-opacity:1;stroke:none;stroke-width:1.39999998;stroke-linecap:round;stroke-linejoin:miter;stroke-miterlimit:4;stroke-dasharray:none;stroke-dashoffset:0;stroke-opacity:1" />
    <path
       id="path3541"
       d="M 58.6875,230.375 L 58,231.0625 L 63.5,231.0625 L 64.1875,230.375 L 58.6875,230.375 z M 73.8125,230.375 L 74.5,231.0625 L 80,231.0625 L 79.3125,230.375 L 73.8125,230.375 z"
       style="fill:#9f872f;fill-opacity:1;stroke:none;stroke-width:1.39999998;stroke-linecap:round;stroke-linejoin:miter;stroke-miterlimit:4;stroke-dasharray:none;stroke-dashoffset:0;stroke-opacity:1" />
    <path
       id="path3537"
       d="M 54,235.5625 C 45.967,235.5625 39.5,242.0295 39.5,250.0625 L 39.5,265.21875 L 40.1875,265.21875 L 40.1875,250.0625 C 40.1875,242.40519 46.342692,236.25 54,236.25 C 57.477134,236.25 60.607673,237.55002 63.03125,239.65625 L 64.1875,240.65625 L 63.5,239.125 C 60.956386,236.91445 57.649987,235.5625 54,235.5625 z M 84,235.5625 C 80.350013,235.5625 77.043614,236.91445 74.5,239.125 L 73.8125,240.65625 L 74.96875,239.65625 C 77.392327,237.55002 80.522866,236.25 84,236.25 C 91.657308,236.25 97.8125,242.40519 97.8125,250.0625 L 97.8125,265.21875 L 98.5,265.21875 L 98.5,250.0625 C 98.5,242.0295 92.033,235.5625 84,235.5625 z"
       style="fill:url(#linearGradient3322);fill-opacity:1;stroke:none;stroke-width:1.39999998;stroke-linecap:round;stroke-linejoin:miter;stroke-miterlimit:4;stroke-dasharray:none;stroke-dashoffset:0;stroke-opacity:1" />
    <path
       id="path3448"
       d="M 57,240.875 C 53.027007,240.875 49.8125,244.05369 49.8125,248 L 49.8125,265.21875 L 50.5,265.21875 L 50.5,248 C 50.5,244.43296 53.399,241.5625 57,241.5625 C 60.601,241.5625 63.5,244.43297 63.5,248 L 63.5,265.21875 L 64.1875,265.21875 L 64.1875,248 C 64.1875,244.0537 60.972995,240.875 57,240.875 z M 81,240.875 C 77.027005,240.875 73.8125,244.0537 73.8125,248 L 73.8125,265.21875 L 74.5,265.21875 L 74.5,248 C 74.5,244.43297 77.399,241.5625 81,241.5625 C 84.601,241.5625 87.5,244.43296 87.5,248 L 87.5,265.21875 L 88.1875,265.21875 L 88.1875,248 C 88.1875,244.05369 84.972994,240.875 81,240.875 z"
       style="fill:url(#linearGradient3324);fill-opacity:1;stroke:none;stroke-width:1.39999998;stroke-linecap:round;stroke-linejoin:miter;stroke-miterlimit:4;stroke-dasharray:none;stroke-dashoffset:0;stroke-opacity:1" />
    <path
       id="path3479"
       d="M 39.5,271.53125 L 39.5,288.0625 C 39.5,296.0955 45.967,302.5625 54,302.5625 C 57.649987,302.5625 60.956386,301.21055 63.5,299 L 64.1875,297.46875 L 63.03125,298.46875 C 60.607673,300.57498 57.477135,301.875 54,301.875 C 46.342692,301.875 40.1875,295.71981 40.1875,288.0625 L 40.1875,271.53125 L 39.5,271.53125 z M 97.8125,271.53125 L 97.8125,288.0625 C 97.8125,295.71981 91.657308,301.875 84,301.875 C 80.522866,301.875 77.392327,300.57498 74.96875,298.46875 L 73.8125,297.46875 L 74.5,299 C 77.043614,301.21055 80.350013,302.5625 84,302.5625 C 92.033,302.5625 98.5,296.0955 98.5,288.0625 L 98.5,271.53125 L 97.8125,271.53125 z"
       style="fill:url(#linearGradient3326);fill-opacity:1;stroke:none;stroke-width:1.39999998;stroke-linecap:round;stroke-linejoin:miter;stroke-miterlimit:4;stroke-dasharray:none;stroke-dashoffset:0;stroke-opacity:1" />
    <path
       id="path3488"
       d="M 58,311.0625 L 58.6875,311.75 L 64.1875,311.75 L 63.5,311.0625 L 58,311.0625 z"
       style="fill:#ffe474;fill-opacity:1;stroke:none;stroke-width:1.39999998;stroke-linecap:round;stroke-linejoin:miter;stroke-miterlimit:4;stroke-dasharray:none;stroke-dashoffset:0;stroke-opacity:1" />
    <path
       id="path3486"
       d="M 74.5,311.0625 L 73.8125,311.75 L 79.3125,311.75 L 80,311.0625 L 74.5,311.0625 z"
       style="fill:#ffe474;fill-opacity:1;stroke:none;stroke-width:1.39999998;stroke-linecap:round;stroke-linejoin:miter;stroke-miterlimit:4;stroke-dasharray:none;stroke-dashoffset:0;stroke-opacity:1" />
    <path
       id="path3444"
       d="M 58,315.5625 L 80,315.5625 L 79.3125,314.875 L 58.6875,314.875 L 58,315.5625 z"
       style="fill:#9f872f;fill-opacity:1;stroke:none;stroke-width:1.39999998;stroke-linecap:round;stroke-linejoin:miter;stroke-miterlimit:4;stroke-dasharray:none;stroke-dashoffset:0;stroke-opacity:1" />
    <path
       id="path3442"
       d="M 49.8125,271.53125 L 49.8125,290.125 C 49.8125,294.0713 53.027006,297.25 57,297.25 C 60.972993,297.25 64.1875,294.07131 64.1875,290.125 L 64.1875,271.53125 L 63.5,271.53125 L 63.5,290.125 C 63.5,293.69204 60.601,296.5625 57,296.5625 C 53.399,296.5625 50.5,293.69203 50.5,290.125 L 50.5,271.53125 L 49.8125,271.53125 z M 73.8125,271.53125 L 73.8125,290.125 C 73.8125,294.07131 77.027007,297.25 81,297.25 C 84.972995,297.25 88.1875,294.0713 88.1875,290.125 L 88.1875,271.53125 L 87.5,271.53125 L 87.5,290.125 C 87.5,293.69203 84.601,296.5625 81,296.5625 C 77.399,296.5625 74.5,293.69204 74.5,290.125 L 74.5,271.53125 L 73.8125,271.53125 z"
       style="fill:url(#linearGradient3328);fill-opacity:1;stroke:none;stroke-width:1.39999998;stroke-linecap:round;stroke-linejoin:miter;stroke-miterlimit:4;stroke-dasharray:none;stroke-dashoffset:0;stroke-opacity:1" />
    <path
       style="fill:#ffe474;fill-opacity:1;stroke:none;stroke-width:1.39999998;stroke-linecap:round;stroke-linejoin:miter;stroke-miterlimit:4;stroke-dasharray:none;stroke-dashoffset:0;stroke-opacity:1"
       d="M 58,226.5625 L 80,226.5625 L 79.3125,227.25 L 58.6875,227.25 L 58,226.5625 z"
       id="path3517" />
  </g>
  <rect
     style="opacity:0.3;fill:url(#linearGradient3333);fill-opacity:1;stroke:none;stroke-width:1;stroke-linecap:butt;stroke-linejoin:round;stroke-miterlimit:4;stroke-dasharray:none;stroke-dashoffset:0;stroke-opacity:1"
     id="rect6642"
     width="138"
     height="5"
     x="2e-07"
     y="351" />
</svg>
