<?xml version="1.0" encoding="UTF-8" standalone="no"?>
<!-- Created with Inkscape (http://www.inkscape.org/) -->
<svg
   xmlns:dc="http://purl.org/dc/elements/1.1/"
   xmlns:cc="http://creativecommons.org/ns#"
   xmlns:rdf="http://www.w3.org/1999/02/22-rdf-syntax-ns#"
   xmlns:svg="http://www.w3.org/2000/svg"
   xmlns="http://www.w3.org/2000/svg"
   xmlns:xlink="http://www.w3.org/1999/xlink"
   xmlns:sodipodi="http://sodipodi.sourceforge.net/DTD/sodipodi-0.dtd"
   xmlns:inkscape="http://www.inkscape.org/namespaces/inkscape"
   id="svg2"
   sodipodi:version="0.32"
   inkscape:version="0.46"
   width="138"
   height="355.565"
   version="1.0"
   sodipodi:docname="Rank insignia of старший матрос of the Soviet Navy.svg"
   inkscape:output_extension="org.inkscape.output.svg.inkscape">
  <metadata
     id="metadata7">
    <rdf:RDF>
      <cc:Work
         rdf:about="">
        <dc:format>image/svg+xml</dc:format>
        <dc:type
           rdf:resource="http://purl.org/dc/dcmitype/StillImage" />
      </cc:Work>
    </rdf:RDF>
  </metadata>
  <defs
     id="defs5">
    <linearGradient
       inkscape:collect="always"
       id="linearGradient7808">
      <stop
         style="stop-color:#000000;stop-opacity:1;"
         offset="0"
         id="stop7810" />
      <stop
         style="stop-color:#000000;stop-opacity:0;"
         offset="1"
         id="stop7812" />
    </linearGradient>
    <linearGradient
       inkscape:collect="always"
       id="linearGradient3373">
      <stop
         style="stop-color:#9f872f;stop-opacity:1;"
         offset="0"
         id="stop3375" />
      <stop
         style="stop-color:#9f872f;stop-opacity:0;"
         offset="1"
         id="stop3377" />
    </linearGradient>
    <linearGradient
       inkscape:collect="always"
       id="linearGradient3348">
      <stop
         style="stop-color:#ffe474;stop-opacity:1;"
         offset="0"
         id="stop3350" />
      <stop
         style="stop-color:#ffe474;stop-opacity:0;"
         offset="1"
         id="stop3352" />
    </linearGradient>
    <linearGradient
       inkscape:collect="always"
       id="linearGradient6644">
      <stop
         style="stop-color:#000000;stop-opacity:1;"
         offset="0"
         id="stop6646" />
      <stop
         style="stop-color:#000000;stop-opacity:0;"
         offset="1"
         id="stop6648" />
    </linearGradient>
    <linearGradient
       inkscape:collect="always"
       xlink:href="#linearGradient6644"
       id="linearGradient8880"
       gradientUnits="userSpaceOnUse"
       gradientTransform="matrix(1.1129032,0,0,1,2e-7,15.564996)"
       x1="62.933857"
       y1="340.00079"
       x2="62.933857"
       y2="334.98489" />
    <linearGradient
       inkscape:collect="always"
       xlink:href="#linearGradient3373"
       id="linearGradient3460"
       x1="56.660419"
       y1="240.875"
       x2="56.660419"
       y2="255.94603"
       gradientUnits="userSpaceOnUse" />
    <linearGradient
       inkscape:collect="always"
       xlink:href="#linearGradient3348"
       id="linearGradient3470"
       x1="56.923801"
       y1="296.37448"
       x2="56.923801"
       y2="282.41403"
       gradientUnits="userSpaceOnUse" />
    <linearGradient
       inkscape:collect="always"
       xlink:href="#linearGradient3373"
       id="linearGradient3515"
       x1="69"
       y1="299.71112"
       x2="69"
       y2="282.01843"
       gradientUnits="userSpaceOnUse" />
    <linearGradient
       inkscape:collect="always"
       xlink:href="#linearGradient3348"
       id="linearGradient3551"
       x1="69.670692"
       y1="237.35391"
       x2="69.63298"
       y2="256.16403"
       gradientUnits="userSpaceOnUse" />
    <linearGradient
       inkscape:collect="always"
       xlink:href="#linearGradient7808"
       id="linearGradient4044"
       gradientUnits="userSpaceOnUse"
       gradientTransform="translate(-178.5667,-4.141e-2)"
       x1="-0.18623884"
       y1="137.47932"
       x2="9.1257029"
       y2="137.47932" />
    <linearGradient
       inkscape:collect="always"
       xlink:href="#linearGradient7808"
       id="linearGradient4046"
       gradientUnits="userSpaceOnUse"
       gradientTransform="matrix(-1,0,0,1,-40.5667,-4.141e-2)"
       x1="-0.18623884"
       y1="137.47932"
       x2="9.1257029"
       y2="137.47932" />
  </defs>
  <sodipodi:namedview
     inkscape:window-height="881"
     inkscape:window-width="1440"
     inkscape:pageshadow="2"
     inkscape:pageopacity="0.0"
     guidetolerance="10.0"
     gridtolerance="10.0"
     objecttolerance="10.0"
     borderopacity="1.0"
     bordercolor="#666666"
     pagecolor="#ffffff"
     id="base"
     showgrid="false"
     inkscape:zoom="1.3423624"
     inkscape:cx="5.0671731"
     inkscape:cy="154.76321"
     inkscape:window-x="-4"
     inkscape:window-y="-4"
     inkscape:current-layer="svg2"
     inkscape:showpageshadow="false"
     showguides="true"
     inkscape:guide-bbox="true" />
  <path
     style="fill:#000000;fill-opacity:1;stroke:none;stroke-width:14;stroke-linecap:butt;stroke-linejoin:round;stroke-miterlimit:4;stroke-dasharray:none;stroke-dashoffset:0;stroke-opacity:1"
     d="M 7.1875002,0.002496 C 5.2987702,-0.047919 3.4698536,0.667239 2.1163058,1.985477 C 0.762758,3.303715 -0.0004836,5.113093 2e-07,7.002496 L 2e-07,355.565 C 2e-07,355.565 138,355.565 138,355.565 L 138,35.908746 C 137.99805,32.658185 135.75888,29.83658 132.59375,29.096246 L 8.5937502,0.189996 C 8.1325587,0.080039 7.66139,0.017216 7.1875002,0.002496 L 7.1875002,0.002496 z"
     id="path6772"
     sodipodi:nodetypes="cscccccccc" />
  <g
     id="use3976"
     transform="translate(12,-75.435004)" />
  <use
     height="340"
     width="125"
     x="0"
     y="0"
     xlink:href="#use3976"
     id="use4026"
     transform="translate(2.9861464e-8,-56)" />
  <use
     height="340"
     width="125"
     x="0"
     y="0"
     xlink:href="#use3976"
     id="use4100"
     transform="translate(2.9861464e-8,-168)" />
  <use
     height="340"
     width="125"
     x="0"
     y="0"
     xlink:href="#use4026"
     id="use4124"
     transform="translate(2.9861464e-8,-168)" />
  <g
     id="g11129"
     transform="translate(0.853951,-645.22111)" />
  <use
     height="340"
     width="125"
     x="0"
     y="0"
     xlink:href="#use3976"
     id="use11131"
     transform="translate(-11.146049,-625.78611)" />
  <use
     height="340"
     width="125"
     x="0"
     y="0"
     xlink:href="#use3976"
     id="use11133"
     transform="translate(-11.146049,-737.78611)" />
  <use
     height="340"
     width="125"
     x="0"
     y="0"
     xlink:href="#use4026"
     id="use11135"
     transform="translate(-11.146049,-737.78611)" />
  <rect
     style="opacity:0.3;fill:url(#linearGradient8880);fill-opacity:1;stroke:none;stroke-width:1;stroke-linecap:butt;stroke-linejoin:round;stroke-miterlimit:4;stroke-dasharray:none;stroke-dashoffset:0;stroke-opacity:1"
     id="rect6642"
     width="138"
     height="5"
     x="2e-07"
     y="350.565" />
  <g
     id="g2663"
     transform="translate(-269.28548,-149.46591)" />
  <use
     height="340"
     width="125"
     x="0"
     y="0"
     xlink:href="#use3976"
     id="use2665"
     transform="translate(-281.28548,-130.0309)" />
  <use
     height="340"
     width="125"
     x="0"
     y="0"
     xlink:href="#use3976"
     id="use2667"
     transform="translate(-281.28548,-242.0309)" />
  <use
     height="340"
     width="125"
     x="0"
     y="0"
     xlink:href="#use4026"
     id="use2669"
     transform="translate(-281.28548,-242.0309)" />
  <g
     id="g2671"
     transform="translate(-280.43153,-719.25201)" />
  <use
     height="340"
     width="125"
     x="0"
     y="0"
     xlink:href="#use3976"
     id="use2673"
     transform="translate(-292.43153,-699.81701)" />
  <use
     height="340"
     width="125"
     x="0"
     y="0"
     xlink:href="#use3976"
     id="use2675"
     transform="translate(-292.43153,-811.81701)" />
  <use
     height="340"
     width="125"
     x="0"
     y="0"
     xlink:href="#use4026"
     id="use2677"
     transform="translate(-292.43153,-811.81701)" />
  <g
     id="g2695"
     transform="translate(-217.13594,-75.476414)" />
  <use
     height="340"
     width="125"
     x="0"
     y="0"
     xlink:href="#use3976"
     id="use2697"
     transform="translate(-229.13594,-56.04141)" />
  <use
     height="340"
     width="125"
     x="0"
     y="0"
     xlink:href="#use3976"
     id="use2699"
     transform="translate(-229.13594,-168.04141)" />
  <use
     height="340"
     width="125"
     x="0"
     y="0"
     xlink:href="#use4026"
     id="use2701"
     transform="translate(-229.13594,-168.04141)" />
  <g
     id="g2703"
     transform="translate(-228.28199,-645.26252)" />
  <use
     height="340"
     width="125"
     x="0"
     y="0"
     xlink:href="#use3976"
     id="use2705"
     transform="translate(-240.28199,-625.82752)" />
  <use
     height="340"
     width="125"
     x="0"
     y="0"
     xlink:href="#use3976"
     id="use2707"
     transform="translate(-240.28199,-737.82752)" />
  <use
     height="340"
     width="125"
     x="0"
     y="0"
     xlink:href="#use4026"
     id="use2709"
     transform="translate(-240.28199,-737.82752)" />
  <g
     id="g2688"
     transform="translate(-518.43841,-96.83102)" />
  <use
     height="340"
     width="125"
     x="0"
     y="0"
     xlink:href="#use3976"
     id="use2690"
     transform="translate(-530.43841,-77.396016)" />
  <use
     height="340"
     width="125"
     x="0"
     y="0"
     xlink:href="#use3976"
     id="use2692"
     transform="translate(-530.43841,-189.39602)" />
  <use
     height="340"
     width="125"
     x="0"
     y="0"
     xlink:href="#use4026"
     id="use2694"
     transform="translate(-530.43841,-189.39602)" />
  <g
     id="g2696"
     transform="translate(-529.58446,-666.61713)" />
  <use
     height="340"
     width="125"
     x="0"
     y="0"
     xlink:href="#use3976"
     id="use2698"
     transform="translate(-541.58446,-647.18213)" />
  <use
     height="340"
     width="125"
     x="0"
     y="0"
     xlink:href="#use3976"
     id="use2700"
     transform="translate(-541.58446,-759.18213)" />
  <use
     height="340"
     width="125"
     x="0"
     y="0"
     xlink:href="#use4026"
     id="use2702"
     transform="translate(-541.58446,-759.18213)" />
  <g
     id="g2768"
     transform="translate(-799.72389,-170.86193)" />
  <use
     height="340"
     width="125"
     x="0"
     y="0"
     xlink:href="#use3976"
     id="use2770"
     transform="translate(-811.72389,-151.42692)" />
  <use
     height="340"
     width="125"
     x="0"
     y="0"
     xlink:href="#use3976"
     id="use2772"
     transform="translate(-811.72389,-263.42692)" />
  <use
     height="340"
     width="125"
     x="0"
     y="0"
     xlink:href="#use4026"
     id="use2774"
     transform="translate(-811.72389,-263.42692)" />
  <g
     id="g2776"
     transform="translate(-810.86994,-740.64803)" />
  <use
     height="340"
     width="125"
     x="0"
     y="0"
     xlink:href="#use3976"
     id="use2778"
     transform="translate(-822.86994,-721.21303)" />
  <use
     height="340"
     width="125"
     x="0"
     y="0"
     xlink:href="#use3976"
     id="use2780"
     transform="translate(-822.86994,-833.21303)" />
  <use
     height="340"
     width="125"
     x="0"
     y="0"
     xlink:href="#use4026"
     id="use2782"
     transform="translate(-822.86994,-833.21303)" />
  <g
     id="g2978"
     transform="translate(-373.76563,-73.05061)" />
  <use
     height="340"
     width="125"
     x="0"
     y="0"
     xlink:href="#use3976"
     id="use2980"
     transform="translate(-385.76563,-53.615606)" />
  <use
     height="340"
     width="125"
     x="0"
     y="0"
     xlink:href="#use3976"
     id="use2982"
     transform="translate(-385.76563,-165.61561)" />
  <use
     height="340"
     width="125"
     x="0"
     y="0"
     xlink:href="#use4026"
     id="use2984"
     transform="translate(-385.76563,-165.61561)" />
  <g
     id="g2986"
     transform="translate(-384.91168,-642.83672)" />
  <use
     height="340"
     width="125"
     x="0"
     y="0"
     xlink:href="#use3976"
     id="use2988"
     transform="translate(-396.91168,-623.40172)" />
  <use
     height="340"
     width="125"
     x="0"
     y="0"
     xlink:href="#use3976"
     id="use2990"
     transform="translate(-396.91168,-735.40172)" />
  <use
     height="340"
     width="125"
     x="0"
     y="0"
     xlink:href="#use4026"
     id="use2992"
     transform="translate(-396.91168,-735.40172)" />
  <g
     id="g3555">
    <path
       id="rect3351"
       d="M 58,226.565 L 58,231.065 L 63.5,231.065 L 63.5,239.1275 C 60.956386,236.91695 57.649987,235.565 54,235.565 C 45.967,235.565 39.5,242.032 39.5,250.065 L 39.5,288.065 C 39.5,296.098 45.967,302.565 54,302.565 C 57.649987,302.565 60.956386,301.21305 63.5,299.0025 L 63.5,311.065 L 58,311.065 L 58,315.565 L 80,315.565 L 80,311.065 L 74.5,311.065 L 74.5,299.0025 C 77.043614,301.21305 80.350013,302.565 84,302.565 C 92.033,302.565 98.5,296.098 98.5,288.065 L 98.5,250.065 C 98.5,242.032 92.033,235.565 84,235.565 C 80.350013,235.565 77.043614,236.91695 74.5,239.1275 L 74.5,231.065 L 80,231.065 L 80,226.565 L 58,226.565 z M 57,241.565 C 60.601,241.565 63.5,244.43547 63.5,248.0025 L 63.5,290.1275 C 63.5,293.69454 60.601,296.565 57,296.565 C 53.399,296.565 50.5,293.69453 50.5,290.1275 L 50.5,248.0025 C 50.5,244.43546 53.399,241.565 57,241.565 z M 81,241.565 C 84.601,241.565 87.5,244.43546 87.5,248.0025 L 87.5,290.1275 C 87.5,293.69453 84.601,296.565 81,296.565 C 77.399,296.565 74.5,293.69454 74.5,290.1275 L 74.5,248.0025 C 74.5,244.43547 77.399,241.565 81,241.565 z"
       style="fill:#ebc846;fill-opacity:1;stroke:none;stroke-width:1;stroke-linecap:round;stroke-linejoin:round;stroke-miterlimit:4;stroke-dasharray:3, 3;stroke-dashoffset:0;stroke-opacity:1" />
    <path
       id="path3426"
       d="M 58 226.5625 L 58 231.0625 L 63.5 231.0625 L 63.5 239.125 C 60.956386 236.91445 57.649987 235.5625 54 235.5625 C 45.967 235.5625 39.5 242.0295 39.5 250.0625 L 39.5 288.0625 C 39.5 296.0955 45.967 302.5625 54 302.5625 C 57.649987 302.5625 60.956386 301.21055 63.5 299 L 63.5 311.0625 L 58 311.0625 L 58 315.5625 L 80 315.5625 L 80 311.0625 L 74.5 311.0625 L 74.5 299 C 77.043614 301.21055 80.350013 302.5625 84 302.5625 C 92.033 302.5625 98.5 296.0955 98.5 288.0625 L 98.5 250.0625 C 98.5 242.0295 92.033 235.5625 84 235.5625 C 80.350013 235.5625 77.043614 236.91445 74.5 239.125 L 74.5 231.0625 L 80 231.0625 L 80 226.5625 L 58 226.5625 z M 58.6875 227.25 L 79.3125 227.25 L 79.3125 230.375 L 74.5 230.375 L 73.8125 230.375 L 73.8125 231.0625 L 73.8125 239.125 L 73.8125 240.65625 L 74.96875 239.65625 C 77.392327 237.55002 80.522866 236.25 84 236.25 C 91.657308 236.25 97.8125 242.40519 97.8125 250.0625 L 97.8125 288.0625 C 97.8125 295.71981 91.657308 301.875 84 301.875 C 80.522866 301.875 77.392327 300.57498 74.96875 298.46875 L 73.8125 297.46875 L 73.8125 299 L 73.8125 311.0625 L 73.8125 311.75 L 74.5 311.75 L 79.3125 311.75 L 79.3125 314.875 L 58.6875 314.875 L 58.6875 311.75 L 63.5 311.75 L 64.1875 311.75 L 64.1875 311.0625 L 64.1875 299 L 64.1875 297.46875 L 63.03125 298.46875 C 60.607673 300.57498 57.477135 301.875 54 301.875 C 46.342692 301.875 40.1875 295.71981 40.1875 288.0625 L 40.1875 250.0625 C 40.1875 242.40519 46.342692 236.25 54 236.25 C 57.477134 236.25 60.607673 237.55002 63.03125 239.65625 L 64.1875 240.65625 L 64.1875 239.125 L 64.1875 231.0625 L 64.1875 230.375 L 63.5 230.375 L 58.6875 230.375 L 58.6875 227.25 z M 57 240.875 C 53.027007 240.875 49.8125 244.05369 49.8125 248 L 49.8125 290.125 C 49.8125 294.0713 53.027006 297.25 57 297.25 C 60.972993 297.25 64.1875 294.07131 64.1875 290.125 L 64.1875 248 C 64.1875 244.0537 60.972995 240.875 57 240.875 z M 81 240.875 C 77.027005 240.875 73.8125 244.0537 73.8125 248 L 73.8125 290.125 C 73.8125 294.07131 77.027007 297.25 81 297.25 C 84.972995 297.25 88.1875 294.0713 88.1875 290.125 L 88.1875 248 C 88.1875 244.05369 84.972994 240.875 81 240.875 z M 57 241.5625 C 60.601 241.5625 63.5 244.43297 63.5 248 L 63.5 290.125 C 63.5 293.69204 60.601 296.5625 57 296.5625 C 53.399 296.5625 50.5 293.69203 50.5 290.125 L 50.5 248 C 50.5 244.43296 53.399 241.5625 57 241.5625 z M 81 241.5625 C 84.601 241.5625 87.5 244.43296 87.5 248 L 87.5 290.125 C 87.5 293.69203 84.601 296.5625 81 296.5625 C 77.399 296.5625 74.5 293.69204 74.5 290.125 L 74.5 248 C 74.5 244.43297 77.399 241.5625 81 241.5625 z "
       style="fill:#d2b340;fill-opacity:1;stroke:none;stroke-width:1.39999998000000000;stroke-linecap:round;stroke-linejoin:miter;stroke-miterlimit:4;stroke-dasharray:none;stroke-dashoffset:0;stroke-opacity:1" />
    <path
       id="path3541"
       d="M 58.6875 230.375 L 58 231.0625 L 63.5 231.0625 L 64.1875 230.375 L 58.6875 230.375 z M 73.8125 230.375 L 74.5 231.0625 L 80 231.0625 L 79.3125 230.375 L 73.8125 230.375 z "
       style="fill:#9f872f;fill-opacity:1;stroke:none;stroke-width:1.39999998000000000;stroke-linecap:round;stroke-linejoin:miter;stroke-miterlimit:4;stroke-dasharray:none;stroke-dashoffset:0;stroke-opacity:1" />
    <path
       id="path3537"
       d="M 54 235.5625 C 45.967 235.5625 39.5 242.0295 39.5 250.0625 L 39.5 265.21875 L 40.1875 265.21875 L 40.1875 250.0625 C 40.1875 242.40519 46.342692 236.25 54 236.25 C 57.477134 236.25 60.607673 237.55002 63.03125 239.65625 L 64.1875 240.65625 L 63.5 239.125 C 60.956386 236.91445 57.649987 235.5625 54 235.5625 z M 84 235.5625 C 80.350013 235.5625 77.043614 236.91445 74.5 239.125 L 73.8125 240.65625 L 74.96875 239.65625 C 77.392327 237.55002 80.522866 236.25 84 236.25 C 91.657308 236.25 97.8125 242.40519 97.8125 250.0625 L 97.8125 265.21875 L 98.5 265.21875 L 98.5 250.0625 C 98.5 242.0295 92.033 235.5625 84 235.5625 z "
       style="fill:url(#linearGradient3551);fill-opacity:1;stroke:none;stroke-width:1.39999998000000000;stroke-linecap:round;stroke-linejoin:miter;stroke-miterlimit:4;stroke-dasharray:none;stroke-dashoffset:0;stroke-opacity:1" />
    <path
       id="path3448"
       d="M 57 240.875 C 53.027007 240.875 49.8125 244.05369 49.8125 248 L 49.8125 265.21875 L 50.5 265.21875 L 50.5 248 C 50.5 244.43296 53.399 241.5625 57 241.5625 C 60.601 241.5625 63.5 244.43297 63.5 248 L 63.5 265.21875 L 64.1875 265.21875 L 64.1875 248 C 64.1875 244.0537 60.972995 240.875 57 240.875 z M 81 240.875 C 77.027005 240.875 73.8125 244.0537 73.8125 248 L 73.8125 265.21875 L 74.5 265.21875 L 74.5 248 C 74.5 244.43297 77.399 241.5625 81 241.5625 C 84.601 241.5625 87.5 244.43296 87.5 248 L 87.5 265.21875 L 88.1875 265.21875 L 88.1875 248 C 88.1875 244.05369 84.972994 240.875 81 240.875 z "
       style="fill:url(#linearGradient3460);fill-opacity:1;stroke:none;stroke-width:1.39999998000000000;stroke-linecap:round;stroke-linejoin:miter;stroke-miterlimit:4;stroke-dasharray:none;stroke-dashoffset:0;stroke-opacity:1" />
    <path
       id="path3479"
       d="M 39.5 271.53125 L 39.5 288.0625 C 39.5 296.0955 45.967 302.5625 54 302.5625 C 57.649987 302.5625 60.956386 301.21055 63.5 299 L 64.1875 297.46875 L 63.03125 298.46875 C 60.607673 300.57498 57.477135 301.875 54 301.875 C 46.342692 301.875 40.1875 295.71981 40.1875 288.0625 L 40.1875 271.53125 L 39.5 271.53125 z M 97.8125 271.53125 L 97.8125 288.0625 C 97.8125 295.71981 91.657308 301.875 84 301.875 C 80.522866 301.875 77.392327 300.57498 74.96875 298.46875 L 73.8125 297.46875 L 74.5 299 C 77.043614 301.21055 80.350013 302.5625 84 302.5625 C 92.033 302.5625 98.5 296.0955 98.5 288.0625 L 98.5 271.53125 L 97.8125 271.53125 z "
       style="fill:url(#linearGradient3515);fill-opacity:1;stroke:none;stroke-width:1.39999998000000000;stroke-linecap:round;stroke-linejoin:miter;stroke-miterlimit:4;stroke-dasharray:none;stroke-dashoffset:0;stroke-opacity:1" />
    <path
       id="path3488"
       d="M 58,311.0625 L 58.6875,311.75 L 64.1875,311.75 L 63.5,311.0625 L 58,311.0625 z"
       style="fill:#ffe474;fill-opacity:1;stroke:none;stroke-width:1.39999998000000000;stroke-linecap:round;stroke-linejoin:miter;stroke-miterlimit:4;stroke-dasharray:none;stroke-dashoffset:0;stroke-opacity:1" />
    <path
       id="path3486"
       d="M 74.5,311.0625 L 73.8125,311.75 L 79.3125,311.75 L 80,311.0625 L 74.5,311.0625 z"
       style="fill:#ffe474;fill-opacity:1;stroke:none;stroke-width:1.39999998000000000;stroke-linecap:round;stroke-linejoin:miter;stroke-miterlimit:4;stroke-dasharray:none;stroke-dashoffset:0;stroke-opacity:1" />
    <path
       id="path3444"
       d="M 58,315.5625 L 80,315.5625 L 79.3125,314.875 L 58.6875,314.875 L 58,315.5625 z"
       style="fill:#9f872f;fill-opacity:1;stroke:none;stroke-width:1.39999998000000000;stroke-linecap:round;stroke-linejoin:miter;stroke-miterlimit:4;stroke-dasharray:none;stroke-dashoffset:0;stroke-opacity:1" />
    <path
       id="path3442"
       d="M 49.8125 271.53125 L 49.8125 290.125 C 49.8125 294.0713 53.027006 297.25 57 297.25 C 60.972993 297.25 64.1875 294.07131 64.1875 290.125 L 64.1875 271.53125 L 63.5 271.53125 L 63.5 290.125 C 63.5 293.69204 60.601 296.5625 57 296.5625 C 53.399 296.5625 50.5 293.69203 50.5 290.125 L 50.5 271.53125 L 49.8125 271.53125 z M 73.8125 271.53125 L 73.8125 290.125 C 73.8125 294.07131 77.027007 297.25 81 297.25 C 84.972995 297.25 88.1875 294.0713 88.1875 290.125 L 88.1875 271.53125 L 87.5 271.53125 L 87.5 290.125 C 87.5 293.69203 84.601 296.5625 81 296.5625 C 77.399 296.5625 74.5 293.69204 74.5 290.125 L 74.5 271.53125 L 73.8125 271.53125 z "
       style="fill:url(#linearGradient3470);fill-opacity:1;stroke:none;stroke-width:1.39999998000000000;stroke-linecap:round;stroke-linejoin:miter;stroke-miterlimit:4;stroke-dasharray:none;stroke-dashoffset:0;stroke-opacity:1" />
    <path
       style="fill:#ffe474;fill-opacity:1;stroke:none;stroke-width:1.39999998000000000;stroke-linecap:round;stroke-linejoin:miter;stroke-miterlimit:4;stroke-dasharray:none;stroke-dashoffset:0;stroke-opacity:1"
       d="M 58,226.5625 L 80,226.5625 L 79.3125,227.25 L 58.6875,227.25 L 58,226.5625 z"
       id="path3517" />
  </g>
  <g
     id="g3812"
     transform="translate(-166.5667,-75.476414)" />
  <use
     height="340"
     width="125"
     x="0"
     y="0"
     xlink:href="#use3976"
     id="use3814"
     transform="translate(-178.5667,-56.04141)" />
  <use
     height="340"
     width="125"
     x="0"
     y="0"
     xlink:href="#use3976"
     id="use3816"
     transform="translate(-178.5667,-168.04141)" />
  <use
     height="340"
     width="125"
     x="0"
     y="0"
     xlink:href="#use4026"
     id="use3818"
     transform="translate(-178.5667,-168.04141)" />
  <g
     id="g3820"
     transform="translate(-177.71275,-645.26252)" />
  <use
     height="340"
     width="125"
     x="0"
     y="0"
     xlink:href="#use3976"
     id="use3822"
     transform="translate(-189.71275,-625.82752)" />
  <use
     height="340"
     width="125"
     x="0"
     y="0"
     xlink:href="#use3976"
     id="use3824"
     transform="translate(-189.71275,-737.82752)" />
  <use
     height="340"
     width="125"
     x="0"
     y="0"
     xlink:href="#use4026"
     id="use3826"
     transform="translate(-189.71275,-737.82752)" />
  <g
     id="g4028"
     transform="translate(178.5667,0)">
    <path
       id="path8152"
       d="M -178.5667,125.52109 L -178.5667,145.52109 L -40.5667,145.52109 L -40.5667,125.52109 L -178.5667,125.52109 z"
       style="fill:#ebc846;fill-opacity:1;stroke:none;stroke-width:0.80000001;stroke-linecap:square;stroke-linejoin:miter;stroke-miterlimit:4;stroke-dasharray:none;stroke-dashoffset:0;stroke-opacity:1" />
    <path
       style="opacity:0.3;fill:url(#linearGradient4044);fill-opacity:1;stroke:none;stroke-width:0.80000001;stroke-linecap:square;stroke-linejoin:miter;stroke-miterlimit:4;stroke-dasharray:none;stroke-dashoffset:0;stroke-opacity:1"
       d="M -178.5667,125.52109 L -178.5667,145.52109 L -164.5667,145.52109 L -164.5667,125.52109 L -178.5667,125.52109 z"
       id="path8156" />
    <path
       style="opacity:0.3;fill:url(#linearGradient4046);fill-opacity:1;stroke:none;stroke-width:0.80000001;stroke-linecap:square;stroke-linejoin:miter;stroke-miterlimit:4;stroke-dasharray:none;stroke-dashoffset:0;stroke-opacity:1"
       d="M -40.5667,125.52109 L -40.5667,145.52109 L -54.5667,145.52109 L -54.5667,125.52109 L -40.5667,125.52109 z"
       id="path8160" />
    <g
       id="g8164"
       transform="matrix(0.9707694,0,0,1,-176.18964,23.12347)">
      <path
         id="path8166"
         d="M -2.0486272,103.39762 L 139.30665,103.39762"
         style="opacity:0.3;fill:#ebc846;fill-opacity:1;stroke:#000000;stroke-width:0.81195498;stroke-linecap:square;stroke-linejoin:miter;stroke-miterlimit:4;stroke-dasharray:none;stroke-dashoffset:0;stroke-opacity:1" />
      <path
         style="opacity:0.3;fill:#ebc846;fill-opacity:1;stroke:#000000;stroke-width:0.81195498;stroke-linecap:square;stroke-linejoin:miter;stroke-miterlimit:4;stroke-dasharray:none;stroke-dashoffset:0;stroke-opacity:1"
         d="M -2.0486272,105.39762 L 139.30665,105.39762"
         id="path8168" />
      <path
         id="path8170"
         d="M -2.0486272,107.39762 L 139.30665,107.39762"
         style="opacity:0.3;fill:#ebc846;fill-opacity:1;stroke:#000000;stroke-width:0.81195498;stroke-linecap:square;stroke-linejoin:miter;stroke-miterlimit:4;stroke-dasharray:none;stroke-dashoffset:0;stroke-opacity:1" />
      <path
         style="opacity:0.3;fill:#ebc846;fill-opacity:1;stroke:#000000;stroke-width:0.81195498;stroke-linecap:square;stroke-linejoin:miter;stroke-miterlimit:4;stroke-dasharray:none;stroke-dashoffset:0;stroke-opacity:1"
         d="M -2.0486272,109.39762 L 139.30665,109.39762"
         id="path8172" />
      <path
         id="path8174"
         d="M -2.0486272,111.39762 L 139.30665,111.39762"
         style="opacity:0.3;fill:#ebc846;fill-opacity:1;stroke:#000000;stroke-width:0.81195498;stroke-linecap:square;stroke-linejoin:miter;stroke-miterlimit:4;stroke-dasharray:none;stroke-dashoffset:0;stroke-opacity:1" />
      <path
         style="opacity:0.3;fill:#ebc846;fill-opacity:1;stroke:#000000;stroke-width:0.81195498;stroke-linecap:square;stroke-linejoin:miter;stroke-miterlimit:4;stroke-dasharray:none;stroke-dashoffset:0;stroke-opacity:1"
         d="M -2.0486272,113.39762 L 139.30665,113.39762"
         id="path8176" />
      <path
         id="path8178"
         d="M -2.0486272,115.39762 L 139.30665,115.39762"
         style="opacity:0.3;fill:#ebc846;fill-opacity:1;stroke:#000000;stroke-width:0.81195498;stroke-linecap:square;stroke-linejoin:miter;stroke-miterlimit:4;stroke-dasharray:none;stroke-dashoffset:0;stroke-opacity:1" />
      <path
         style="opacity:0.3;fill:#ebc846;fill-opacity:1;stroke:#000000;stroke-width:0.81195498;stroke-linecap:square;stroke-linejoin:miter;stroke-miterlimit:4;stroke-dasharray:none;stroke-dashoffset:0;stroke-opacity:1"
         d="M -2.0486272,117.39762 L 139.30665,117.39762"
         id="path8180" />
      <path
         id="path8182"
         d="M -2.0486272,119.39762 L 139.30665,119.39762"
         style="opacity:0.3;fill:#ebc846;fill-opacity:1;stroke:#000000;stroke-width:0.81195498;stroke-linecap:square;stroke-linejoin:miter;stroke-miterlimit:4;stroke-dasharray:none;stroke-dashoffset:0;stroke-opacity:1" />
      <path
         style="opacity:0.3;fill:#ebc846;fill-opacity:1;stroke:#000000;stroke-width:0.81195498;stroke-linecap:square;stroke-linejoin:miter;stroke-miterlimit:4;stroke-dasharray:none;stroke-dashoffset:0;stroke-opacity:1"
         d="M -2.0486272,121.39762 L 139.30665,121.39762"
         id="path8184" />
    </g>
  </g>
  <g
     id="g3845"
     transform="translate(-447.85218,-149.50732)" />
  <use
     height="340"
     width="125"
     x="0"
     y="0"
     xlink:href="#use3976"
     id="use3847"
     transform="translate(-459.85218,-130.07231)" />
  <use
     height="340"
     width="125"
     x="0"
     y="0"
     xlink:href="#use3976"
     id="use3849"
     transform="translate(-459.85218,-242.07231)" />
  <use
     height="340"
     width="125"
     x="0"
     y="0"
     xlink:href="#use4026"
     id="use3851"
     transform="translate(-459.85218,-242.07231)" />
  <g
     id="g3853"
     transform="translate(-458.99823,-719.29342)" />
  <use
     height="340"
     width="125"
     x="0"
     y="0"
     xlink:href="#use3976"
     id="use3855"
     transform="translate(-470.99823,-699.85842)" />
  <use
     height="340"
     width="125"
     x="0"
     y="0"
     xlink:href="#use3976"
     id="use3857"
     transform="translate(-470.99823,-811.85842)" />
  <use
     height="340"
     width="125"
     x="0"
     y="0"
     xlink:href="#use4026"
     id="use3859"
     transform="translate(-470.99823,-811.85842)" />
  <g
     id="g3861"
     transform="translate(-395.70264,-75.517824)" />
  <use
     height="340"
     width="125"
     x="0"
     y="0"
     xlink:href="#use3976"
     id="use3863"
     transform="translate(-407.70264,-56.08282)" />
  <use
     height="340"
     width="125"
     x="0"
     y="0"
     xlink:href="#use3976"
     id="use3865"
     transform="translate(-407.70264,-168.08282)" />
  <use
     height="340"
     width="125"
     x="0"
     y="0"
     xlink:href="#use4026"
     id="use3867"
     transform="translate(-407.70264,-168.08282)" />
  <g
     id="g3869"
     transform="translate(-406.84869,-645.30393)" />
  <use
     height="340"
     width="125"
     x="0"
     y="0"
     xlink:href="#use3976"
     id="use3871"
     transform="translate(-418.84869,-625.86893)" />
  <use
     height="340"
     width="125"
     x="0"
     y="0"
     xlink:href="#use3976"
     id="use3873"
     transform="translate(-418.84869,-737.86893)" />
  <use
     height="340"
     width="125"
     x="0"
     y="0"
     xlink:href="#use4026"
     id="use3875"
     transform="translate(-418.84869,-737.86893)" />
  <g
     id="g3877"
     transform="translate(-697.00511,-96.87243)" />
  <use
     height="340"
     width="125"
     x="0"
     y="0"
     xlink:href="#use3976"
     id="use3879"
     transform="translate(-709.00511,-77.437426)" />
  <use
     height="340"
     width="125"
     x="0"
     y="0"
     xlink:href="#use3976"
     id="use3881"
     transform="translate(-709.00511,-189.43743)" />
  <use
     height="340"
     width="125"
     x="0"
     y="0"
     xlink:href="#use4026"
     id="use3883"
     transform="translate(-709.00511,-189.43743)" />
  <g
     id="g3885"
     transform="translate(-708.15116,-666.65854)" />
  <use
     height="340"
     width="125"
     x="0"
     y="0"
     xlink:href="#use3976"
     id="use3887"
     transform="translate(-720.15116,-647.22354)" />
  <use
     height="340"
     width="125"
     x="0"
     y="0"
     xlink:href="#use3976"
     id="use3889"
     transform="translate(-720.15116,-759.22354)" />
  <use
     height="340"
     width="125"
     x="0"
     y="0"
     xlink:href="#use4026"
     id="use3891"
     transform="translate(-720.15116,-759.22354)" />
  <g
     id="g3893"
     transform="translate(-978.29059,-170.90334)" />
  <use
     height="340"
     width="125"
     x="0"
     y="0"
     xlink:href="#use3976"
     id="use3895"
     transform="translate(-990.29059,-151.46833)" />
  <use
     height="340"
     width="125"
     x="0"
     y="0"
     xlink:href="#use3976"
     id="use3897"
     transform="translate(-990.29059,-263.46833)" />
  <use
     height="340"
     width="125"
     x="0"
     y="0"
     xlink:href="#use4026"
     id="use3899"
     transform="translate(-990.29059,-263.46833)" />
  <g
     id="g3901"
     transform="translate(-989.43664,-740.68944)" />
  <use
     height="340"
     width="125"
     x="0"
     y="0"
     xlink:href="#use3976"
     id="use3903"
     transform="translate(-1001.4366,-721.25444)" />
  <use
     height="340"
     width="125"
     x="0"
     y="0"
     xlink:href="#use3976"
     id="use3905"
     transform="translate(-1001.4366,-833.25444)" />
  <use
     height="340"
     width="125"
     x="0"
     y="0"
     xlink:href="#use4026"
     id="use3907"
     transform="translate(-1001.4366,-833.25444)" />
  <g
     id="g3909"
     transform="translate(-552.33233,-73.09202)" />
  <use
     height="340"
     width="125"
     x="0"
     y="0"
     xlink:href="#use3976"
     id="use3911"
     transform="translate(-564.33233,-53.657016)" />
  <use
     height="340"
     width="125"
     x="0"
     y="0"
     xlink:href="#use3976"
     id="use3913"
     transform="translate(-564.33233,-165.65702)" />
  <use
     height="340"
     width="125"
     x="0"
     y="0"
     xlink:href="#use4026"
     id="use3915"
     transform="translate(-564.33233,-165.65702)" />
  <g
     id="g3917"
     transform="translate(-563.47838,-642.87813)" />
  <use
     height="340"
     width="125"
     x="0"
     y="0"
     xlink:href="#use3976"
     id="use3919"
     transform="translate(-575.47838,-623.44313)" />
  <use
     height="340"
     width="125"
     x="0"
     y="0"
     xlink:href="#use3976"
     id="use3921"
     transform="translate(-575.47838,-735.44313)" />
  <use
     height="340"
     width="125"
     x="0"
     y="0"
     xlink:href="#use4026"
     id="use3923"
     transform="translate(-575.47838,-735.44313)" />
  <path
     style="opacity:0.3;fill:none;fill-opacity:1;stroke:#ffffff;stroke-width:1;stroke-linecap:round;stroke-linejoin:round;stroke-miterlimit:4;stroke-dasharray:3, 3;stroke-dashoffset:0;stroke-opacity:1"
     d="M 129.5,355.5625 L 129.5,38.34375 L 8.5,9.65625 L 8.5,355.5625"
     id="path2516"
     sodipodi:nodetypes="cccc" />
</svg>
