<?xml version="1.0" encoding="UTF-8" standalone="no"?>
<!-- Created with Inkscape (http://www.inkscape.org/) -->

<svg
   xmlns:dc="http://purl.org/dc/elements/1.1/"
   xmlns:cc="http://creativecommons.org/ns#"
   xmlns:rdf="http://www.w3.org/1999/02/22-rdf-syntax-ns#"
   xmlns:svg="http://www.w3.org/2000/svg"
   xmlns="http://www.w3.org/2000/svg"
   xmlns:xlink="http://www.w3.org/1999/xlink"
   xmlns:sodipodi="http://sodipodi.sourceforge.net/DTD/sodipodi-0.dtd"
   xmlns:inkscape="http://www.inkscape.org/namespaces/inkscape"
   id="svg2"
   sodipodi:version="0.32"
   inkscape:version="0.48.2 r9819"
   width="138"
   height="356"
   version="1.0"
   sodipodi:docname="Rank_insignia_of_главный_корабельный_старшина_of_the_Soviet_Navy.svg"
   inkscape:output_extension="org.inkscape.output.svg.inkscape">
  <metadata
     id="metadata7">
    <rdf:RDF>
      <cc:Work
         rdf:about="">
        <dc:format>image/svg+xml</dc:format>
        <dc:type
           rdf:resource="http://purl.org/dc/dcmitype/StillImage" />
        <dc:title></dc:title>
      </cc:Work>
    </rdf:RDF>
  </metadata>
  <defs
     id="defs5">
    <linearGradient
       inkscape:collect="always"
       id="linearGradient6644">
      <stop
         style="stop-color:#000000;stop-opacity:1;"
         offset="0"
         id="stop6646" />
      <stop
         style="stop-color:#000000;stop-opacity:0;"
         offset="1"
         id="stop6648" />
    </linearGradient>
    <linearGradient
       inkscape:collect="always"
       xlink:href="#linearGradient6644"
       id="linearGradient3333"
       gradientUnits="userSpaceOnUse"
       gradientTransform="matrix(1.1129032,0,0,1,2e-7,15.999994)"
       x1="62.933857"
       y1="340.00079"
       x2="62.933857"
       y2="334.98489" />
    <linearGradient
       inkscape:collect="always"
       id="linearGradient7808">
      <stop
         style="stop-color:#000000;stop-opacity:1;"
         offset="0"
         id="stop7810" />
      <stop
         style="stop-color:#000000;stop-opacity:0;"
         offset="1"
         id="stop7812" />
    </linearGradient>
    <linearGradient
       inkscape:collect="always"
       xlink:href="#linearGradient7808"
       id="linearGradient3304"
       gradientUnits="userSpaceOnUse"
       gradientTransform="matrix(-1,0,0,2.4999999,138,-151.95015)"
       x1="-0.18623884"
       y1="137.47932"
       x2="9.1257029"
       y2="137.47932" />
    <linearGradient
       inkscape:collect="always"
       xlink:href="#linearGradient7808"
       id="linearGradient3307"
       gradientUnits="userSpaceOnUse"
       gradientTransform="matrix(1,0,0,2.4999999,0,-151.95015)"
       x1="-0.18623884"
       y1="137.47932"
       x2="9.1257029"
       y2="137.47932" />
    <linearGradient
       inkscape:collect="always"
       xlink:href="#linearGradient6644-4"
       id="linearGradient3333-7"
       gradientUnits="userSpaceOnUse"
       gradientTransform="matrix(1.1129032,0,0,1,2e-7,15.999994)"
       x1="62.933857"
       y1="340.00079"
       x2="62.933857"
       y2="334.98489" />
    <linearGradient
       inkscape:collect="always"
       id="linearGradient6644-4">
      <stop
         style="stop-color:#000000;stop-opacity:1;"
         offset="0"
         id="stop6646-0" />
      <stop
         style="stop-color:#000000;stop-opacity:0;"
         offset="1"
         id="stop6648-9" />
    </linearGradient>
    <linearGradient
       y2="334.98489"
       x2="62.933857"
       y1="340.00079"
       x1="62.933857"
       gradientTransform="matrix(1.1129032,0,0,1,0.2484965,16.06937)"
       gradientUnits="userSpaceOnUse"
       id="linearGradient3842"
       xlink:href="#linearGradient6644-4"
       inkscape:collect="always" />
  </defs>
  <sodipodi:namedview
     inkscape:window-height="718"
     inkscape:window-width="1360"
     inkscape:pageshadow="2"
     inkscape:pageopacity="0.0"
     guidetolerance="10.0"
     gridtolerance="10.0"
     objecttolerance="10.0"
     borderopacity="1.0"
     bordercolor="#666666"
     pagecolor="#ffffff"
     id="base"
     showgrid="false"
     inkscape:zoom="1.4288186"
     inkscape:cx="69.248496"
     inkscape:cy="174.43062"
     inkscape:window-x="-8"
     inkscape:window-y="-8"
     inkscape:current-layer="svg2"
     inkscape:showpageshadow="false"
     showguides="true"
     inkscape:guide-bbox="true"
     inkscape:window-maximized="1" />
  <g
     id="use3976"
     transform="translate(12,-75.435004)" />
  <use
     height="340"
     width="125"
     x="0"
     y="0"
     xlink:href="#use3976"
     id="use4026"
     transform="translate(2.9861464e-8,-56)" />
  <use
     height="340"
     width="125"
     x="0"
     y="0"
     xlink:href="#use3976"
     id="use4100"
     transform="translate(2.9861464e-8,-168)" />
  <use
     height="340"
     width="125"
     x="0"
     y="0"
     xlink:href="#use4026"
     id="use4124"
     transform="translate(2.9861464e-8,-168)" />
  <g
     id="g11129"
     transform="translate(0.853951,-645.22111)" />
  <use
     height="340"
     width="125"
     x="0"
     y="0"
     xlink:href="#use3976"
     id="use11131"
     transform="translate(-11.146049,-625.78611)" />
  <use
     height="340"
     width="125"
     x="0"
     y="0"
     xlink:href="#use3976"
     id="use11133"
     transform="translate(-11.146049,-737.78611)" />
  <use
     height="340"
     width="125"
     x="0"
     y="0"
     xlink:href="#use4026"
     id="use11135"
     transform="translate(-11.146049,-737.78611)" />
  <g
     id="g2663"
     transform="translate(-269.28548,-149.46591)" />
  <use
     height="340"
     width="125"
     x="0"
     y="0"
     xlink:href="#use3976"
     id="use2665"
     transform="translate(-281.28548,-130.0309)" />
  <use
     height="340"
     width="125"
     x="0"
     y="0"
     xlink:href="#use3976"
     id="use2667"
     transform="translate(-281.28548,-242.0309)" />
  <use
     height="340"
     width="125"
     x="0"
     y="0"
     xlink:href="#use4026"
     id="use2669"
     transform="translate(-281.28548,-242.0309)" />
  <g
     id="g2671"
     transform="translate(-280.43153,-719.25201)" />
  <use
     height="340"
     width="125"
     x="0"
     y="0"
     xlink:href="#use3976"
     id="use2673"
     transform="translate(-292.43153,-699.81701)" />
  <use
     height="340"
     width="125"
     x="0"
     y="0"
     xlink:href="#use3976"
     id="use2675"
     transform="translate(-292.43153,-811.81701)" />
  <use
     height="340"
     width="125"
     x="0"
     y="0"
     xlink:href="#use4026"
     id="use2677"
     transform="translate(-292.43153,-811.81701)" />
  <g
     id="g2695"
     transform="translate(-217.13594,-75.476414)" />
  <use
     height="340"
     width="125"
     x="0"
     y="0"
     xlink:href="#use3976"
     id="use2697"
     transform="translate(-229.13594,-56.04141)" />
  <use
     height="340"
     width="125"
     x="0"
     y="0"
     xlink:href="#use3976"
     id="use2699"
     transform="translate(-229.13594,-168.04141)" />
  <use
     height="340"
     width="125"
     x="0"
     y="0"
     xlink:href="#use4026"
     id="use2701"
     transform="translate(-229.13594,-168.04141)" />
  <g
     id="g2703"
     transform="translate(-228.28199,-645.26252)" />
  <use
     height="340"
     width="125"
     x="0"
     y="0"
     xlink:href="#use3976"
     id="use2705"
     transform="translate(-240.28199,-625.82752)" />
  <use
     height="340"
     width="125"
     x="0"
     y="0"
     xlink:href="#use3976"
     id="use2707"
     transform="translate(-240.28199,-737.82752)" />
  <use
     height="340"
     width="125"
     x="0"
     y="0"
     xlink:href="#use4026"
     id="use2709"
     transform="translate(-240.28199,-737.82752)" />
  <g
     id="g2688"
     transform="translate(-518.43841,-96.83102)" />
  <use
     height="340"
     width="125"
     x="0"
     y="0"
     xlink:href="#use3976"
     id="use2690"
     transform="translate(-530.43841,-77.396016)" />
  <use
     height="340"
     width="125"
     x="0"
     y="0"
     xlink:href="#use3976"
     id="use2692"
     transform="translate(-530.43841,-189.39602)" />
  <use
     height="340"
     width="125"
     x="0"
     y="0"
     xlink:href="#use4026"
     id="use2694"
     transform="translate(-530.43841,-189.39602)" />
  <g
     id="g2696"
     transform="translate(-529.58446,-666.61713)" />
  <use
     height="340"
     width="125"
     x="0"
     y="0"
     xlink:href="#use3976"
     id="use2698"
     transform="translate(-541.58446,-647.18213)" />
  <use
     height="340"
     width="125"
     x="0"
     y="0"
     xlink:href="#use3976"
     id="use2700"
     transform="translate(-541.58446,-759.18213)" />
  <use
     height="340"
     width="125"
     x="0"
     y="0"
     xlink:href="#use4026"
     id="use2702"
     transform="translate(-541.58446,-759.18213)" />
  <g
     id="g2768"
     transform="translate(-799.72389,-170.86193)" />
  <use
     height="340"
     width="125"
     x="0"
     y="0"
     xlink:href="#use3976"
     id="use2770"
     transform="translate(-811.72389,-151.42692)" />
  <use
     height="340"
     width="125"
     x="0"
     y="0"
     xlink:href="#use3976"
     id="use2772"
     transform="translate(-811.72389,-263.42692)" />
  <use
     height="340"
     width="125"
     x="0"
     y="0"
     xlink:href="#use4026"
     id="use2774"
     transform="translate(-811.72389,-263.42692)" />
  <g
     id="g2776"
     transform="translate(-810.86994,-740.64803)" />
  <use
     height="340"
     width="125"
     x="0"
     y="0"
     xlink:href="#use3976"
     id="use2778"
     transform="translate(-822.86994,-721.21303)" />
  <use
     height="340"
     width="125"
     x="0"
     y="0"
     xlink:href="#use3976"
     id="use2780"
     transform="translate(-822.86994,-833.21303)" />
  <use
     height="340"
     width="125"
     x="0"
     y="0"
     xlink:href="#use4026"
     id="use2782"
     transform="translate(-822.86994,-833.21303)" />
  <g
     id="g2978"
     transform="translate(-373.76563,-73.05061)" />
  <use
     height="340"
     width="125"
     x="0"
     y="0"
     xlink:href="#use3976"
     id="use2980"
     transform="translate(-385.76563,-53.615606)" />
  <use
     height="340"
     width="125"
     x="0"
     y="0"
     xlink:href="#use3976"
     id="use2982"
     transform="translate(-385.76563,-165.61561)" />
  <use
     height="340"
     width="125"
     x="0"
     y="0"
     xlink:href="#use4026"
     id="use2984"
     transform="translate(-385.76563,-165.61561)" />
  <g
     id="g2986"
     transform="translate(-384.91168,-642.83672)" />
  <use
     height="340"
     width="125"
     x="0"
     y="0"
     xlink:href="#use3976"
     id="use2988"
     transform="translate(-396.91168,-623.40172)" />
  <use
     height="340"
     width="125"
     x="0"
     y="0"
     xlink:href="#use3976"
     id="use2990"
     transform="translate(-396.91168,-735.40172)" />
  <use
     height="340"
     width="125"
     x="0"
     y="0"
     xlink:href="#use4026"
     id="use2992"
     transform="translate(-396.91168,-735.40172)" />
  <path
     style="fill:#000000;fill-opacity:1;stroke:none;stroke-width:14;stroke-linecap:butt;stroke-linejoin:round;stroke-miterlimit:4;stroke-dasharray:none;stroke-dashoffset:0;stroke-opacity:1"
     d="M 7.1875002,0.4374947 C 5.2987702,0.3870797 3.4698536,1.1022377 2.1163058,2.4204757 C 0.76275801,3.7387137 -0.00048358507,5.5480917 2.1493073e-07,7.4374947 L 2.1493073e-07,356 C 2.1493073e-07,356 138,356 138,356 L 138,36.343745 C 137.99805,33.093184 135.75888,30.271579 132.59375,29.531245 L 8.5937502,0.6249947 C 8.1325587,0.5150377 7.66139,0.4522147 7.1875002,0.4374947 L 7.1875002,0.4374947 z"
     id="path6772"
     sodipodi:nodetypes="cscccccccc" />
  <g
     id="g3523"
     transform="translate(-237.7295,-75.041414)" />
  <use
     height="340"
     width="125"
     x="0"
     y="0"
     xlink:href="#use3976"
     id="use3525"
     transform="translate(-249.7295,-55.60641)" />
  <use
     height="340"
     width="125"
     x="0"
     y="0"
     xlink:href="#use3976"
     id="use3527"
     transform="translate(-249.7295,-167.60641)" />
  <use
     height="340"
     width="125"
     x="0"
     y="0"
     xlink:href="#use4026"
     id="use3529"
     transform="translate(-249.7295,-167.60641)" />
  <g
     id="g3531"
     transform="translate(-248.87555,-644.82752)" />
  <use
     height="340"
     width="125"
     x="0"
     y="0"
     xlink:href="#use3976"
     id="use3533"
     transform="translate(-260.87555,-625.39252)" />
  <use
     height="340"
     width="125"
     x="0"
     y="0"
     xlink:href="#use3976"
     id="use3535"
     transform="translate(-260.87555,-737.39252)" />
  <use
     height="340"
     width="125"
     x="0"
     y="0"
     xlink:href="#use4026"
     id="use3537"
     transform="translate(-260.87555,-737.39252)" />
  <g
     id="g2862"
     transform="translate(-667.28788,-47.760594)" />
  <use
     height="340"
     width="125"
     x="0"
     y="0"
     xlink:href="#use3976"
     id="use2864"
     transform="translate(-679.28788,-28.32559)" />
  <use
     height="340"
     width="125"
     x="0"
     y="0"
     xlink:href="#use3976"
     id="use2866"
     transform="translate(-679.28788,-140.32559)" />
  <use
     height="340"
     width="125"
     x="0"
     y="0"
     xlink:href="#use4026"
     id="use2868"
     transform="translate(-679.28788,-140.32559)" />
  <g
     id="g2872"
     transform="translate(-678.43393,-617.5467)" />
  <use
     height="340"
     width="125"
     x="0"
     y="0"
     xlink:href="#use3976"
     id="use2874"
     transform="translate(-690.43393,-598.1117)" />
  <use
     height="340"
     width="125"
     x="0"
     y="0"
     xlink:href="#use3976"
     id="use2876"
     transform="translate(-690.43393,-710.1117)" />
  <use
     height="340"
     width="125"
     x="0"
     y="0"
     xlink:href="#use4026"
     id="use2878"
     transform="translate(-690.43393,-710.1117)" />
  <g
     id="g8463"
     transform="translate(-866.9251,-47.760594)" />
  <use
     height="340"
     width="125"
     x="0"
     y="0"
     xlink:href="#use3976"
     id="use8465"
     transform="translate(-878.9251,-28.32559)" />
  <use
     height="340"
     width="125"
     x="0"
     y="0"
     xlink:href="#use3976"
     id="use8467"
     transform="translate(-878.9251,-140.32559)" />
  <use
     height="340"
     width="125"
     x="0"
     y="0"
     xlink:href="#use4026"
     id="use8469"
     transform="translate(-878.9251,-140.32559)" />
  <g
     id="g8471"
     transform="translate(-878.07115,-617.5467)" />
  <use
     height="340"
     width="125"
     x="0"
     y="0"
     xlink:href="#use3976"
     id="use8473"
     transform="translate(-890.07115,-598.1117)" />
  <use
     height="340"
     width="125"
     x="0"
     y="0"
     xlink:href="#use3976"
     id="use8475"
     transform="translate(-890.07115,-710.1117)" />
  <use
     height="340"
     width="125"
     x="0"
     y="0"
     xlink:href="#use4026"
     id="use8477"
     transform="translate(-890.07115,-710.1117)" />
  <path
     style="opacity:1;fill:none;fill-opacity:1;stroke:#ffffff;stroke-width:1;stroke-linecap:round;stroke-linejoin:round;stroke-miterlimit:4;stroke-dasharray:3, 3;stroke-dashoffset:0;stroke-opacity:0.29803922999999999"
     d="M 129.5,355.4995 L 129.5,38.778748 L 8.5,10.091248 L 8.5,355.4995"
     id="path2516"
     sodipodi:nodetypes="cccc" />
  <g
     id="g3605"
     transform="translate(-174.08445,-66.236625)" />
  <use
     height="340"
     width="125"
     x="0"
     y="0"
     xlink:href="#use3976"
     id="use3607"
     transform="translate(-186.08445,-46.801621)" />
  <use
     height="340"
     width="125"
     x="0"
     y="0"
     xlink:href="#use3976"
     id="use3609"
     transform="translate(-186.08445,-158.80162)" />
  <use
     height="340"
     width="125"
     x="0"
     y="0"
     xlink:href="#use4026"
     id="use3611"
     transform="translate(-186.08445,-158.80162)" />
  <g
     id="g3613"
     transform="translate(-185.2305,-636.02273)" />
  <use
     height="340"
     width="125"
     x="0"
     y="0"
     xlink:href="#use3976"
     id="use3615"
     transform="translate(-197.2305,-616.58773)" />
  <use
     height="340"
     width="125"
     x="0"
     y="0"
     xlink:href="#use3976"
     id="use3617"
     transform="translate(-197.2305,-728.58773)" />
  <use
     height="340"
     width="125"
     x="0"
     y="0"
     xlink:href="#use4026"
     id="use3619"
     transform="translate(-197.2305,-728.58773)" />
  <g
     id="g3623"
     transform="translate(-455.36993,-140.26753)" />
  <use
     height="340"
     width="125"
     x="0"
     y="0"
     xlink:href="#use3976"
     id="use3625"
     transform="translate(-467.36993,-120.83252)" />
  <use
     height="340"
     width="125"
     x="0"
     y="0"
     xlink:href="#use3976"
     id="use3627"
     transform="translate(-467.36993,-232.83252)" />
  <use
     height="340"
     width="125"
     x="0"
     y="0"
     xlink:href="#use4026"
     id="use3629"
     transform="translate(-467.36993,-232.83252)" />
  <g
     id="g3631"
     transform="translate(-466.51598,-710.05363)" />
  <use
     height="340"
     width="125"
     x="0"
     y="0"
     xlink:href="#use3976"
     id="use3633"
     transform="translate(-478.51598,-690.61863)" />
  <use
     height="340"
     width="125"
     x="0"
     y="0"
     xlink:href="#use3976"
     id="use3635"
     transform="translate(-478.51598,-802.61863)" />
  <use
     height="340"
     width="125"
     x="0"
     y="0"
     xlink:href="#use4026"
     id="use3637"
     transform="translate(-478.51598,-802.61863)" />
  <g
     id="g3639"
     transform="translate(-403.22039,-66.278035)" />
  <use
     height="340"
     width="125"
     x="0"
     y="0"
     xlink:href="#use3976"
     id="use3641"
     transform="translate(-415.22039,-46.843031)" />
  <use
     height="340"
     width="125"
     x="0"
     y="0"
     xlink:href="#use3976"
     id="use3643"
     transform="translate(-415.22039,-158.84303)" />
  <use
     height="340"
     width="125"
     x="0"
     y="0"
     xlink:href="#use4026"
     id="use3645"
     transform="translate(-415.22039,-158.84303)" />
  <g
     id="g3647"
     transform="translate(-414.36644,-636.06414)" />
  <use
     height="340"
     width="125"
     x="0"
     y="0"
     xlink:href="#use3976"
     id="use3649"
     transform="translate(-426.36644,-616.62914)" />
  <use
     height="340"
     width="125"
     x="0"
     y="0"
     xlink:href="#use3976"
     id="use3651"
     transform="translate(-426.36644,-728.62914)" />
  <use
     height="340"
     width="125"
     x="0"
     y="0"
     xlink:href="#use4026"
     id="use3653"
     transform="translate(-426.36644,-728.62914)" />
  <g
     id="g3655"
     transform="translate(-704.52286,-87.632641)" />
  <use
     height="340"
     width="125"
     x="0"
     y="0"
     xlink:href="#use3976"
     id="use3657"
     transform="translate(-716.52286,-68.197637)" />
  <use
     height="340"
     width="125"
     x="0"
     y="0"
     xlink:href="#use3976"
     id="use3659"
     transform="translate(-716.52286,-180.19764)" />
  <use
     height="340"
     width="125"
     x="0"
     y="0"
     xlink:href="#use4026"
     id="use3661"
     transform="translate(-716.52286,-180.19764)" />
  <g
     id="g3663"
     transform="translate(-715.66891,-657.41875)" />
  <use
     height="340"
     width="125"
     x="0"
     y="0"
     xlink:href="#use3976"
     id="use3665"
     transform="translate(-727.66891,-637.98375)" />
  <use
     height="340"
     width="125"
     x="0"
     y="0"
     xlink:href="#use3976"
     id="use3667"
     transform="translate(-727.66891,-749.98375)" />
  <use
     height="340"
     width="125"
     x="0"
     y="0"
     xlink:href="#use4026"
     id="use3669"
     transform="translate(-727.66891,-749.98375)" />
  <g
     id="g3671"
     transform="translate(-985.80834,-161.66355)" />
  <use
     height="340"
     width="125"
     x="0"
     y="0"
     xlink:href="#use3976"
     id="use3673"
     transform="translate(-997.80834,-142.22854)" />
  <use
     height="340"
     width="125"
     x="0"
     y="0"
     xlink:href="#use3976"
     id="use3675"
     transform="translate(-997.80834,-254.22854)" />
  <use
     height="340"
     width="125"
     x="0"
     y="0"
     xlink:href="#use4026"
     id="use3677"
     transform="translate(-997.80834,-254.22854)" />
  <g
     id="g3679"
     transform="translate(-996.95439,-731.44965)" />
  <use
     height="340"
     width="125"
     x="0"
     y="0"
     xlink:href="#use3976"
     id="use3681"
     transform="translate(-1008.9544,-712.01465)" />
  <use
     height="340"
     width="125"
     x="0"
     y="0"
     xlink:href="#use3976"
     id="use3683"
     transform="translate(-1008.9544,-824.01465)" />
  <use
     height="340"
     width="125"
     x="0"
     y="0"
     xlink:href="#use4026"
     id="use3685"
     transform="translate(-1008.9544,-824.01465)" />
  <g
     id="g3687"
     transform="translate(-559.85008,-63.852231)" />
  <use
     height="340"
     width="125"
     x="0"
     y="0"
     xlink:href="#use3976"
     id="use3689"
     transform="translate(-571.85008,-44.417227)" />
  <use
     height="340"
     width="125"
     x="0"
     y="0"
     xlink:href="#use3976"
     id="use3691"
     transform="translate(-571.85008,-156.41723)" />
  <use
     height="340"
     width="125"
     x="0"
     y="0"
     xlink:href="#use4026"
     id="use3693"
     transform="translate(-571.85008,-156.41723)" />
  <g
     id="g3695"
     transform="translate(-570.99613,-633.63834)" />
  <use
     height="340"
     width="125"
     x="0"
     y="0"
     xlink:href="#use3976"
     id="use3697"
     transform="translate(-582.99613,-614.20334)" />
  <use
     height="340"
     width="125"
     x="0"
     y="0"
     xlink:href="#use3976"
     id="use3699"
     transform="translate(-582.99613,-726.20334)" />
  <use
     height="340"
     width="125"
     x="0"
     y="0"
     xlink:href="#use4026"
     id="use3701"
     transform="translate(-582.99613,-726.20334)" />
  <g
     id="g3812"
     transform="translate(-352.65115,-66.278035)" />
  <use
     height="340"
     width="125"
     x="0"
     y="0"
     xlink:href="#use3976"
     id="use3814"
     transform="translate(-364.65115,-46.843031)" />
  <use
     height="340"
     width="125"
     x="0"
     y="0"
     xlink:href="#use3976"
     id="use3816"
     transform="translate(-364.65115,-158.84303)" />
  <use
     height="340"
     width="125"
     x="0"
     y="0"
     xlink:href="#use4026"
     id="use3818"
     transform="translate(-364.65115,-158.84303)" />
  <g
     id="g3820"
     transform="translate(-363.7972,-636.06414)" />
  <use
     height="340"
     width="125"
     x="0"
     y="0"
     xlink:href="#use3976"
     id="use3822"
     transform="translate(-375.7972,-616.62914)" />
  <use
     height="340"
     width="125"
     x="0"
     y="0"
     xlink:href="#use3976"
     id="use3824"
     transform="translate(-375.7972,-728.62914)" />
  <use
     height="340"
     width="125"
     x="0"
     y="0"
     xlink:href="#use4026"
     id="use3826"
     transform="translate(-375.7972,-728.62914)" />
  <g
     id="g3845"
     transform="translate(-633.93663,-140.30894)" />
  <use
     height="340"
     width="125"
     x="0"
     y="0"
     xlink:href="#use3976"
     id="use3847"
     transform="translate(-645.93663,-120.87393)" />
  <use
     height="340"
     width="125"
     x="0"
     y="0"
     xlink:href="#use3976"
     id="use3849"
     transform="translate(-645.93663,-232.87393)" />
  <use
     height="340"
     width="125"
     x="0"
     y="0"
     xlink:href="#use4026"
     id="use3851"
     transform="translate(-645.93663,-232.87393)" />
  <g
     id="g3853"
     transform="translate(-645.08268,-710.09504)" />
  <use
     height="340"
     width="125"
     x="0"
     y="0"
     xlink:href="#use3976"
     id="use3855"
     transform="translate(-657.08268,-690.66004)" />
  <use
     height="340"
     width="125"
     x="0"
     y="0"
     xlink:href="#use3976"
     id="use3857"
     transform="translate(-657.08268,-802.66004)" />
  <use
     height="340"
     width="125"
     x="0"
     y="0"
     xlink:href="#use4026"
     id="use3859"
     transform="translate(-657.08268,-802.66004)" />
  <g
     id="g3861"
     transform="translate(-581.78709,-66.319445)" />
  <use
     height="340"
     width="125"
     x="0"
     y="0"
     xlink:href="#use3976"
     id="use3863"
     transform="translate(-593.78709,-46.884441)" />
  <use
     height="340"
     width="125"
     x="0"
     y="0"
     xlink:href="#use3976"
     id="use3865"
     transform="translate(-593.78709,-158.88444)" />
  <use
     height="340"
     width="125"
     x="0"
     y="0"
     xlink:href="#use4026"
     id="use3867"
     transform="translate(-593.78709,-158.88444)" />
  <g
     id="g3869"
     transform="translate(-592.93314,-636.10555)" />
  <use
     height="340"
     width="125"
     x="0"
     y="0"
     xlink:href="#use3976"
     id="use3871"
     transform="translate(-604.93314,-616.67055)" />
  <use
     height="340"
     width="125"
     x="0"
     y="0"
     xlink:href="#use3976"
     id="use3873"
     transform="translate(-604.93314,-728.67055)" />
  <use
     height="340"
     width="125"
     x="0"
     y="0"
     xlink:href="#use4026"
     id="use3875"
     transform="translate(-604.93314,-728.67055)" />
  <g
     id="g3877"
     transform="translate(-883.08956,-87.674051)" />
  <use
     height="340"
     width="125"
     x="0"
     y="0"
     xlink:href="#use3976"
     id="use3879"
     transform="translate(-895.08956,-68.239047)" />
  <use
     height="340"
     width="125"
     x="0"
     y="0"
     xlink:href="#use3976"
     id="use3881"
     transform="translate(-895.08956,-180.23905)" />
  <use
     height="340"
     width="125"
     x="0"
     y="0"
     xlink:href="#use4026"
     id="use3883"
     transform="translate(-895.08956,-180.23905)" />
  <g
     id="g3885"
     transform="translate(-894.23561,-657.46016)" />
  <use
     height="340"
     width="125"
     x="0"
     y="0"
     xlink:href="#use3976"
     id="use3887"
     transform="translate(-906.23561,-638.02516)" />
  <use
     height="340"
     width="125"
     x="0"
     y="0"
     xlink:href="#use3976"
     id="use3889"
     transform="translate(-906.23561,-750.02516)" />
  <use
     height="340"
     width="125"
     x="0"
     y="0"
     xlink:href="#use4026"
     id="use3891"
     transform="translate(-906.23561,-750.02516)" />
  <g
     id="g3893"
     transform="translate(-1164.375,-161.70496)" />
  <use
     height="340"
     width="125"
     x="0"
     y="0"
     xlink:href="#use3976"
     id="use3895"
     transform="translate(-1176.375,-142.26995)" />
  <use
     height="340"
     width="125"
     x="0"
     y="0"
     xlink:href="#use3976"
     id="use3897"
     transform="translate(-1176.375,-254.26995)" />
  <use
     height="340"
     width="125"
     x="0"
     y="0"
     xlink:href="#use4026"
     id="use3899"
     transform="translate(-1176.375,-254.26995)" />
  <g
     id="g3901"
     transform="translate(-1175.5211,-731.49106)" />
  <use
     height="340"
     width="125"
     x="0"
     y="0"
     xlink:href="#use3976"
     id="use3903"
     transform="translate(-1187.5211,-712.05606)" />
  <use
     height="340"
     width="125"
     x="0"
     y="0"
     xlink:href="#use3976"
     id="use3905"
     transform="translate(-1187.5211,-824.05606)" />
  <use
     height="340"
     width="125"
     x="0"
     y="0"
     xlink:href="#use4026"
     id="use3907"
     transform="translate(-1187.5211,-824.05606)" />
  <g
     id="g3909"
     transform="translate(-738.41678,-63.893641)" />
  <use
     height="340"
     width="125"
     x="0"
     y="0"
     xlink:href="#use3976"
     id="use3911"
     transform="translate(-750.41678,-44.458637)" />
  <use
     height="340"
     width="125"
     x="0"
     y="0"
     xlink:href="#use3976"
     id="use3913"
     transform="translate(-750.41678,-156.45864)" />
  <use
     height="340"
     width="125"
     x="0"
     y="0"
     xlink:href="#use4026"
     id="use3915"
     transform="translate(-750.41678,-156.45864)" />
  <g
     id="g3917"
     transform="translate(-749.56283,-633.67975)" />
  <use
     height="340"
     width="125"
     x="0"
     y="0"
     xlink:href="#use3976"
     id="use3919"
     transform="translate(-761.56283,-614.24475)" />
  <use
     height="340"
     width="125"
     x="0"
     y="0"
     xlink:href="#use3976"
     id="use3921"
     transform="translate(-761.56283,-726.24475)" />
  <use
     height="340"
     width="125"
     x="0"
     y="0"
     xlink:href="#use4026"
     id="use3923"
     transform="translate(-761.56283,-726.24475)" />
  <g
     id="g4269"
     transform="translate(-393.56542,-66.278035)" />
  <use
     height="340"
     width="125"
     x="0"
     y="0"
     xlink:href="#use3976"
     id="use4271"
     transform="translate(-405.56542,-46.843031)" />
  <use
     height="340"
     width="125"
     x="0"
     y="0"
     xlink:href="#use3976"
     id="use4273"
     transform="translate(-405.56542,-158.84303)" />
  <use
     height="340"
     width="125"
     x="0"
     y="0"
     xlink:href="#use4026"
     id="use4275"
     transform="translate(-405.56542,-158.84303)" />
  <g
     id="g4277"
     transform="translate(-404.71147,-636.06414)" />
  <use
     height="340"
     width="125"
     x="0"
     y="0"
     xlink:href="#use3976"
     id="use4279"
     transform="translate(-416.71147,-616.62914)" />
  <use
     height="340"
     width="125"
     x="0"
     y="0"
     xlink:href="#use3976"
     id="use4281"
     transform="translate(-416.71147,-728.62914)" />
  <use
     height="340"
     width="125"
     x="0"
     y="0"
     xlink:href="#use4026"
     id="use4283"
     transform="translate(-416.71147,-728.62914)" />
  <g
     id="g4325"
     transform="translate(-694.86789,-87.632641)" />
  <use
     height="340"
     width="125"
     x="0"
     y="0"
     xlink:href="#use3976"
     id="use4327"
     transform="translate(-706.86789,-68.197637)" />
  <use
     height="340"
     width="125"
     x="0"
     y="0"
     xlink:href="#use3976"
     id="use4329"
     transform="translate(-706.86789,-180.19764)" />
  <use
     height="340"
     width="125"
     x="0"
     y="0"
     xlink:href="#use4026"
     id="use4331"
     transform="translate(-706.86789,-180.19764)" />
  <g
     id="g4333"
     transform="translate(-706.01394,-657.41875)" />
  <use
     height="340"
     width="125"
     x="0"
     y="0"
     xlink:href="#use3976"
     id="use4335"
     transform="translate(-718.01394,-637.98375)" />
  <use
     height="340"
     width="125"
     x="0"
     y="0"
     xlink:href="#use3976"
     id="use4337"
     transform="translate(-718.01394,-749.98375)" />
  <use
     height="340"
     width="125"
     x="0"
     y="0"
     xlink:href="#use4026"
     id="use4339"
     transform="translate(-718.01394,-749.98375)" />
  <g
     id="g4341"
     transform="translate(-976.15337,-161.66355)" />
  <use
     height="340"
     width="125"
     x="0"
     y="0"
     xlink:href="#use3976"
     id="use4343"
     transform="translate(-988.15337,-142.22854)" />
  <use
     height="340"
     width="125"
     x="0"
     y="0"
     xlink:href="#use3976"
     id="use4345"
     transform="translate(-988.15337,-254.22854)" />
  <use
     height="340"
     width="125"
     x="0"
     y="0"
     xlink:href="#use4026"
     id="use4347"
     transform="translate(-988.15337,-254.22854)" />
  <g
     id="g4349"
     transform="translate(-987.29942,-731.44965)" />
  <use
     height="340"
     width="125"
     x="0"
     y="0"
     xlink:href="#use3976"
     id="use4351"
     transform="translate(-999.29942,-712.01465)" />
  <use
     height="340"
     width="125"
     x="0"
     y="0"
     xlink:href="#use3976"
     id="use4353"
     transform="translate(-999.29942,-824.01465)" />
  <use
     height="340"
     width="125"
     x="0"
     y="0"
     xlink:href="#use4026"
     id="use4355"
     transform="translate(-999.29942,-824.01465)" />
  <g
     id="g4357"
     transform="translate(-550.19511,-63.852231)" />
  <use
     height="340"
     width="125"
     x="0"
     y="0"
     xlink:href="#use3976"
     id="use4359"
     transform="translate(-562.19511,-44.417227)" />
  <use
     height="340"
     width="125"
     x="0"
     y="0"
     xlink:href="#use3976"
     id="use4361"
     transform="translate(-562.19511,-156.41723)" />
  <use
     height="340"
     width="125"
     x="0"
     y="0"
     xlink:href="#use4026"
     id="use4363"
     transform="translate(-562.19511,-156.41723)" />
  <g
     id="g4365"
     transform="translate(-561.34116,-633.63834)" />
  <use
     height="340"
     width="125"
     x="0"
     y="0"
     xlink:href="#use3976"
     id="use4367"
     transform="translate(-573.34116,-614.20334)" />
  <use
     height="340"
     width="125"
     x="0"
     y="0"
     xlink:href="#use3976"
     id="use4369"
     transform="translate(-573.34116,-726.20334)" />
  <use
     height="340"
     width="125"
     x="0"
     y="0"
     xlink:href="#use4026"
     id="use4371"
     transform="translate(-573.34116,-726.20334)" />
  <g
     id="g4697"
     transform="translate(-377.17641,-66.278035)" />
  <use
     height="340"
     width="125"
     x="0"
     y="0"
     xlink:href="#use3976"
     id="use4699"
     transform="translate(-389.17641,-46.843031)" />
  <use
     height="340"
     width="125"
     x="0"
     y="0"
     xlink:href="#use3976"
     id="use4701"
     transform="translate(-389.17641,-158.84303)" />
  <use
     height="340"
     width="125"
     x="0"
     y="0"
     xlink:href="#use4026"
     id="use4703"
     transform="translate(-389.17641,-158.84303)" />
  <g
     id="g4705"
     transform="translate(-388.32246,-636.06414)" />
  <use
     height="340"
     width="125"
     x="0"
     y="0"
     xlink:href="#use3976"
     id="use4707"
     transform="translate(-400.32246,-616.62914)" />
  <use
     height="340"
     width="125"
     x="0"
     y="0"
     xlink:href="#use3976"
     id="use4709"
     transform="translate(-400.32246,-728.62914)" />
  <use
     height="340"
     width="125"
     x="0"
     y="0"
     xlink:href="#use4026"
     id="use4711"
     transform="translate(-400.32246,-728.62914)" />
  <g
     id="g5112"
     transform="translate(-403.9948,30.325041)" />
  <use
     height="340"
     width="125"
     x="0"
     y="0"
     xlink:href="#use3976"
     id="use5114"
     transform="translate(-415.9948,49.760045)" />
  <use
     height="340"
     width="125"
     x="0"
     y="0"
     xlink:href="#use3976"
     id="use5116"
     transform="translate(-415.9948,-62.239955)" />
  <use
     height="340"
     width="125"
     x="0"
     y="0"
     xlink:href="#use4026"
     id="use5118"
     transform="translate(-415.9948,-62.239955)" />
  <g
     id="g5120"
     transform="translate(-415.14085,-539.46106)" />
  <use
     height="340"
     width="125"
     x="0"
     y="0"
     xlink:href="#use3976"
     id="use5122"
     transform="translate(-427.14085,-520.02606)" />
  <use
     height="340"
     width="125"
     x="0"
     y="0"
     xlink:href="#use3976"
     id="use5124"
     transform="translate(-427.14085,-632.02606)" />
  <use
     height="340"
     width="125"
     x="0"
     y="0"
     xlink:href="#use4026"
     id="use5126"
     transform="translate(-427.14085,-632.02606)" />
  <g
     id="g3799"
     transform="translate(-833.55318,57.605861)" />
  <use
     height="340"
     width="125"
     x="0"
     y="0"
     xlink:href="#use3976"
     id="use3801"
     transform="translate(-845.55318,77.040865)" />
  <use
     height="340"
     width="125"
     x="0"
     y="0"
     xlink:href="#use3976"
     id="use3803"
     transform="translate(-845.55318,-34.959135)" />
  <use
     height="340"
     width="125"
     x="0"
     y="0"
     xlink:href="#use4026"
     id="use3805"
     transform="translate(-845.55318,-34.959135)" />
  <g
     id="g3807"
     transform="translate(-844.69923,-512.18024)" />
  <use
     height="340"
     width="125"
     x="0"
     y="0"
     xlink:href="#use3976"
     id="use3809"
     transform="translate(-856.69923,-492.74524)" />
  <use
     height="340"
     width="125"
     x="0"
     y="0"
     xlink:href="#use3976"
     id="use3811"
     transform="translate(-856.69923,-604.74524)" />
  <use
     height="340"
     width="125"
     x="0"
     y="0"
     xlink:href="#use4026"
     id="use3813"
     transform="translate(-856.69923,-604.74524)" />
  <g
     id="g3815"
     transform="translate(-1033.1904,57.605861)" />
  <use
     height="340"
     width="125"
     x="0"
     y="0"
     xlink:href="#use3976"
     id="use3817"
     transform="translate(-1045.1904,77.040865)" />
  <use
     height="340"
     width="125"
     x="0"
     y="0"
     xlink:href="#use3976"
     id="use3819"
     transform="translate(-1045.1904,-34.959135)" />
  <use
     height="340"
     width="125"
     x="0"
     y="0"
     xlink:href="#use4026"
     id="use3821"
     transform="translate(-1045.1904,-34.959135)" />
  <g
     id="g3823"
     transform="translate(-1044.3365,-512.18024)" />
  <use
     height="340"
     width="125"
     x="0"
     y="0"
     xlink:href="#use3976"
     id="use3825"
     transform="translate(-1056.3365,-492.74524)" />
  <use
     height="340"
     width="125"
     x="0"
     y="0"
     xlink:href="#use3976"
     id="use3827"
     transform="translate(-1056.3365,-604.74524)" />
  <use
     height="340"
     width="125"
     x="0"
     y="0"
     xlink:href="#use4026"
     id="use3829"
     transform="translate(-1056.3365,-604.74524)" />
  <g
     id="g5627"
     transform="translate(-420.38382,-37.465894)" />
  <use
     height="340"
     width="125"
     x="0"
     y="0"
     xlink:href="#use3976"
     id="use5629"
     transform="translate(-432.38382,-18.03089)" />
  <use
     height="340"
     width="125"
     x="0"
     y="0"
     xlink:href="#use3976"
     id="use5631"
     transform="translate(-432.38382,-130.03089)" />
  <use
     height="340"
     width="125"
     x="0"
     y="0"
     xlink:href="#use4026"
     id="use5633"
     transform="translate(-432.38382,-130.03089)" />
  <g
     id="g5638"
     transform="translate(-431.52987,-607.252)" />
  <use
     height="340"
     width="125"
     x="0"
     y="0"
     xlink:href="#use3976"
     id="use5640"
     transform="translate(-443.52987,-587.817)" />
  <use
     height="340"
     width="125"
     x="0"
     y="0"
     xlink:href="#use3976"
     id="use5642"
     transform="translate(-443.52987,-699.817)" />
  <use
     height="340"
     width="125"
     x="0"
     y="0"
     xlink:href="#use4026"
     id="use5644"
     transform="translate(-443.52987,-699.817)" />
  <g
     id="g5646"
     transform="translate(-620.02104,-37.465894)" />
  <use
     height="340"
     width="125"
     x="0"
     y="0"
     xlink:href="#use3976"
     id="use5648"
     transform="translate(-632.02104,-18.03089)" />
  <use
     height="340"
     width="125"
     x="0"
     y="0"
     xlink:href="#use3976"
     id="use5650"
     transform="translate(-632.02104,-130.03089)" />
  <use
     height="340"
     width="125"
     x="0"
     y="0"
     xlink:href="#use4026"
     id="use5652"
     transform="translate(-632.02104,-130.03089)" />
  <g
     id="g5654"
     transform="translate(-631.16709,-607.252)" />
  <use
     height="340"
     width="125"
     x="0"
     y="0"
     xlink:href="#use3976"
     id="use5656"
     transform="translate(-643.16709,-587.817)" />
  <use
     height="340"
     width="125"
     x="0"
     y="0"
     xlink:href="#use3976"
     id="use5658"
     transform="translate(-643.16709,-699.817)" />
  <use
     height="340"
     width="125"
     x="0"
     y="0"
     xlink:href="#use4026"
     id="use5660"
     transform="translate(-643.16709,-699.817)" />
  <path
     style="fill:#ebc846;fill-opacity:1;stroke:none"
     d="M 35.297996,6.949591 34.713113,356.18917 c 31.121371,0 37.47532,0 68.596687,0 l 0.47408,-333.238562 z"
     id="path8929"
     inkscape:connector-curvature="0"
     sodipodi:nodetypes="ccccc" />
  <rect
     style="opacity:0.3;fill:url(#linearGradient3842);fill-opacity:1;stroke:none"
     id="rect6642"
     width="138"
     height="5"
     x="0.2484965"
     y="351.0694" />
  <g
     id="g8931"
     transform="matrix(0,-2.5442177,1.6987991,0,-138.95297,356.61966)">
    <path
       id="path8933"
       d="m 0.38759174,102.5625 136.83812826,0"
       style="opacity:0.3;fill:#ebc846;fill-opacity:1;stroke:#000000;stroke-width:0.62653702;stroke-linecap:square;stroke-linejoin:miter;stroke-miterlimit:4;stroke-opacity:1;stroke-dasharray:none;stroke-dashoffset:0"
       inkscape:connector-curvature="0" />
    <path
       style="opacity:0.3;fill:#ebc846;fill-opacity:1;stroke:#000000;stroke-width:0.62587523;stroke-linecap:square;stroke-linejoin:miter;stroke-miterlimit:4;stroke-opacity:1;stroke-dasharray:none;stroke-dashoffset:0"
       d="m 0.387052,104.5625 136.549188,0"
       id="path8935"
       inkscape:connector-curvature="0" />
    <path
       id="path8937"
       d="m 0.38651226,106.5625 136.26025774,0"
       style="opacity:0.3;fill:#ebc846;fill-opacity:1;stroke:#000000;stroke-width:0.62521273;stroke-linecap:square;stroke-linejoin:miter;stroke-miterlimit:4;stroke-opacity:1;stroke-dasharray:none;stroke-dashoffset:0"
       inkscape:connector-curvature="0" />
    <path
       style="opacity:0.3;fill:#ebc846;fill-opacity:1;stroke:#000000;stroke-width:0.62432826;stroke-linecap:square;stroke-linejoin:miter;stroke-miterlimit:4;stroke-opacity:1;stroke-dasharray:none;stroke-dashoffset:0"
       d="m 0.3857926,108.5625 135.8750074,0"
       id="path8939"
       inkscape:connector-curvature="0" />
    <path
       id="path8941"
       d="m 0.38525286,110.5625 135.58606714,0"
       style="opacity:0.3;fill:#ebc846;fill-opacity:1;stroke:#000000;stroke-width:0.62366408;stroke-linecap:square;stroke-linejoin:miter;stroke-miterlimit:4;stroke-opacity:1;stroke-dasharray:none;stroke-dashoffset:0"
       inkscape:connector-curvature="0" />
    <path
       style="opacity:0.3;fill:#ebc846;fill-opacity:1;stroke:#000000;stroke-width:0.62299919;stroke-linecap:square;stroke-linejoin:miter;stroke-miterlimit:4;stroke-opacity:1;stroke-dasharray:none;stroke-dashoffset:0"
       d="m 0.38471312,112.5625 135.29713688,0"
       id="path8943"
       inkscape:connector-curvature="0" />
    <path
       id="path8945"
       d="m 0.38417338,114.5625 135.00819662,0"
       style="opacity:0.3;fill:#ebc846;fill-opacity:1;stroke:#000000;stroke-width:0.62233365;stroke-linecap:square;stroke-linejoin:miter;stroke-miterlimit:4;stroke-opacity:1;stroke-dasharray:none;stroke-dashoffset:0"
       inkscape:connector-curvature="0" />
    <path
       style="opacity:0.3;fill:#ebc846;fill-opacity:1;stroke:#000000;stroke-width:0.62166733;stroke-linecap:square;stroke-linejoin:miter;stroke-miterlimit:4;stroke-opacity:1;stroke-dasharray:none;stroke-dashoffset:0"
       d="m 0.38363364,116.5625 134.71925636,0"
       id="path8947"
       inkscape:connector-curvature="0" />
    <path
       id="path8949"
       d="m 0.38291398,118.5625 134.33401602,0"
       style="opacity:0.3;fill:#ebc846;fill-opacity:1;stroke:#000000;stroke-width:0.62077779;stroke-linecap:square;stroke-linejoin:miter;stroke-miterlimit:4;stroke-opacity:1;stroke-dasharray:none;stroke-dashoffset:0"
       inkscape:connector-curvature="0" />
    <path
       style="opacity:0.3;fill:#ebc846;fill-opacity:1;stroke:#000000;stroke-width:0.61988705;stroke-linecap:square;stroke-linejoin:miter;stroke-miterlimit:4;stroke-opacity:1;stroke-dasharray:none;stroke-dashoffset:0"
       d="m 0.38219433,120.5625 133.94876567,0"
       id="path8951"
       inkscape:connector-curvature="0" />
    <path
       id="path8953"
       d="m 0.38183225,122.5625 133.75613775,0"
       style="opacity:0.3;fill:#ebc846;fill-opacity:1;stroke:#000000;stroke-width:0.61944115;stroke-linecap:square;stroke-linejoin:miter;stroke-miterlimit:4;stroke-opacity:1;stroke-dasharray:none;stroke-dashoffset:0"
       inkscape:connector-curvature="0" />
    <path
       style="opacity:0.3;fill:#ebc846;fill-opacity:1;stroke:#000000;stroke-width:0.61864156;stroke-linecap:square;stroke-linejoin:miter;stroke-miterlimit:4;stroke-opacity:1;stroke-dasharray:none;stroke-dashoffset:0"
       d="m 0.38057209,124.5625 133.41103791,0"
       id="path8955"
       inkscape:connector-curvature="0" />
    <path
       id="path8957"
       d="m 0.37983214,126.5625 133.05903786,0"
       style="opacity:0.3;fill:#ebc846;fill-opacity:1;stroke:#000000;stroke-width:0.61782485;stroke-linecap:square;stroke-linejoin:miter;stroke-miterlimit:4;stroke-opacity:1;stroke-dasharray:none;stroke-dashoffset:0"
       inkscape:connector-curvature="0" />
    <path
       style="opacity:0.3;fill:#ebc846;fill-opacity:1;stroke:#000000;stroke-width:0.61719233;stroke-linecap:square;stroke-linejoin:miter;stroke-miterlimit:4;stroke-opacity:1;stroke-dasharray:none;stroke-dashoffset:0"
       d="m 0.37927964,128.5625 132.78672036,0"
       id="path8959"
       inkscape:connector-curvature="0" />
    <path
       id="path8961"
       d="m 0.37854406,130.5625 132.41810594,0"
       style="opacity:0.3;fill:#ebc846;fill-opacity:1;stroke:#000000;stroke-width:0.61633509;stroke-linecap:square;stroke-linejoin:miter;stroke-miterlimit:4;stroke-opacity:1;stroke-dasharray:none;stroke-dashoffset:0"
       inkscape:connector-curvature="0" />
    <path
       style="opacity:0.3;fill:#ebc846;fill-opacity:1;stroke:#000000;stroke-width:0.61570102;stroke-linecap:square;stroke-linejoin:miter;stroke-miterlimit:4;stroke-opacity:1;stroke-dasharray:none;stroke-dashoffset:0"
       d="m 0.37799144,132.5625 132.14579856,0"
       id="path8963"
       inkscape:connector-curvature="0" />
    <path
       id="path8965"
       d="m 0.37725375,134.5625 131.79377625,0"
       style="opacity:0.3;fill:#ebc846;fill-opacity:1;stroke:#000000;stroke-width:0.61488038;stroke-linecap:square;stroke-linejoin:miter;stroke-miterlimit:4;stroke-opacity:1;stroke-dasharray:none;stroke-dashoffset:0"
       inkscape:connector-curvature="0" />
    <path
       style="opacity:0.3;fill:#ebc846;fill-opacity:1;stroke:#000000;stroke-width:0.61424488;stroke-linecap:square;stroke-linejoin:miter;stroke-miterlimit:4;stroke-opacity:1;stroke-dasharray:none;stroke-dashoffset:0"
       d="m 0.37670151,136.5625 131.52146849,0"
       id="path8967"
       inkscape:connector-curvature="0" />
    <path
       id="path8969"
       d="m 0.37615005,138.5625 131.26575995,0"
       style="opacity:0.3;fill:#ebc846;fill-opacity:1;stroke:#000000;stroke-width:0.6136474;stroke-linecap:square;stroke-linejoin:miter;stroke-miterlimit:4;stroke-opacity:1;stroke-dasharray:none;stroke-dashoffset:0"
       inkscape:connector-curvature="0" />
    <path
       style="opacity:0.3;fill:#ebc846;fill-opacity:1;stroke:#000000;stroke-width:0.61301059;stroke-linecap:square;stroke-linejoin:miter;stroke-miterlimit:4;stroke-opacity:1;stroke-dasharray:none;stroke-dashoffset:0"
       d="m 0.37559786,140.5625 130.99345214,0"
       id="path8971"
       inkscape:connector-curvature="0" />
    <path
       id="path8973"
       d="m 0.37467812,142.5625 130.52852188,0"
       style="opacity:0.3;fill:#ebc846;fill-opacity:1;stroke:#000000;stroke-width:0.61192179;stroke-linecap:square;stroke-linejoin:miter;stroke-miterlimit:4;stroke-opacity:1;stroke-dasharray:none;stroke-dashoffset:0"
       inkscape:connector-curvature="0" />
  </g>
</svg>
