<?xml version="1.0" encoding="UTF-8" standalone="no"?>
<!-- Created with Inkscape (http://www.inkscape.org/) -->

<svg
   xmlns:dc="http://purl.org/dc/elements/1.1/"
   xmlns:cc="http://creativecommons.org/ns#"
   xmlns:rdf="http://www.w3.org/1999/02/22-rdf-syntax-ns#"
   xmlns:svg="http://www.w3.org/2000/svg"
   xmlns="http://www.w3.org/2000/svg"
   xmlns:sodipodi="http://sodipodi.sourceforge.net/DTD/sodipodi-0.dtd"
   xmlns:inkscape="http://www.inkscape.org/namespaces/inkscape"
   version="1.0"
   width="93.438019"
   height="175.12503"
   viewBox="-0.862 -0.666 88.766118 171.23336"
   id="svg6659"
   xml:space="preserve"
   inkscape:version="0.48.4 r9939"
   sodipodi:docname="Army-USA-OR-09a.svg"><sodipodi:namedview
   pagecolor="#ffffff"
   bordercolor="#666666"
   borderopacity="1"
   objecttolerance="10"
   gridtolerance="10"
   guidetolerance="10"
   inkscape:pageopacity="0"
   inkscape:pageshadow="2"
   inkscape:window-width="640"
   inkscape:window-height="480"
   id="namedview54"
   showgrid="false"
   fit-margin-top="0"
   fit-margin-left="0"
   fit-margin-right="0"
   fit-margin-bottom="0"
   inkscape:zoom="1.3111111"
   inkscape:cx="46.719001"
   inkscape:cy="87.562534"
   inkscape:window-x="0"
   inkscape:window-y="0"
   inkscape:window-maximized="0"
   inkscape:current-layer="svg6659" /><metadata
   id="metadata356"><rdf:RDF><cc:Work
       rdf:about=""><dc:format>image/svg+xml</dc:format><dc:type
         rdf:resource="http://purl.org/dc/dcmitype/StillImage" /><dc:title /></cc:Work></rdf:RDF></metadata>
<defs
   id="defs6661" />






























































































































































































































































































































































<path
   d="M 43.429921,-0.666 C 34.477386,24.194006 18.441827,45.670899 -2.2508889,61.330992 l 0,95.517178 c 13.0464919,8.65822 28.6762729,13.7192 45.4969879,13.7192 0.0616,0 0.122222,0 0.183822,0 0.0616,0 0.122223,0 0.183823,0 16.820715,0 32.450496,-5.06098 45.496988,-13.7192 l 0,-95.517178 C 68.417038,45.670899 52.381479,24.194006 43.429921,-0.666 z"
   id="path7798_1_"
   style="fill:#1a374f;fill-opacity:1"
   inkscape:connector-curvature="0" /><path
   d="M 43.442388,67.768927 C 31.739362,80.640396 18.105227,91.706888 2.9868234,100.52449 l 0,15.18611 c 8.8283576,12.71894 23.5023606,21.05279 40.1500086,21.05279 17.031914,0 31.999252,-8.72129 40.761121,-21.9389 l 0,-14.3 C 68.779548,91.706888 55.145413,80.640396 43.442388,67.768927 z m 0,13.780558 c 10.154619,9.974824 21.462476,18.759435 33.733341,26.125005 0.0045,0.003 -0.0045,0.0279 0,0.0305 -6.834192,11.69163 -19.526872,19.525 -34.038897,19.525 -14.402474,0 -27.016003,-7.73486 -33.8861179,-19.28056 C 21.689994,100.53094 33.1675,91.642392 43.442388,81.549427 z"
   id="path7800_1_"
   style="fill:#f3c463"
   inkscape:connector-curvature="0" /><path
   d="m 83.915797,122.35118 c -9.812002,11.57298 -24.440539,18.94445 -40.79192,18.94445 -16.010137,0 -30.385429,-7.05467 -40.1808092,-18.21111 l 0,13.23031 c 10.9022242,9.06107 24.9040052,14.51414 40.1808092,14.51414 15.558403,0 29.798762,-5.67111 40.79192,-15.03334 l 0,-13.44445 z"
   id="path7802_1_"
   style="fill:#f3c463"
   inkscape:connector-curvature="0" /><path
   d="m 83.915797,141.17341 c -11.311913,8.668 -25.451561,13.84143 -40.79192,13.84143 -15.074404,0 -28.973518,-4.98569 -40.1808092,-13.38383 l 0,11.61111 c 11.6912912,7.20232 25.4456942,11.36667 40.1808092,11.36667 14.980537,0 28.971562,-4.30711 40.79192,-11.73333 l 0,-11.70205 z"
   id="path7804_1_"
   style="fill:#f3c463"
   inkscape:connector-curvature="0" /><path
   d="M 43.429921,15.406715 C 33.845741,34.754986 19.933916,51.606012 2.9743567,64.662282 l 0,12.528269 C 18.973738,66.10646 32.739875,52.012768 43.429921,35.725919 54.11899,52.012768 67.885127,66.10646 83.885486,77.189573 l 0,-12.527291 C 66.924949,51.606012 53.014101,34.754986 43.429921,15.406715 z"
   id="path7806_1_"
   style="fill:#f3c463"
   inkscape:connector-curvature="0" /><path
   d="M 43.429921,44.43401 C 32.396674,59.640414 18.671605,72.774906 2.9743567,83.148152 l 0,11.336359 C 18.264849,85.190731 31.916585,73.479884 43.429921,59.895614 54.94228,73.479884 68.594994,85.190731 83.885486,94.484511 l 0,-11.336359 C 68.18726,72.774906 54.463168,59.640414 43.429921,44.43401 z"
   id="path7808_1_"
   style="fill:#f3c463"
   inkscape:connector-curvature="0" /><g
   id="g3682"
   transform="translate(-3.2080879,-2.38333)"><path
     d="m 52.165388,100.3282 c 1.34249,-0.755826 0.418489,-1.875381 0.418489,-1.875381 1.120534,-1.090223 -0.111466,-1.874401 -0.111466,-1.874401 0.672711,-1.706222 -0.838934,-1.791289 -0.838934,-1.791289 0.280622,-1.567378 -1.342489,-1.539023 -1.342489,-1.539023 -0.168178,-1.567378 -1.651467,-0.923022 -1.651467,-0.923022 -1.063823,-1.567378 -1.931112,-0.252267 -1.931112,-0.252267 -1.145955,-1.146933 -1.817689,0.336356 -1.817689,0.336356 -1.483289,-0.700089 -1.7072,0.895644 -1.7072,0.895644 -1.874401,-0.112444 -1.370845,1.539023 -1.370845,1.539023 -1.427556,0.363733 -0.728445,1.734578 -0.728445,1.734578 -1.426578,0.951378 -0.194577,1.93209 -0.194577,1.93209 -0.952356,1.174311 0.419466,1.873422 0.419466,1.873422 -0.447822,1.54098 1.062845,1.65147 1.062845,1.65147 0.02738,1.79129 1.567378,1.11955 1.567378,1.11955 0.279645,1.48427 1.791289,0.67271 1.791289,0.67271 0.894667,1.31512 1.95849,0.0274 1.95849,0.0274 1.370844,0.78418 1.791289,-0.64435 1.791289,-0.64435 1.817689,0.19653 1.510667,-1.23103 1.510667,-1.23103 1.649512,-0.1408 1.174311,-1.65146 1.174311,-1.65146"
     id="path6670"
     style="fill:#f2c363"
     inkscape:connector-curvature="0" /><path
     d="m 32.041739,118.05922 0,0 0,0 z m 8.44898,2.82187 c 0,0 0.0098,0.006 0.02836,0.0137"
     id="path6672"
     style="fill:none;stroke:#f2c363;stroke-width:0.25000009"
     inkscape:connector-curvature="0" /><path
     d="m 32.678273,116.01664 c 0.190667,0 0.346133,-0.15448 0.346133,-0.34613 0,-0.18969 -0.155466,-0.34613 -0.346133,-0.34613 -0.191645,0 -0.346134,0.15644 -0.346134,0.34613 0,0.19165 0.155467,0.34613 0.346134,0.34613 l 0,0 z"
     id="path6674"
     style="fill:#f2c363"
     inkscape:connector-curvature="0" /><path
     d="m 31.105028,115.50136 c 0.141778,0 0.257156,-0.11538 0.257156,-0.25716 0,-0.14276 -0.115378,-0.25813 -0.257156,-0.25813 -0.142756,0 -0.257156,0.11537 -0.257156,0.25813 0,0.1408 0.1144,0.25716 0.257156,0.25716 l 0,0 z"
     id="path6676"
     style="fill:#f2c363"
     inkscape:connector-curvature="0" /><path
     d="m 32.796584,116.98465 c 0.196533,0 0.355911,-0.15938 0.355911,-0.35494 0,-0.19751 -0.159378,-0.35689 -0.355911,-0.35689 -0.196533,0 -0.354933,0.15938 -0.354933,0.35689 0,0.19556 0.1584,0.35494 0.354933,0.35494 l 0,0 z"
     id="path6678"
     style="fill:#f2c363"
     inkscape:connector-curvature="0" /><path
     d="m 31.195961,118.23229 c 0.146667,0 0.266934,-0.12027 0.266934,-0.26693 0,-0.14667 -0.120267,-0.26694 -0.266934,-0.26694 -0.147644,0 -0.266933,0.12027 -0.266933,0.26694 0,0.14666 0.118311,0.26693 0.266933,0.26693 l 0,0 z"
     id="path6680"
     style="fill:#f2c363"
     inkscape:connector-curvature="0" /><path
     d="m 32.209917,118.20882 c 0.130045,0 0.2376,-0.10657 0.2376,-0.23662 0,-0.132 -0.106578,-0.2376 -0.2376,-0.2376 -0.132,0 -0.2376,0.1056 -0.2376,0.2376 0,0.13005 0.1056,0.23662 0.2376,0.23662 l 0,0 z"
     id="path6682"
     style="fill:#f2c363"
     inkscape:connector-curvature="0" /><path
     d="m 32.209917,118.20882 c 0.130045,0 0.2376,-0.10657 0.2376,-0.23662 0,-0.132 -0.106578,-0.2376 -0.2376,-0.2376 -0.132,0 -0.2376,0.1056 -0.2376,0.2376 0,0.13005 0.1056,0.23662 0.2376,0.23662 l 0,0 z"
     id="path6684"
     style="fill:none;stroke:#f2c363;stroke-width:0.25000009"
     inkscape:connector-curvature="0" /><path
     d="m 33.993384,118.39558 c 0.190667,0 0.346134,-0.15547 0.346134,-0.34613 0,-0.19067 -0.155467,-0.34614 -0.346134,-0.34614 -0.191644,0 -0.346133,0.15449 -0.346133,0.34614 0,0.19164 0.154489,0.34613 0.346133,0.34613 l 0,0 z"
     id="path6686"
     style="fill:#f2c363"
     inkscape:connector-curvature="0" /><path
     d="m 34.559518,118.85122 c 0.208266,0 0.376444,-0.16915 0.376444,-0.37742 0,-0.20729 -0.168178,-0.37449 -0.376444,-0.37449 -0.206311,0 -0.375467,0.1672 -0.375467,0.37449 0,0.20925 0.168178,0.37742 0.375467,0.37742 l 0,0 z"
     id="path6688"
     style="fill:none;stroke:#f2c363;stroke-width:0.25000009"
     inkscape:connector-curvature="0" /><path
     d="m 35.259607,119.24233 c 0.207289,0 0.374489,-0.16817 0.374489,-0.37546 0,-0.20729 -0.1672,-0.37645 -0.374489,-0.37645 -0.208267,0 -0.377423,0.16916 -0.377423,0.37645 0,0.20729 0.169156,0.37546 0.377423,0.37546 l 0,0 z"
     id="path6690"
     style="fill:#f2c363"
     inkscape:connector-curvature="0" /><path
     d="m 34.189918,119.4858 c 0.189689,0 0.345155,-0.15547 0.345155,-0.34613 0,-0.19067 -0.155466,-0.34614 -0.345155,-0.34614 -0.191645,0 -0.347112,0.15449 -0.347112,0.34614 0,0.19164 0.155467,0.34613 0.347112,0.34613 l 0,0 z"
     id="path6692"
     style="fill:#f2c363"
     inkscape:connector-curvature="0" /><path
     d="m 43.023164,107.64784 0.04693,-0.008 m 8.395202,-1.44711 c -9.77e-4,0.0156 -0.0029,0.0284 -0.0088,0.043 m 5.022846,-8.252445 0.0059,0.02053 m -0.918134,15.778405 c -0.0068,-0.0137 -0.01564,-0.0244 -0.02444,-0.0352 m -4.755913,2.12569 0,0.0205"
     id="path6694"
     style="fill:none;stroke:#f2c363;stroke-width:0.25000009"
     inkscape:connector-curvature="0" /><polygon
     points="58.688,115.893 58.688,115.893 58.058,116.893 58.802,117.037 "
     transform="matrix(0.977778,0,0,0.977778,0.957199,1.71733)"
     id="polygon6696"
     style="fill:#f2c363" /><polygon
     points="62.444,112.72 62.444,112.72 61.579,113.528 62.263,113.856 "
     transform="matrix(0.977778,0,0,0.977778,0.957199,1.71733)"
     id="polygon6698"
     style="fill:#f2c363" /><polygon
     points="63.358,113.354 63.358,113.354 62.424,114.081 63.074,114.469 "
     transform="matrix(0.977778,0,0,0.977778,0.957199,1.71733)"
     id="polygon6700"
     style="fill:#f2c363" /><polygon
     points="59.696,114.907 59.696,114.907 58.96,115.833 59.684,116.057 "
     transform="matrix(0.977778,0,0,0.977778,0.957199,1.71733)"
     id="polygon6702"
     style="fill:#f2c363" /><polygon
     points="61.563,118.528 61.563,118.528 60.438,118.89 60.917,119.478 "
     transform="matrix(0.977778,0,0,0.977778,0.957199,1.71733)"
     id="polygon6704"
     style="fill:#f2c363" /><polygon
     points="62.413,117.581 62.413,117.581 61.304,117.993 61.808,118.559 "
     transform="matrix(0.977778,0,0,0.977778,0.957199,1.71733)"
     id="polygon6706"
     style="fill:#f2c363" /><polygon
     points="63.579,115.696 63.579,115.696 62.493,116.165 63.025,116.704 "
     transform="matrix(0.977778,0,0,0.977778,0.957199,1.71733)"
     id="polygon6708"
     style="fill:#f2c363" /><polygon
     points="63.436,114.779 63.436,114.779 62.412,115.372 63.003,115.844 "
     transform="matrix(0.977778,0,0,0.977778,0.957199,1.71733)"
     id="polygon6710"
     style="fill:#f2c363" /><polygon
     points="60.683,113.87 60.683,113.87 59.891,114.748 60.599,115.016 "
     transform="matrix(0.977778,0,0,0.977778,0.957199,1.71733)"
     id="polygon6712"
     style="fill:#f2c363" /><polygon
     points="60.937,114.795 60.937,114.795 60.084,115.614 60.771,115.932 "
     transform="matrix(0.977778,0,0,0.977778,0.957199,1.71733)"
     id="polygon6714"
     style="fill:#f2c363" /><polygon
     points="61.995,114.495 61.995,114.495 61.097,115.265 61.765,115.623 "
     transform="matrix(0.977778,0,0,0.977778,0.957199,1.71733)"
     id="polygon6716"
     style="fill:#f2c363" /><polygon
     points="61.192,116.272 61.192,116.272 60.222,116.945 60.848,117.369 "
     transform="matrix(0.977778,0,0,0.977778,0.957199,1.71733)"
     id="polygon6718"
     style="fill:#f2c363" /><polygon
     points="62.183,116.323 62.183,116.323 61.159,116.917 61.751,117.389 "
     transform="matrix(0.977778,0,0,0.977778,0.957199,1.71733)"
     id="polygon6720"
     style="fill:#f2c363" /><path
     d="m 58.08779,116.09682 -0.615023,3.24427 m 1.482312,-4.23769 -1.3992,4.28071 m 2.3232,-5.30151 -2.239112,5.35725 m 2.490401,-3.17485 -2.237156,3.37138 m 2.322223,-1.4696 -2.029867,1.66515 m 2.980267,-2.46106 -0.517245,0.4048 m -0.335378,0.48889 -2.057244,1.62311 m 4.056801,-4.30809 -4.182935,4.224 m 2.923556,-3.53858 -2.979289,3.48382 m 4.196623,-4.99449 -0.753867,0.82525 m -0.490844,-0.99342 -0.712801,1.14791 m -0.265955,0.4752 -2.19609,3.38409 m 3.66569,-6.68605 -1.092178,2.0152 m -0.09778,0.13885 -2.546134,4.49093 m 2.252801,-4.62978 -2.323201,4.58774 m 4.617068,-6.05636 -1.691556,2.48942 m -0.2816,0.46053 -2.391645,3.28827 m 3.006668,-3.48284 -2.964623,3.51022 m -3.231557,4.15556 -0.462489,0 0.672712,-0.97974 0.529955,-0.19653 -0.0264,0.5192"
     id="path6722"
     style="fill:none;stroke:#f2c363;stroke-width:0.25000009"
     inkscape:connector-curvature="0" /><polygon
     points="54.796,123.647 54.653,124.157 53.771,125.09 53.779,124.612 53.334,124.553 54.222,123.724 54.796,123.647 "
     transform="matrix(0.977778,0,0,0.977778,0.957199,1.71733)"
     id="polygon6724"
     style="fill:#f2c363" /><polygon
     points="56.479,124.239 56.524,124.766 56.028,125.951 55.869,125.507 55.431,125.602 55.97,124.514 56.479,124.239 "
     transform="matrix(0.977778,0,0,0.977778,0.957199,1.71733)"
     id="polygon6726"
     style="fill:#f2c363" /><polygon
     points="55.167,123.526 54.671,123.711 53.817,124.668 54.286,124.623 54.39,125.059 55.139,124.105 55.167,123.526 "
     transform="matrix(0.977778,0,0,0.977778,0.957199,1.71733)"
     id="polygon6728"
     style="fill:#f2c363" /><polygon
     points="57.011,124.368 57.158,124.877 56.901,126.133 56.648,125.739 56.245,125.909 56.563,124.737 57.011,124.368 "
     transform="matrix(0.977778,0,0,0.977778,0.957199,1.71733)"
     id="polygon6730"
     style="fill:#f2c363" /><path
     d="m 55.5133,122.69878 0.685423,-0.9504 m -1.174312,1.06284 1.105867,-1.232 m -1.594756,1.02178 1.496978,-1.2584 m -1.608444,0.76854 1.5664,-0.95041 m -0.434133,2.02792 0.782222,-1.30143 m -0.152533,1.31609 0.446844,-1.13226 m 0.07138,1.24373 0.209244,-1.14693 m -13.558847,1.17431 0.01858,-0.0205 m 1.807911,1.2848 0.0098,-0.0332 m 1.931111,0.83893 0.0098,0.045 M 36.40654,118.95096 c 0,0 -0.01564,0 -0.04204,0.007"
     id="path6732"
     style="fill:none;stroke:#f2c363;stroke-width:0.25000009"
     inkscape:connector-curvature="0" /><path
     d="m 32.402539,118.11985 -0.402844,-0.0548 c -0.426311,-0.0137 -0.865334,0.10364 -1.301423,0.55049 0,0 0.490845,0.48889 1.100001,0.45369 -0.270845,0.2112 -0.521156,0.48498 -0.679556,0.8888 0,0 1.426578,0.39111 2.740712,-0.924 l -0.002,0.0303 0.199467,-0.26693 c -0.323645,-0.32365 -0.742134,-0.28747 -0.742134,-0.28747 0,0 -0.401866,-0.29138 -0.912267,-0.39013 l 0,0 z"
     id="path6734"
     style="fill:#f2c363"
     inkscape:connector-curvature="0" /><path
     d="m 34.406007,119.4594 -0.461512,-0.0753 c 0,0 -1.7072,0.12614 -1.734578,2.19511 0,0 0.549511,-0.0743 1.080445,-0.49182 0,0 -0.101689,1.27698 0.03813,1.41582 0,9.8e-4 1.525334,-0.93182 1.077512,-3.04382 l 0,0 z"
     id="path6736"
     style="fill:#f2c363;stroke:#f2c363;stroke-width:0.25000009"
     inkscape:connector-curvature="0" /><polygon
     points="54.566,124.934 55.254,123.932 55.796,123.731 55.771,124.264 55.771,124.264 55.854,124.218 55.859,124.749 55.271,125.889 55.159,125.422 54.702,125.495 55.039,124.934 "
     transform="matrix(0.977778,0,0,0.977778,0.957199,1.71733)"
     id="polygon6738"
     style="fill:#f2c363;stroke:#f2c363;stroke-width:0.25568184" /><polygon
     points="53.399,124.348 53.399,124.348 53.502,123.883 53.069,123.741 54.093,123.09 54.671,123.12 54.437,123.594 54.304,123.688 "
     transform="matrix(0.977778,0,0,0.977778,0.957199,1.71733)"
     id="polygon6740"
     style="fill:#f2c363;stroke:#f2c363;stroke-width:0.25568184" /><path
     d="m 44.08992,105.6522 0.03813,0.36666 c -0.111466,0.0411 0.04205,1.11174 0.04205,1.11174 -0.145689,0.31582 -0.902489,0.47324 -1.100001,0.50942 -0.407733,0.10853 -0.481066,-0.5808 -0.481066,-0.5808 -0.02738,-0.41849 -0.754845,-0.89564 -0.754845,-0.89564 -0.117333,-0.29236 -0.08409,-0.4312 -0.01467,-0.48889 0,0 0.854578,-0.34907 0.742134,-0.61503 -1.0296,-1.45688 -3.720445,-2.96168 -5.762046,-3.18951 -0.126133,-0.0137 -0.156444,-0.21022 -0.156444,-0.26498 0,-0.0401 -0.044,-0.65217 -0.06942,-1.00026 -0.02835,-0.0841 -0.663911,-0.51529 -0.784178,-0.636535 -0.118311,-0.119289 -0.145688,-0.187734 -0.187733,-0.385245 -0.04107,-0.194578 0.07724,-0.608178 0.104622,-0.649245 0.02836,-0.04204 0.461512,-1.266222 0.461512,-1.266222 0.01271,-0.181867 0.06258,-0.332445 0.196533,-0.428267 0.194578,-0.139822 0.3784,-0.0616 0.446844,-0.04204 0.167201,0.04987 0.245423,0.223911 0.265956,0.391111 l 0,0.044 -0.210222,1.019822 c 0.552444,0.344178 1.597689,0.913245 1.693511,1.007112 0.05182,0.05182 0.0616,0.122222 0.05182,0.189689 l -0.102667,0.9856 c 3.168978,0.85555 5.118668,3.124 5.451112,3.93066 0,0 -0.775378,0.86534 -1.007111,0.89565 0,0 -0.06356,0.25422 -0.364711,0.21022 0.769511,0.60133 0.838933,1.52436 0.838933,1.52436 0,0 0.08409,-0.19458 0.139822,-1.11956 0,9.8e-4 0.0176,-0.53973 0.522134,-0.62382 l 0,0 z"
     id="path6742"
     style="fill:#f2c363"
     inkscape:connector-curvature="0" /><path
     d="m 44.827165,109.12429 c -0.252267,-0.86729 0.08409,-2.06409 0.08409,-2.06409 0.112445,-0.30702 0.112445,-1.20267 0.112445,-1.20267 l 0.726489,0.19653 c 0,0 -0.02738,0.67076 -0.08409,0.83894 0,0 -0.363733,0.82427 -0.223911,1.48329 l -0.615022,0.748 0,0 z"
     id="path6744"
     style="fill:#f2c363"
     inkscape:connector-curvature="0" /><path
     d="m 43.829831,110.78749 -0.02249,0 c -0.210222,-0.39111 1.635823,-2.41218 1.635823,-2.41218 0.643378,-0.36276 0.727466,-1.56738 0.727466,-1.56738 -0.08409,0 -0.447822,-0.30604 -0.447822,-0.30604 l -0.727467,-0.28063 c -0.147644,-0.12222 -0.531911,-0.13884 -0.6248,-0.14177 -0.119289,0.14177 -0.131022,0.29431 -0.131022,0.29431 0,0 -0.559289,-1.27209 0.587645,-1.35618 1.146933,-0.0841 0.7832,0.0274 1.062844,-0.11049 0.280622,-0.14178 -0.02738,-0.39307 0.784178,-0.308 0.810578,0.0831 1.908623,0.44196 2.43369,0.89467 0.4048,0.34906 -0.05671,0.25226 -0.05671,0.25226 0,0 0.168178,0.36276 -0.05573,1.39823 -0.201422,0.92595 0.05573,1.28675 0.08311,1.37084 0,0 0.998312,2.15209 0.857512,2.28018 l 0.484977,0 0,0.62871 c 3.217868,-0.25031 3.050668,-3.13182 1.707201,-4.11155 0,0 -0.279645,-0.64338 -0.02738,-0.95138 0.251289,-0.30703 4.391201,-5.56649 9.511824,-6.26658 0,0 -0.05573,0.36373 -0.336355,0.616 0,0 -0.989512,0.60818 -2.200978,1.35227 0,0 0.916178,-0.48205 1.166489,0.0195 0.191644,0.38427 -0.655112,1.00809 -1.774667,1.63387 l 0.03422,-0.0117 c 0.474222,-0.0851 0.901511,0.1672 0.901511,0.1672 0.07822,0.32658 -0.586667,0.74703 -1.510667,1.17529 0.419467,0.0274 0.699111,0.44783 0.699111,0.44783 0.05378,0.19848 -0.186755,0.4048 -0.587644,0.58862 0.362755,-0.0577 0.784178,0.4752 0.784178,0.4752 0.08311,0.0557 -0.364711,0.64338 -0.364711,0.64338 -0.03422,0.0156 -0.07431,0.0401 -0.139823,0.0557 0.280623,0.0557 0.504534,0.36373 0.504534,0.50453 0,0.13983 -0.1408,0.25227 -0.392089,0.41947 -0.02836,0.0186 -0.1056,0.0352 -0.221956,0.0489 l 0.02542,0.0342 c 0.279645,0.0284 0.530934,0.55929 0.530934,0.55929 0,0 -0.0264,0.11244 -0.390134,0.308 -0.0616,0.0332 -0.217066,0.0489 -0.434133,0.0508 l 0.06942,0.0323 c 0.420445,0.0284 0.5896,0.56027 0.5896,0.56027 0,0.22391 -0.616,0.39111 -0.616,0.39111 -0.09289,-9.8e-4 -0.185778,-0.006 -0.2816,-0.0117 l 0.02836,0.0117 c 0.420444,0.19555 0.4752,0.69911 0.4752,0.69911 -0.307022,0.39209 -0.810578,0.33538 -0.810578,0.33538 -0.07333,0.01 -0.145689,-0.0127 -0.251289,-0.0264 0.529956,0.30702 0.558311,0.75484 0.558311,0.75484 -0.307022,0.33538 -0.754844,0.27965 -0.754844,0.27965 -0.05378,-0.0176 -0.126134,-0.0293 -0.194578,-0.0557 0.362755,0.17014 0.307022,0.7832 0.307022,0.7832 -0.280622,0.16818 -0.672711,0.11147 -0.672711,0.11147 -0.03227,-0.007 -0.08409,-0.0362 -0.160356,-0.0743 0.270845,0.12124 0.160356,0.8008 0.160356,0.8008 -0.504534,0.0841 -0.754845,0 -0.754845,0 l -0.03129,0.008 c 0.1848,0.28845 0.03129,0.80374 0.03129,0.80374 -0.08507,0.0274 -0.643378,-0.0841 -0.643378,-0.0841 -0.04987,-0.0157 -0.115378,-0.0577 -0.196533,-0.11636 0.178933,0.13396 0.08507,0.78907 0.08507,0.78907 0,0 -0.699112,-0.0284 -0.894667,-0.0841 -0.02347,-0.008 -0.0616,-0.0372 -0.125156,-0.10462 0.252267,0.22391 0.06845,0.74897 0.06845,0.74897 -0.252267,0.0557 -0.643378,-0.0284 -0.643378,-0.0284 -0.104623,-0.0577 -0.238578,-0.19947 -0.4048,-0.42631 0.110488,1.03546 -0.322667,1.01395 -0.322667,1.01395 -0.195556,0.0274 -0.4752,-0.25324 -0.4752,-0.25324 -0.08018,-0.0675 -0.176,-0.18578 -0.268889,-0.34516 0.101689,0.38916 -0.178934,0.84969 -0.178934,0.84969 l -0.279644,-0.0851 c -0.223911,-0.1408 -0.402845,-0.34516 -0.530934,-0.56614 -0.0029,0.12907 -0.05964,0.82427 -0.364711,0.79787 l 0.01564,0.27182 c 0,0 1.2848,0.0274 1.567378,0.67174 0,0 0.9504,0.33635 1.118578,1.03546 0,0 0.701067,0.22391 0.701067,0.72747 l -0.04596,0.0391 c 0.160356,0.0772 0.340267,0.21511 0.464445,0.46347 l 1.703289,0 c -0.6776,-0.85947 0.792978,-1.47156 1.220267,-0.67076 0.05573,0.10462 0.168178,-0.0274 0.335378,0.13982 0.168178,0.16818 0.979733,0.55929 0.979733,0.89565 0,0.33635 -0.168178,0.64338 -0.4752,0.55929 -0.08898,-0.0245 -0.308,-0.16818 -0.308,-0.16818 0,0 0.1408,0.0841 0.336356,0.36275 0.195555,0.28063 -0.252267,0.61698 -0.4752,0.55929 -0.03031,-0.007 -0.08409,-0.0342 -0.08409,-0.0342 0,0 0.112444,0.76169 -0.615023,0.59449 -0.727466,-0.16915 -0.811555,-0.78418 -0.811555,-0.78418 l -0.06942,-0.27866 c 0,0 -0.144711,-0.0792 -0.169155,-0.29432 L 54.252944,120.8 c 0.0068,0.0254 0.01467,0.0528 0.01956,0.0802 0,0 -0.185778,0.12222 -0.472267,0.0469 l 0.03911,0.009 c -0.252266,0.30897 -1.259378,0 -1.259378,0 -0.2904,0.0724 -0.803733,0.086 -1.495022,-0.27867 l 0.08409,0 c 0,0 -1.037423,-0.0284 -1.79129,-0.89565 l -0.06649,-0.0841 -1.0736,0 c 0.08409,0.043 0.397956,0.29431 0.454667,0.43511 0.0068,0.0166 0.1144,0.0704 0.126133,0.48889 0.002,0.088 -0.01467,0.18675 -0.122222,0.20631 2.441512,2.14622 2.345689,3.17778 2.345689,3.17778 -0.560266,0.16817 -1.427555,-0.83796 -1.427555,-0.83796 l -0.03031,-0.01 c 0.365689,0.90347 0.525067,1.79422 0.521156,2.07974 -0.0059,0.40577 -0.987556,-0.86338 -1.071645,-0.97192 0.179912,1.01298 0.04987,1.78152 0.04987,1.78152 -0.432178,-0.24249 -0.957245,-1.2056 -0.991467,-1.26818 0.09778,1.276 -0.154489,2.13742 -0.154489,2.13742 -0.4488,-0.17404 -0.743111,-1.21244 -0.801778,-1.43929 -0.09387,1.45396 -0.541689,1.88711 -0.541689,1.88711 -0.432178,-0.34906 -0.590578,-1.07458 -0.615022,-1.89004 0.01369,0.50453 -0.588622,1.44222 -0.588622,1.44222 -0.346134,-0.52409 -0.336356,-1.40507 -0.205334,-2.28996 -0.209244,0.77245 -0.997333,1.50676 -0.997333,1.50676 -0.173067,-0.67076 -0.02738,-1.52338 0.230755,-2.30853 -0.550489,0.8536 -1.349333,1.35813 -1.349333,1.35813 -0.109511,-0.59058 0.03227,-1.23787 0.289422,-1.81964 -0.499645,0.53582 -1.184089,0.72746 -1.184089,0.72746 0.108533,-1.31022 2.282134,-3.20809 2.388711,-3.3 -0.07138,-0.0362 -0.08409,-0.11733 -0.06747,-0.18871 0.06747,-0.27867 0.142755,-0.44782 0.154489,-0.46249 0.168178,-0.19555 0.294311,-0.40675 0.3784,-0.44684 l -1.097067,0.0195 c -0.742134,0.88587 -1.868534,0.96605 -1.868534,0.96605 l 0.08311,0 c -0.928889,0.48889 -1.494045,0.29431 -1.622133,0.23662 -0.406756,0.29235 -1.146934,0.0988 -1.146934,0.0988 l 0.002,-0.0548 c -0.257156,0.0499 -0.422401,-0.0577 -0.422401,-0.0577 0.01173,-0.0548 0.02542,-0.10462 0.04205,-0.15058 l -0.01271,0.0401 -1.567378,0 -0.02836,-0.0117 c 0.0068,0.11244 -0.0088,0.23075 -0.07822,0.3168 l 0.106578,0.14178 c 1.314133,1.62311 1.314133,3.7488 1.314133,3.7488 -0.754844,0.0567 -0.9504,-0.69911 -0.9504,-0.69911 0.168178,-1.62312 -0.699111,-2.62925 -0.699111,-2.62925 l -0.01564,-0.0401 c -0.186755,0.21511 -0.435111,0.47911 -0.487911,0.51431 -0.08409,0.0567 -0.1408,0.16916 -0.504533,0.0567 -0.362756,-0.11146 -0.279645,-0.616 -0.279645,-0.616 -0.251289,0.0274 -0.194578,0.11147 -0.4752,-0.0831 -0.279644,-0.19653 -0.05573,-0.64338 -0.05573,-0.64338 l 0.08409,-0.0284 c -0.839912,0.16818 -0.588623,-0.55929 -0.588623,-0.55929 0.107556,-0.29236 0.288445,-0.48889 0.481067,-0.62187 l -0.03227,0.007 c 0.111467,-0.28062 -0.699111,-0.33538 -0.699111,-0.33538 l -0.993422,-0.77733 c 0,0 -0.08898,-0.13494 -0.2112,-0.33343 -0.335378,-0.62186 -0.949423,-0.65902 -0.949423,-0.65902 -1.370845,0.61502 -2.517778,-0.74898 -2.517778,-0.74898 0.307022,-0.20924 0.576889,-0.31484 0.838933,-0.35689 -0.754844,-0.13982 -1.202667,-0.9856 -1.202667,-0.9856 0.642401,-0.16622 1.047201,-0.19066 1.400178,-0.10853 l 0.381334,0.15156 c 0.716711,0.29235 1.044267,0.96311 1.044267,0.96311 l 0.09778,0.16818 c -0.392089,0.11049 -0.521156,0.0919 -0.521156,0.0919 0.416533,0.28453 0.647289,0.66293 0.647289,0.66293 0,0 0.0068,-0.0557 0.384267,0.176 l 0.03227,0.0245 c -0.485955,-0.8712 -1.185067,-2.12178 -1.283822,-2.27041 -0.09973,-0.14666 -0.145689,-0.38035 -0.164267,-0.61893 l -0.04595,0.0176 c -1.866579,0.20436 -2.19609,-2.13938 -2.19609,-2.13938 0.848712,0.0499 1.406045,0.45565 1.736534,0.91423 -0.845778,-1.22614 -0.02933,-3.03992 -0.02933,-3.03992 0,0 0.726489,0.89565 0.699111,1.73458 l 0.03618,0.0606 c 0.171111,-0.49475 0.485955,-1.0208 1.054044,-1.43244 0,0 0.264978,0.968 -0.221955,2.04062 l 0.190666,0.18871 c 0.153512,-0.11146 0.280623,-0.18382 0.480089,-0.29724 0,0 -0.196533,2.43271 -1.119555,2.8248 l -0.03911,0.0205 c 0.143733,0.21511 0.351022,0.528 0.546577,0.83502 l 0.351023,0.56321 c 0.347111,0.56906 0.654133,1.11368 0.665867,1.28186 0,0 -1.41289,-2.39262 0.489866,-3.65102 0,0 0.391112,2.46204 -0.335378,3.21787 l 0.615023,0.27964 c 0,0 -0.504534,-1.53804 1.119556,-2.85413 0,0 0.166222,1.17431 0.05476,1.62311 0.302134,-0.39307 0.764623,-0.68934 1.400178,-0.70009 0,0 -0.308,1.93111 -1.708178,2.37893 l -0.307022,0.4752 c 0,0 0.587644,0.36276 0.587644,0.44685 0.253245,-0.10462 0.476178,-0.11245 0.476178,-0.11245 0.143734,-0.28844 0.303111,-0.36275 0.377423,-0.38426 0.911289,-0.76365 1.376711,0.36471 0.9856,0.92595 l 0.06355,0.0176 1.567379,0 c 0.1144,-0.22782 0.275733,-0.36373 0.426311,-0.44489 l -0.0078,-0.0577 c 0,-0.50453 0.700089,-0.72746 0.700089,-0.72746 0.1672,-0.69911 1.118578,-1.03547 1.118578,-1.03547 0.280622,-0.64338 1.567378,-0.67173 1.567378,-0.67173 l 0.05573,-0.0108 0,-0.42044 c -0.336356,0.0284 -0.350044,-0.78711 -0.350044,-0.78711 -0.130045,0.23271 -0.297245,0.44 -0.530934,0.58764 l -0.279644,0.0841 c 0,0 -0.288445,-0.4664 -0.179912,-0.85653 -0.09582,0.16035 -0.185777,0.28453 -0.267911,0.35297 0,0 -0.278666,0.27867 -0.476178,0.25227 0,0 -0.434133,0.0156 -0.322666,-1.01884 -0.161334,0.21706 -0.303112,0.37546 -0.4048,0.43022 0,0 -0.392089,0.0841 -0.643378,0.0274 0,0 -0.183823,-0.52409 0.06649,-0.748 -0.05867,0.0616 -0.100712,0.0978 -0.122223,0.10266 -0.195555,0.0577 -0.894667,0.0861 -0.894667,0.0861 0,0 -0.09582,-0.6776 0.0968,-0.79494 -0.08604,0.0626 -0.157422,0.10658 -0.209244,0.12223 0,0 -0.560267,0.11146 -0.643378,0.0841 0,0 -0.1672,-0.55928 0.05671,-0.83991 -0.02249,0.0137 -0.04107,0.0225 -0.05671,0.0284 0,0 -0.252267,0.0841 -0.754845,0 0,0 -0.08996,-0.69716 0.189689,-0.80765 -0.088,0.046 -0.153511,0.0743 -0.189689,0.0802 0,0 -0.392089,0.0567 -0.671733,-0.11049 0,0 -0.05573,-0.61697 0.306044,-0.7832 -0.08311,0.0323 -0.129066,0.0342 -0.194577,0.0557 0,0 -0.447823,0.0557 -0.755823,-0.27965 0,0 0.02738,-0.43609 0.546578,-0.73431 -0.09191,0.0117 -0.173067,0.0147 -0.238578,0.006 0,0 -0.504533,0.0577 -0.811555,-0.3344 0,0 0.05573,-0.50454 0.4752,-0.70009 -0.0968,0.006 -0.159378,-9.8e-4 -0.252267,0 0,0 -0.615022,-0.1672 -0.615022,-0.39209 0,0 0.171111,-0.56516 0.590577,-0.59253 -0.181866,-0.005 -0.312888,-0.0205 -0.366666,-0.0499 -0.363734,-0.19556 -0.392089,-0.308 -0.392089,-0.308 0,0 0.252266,-0.53093 0.530933,-0.55929 -0.115378,-0.0137 -0.1672,-0.0636 -0.196533,-0.0821 -0.251289,-0.16916 -0.391111,-0.28063 -0.391111,-0.42143 0,-0.1408 0.223911,-0.44684 0.504533,-0.50355 -0.06551,-0.0157 -0.1056,-0.0401 -0.1408,-0.0567 0,0 -0.447822,-0.58765 -0.363733,-0.6424 0,0 0.427289,-0.5368 0.791022,-0.48107 -0.403822,-0.18382 -0.648267,-0.38231 -0.594489,-0.58276 0,0 0.279645,-0.42044 0.699111,-0.44782 -0.926933,-0.43022 -1.588889,-0.84773 -1.509689,-1.17529 0,0 0.444889,-0.24835 0.919111,-0.16329 -1.112711,-0.62382 -1.950667,-1.24373 -1.759022,-1.62604 0.249333,-0.50062 1.165511,-0.0205 1.165511,-0.0205 -1.211467,-0.74116 -2.200978,-1.35032 -2.200978,-1.35032 -0.279645,-0.25226 -0.335378,-0.615995 -0.335378,-0.615995 5.119646,0.700085 9.260535,5.959555 9.512802,6.267555 0.252267,0.30702 -0.02836,0.95138 -0.02836,0.95138 -1.34249,0.97876 -1.525334,3.87591 1.692533,4.12818 l 0,-0.5192 0.983645,-0.009 0,0 z"
     id="path6746"
     style="fill:#f2c363"
     inkscape:connector-curvature="0" /><path
     d="m 48.994454,107.18438 -0.04107,0.59057 0.743111,1.55272 c 0.110489,0.21022 0.825245,-0.0421 0.825245,-0.0421 -0.02836,-1.3288 1.145955,-1.98587 1.145955,-1.98587 l 0.01369,-1.24471 c 0.154489,-0.69911 -0.306044,-0.4752 -0.306044,-0.4752 l -0.02738,0.042 c 0,0 -0.769511,-0.16818 -0.601333,-0.35005 l -0.02542,0.0303 c 2.153067,-3.18266 6.026046,-3.44275 6.026046,-3.44275 0.0616,-0.0812 0.06258,-0.73529 0.05965,-1.07849 0,0 0.933778,-0.67076 1.018844,-0.75387 0.08311,-0.08507 0.223911,-0.378399 0.209245,-0.489866 -0.01369,-0.111466 -0.139823,-0.377422 -0.279645,-0.572977 -0.112444,-0.1584 -0.233689,-0.715734 -0.277689,-0.926934 0.01564,-0.106578 -0.0078,-0.230756 -0.09973,-0.430222 0,0 -0.322667,-0.5456 -0.839911,-0.06942 0,0 -0.159378,0.264001 -0.04987,0.469334 0.03227,0.131022 0.204356,0.817422 0.218044,0.842845 -0.260089,0.157422 -0.488889,0.2816 -0.488889,0.2816 -0.867289,0.433155 -1.370844,0.89564 -1.370844,0.89564 l 0,0.0841 c 0,0 0.236622,0.48693 0.223911,0.65609 -3.405601,0.82427 -5.678935,3.97271 -5.678935,3.97271 -0.279644,0.22391 1.201689,1.0912 1.201689,1.0912 l -0.04204,-0.0147 c 0,0 0.321689,0.15254 0.592533,0.009 0,0 0.335378,0.17698 0.324623,0.3696 l -0.01271,0.0538 c -1.178223,0.71671 -1.489156,1.60649 -1.540979,2.22836 -0.0029,-0.002 -0.613066,-0.81742 -0.920089,-1.29262 l 0,0 z"
     id="path6748"
     style="fill:#f2c363"
     inkscape:connector-curvature="0" /></g><polygon
   points="21.03,113.282 17.334,110.596 21.902,110.596 23.314,106.252 23.314,106.252 24.726,110.596 29.294,110.596 25.599,113.282 27.01,117.627 23.314,114.942 19.619,117.627 "
   transform="matrix(0.977778,0,0,0.977778,-2.2508889,-0.666)"
   id="polygon7354"
   style="fill:#f3c463" /><polygon
   points="72.407,113.282 76.104,110.596 71.535,110.596 70.124,106.252 70.124,106.252 68.712,110.596 64.144,110.596 67.839,113.282 66.428,117.627 70.124,114.942 73.819,117.627 "
   transform="matrix(0.977778,0,0,0.977778,-2.2508889,-0.666)"
   id="polygon7356"
   style="fill:#f3c463" />
</svg>