<?xml version="1.0" encoding="utf8" standalone="no"?>
<svg height="300" id="svg2" version="1.1" width="150" xmlns="http://www.w3.org/2000/svg" xmlns:svg="http://www.w3.org/2000/svg">
<path d="m 75,18.125 -61.84375,82.375 0,186.84375 123.6875,0 0,-186.84375 L 75,18.125 z" id="path810" style="fill:#0b2811"/>
<g id="g8253" transform="translate(-286.328125)">
<path d="m 361.34375,91.0625 c -9.363963913598,34.80213568705141 -27.3433631302082,48.92527940781341 -45.96875,61.5 l 0,141.4375 91.90625,0 0,-141.4375 c -18.6253868697916,-12.5747205921866 -36.573536086402,-26.6978643129486 -45.9375,-61.5 z" id="path7829" style="fill:#b58e6c"/>
<path d="m 339.46875,132.8125 c -7.4118948455647,8.0682741008942 -15.6852653267676,14.0731060858623 -24.09375,19.75 l 0,25.21875 0,26.875 0,26.875 0,26.875 0,26.875 0,8.71875 24.09375,0 0,-8.71875 0,-26.875 0,-26.875 0,-26.875 0,-26.875 0,-26.875 z" id="path958" style="fill:#b58e6c"/>
<path d="m 339.46875,132.8125 c -0.8030865888342,0.874205970332 -1.6150376605684,1.7347944705288 -2.4375,2.5625 l 0,15.53125 0,26.875 0,26.875 0,26.875 0,26.875 0,26.875 0,8.71875 2.4375,0 0,-8.71875 0,-26.875 0,-26.875 0,-26.875 0,-26.875 0,-26.875 z" id="path1258" style="fill:#b58e6c;stroke:#000000;stroke-width:0.399495393;stroke-opacity:0.1960784314"/>
<path d="m 317.8125,150.90625 c -0.800892424649,0.5502510450577 -1.602289951737,1.0821043174171 -2.40625,1.625 l -0.03125,25.25 0.03125,0 -0.03125,26.875 0.03125,0 -0.03125,26.875 0.03125,0 -0.03125,26.875 0.03125,0 -0.03125,26.875 0.03125,0 0,8.71875 2.40625,0 0,-8.71875 0,-26.875 0,-26.875 0,-26.875 0,-26.875 z" id="rect1242" style="fill:#b58e6c;stroke:#000000;stroke-width:0.399495393;stroke-opacity:0.1960784314"/>
<path d="m 337.1875,135.21875 c -0.2389439379132,0.2416268817649 -0.4782579538229,0.4808384179778 -0.71875,0.71875 l 0,14.96875 0,26.875 0,26.875 0,26.875 0,26.875 0,26.875 0,8.71875 0.71875,0 0,-8.71875 0,-26.875 0,-26.875 0,-26.875 0,-26.875 0,-26.875 z M 335.625,136.75 c -0.2352886013554,0.2270782228422 -0.4820932963514,0.432455026309 -0.71875,0.65625 l 0,13.5 0,26.875 0,26.875 0,26.875 0,26.875 0,26.875 0,8.71875 0.71875,0 0,-8.71875 0,-26.875 0,-26.875 0,-26.875 0,-26.875 0,-26.875 z m -1.5625,1.46875 c -0.2490594124764,0.2299608897591 -0.4995479319917,0.4608812188794 -0.75,0.6875 l 0,12 0,26.875 0,26.875 0,26.875 0,26.875 0,26.875 0,8.71875 0.75,0 0,-8.71875 0,-26.875 0,-26.875 0,-26.875 0,-26.875 0,-26.875 z m -1.5625,1.4375 c -0.2394189485427,0.2120531711137 -0.4781626937003,0.4157506046753 -0.71875,0.625 l 0,10.625 0,26.875 0,26.875 0,26.875 0,26.875 0,26.875 0,8.71875 0.71875,0 0,-8.71875 0,-26.875 0,-26.875 0,-26.875 0,-26.875 0,-26.875 z m -1.5625,1.3125 c -0.2535440751283,0.2161077350541 -0.4952705360215,0.4429868393088 -0.75,0.65625 l 0,9.28125 0,26.875 0,26.875 0,26.875 0,26.875 0,26.875 0,8.71875 0.75,0 0,-8.71875 0,-26.875 0,-26.875 0,-26.875 0,-26.875 0,-26.875 z m -1.59375,1.34375 c -0.2292718438923,0.1883535330031 -0.4573550021343,0.3762417105682 -0.6875,0.5625 l 0,8.03125 0,26.875 0,26.875 0,26.875 0,26.875 0,26.875 0,8.71875 0.6875,0 0,-8.71875 0,-26.875 0,-26.875 0,-26.875 0,-26.875 0,-26.875 z m -1.53125,1.21875 c -0.2495135520442,0.1984429614311 -0.4995585234038,0.3975336339758 -0.75,0.59375 l 0,6.78125 0,26.875 0,26.875 0,26.875 0,26.875 0,26.875 0,8.71875 0.75,0 0,-8.71875 0,-26.875 0,-26.875 0,-26.875 0,-26.875 0,-26.875 z m -1.59375,1.25 c -0.2404850257417,0.1854137681214 -0.4774984865982,0.3789253745276 -0.71875,0.5625 l 0,5.5625 0,26.875 0,26.875 0,26.875 0,26.875 0,26.875 0,8.71875 0.71875,0 0,-8.71875 0,-26.875 0,-26.875 0,-26.875 0,-26.875 0,-26.875 z m -1.53125,1.1875 c -0.2499256808057,0.187499391771 -0.4993433038841,0.3767545469973 -0.75,0.5625 l 0,4.375 0,26.875 0,26.875 0,26.875 0,26.875 0,26.875 0,8.71875 0.75,0 0,-8.71875 0,-26.875 0,-26.875 0,-26.875 0,-26.875 0,-26.875 z m -1.59375,1.1875 c -0.2447289474475,0.1790004640343 -0.4734110978338,0.3849629151088 -0.71875,0.5625 l 0,3.1875 -0.03125,0 0.03125,26.875 -0.03125,0 0.03125,26.875 -0.03125,0 0.03125,26.875 -0.03125,0 0.03125,26.875 -0.03125,0 0.03125,26.875 -0.03125,0 0,8.71875 0.75,0 0,-8.71875 0,-26.875 0,-26.875 0,-26.875 0,-26.875 0,-26.875 z m -1.5625,1.15625 c -0.2372962286401,0.1697694221446 -0.4809614112129,0.3314117287928 -0.71875,0.5 l 0,2.09375 0,26.875 0,26.875 0,26.875 0,26.875 0,26.875 0,8.71875 0.71875,0 0,-8.71875 0,-26.875 0,-26.875 0,-26.875 0,-26.875 0,-26.875 z m -1.5625,1.09375 c -0.2383247816057,0.1673020349356 -0.4800075232148,0.3336998835928 -0.71875,0.5 l 0,1 0,26.875 0,26.875 0,26.875 0,26.875 0,26.875 0,8.71875 0.71875,0 0,-8.71875 0,-26.875 0,-26.875 0,-26.875 0,-26.875 0,-26.875 z m -1.5625,1.09375 c -0.2363514507397,0.1632582271669 -0.4820635914218,0.306295099117 -0.71875,0.46875 l 0,26.8125 0,26.875 0,26.875 0,26.875 0,26.875 0,8.71875 0.71875,0 0,-8.71875 0,-26.875 0,-26.875 0,-26.875 0,-26.875 0,-26.875 z" id="rect1632" style="fill-opacity:0.3921568627"/>
<path d="m 328.28125,143.25 -1.71875,1.65625 0.46875,0.4375 1.75,-1.65625 z m 1.09375,1.03125 -1.71875,1.6875 0.46875,0.4375 1.75,-1.65625 z m 1.09375,1.0625 -1.6875,1.65625 0.4375,0.46875 1.75,-1.65625 z m 1.125,1.0625 -1.71875,1.65625 0.4375,0.46875 1.75,-1.65625 z m 1.09375,1.0625 -1.71875,1.65625 0.4375,0.46875 1.75,-1.6875 z m 1.09375,1.0625 -1.71875,1.65625 0.4375,0.4375 1.75,-1.65625 z m 1.09375,1.0625 -1.375,1.3125 -0.625,0 -14,13.46875 0.46875,0.4375 14.46875,-13.90625 0.625,0 0.90625,-0.875 z m 1.09375,1.03125 -0.28125,0.28125 -0.625,0 -15.09375,14.53125 0.46875,0.4375 15.59375,-14.96875 0.21875,0 z m -13.1875,14.1875 -1.6875,1.6875 0.4375,0.4375 1.75,-1.65625 z m 1.125,1.0625 -1.71875,1.65625 0.4375,0.46875 1.75,-1.65625 z m 1.09375,1.0625 -1.71875,1.6875 0.4375,0.4375 1.75,-1.65625 z m 1.09375,1.0625 -1.71875,1.6875 0.4375,0.4375 1.75,-1.6875 z m 1.09375,1.0625 -1.71875,1.65625 0.4375,0.4375 1.75,-1.65625 z m 1.09375,1.0625 -1.71875,1.65625 0.46875,0.4375 1.75,-1.65625 z m 1.09375,1.03125 -1.71875,1.6875 0.46875,0.4375 1.75,-1.65625 z m 1.09375,1.0625 -1.6875,1.65625 0.4375,0.46875 1.75,-1.65625 z m 1.125,1.0625 -1.71875,1.65625 0.4375,0.46875 1.75,-1.65625 z m 1.09375,1.0625 -1.71875,1.65625 0.4375,0.46875 1.75,-1.6875 z m 1.09375,1.0625 -1.71875,1.65625 0.4375,0.4375 1.75,-1.65625 z m 1.09375,1.0625 -1.375,1.3125 -0.625,0 -14,13.46875 0.46875,0.4375 14.46875,-13.90625 0.625,0 0.90625,-0.875 z m 1.09375,1.03125 -0.28125,0.28125 -0.625,0 -15.09375,14.53125 0.46875,0.4375 15.59375,-14.96875 0.21875,0 z m -13.1875,14.1875 -1.6875,1.6875 0.4375,0.46875 1.75,-1.6875 z m 1.125,1.0625 -1.71875,1.65625 0.4375,0.46875 1.75,-1.65625 z M 325,193.84375 323.28125,195.5 l 0.4375,0.4375 1.75,-1.65625 z m 1.09375,1.03125 -1.71875,1.6875 0.4375,0.4375 1.75,-1.6875 z m 1.09375,1.0625 -1.71875,1.65625 0.4375,0.4375 1.75,-1.65625 z m 1.09375,1.0625 -1.71875,1.65625 0.46875,0.4375 1.75,-1.65625 z m 1.09375,1.03125 -1.71875,1.6875 0.46875,0.4375 1.75,-1.65625 z m 1.09375,1.0625 -1.6875,1.65625 0.4375,0.46875 1.75,-1.65625 z m 1.125,1.0625 -1.71875,1.65625 0.4375,0.46875 1.75,-1.65625 z m 1.09375,1.0625 -1.71875,1.65625 0.4375,0.46875 1.75,-1.6875 z m 1.09375,1.0625 -1.71875,1.65625 0.4375,0.4375 1.75,-1.65625 z m 1.09375,1.0625 -1.375,1.3125 -0.625,0 -14,13.46875 0.46875,0.4375 14.46875,-13.90625 0.625,0 0.90625,-0.875 z m 1.09375,1.03125 -0.28125,0.28125 -0.625,0 -15.09375,14.53125 0.46875,0.4375 15.59375,-14.96875 0.21875,0 z m -13.1875,14.1875 -1.6875,1.6875 0.4375,0.4375 1.75,-1.65625 z m 1.125,1.0625 -1.71875,1.65625 0.4375,0.46875 1.75,-1.65625 z m 1.09375,1.0625 -1.71875,1.6875 0.4375,0.4375 1.75,-1.65625 z m 1.09375,1.0625 -1.71875,1.65625 0.4375,0.46875 1.75,-1.6875 z m 1.09375,1.0625 -1.71875,1.65625 0.4375,0.4375 1.75,-1.65625 z m 1.09375,1.0625 -1.71875,1.65625 0.46875,0.4375 1.75,-1.65625 z m 1.09375,1.03125 -1.71875,1.6875 0.46875,0.4375 1.75,-1.65625 z m 1.09375,1.0625 -1.6875,1.65625 0.4375,0.46875 1.75,-1.65625 z m 1.125,1.0625 -1.71875,1.65625 0.4375,0.46875 1.75,-1.65625 z m 1.09375,1.0625 -1.71875,1.65625 0.4375,0.46875 1.75,-1.6875 z m 1.09375,1.0625 -1.71875,1.65625 0.4375,0.4375 1.75,-1.65625 z m 1.09375,1.0625 -1.375,1.3125 -0.625,0 -14,13.46875 0.46875,0.4375 14.46875,-13.90625 0.625,0 0.90625,-0.875 z m 1.09375,1.03125 -0.28125,0.28125 -0.625,0 -15.09375,14.53125 0.46875,0.4375 15.59375,-14.96875 0.21875,0 z m -13.1875,14.1875 -1.6875,1.6875 0.4375,0.4375 1.75,-1.65625 z m 1.125,1.0625 -1.71875,1.65625 0.4375,0.46875 1.75,-1.65625 z m 1.09375,1.0625 -1.71875,1.6875 0.4375,0.4375 1.75,-1.65625 z m 1.09375,1.0625 -1.71875,1.65625 0.4375,0.46875 1.75,-1.6875 z m 1.09375,1.0625 -1.71875,1.65625 0.4375,0.4375 1.75,-1.65625 z m 1.09375,1.0625 -1.71875,1.65625 0.46875,0.4375 1.75,-1.65625 z m 1.09375,1.03125 -1.71875,1.6875 0.46875,0.4375 1.75,-1.65625 z m 1.09375,1.0625 -1.6875,1.65625 0.4375,0.46875 1.75,-1.65625 z m 1.125,1.0625 -1.71875,1.65625 0.4375,0.46875 1.75,-1.65625 z m 1.09375,1.0625 -1.71875,1.65625 0.4375,0.46875 1.75,-1.6875 z m 1.09375,1.0625 -1.71875,1.65625 0.4375,0.4375 1.75,-1.65625 z m 1.09375,1.0625 -1.375,1.3125 -0.625,0 -14,13.46875 0.46875,0.4375 14.46875,-13.90625 0.625,0 0.90625,-0.875 z m 1.09375,1.03125 -0.28125,0.28125 -0.625,0 -15.09375,14.53125 0.46875,0.4375 15.59375,-14.96875 0.21875,0 z m -13.1875,14.1875 -1.6875,1.65625 0.4375,0.46875 1.75,-1.65625 z m 1.125,1.0625 -1.71875,1.65625 0.4375,0.46875 1.75,-1.65625 z m 1.09375,1.0625 -1.71875,1.6875 0.4375,0.4375 1.75,-1.6875 z m 1.09375,1.0625 -1.71875,1.65625 0.4375,0.4375 1.75,-1.65625 z m 1.09375,1.0625 -1.71875,1.65625 0.4375,0.4375 1.75,-1.65625 z m 1.09375,1.03125 -1.71875,1.6875 0.46875,0.4375 1.75,-1.65625 z m 1.09375,1.0625 -1.71875,1.65625 0.46875,0.46875 1.75,-1.65625 z m 1.09375,1.0625 -1.6875,1.65625 0.4375,0.46875 1.75,-1.65625 z m 1.125,1.0625 -1.71875,1.65625 0.4375,0.46875 1.75,-1.6875 z m 1.09375,1.0625 -1.71875,1.65625 0.4375,0.4375 1.75,-1.65625 z m 1.09375,1.0625 -1.71875,1.65625 0.4375,0.4375 1.75,-1.65625 z m 1.09375,1.03125 -1.375,1.34375 -0.625,0 -9.0625,8.71875 0.9375,0 9.0625,-8.71875 0.625,0 0.90625,-0.875 z m 1.09375,1.0625 -0.28125,0.28125 -0.625,0 L 326,294 l 0.9375,0 9.09375,-8.71875 0.21875,0 z" id="rect3256" style="fill-opacity:0.4147465725"/>
<path d="m 327.2327022746584,143.9051924457487 7.2761999778815,7.0015668235437 0,-0.00221405101 -13.9632143280651,13.4384003139793 13.9632143280651,13.4375804092788 0,-8.199047004e-4 -13.9632143280651,13.4384003139793 13.9632143280651,13.436186262967 0,-0.00221405101 -13.9632143280651,13.4384003139793 13.9632143280651,13.4375804092799 0,-8.199046992e-4 -13.9632143280651,13.4384003139793 13.9632143280651,13.436186262967 0,-0.00221405101 -13.9632143280651,13.4384003139793 13.9632143280651,13.4375804092799 0,-8.199046992e-4 -9.0593628013087,8.7188623660144" id="path8076" style="stroke:#000000;stroke-opacity:0.3921568627;stroke-linejoin:round;fill:none;stroke-width:2;stroke-linecap:round"/>
<path d="m 328.21875,143.21875 c -0.625012204676,0.5012131216202 -1.2442006988754,1.0126732124084 -1.875,1.5 l 6.4375,6.1875 -13.96875,13.4375 13.96875,13.4375 -13.96875,13.4375 13.96875,13.4375 -13.96875,13.4375 13.96875,13.4375 -13.96875,13.4375 13.96875,13.4375 -13.96875,13.40625 13.96875,13.46875 -9.09375,8.71875 3.46875,0 9.0625,-8.71875 -13.9375,-13.46875 13.9375,-13.40625 -13.9375,-13.4375 13.9375,-13.4375 -13.9375,-13.4375 13.9375,-13.4375 -13.9375,-13.4375 13.9375,-13.4375 -13.9375,-13.4375 13.9375,-13.4375 z" id="path3343" style="fill:#b58e6c;fill-opacity:0.4147465725"/>
<path d="m 383.1875,132.8125 0,18.09375 0,26.875 0,26.875 0,26.875 0,26.875 0,26.875 0,8.71875 24.09375,0 0,-141.4375 c -8.4084846732323,-5.6768939141377 -16.6888426061577,-11.6817258991058 -24.09375,-19.75 z" id="path7597" style="fill:#b58e6c"/>
<path d="m 404.84375,150.90625 0,26.875 0,26.875 0,26.875 0,26.875 0,26.875 0,8.71875 2.4375,0 0,-141.4375 c -0.8160249552073,-0.5509300762297 -1.6247399808667,-1.0977665407151 -2.4375,-1.65625 z" id="path7599" style="fill:#b58e6c;stroke:#000000;stroke-width:0.399495393;stroke-opacity:0.1960784314"/>
<path d="m 383.21875,132.8125 -0.03125,18.09375 0.03125,0 -0.03125,26.875 0.03125,0 -0.03125,26.875 0.03125,0 -0.03125,26.875 0.03125,0 -0.03125,26.875 0.03125,0 -0.03125,26.875 0.03125,0 0,8.71875 2.40625,0 0,-8.71875 0,-26.875 0,-26.875 0,-26.875 0,-26.875 0,-26.875 0,-15.53125 c -0.8168891255064,-0.8228323799256 -1.6085253397514,-1.6937261415408 -2.40625,-2.5625 z" id="path7601" style="fill:#b58e6c;stroke:#000000;stroke-width:0.399495393;stroke-opacity:0.1960784314"/>
<path d="m 385.5,135.25 0,15.65625 0,26.875 0,26.875 0,26.875 0,26.875 0,26.875 0,8.71875 0.71875,0 0,-8.71875 0,-26.875 0,-26.875 0,-26.875 0,-26.875 0,-26.875 0,-14.9375 C 385.9784034405263,135.7309974511647 385.7387978637368,135.4914630538744 385.5,135.25 z m 1.5625,1.53125 0,14.125 0,26.875 0,26.875 0,26.875 0,26.875 0,26.875 0,8.71875 0.71875,0 0,-8.71875 0,-26.875 0,-26.875 0,-26.875 0,-26.875 0,-26.875 0,-13.46875 c -0.2365185927242,-0.2236483710348 -0.4836007647356,-0.4293229670451 -0.71875,-0.65625 z m 1.5625,1.46875 0,12.65625 0,26.875 0,26.875 0,26.875 0,26.875 0,26.875 0,8.71875 0.71875,0 0,-8.71875 0,-26.875 0,-26.875 0,-26.875 0,-26.875 0,-26.875 0,-12 c -0.2393884185414,-0.2167808366522 -0.4806388843064,-0.4364132241734 -0.71875,-0.65625 z m 1.5625,1.4375 0,11.21875 -0.03125,0 0.03125,26.875 -0.03125,0 0.03125,26.875 -0.03125,0 0.03125,26.875 -0.03125,0 0.03125,26.875 -0.03125,0 0.03125,26.875 -0.03125,0 0,8.71875 0.75,0 0,-8.71875 0,-26.875 0,-26.875 0,-26.875 0,-26.875 0,-26.875 0,-10.59375 c -0.2406146698449,-0.2092563096668 -0.479307847578,-0.4129408758629 -0.71875,-0.625 z M 391.75,141 l 0,9.90625 0,26.875 0,26.875 0,26.875 0,26.875 0,26.875 0,8.71875 0.75,0 0,-8.71875 0,-26.875 0,-26.875 0,-26.875 0,-26.875 0,-26.875 0,-9.28125 c -0.2494456311032,-0.2088965636316 -0.5016964109479,-0.4133761807063 -0.75,-0.625 z m 1.5625,1.3125 0,8.59375 0,26.875 0,26.875 0,26.875 0,26.875 0,26.875 0,8.71875 0.71875,0 0,-8.71875 0,-26.875 0,-26.875 0,-26.875 0,-26.875 0,-26.875 0,-8 c -0.2414313608339,-0.1953751292447 -0.4782852485283,-0.3960692144447 -0.71875,-0.59375 z m 1.5625,1.25 0,7.34375 0,26.875 0,26.875 0,26.875 0,26.875 0,26.875 0,8.71875 0.75,0 0,-8.71875 0,-26.875 0,-26.875 0,-26.875 0,-26.875 0,-26.875 0,-6.75 c -0.2503377797386,-0.1961166947545 -0.5005949847458,-0.3954114443304 -0.75,-0.59375 z m 1.59375,1.25 0,6.09375 0,26.875 0,26.875 0,26.875 0,26.875 0,26.875 0,8.71875 0.6875,0 0,-8.71875 0,-26.875 0,-26.875 0,-26.875 0,-26.875 0,-26.875 0,-5.5625 c -0.2295615537035,-0.1747697709263 -0.4586385810675,-0.3548152413175 -0.6875,-0.53125 z M 398,146 l 0,4.90625 0,26.875 0,26.875 0,26.875 0,26.875 0,26.875 0,8.71875 0.75,0 0,-8.71875 0,-26.875 0,-26.875 0,-26.875 0,-26.875 0,-26.875 0,-4.34375 C 398.499422211176,146.3768339869129 398.2498406991294,146.1874153129713 398,146 z m 1.59375,1.1875 0,3.71875 0,26.875 0,26.875 0,26.875 0,26.875 0,26.875 0,8.71875 0.71875,0 0,-8.71875 0,-26.875 0,-26.875 0,-26.875 0,-26.875 0,-26.875 0,-3.1875 c -0.2402138346193,-0.1738440797807 -0.4791277799969,-0.356005486403 -0.71875,-0.53125 z m 1.53125,1.125 0,2.59375 0,26.875 0,26.875 0,26.875 0,26.875 0,26.875 0,8.71875 0.75,0 0,-8.71875 0,-26.875 0,-26.875 0,-26.875 0,-26.875 0,-26.875 0,-2.09375 c -0.2446738837595,-0.1734773000584 -0.5058558546709,-0.3252728283532 -0.75,-0.5 z m 1.59375,1.09375 0,1.5 0,26.875 0,26.875 0,26.875 0,26.875 0,26.875 0,8.71875 0.71875,0 0,-8.71875 0,-26.875 0,-26.875 0,-26.875 0,-26.875 0,-26.875 0,-0.96875 c -0.243608986528,-0.1696640969299 -0.4755838208047,-0.3605458236475 -0.71875,-0.53125 z m 1.5625,1.09375 0,0.40625 0,26.875 0,26.875 0,26.875 0,26.875 0,26.875 0,8.71875 0.71875,0 0,-8.71875 0,-26.875 0,-26.875 0,-26.875 0,-26.875 L 405,151 c -0.2415416343586,-0.1657587777809 -0.4775654432733,-0.3334078275772 -0.71875,-0.5 z" id="path7603" style="fill-opacity:0.3921568627"/>
<path d="m 387.25,136.96875 -0.5625,0.53125 0.46875,0.4375 0.5625,-0.53125 c -0.1557659350158,-0.1474944428381 -0.313576612202,-0.2885868637103 -0.46875,-0.4375 z M 388.375,138 387.78125,138.5625 388.25,139 l 0.59375,-0.5625 C 388.6866218236084,138.2932658615963 388.5315640652896,138.1455840317196 388.375,138 z m 1.125,1.03125 -0.59375,0.59375 0.4375,0.46875 0.625,-0.59375 c -0.1637052247957,-0.1457840407066 -0.3056164301781,-0.3215988241118 -0.46875,-0.46875 z m 1.125,1.03125 -0.625,0.59375 0.4375,0.46875 0.6875,-0.65625 c -0.1631763784952,-0.141197294878 -0.337353081755,-0.2637873126353 -0.5,-0.40625 z m 1.1875,1 -0.71875,0.6875 0.4375,0.4375 0.75,-0.71875 c -0.1582743037775,-0.133179018505 -0.3109382702266,-0.2719662789052 -0.46875,-0.40625 z m 1.15625,0.96875 -0.78125,0.78125 0.4375,0.4375 0.84375,-0.8125 c -0.1655180118627,-0.1356060091017 -0.3349508496532,-0.2695252148189 -0.5,-0.40625 z m 1.1875,0.96875 -0.875,0.84375 0.4375,0.4375 0.9375,-0.875 c -0.167768212426,-0.1339939870401 -0.3326763818733,-0.2711961723926 -0.5,-0.40625 z m 1.21875,0.9375 -1,0.96875 0.46875,0.4375 1.03125,-1 c -0.1687767519646,-0.1315916683091 -0.331636752363,-0.273673712166 -0.5,-0.40625 z m 1.1875,0.96875 -1.09375,1.0625 0.46875,0.4375 1.15625,-1.09375 c -0.1765723971099,-0.1345596379607 -0.3550913347809,-0.2707064960961 -0.53125,-0.40625 z m 1.21875,0.90625 -1.1875,1.1875 0.4375,0.46875 1.3125,-1.21875 c -0.1901416372249,-0.1418272478383 -0.3727942517512,-0.2946378097633 -0.5625,-0.4375 z m 1.25,0.9375 -1.34375,1.3125 0.4375,0.46875 1.4375,-1.375 c -0.1792796819296,-0.1311831168757 -0.3523199617471,-0.2742382655991 -0.53125,-0.40625 z m 1.25,0.9375 -1.5,1.4375 0.4375,0.46875 1.59375,-1.53125 c -0.1759960705947,-0.1265033504827 -0.3555549406743,-0.2477849279853 -0.53125,-0.375 z m 1.25,0.90625 -1.65625,1.59375 0.4375,0.4375 1.75,-1.65625 L 402,148.9375 c -0.1578629116709,-0.1117331076036 -0.3111017131071,-0.2315108473188 -0.46875,-0.34375 z m 1.15625,1 -1.375,1.3125 -0.625,0 -14,13.46875 0.46875,0.4375 14.46875,-13.90625 0.625,0 0.90625,-0.875 -0.46875,-0.4375 z m 1.09375,1.03125 -0.28125,0.28125 -0.625,0 -15.09375,14.53125 0.46875,0.4375 15.59375,-14.96875 0.21875,0 -0.28125,-0.28125 z m -13.1875,14.1875 -1.6875,1.6875 0.4375,0.4375 1.75,-1.65625 -0.5,-0.46875 z m 1.125,1.0625 L 390,167.53125 390.4375,168 l 1.75,-1.65625 -0.46875,-0.46875 z m 1.09375,1.0625 -1.71875,1.6875 0.4375,0.4375 1.75,-1.65625 -0.46875,-0.46875 z m 1.09375,1.0625 -1.71875,1.6875 0.4375,0.4375 1.75,-1.6875 L 393.90625,168 z m 1.09375,1.0625 -1.71875,1.65625 0.4375,0.4375 1.75,-1.65625 L 395,169.0625 z m 1.09375,1.0625 -1.71875,1.65625 0.46875,0.4375 1.75,-1.65625 -0.5,-0.4375 z m 1.09375,1.03125 -1.71875,1.6875 0.46875,0.4375 1.75,-1.65625 -0.5,-0.46875 z m 1.09375,1.0625 -1.6875,1.65625 0.4375,0.46875 1.75,-1.65625 -0.5,-0.46875 z m 1.125,1.0625 -1.71875,1.65625 0.4375,0.46875 1.75,-1.65625 -0.46875,-0.46875 z m 1.09375,1.0625 -1.71875,1.65625 0.4375,0.46875 1.75,-1.6875 -0.46875,-0.4375 z m 1.09375,1.0625 -1.71875,1.65625 0.4375,0.4375 1.75,-1.65625 -0.46875,-0.4375 z m 1.09375,1.0625 -1.375,1.3125 -0.625,0 -14,13.46875 0.46875,0.4375 14.46875,-13.90625 0.625,0 0.90625,-0.875 -0.46875,-0.4375 z m 1.09375,1.03125 -0.28125,0.28125 -0.625,0 -15.09375,14.53125 0.46875,0.4375 15.59375,-14.96875 0.21875,0 -0.28125,-0.28125 z m -13.1875,14.1875 -1.6875,1.6875 0.4375,0.46875 1.75,-1.6875 -0.5,-0.46875 z m 1.125,1.0625 -1.71875,1.65625 0.4375,0.46875 1.75,-1.65625 -0.46875,-0.46875 z m 1.09375,1.09375 -1.71875,1.65625 0.4375,0.4375 1.75,-1.65625 -0.46875,-0.4375 z m 1.09375,1.03125 -1.71875,1.6875 0.4375,0.4375 1.75,-1.6875 -0.46875,-0.4375 z m 1.09375,1.0625 -1.71875,1.65625 0.4375,0.4375 1.75,-1.65625 L 395,195.9375 z m 1.09375,1.0625 -1.71875,1.65625 0.46875,0.4375 1.75,-1.65625 -0.5,-0.4375 z m 1.09375,1.03125 -1.71875,1.6875 0.46875,0.4375 1.75,-1.65625 -0.5,-0.46875 z m 1.09375,1.0625 -1.6875,1.65625 0.4375,0.46875 1.75,-1.65625 -0.5,-0.46875 z m 1.125,1.0625 -1.71875,1.65625 0.4375,0.46875 1.75,-1.65625 -0.46875,-0.46875 z m 1.09375,1.0625 -1.71875,1.65625 0.4375,0.46875 1.75,-1.6875 -0.46875,-0.4375 z m 1.09375,1.0625 -1.71875,1.65625 0.4375,0.4375 1.75,-1.65625 -0.46875,-0.4375 z m 1.09375,1.0625 -1.375,1.3125 -0.625,0 -14,13.46875 0.46875,0.4375 14.46875,-13.90625 0.625,0 0.90625,-0.875 -0.46875,-0.4375 z m 1.09375,1.03125 -0.28125,0.28125 -0.625,0 -15.09375,14.53125 0.46875,0.4375 15.59375,-14.96875 0.21875,0 -0.28125,-0.28125 z m -13.1875,14.1875 -1.6875,1.6875 0.4375,0.4375 1.75,-1.65625 -0.5,-0.46875 z m 1.125,1.0625 -1.71875,1.65625 0.4375,0.46875 1.75,-1.65625 -0.46875,-0.46875 z m 1.09375,1.0625 -1.71875,1.6875 0.4375,0.4375 1.75,-1.65625 -0.46875,-0.46875 z m 1.09375,1.0625 -1.71875,1.65625 0.4375,0.46875 1.75,-1.6875 -0.46875,-0.4375 z m 1.09375,1.0625 -1.71875,1.65625 0.4375,0.4375 1.75,-1.65625 L 395,222.8125 z m 1.09375,1.0625 -1.71875,1.65625 0.46875,0.4375 1.75,-1.65625 -0.5,-0.4375 z m 1.09375,1.03125 -1.71875,1.6875 0.46875,0.4375 1.75,-1.65625 -0.5,-0.46875 z m 1.09375,1.0625 -1.6875,1.65625 0.4375,0.46875 1.75,-1.65625 -0.5,-0.46875 z m 1.125,1.0625 -1.71875,1.65625 0.4375,0.46875 1.75,-1.65625 -0.46875,-0.46875 z m 1.09375,1.0625 -1.71875,1.65625 0.4375,0.46875 1.75,-1.6875 -0.46875,-0.4375 z m 1.09375,1.0625 -1.71875,1.65625 0.4375,0.4375 1.75,-1.65625 -0.46875,-0.4375 z m 1.09375,1.0625 -1.375,1.3125 -0.625,0 -14,13.46875 0.46875,0.4375 14.46875,-13.90625 0.625,0 0.90625,-0.875 -0.46875,-0.4375 z m 1.09375,1.03125 -0.28125,0.28125 -0.625,0 -15.09375,14.53125 0.46875,0.4375 15.59375,-14.96875 0.21875,0 -0.28125,-0.28125 z m -13.1875,14.1875 -1.6875,1.6875 0.4375,0.4375 1.75,-1.65625 -0.5,-0.46875 z m 1.125,1.0625 -1.71875,1.65625 0.4375,0.46875 1.75,-1.65625 -0.46875,-0.46875 z m 1.09375,1.0625 -1.71875,1.6875 0.4375,0.4375 1.75,-1.65625 -0.46875,-0.46875 z m 1.09375,1.0625 -1.71875,1.65625 0.4375,0.46875 1.75,-1.6875 -0.46875,-0.4375 z m 1.09375,1.0625 -1.71875,1.65625 0.4375,0.4375 1.75,-1.65625 L 395,249.6875 z m 1.09375,1.0625 -1.71875,1.65625 0.46875,0.4375 1.75,-1.65625 -0.5,-0.4375 z m 1.09375,1.03125 -1.71875,1.6875 0.46875,0.4375 1.75,-1.65625 -0.5,-0.46875 z m 1.09375,1.0625 -1.6875,1.65625 0.4375,0.46875 1.75,-1.65625 -0.5,-0.46875 z m 1.125,1.0625 -1.71875,1.65625 0.4375,0.46875 1.75,-1.65625 -0.46875,-0.46875 z m 1.09375,1.0625 -1.71875,1.65625 0.4375,0.46875 1.75,-1.6875 -0.46875,-0.4375 z m 1.09375,1.0625 -1.71875,1.65625 0.4375,0.4375 1.75,-1.65625 -0.46875,-0.4375 z m 1.09375,1.0625 -1.375,1.3125 -0.625,0 -14,13.46875 0.46875,0.4375 14.46875,-13.90625 0.625,0 0.90625,-0.875 -0.46875,-0.4375 z m 1.09375,1.03125 -0.28125,0.28125 -0.625,0 -15.09375,14.53125 0.46875,0.4375 15.59375,-14.96875 0.21875,0 -0.28125,-0.28125 z m -13.1875,14.1875 -1.6875,1.65625 0.4375,0.46875 1.75,-1.65625 -0.5,-0.46875 z m 1.125,1.0625 -1.71875,1.65625 0.4375,0.46875 1.75,-1.65625 -0.46875,-0.46875 z m 1.09375,1.0625 -1.71875,1.6875 0.4375,0.4375 1.75,-1.6875 -0.46875,-0.4375 z m 1.09375,1.0625 -1.71875,1.65625 0.4375,0.4375 1.75,-1.65625 -0.46875,-0.4375 z m 1.09375,1.0625 -1.71875,1.65625 0.4375,0.4375 L 395.46875,277 395,276.5625 z m 1.09375,1.03125 -1.71875,1.6875 0.46875,0.4375 1.75,-1.65625 -0.5,-0.46875 z m 1.09375,1.0625 -1.71875,1.65625 0.46875,0.46875 1.75,-1.65625 -0.5,-0.46875 z m 1.09375,1.0625 -1.6875,1.65625 0.4375,0.46875 1.75,-1.65625 -0.5,-0.46875 z m 1.125,1.0625 -1.71875,1.65625 0.4375,0.46875 1.75,-1.6875 -0.46875,-0.4375 z m 1.09375,1.0625 -1.71875,1.65625 0.4375,0.4375 1.75,-1.65625 -0.46875,-0.4375 z m 1.09375,1.0625 -1.71875,1.65625 0.4375,0.4375 1.75,-1.65625 -0.46875,-0.4375 z m 1.09375,1.03125 -1.375,1.34375 -0.625,0 -9.0625,8.71875 0.9375,0 9.0625,-8.71875 0.625,0 0.90625,-0.875 -0.46875,-0.46875 z m 1.09375,1.0625 -0.28125,0.28125 -0.625,0 -9.0625,8.71875 0.9375,0 9.09375,-8.71875 0.21875,0 L 403.78125,285 z" id="path7605" style="fill-opacity:0.4147465725"/>
<path d="m 393.8148849279945,142.7161385063519 8.5118939968896,8.1906207629405 0,-0.00221405101 -13.963214328065,13.4384003139793 13.963214328065,13.4375804092788 0,-8.199047004e-4 -13.963214328065,13.4384003139793 13.963214328065,13.436186262967 0,-0.00221405101 -13.963214328065,13.4384003139793 13.963214328065,13.4375804092799 0,-8.199046992e-4 -13.963214328065,13.4384003139793 13.963214328065,13.436186262967 0,-0.00221405101 -13.963214328065,13.4384003139793 13.963214328065,13.4375804092799 0,-8.199046992e-4 -9.0536650642533,8.7133787811007" id="path8195" style="stroke:#000000;stroke-opacity:0.3921568627;stroke-linejoin:round;fill:none;stroke-width:2;stroke-linecap:round"/>
<path d="m 387.21875,136.90625 -0.59375,0.5625 13.96875,13.4375 -13.96875,13.4375 13.96875,13.4375 -13.96875,13.4375 13.96875,13.4375 -13.96875,13.4375 13.96875,13.4375 -13.96875,13.4375 13.96875,13.4375 L 386.625,271.8125 400.59375,285.28125 391.5,294 l 3.46875,0 9.0625,-8.71875 -13.9375,-13.46875 13.9375,-13.40625 -13.9375,-13.4375 13.9375,-13.4375 -13.9375,-13.4375 13.9375,-13.4375 -13.9375,-13.4375 13.9375,-13.4375 -13.9375,-13.4375 13.9375,-13.4375 -2.15625,-2.09375 c -5.0468145325688,-3.5782640368202 -9.9896089991834,-7.4217044456707 -14.65625,-11.90625 z" id="path7609" style="fill:#b58e6c;fill-opacity:0.4147465725"/>
<path d="m 363.03125,96.8125 0,197.1875 3.40625,0 0,-187.84375 c -1.2091223593682,-2.9198653863122 -2.3569760977869,-6.0390008380586 -3.40625,-9.34375 z m -3.40625,0.125 c -1.0466263782026,3.2839423234465 -2.2009689532383,6.378110067609 -3.40625,9.28125 l 0,187.78125 3.40625,0 0,-197.0625 z m 10.21875,16.65625 0,180.40625 3.40625,0 0,-174.375 c -1.1727140098512,-1.9130200297698 -2.3192203650252,-3.9121493091925 -3.40625,-6.03125 z m -17.03125,0.0625 c -1.0781195847046,2.0960158720682 -2.212751911419,4.074653385859 -3.375,5.96875 l 0,174.375 3.375,0 0,-180.34375 z M 346.03125,124.75 c -1.1099095975471,1.5499354167914 -2.2416004178024,3.0189427999888 -3.40625,4.4375 l 0,164.8125 3.40625,0 0,-169.25 z m 30.59375,0 0,169.25 3.40625,0 0,-164.8125 c -1.1619016349369,-1.4169186243042 -2.2989163721477,-2.8895292110949 -3.40625,-4.4375 z" id="rect7146" style="fill:#b58e6c;stroke:#000000;stroke-opacity:0.1960784314"/>
<g id="g8234" transform="translate(-100)">
<path d="m 452.9375,220.09375 -0.03125,0.03125 -13,9.4375 67.375,48.96875 0,-18.96875 -54.34375,-39.46875 z m -25.96875,18.875 -0.09375,0.0625 -11.5,8.375 0,2.0625 61.25,44.53125 26.09375,0 -75.75,-55.03125 z" id="path7221" style="fill:#b58e6c;stroke:#000000;stroke-opacity:0.1960784314"/>
<path d="m 465.96875,229.5625 -13.03125,9.46875 13.03125,9.46875 13.0625,-9.46875 -13.0625,-9.46875 z m -26,18.84375 -13,9.46875 13.03125,9.5 13.0625,-9.46875 -13.09375,-9.5 z m 52.09375,0.09375 -13.03125,9.46875 13.03125,9.5 13.03125,-9.5 L 492.0625,248.5 z m -26,18.875 -13.0625,9.46875 13.09375,9.5 13,-9.5 -13.03125,-9.46875 z m 41.21875,7.9375 -2.1875,1.59375 2.1875,1.59375 0,-3.1875 z m -15.15625,11 -10.53125,7.6875 21.125,0 -10.59375,-7.6875 z" id="path7223" style="fill:#b58e6c;stroke:#000000;stroke-opacity:0.1960784314"/>
<path d="m 451.9375,115.25 c -1.2529683708956,2.3235917395011 -2.5480120080943,4.5228175886622 -3.90625,6.59375 l 59.25,43.03125 0,-9.40625 L 451.9375,115.25 z" id="path7207" style="fill:#b58e6c;stroke:#000000;stroke-opacity:0.1960784314"/>
<path d="m 455.34375,108.3125 c -1.0785360534321,2.4472336291484 -2.2226233027664,4.7425002855384 -3.40625,6.9375 l 55.34375,40.21875 0,-2.90625 c -11.5503624080631,-7.7980973514949 -22.8250156284,-16.1984769134569 -31.96875,-29.75 l -19.96875,-14.5 z" id="path7209" style="fill:#b58e6c;stroke:#000000;stroke-opacity:0.1960784314"/>
<path d="m 460.71875,93.28125 c -1.5812051156917,5.50831411773336 -3.3824834986515,10.5101648000976 -5.375,15.03125 l 19.96875,14.5 c -5.1162091826893,-7.5825066692817 -9.5579587128079,-16.7948588283795 -13,-28.40625 l -1.59375,-1.125 z m -12.6875,28.5625 c -2.9602881039138,4.513609999004 -6.1679490611058,8.4536315142115 -9.53125,12 l 66.5625,48.34375 2.21875,-1.625 0,-15.6875 -59.25,-43.03125 z" id="path7211" style="fill:#b58e6c;stroke:#000000;stroke-opacity:0.1960784314"/>
<path d="m 463.6875,98.78125 -6.3125,4.5625 c -0.6604747305662,1.7272656012726 -1.3526937599905,3.3911389910892 -2.0625,5 l 10.65625,7.6875 3.75,-2.71875 c -2.2142831831969,-4.3506035849095 -4.2332496966048,-9.1786031254469 -6.03125,-14.53125 z m -15.65625,23.03125 c -2.9599075077382,4.5159912035813 -6.1367724481221,8.4832377146867 -9.5,12.03125 l 1.46875,1.0625 13,-9.46875 -4.96875,-3.625 z m 18,13.09375 -13,9.46875 13.03125,9.5 13.0625,-9.46875 -13.09375,-9.5 z m 26.09375,18.96875 -13.0625,9.4375 13.09375,9.53125 13,-9.53125 -13.03125,-9.4375 z" id="path7213" style="fill:#b58e6c;stroke:#000000;stroke-opacity:0.1960784314"/>
<path d="m 433.4375,234.28125 -6.46875,4.6875 L 502.6875,294 l 4.59375,0 0,-6.09375 -73.84375,-53.625 z" id="path7217" style="fill:#b58e6c;stroke:#000000;stroke-opacity:0.1960784314"/>
<path d="m 439.90625,229.59375 -6.46875,4.6875 73.84375,53.65625 0,-9.40625 -67.375,-48.9375 z" id="path7219" style="fill:#b58e6c;stroke:#000000;stroke-opacity:0.1960784314"/>
</g>
<g id="g8244" transform="translate(120)">
<path d="m 278.59375,158.5625 -83.21875,60.5 0,9.375 89.6875,-65.15625 z" id="path7197" style="fill:#b58e6c;stroke:#000000;stroke-opacity:0.1960784314"/>
<path d="m 272.125,153.875 -76.75,55.75 0,9.40625 83.21875,-60.46875 -6.46875,-4.6875 z" id="path7199" style="fill:#b58e6c;stroke:#000000;stroke-opacity:0.1960784314"/>
<path d="m 246.03125,153.84375 -50.65625,36.8125 0,18.96875 63.71875,-46.28125 -13.0625,-9.5 z m 26.03125,18.90625 -76.6875,55.6875 0,18.96875 89.6875,-65.1875 -13,-9.46875 z" id="path7201" style="fill:#b58e6c;stroke:#000000;stroke-opacity:0.1960784314"/>
<path d="m 259.125,144.40625 -13.0625,9.46875 13.0625,9.4375 13.03125,-9.4375 z m 25.96875,18.84375 -13,9.46875 13,9.46875 2.1875,-1.59375 0,-15.75 z m -52.0625,0.0625 L 220,172.78125 233.03125,182.25 246.0625,172.78125 z m 26,18.875 -13.0625,9.5 13.03125,9.46875 13.03125,-9.5 z m -52.09375,0.0625 -11.5625,8.40625 0,2.125 11.5625,8.4375 13.0625,-9.5 z m 26.03125,18.90625 -13.0625,9.46875 13,9.5 13.09375,-9.5 z m -26.09375,18.90625 -11.5,8.34375 0,2.25 11.5,8.375 13.03125,-9.4375 z" id="path7203" style="fill:#b58e6c;stroke:#000000;stroke-opacity:0.1960784314"/>
<path d="m 259.125,144.40625 -13.0625,9.46875 13.0625,9.4375 13.03125,-9.4375 -13.03125,-9.46875 z m 25.96875,18.84375 -13,9.46875 13,9.46875 2.1875,-1.59375 0,-15.75 -2.1875,-1.59375 z m -52.0625,0.0625 L 220,172.78125 233.03125,182.25 246.0625,172.78125 233.03125,163.3125 z m 26,18.875 -13.0625,9.5 13.03125,9.46875 13.03125,-9.5 -13,-9.46875 z m -52.09375,0.0625 -11.5625,8.40625 0,2.125 11.5625,8.4375 13.0625,-9.5 -13.0625,-9.46875 z m 26.03125,18.90625 -13.0625,9.46875 13,9.5 13.09375,-9.5 -13.03125,-9.46875 z m -26.09375,18.90625 -11.5,8.34375 0,2.25 11.5,8.375 13.03125,-9.4375 -13.03125,-9.53125 z" id="path7706" style="fill:#b58e6c;stroke:#000000;stroke-opacity:0.1960784314"/>
</g>
<path d="m 361.34375,91.0625 c -9.363963913598,34.80213568705141 -27.3433631302082,48.92527940781341 -45.96875,61.5 l 0,141.4375 91.90625,0 0,-141.4375 c -18.6253868697916,-12.5747205921866 -36.573536086402,-26.6978643129486 -45.9375,-61.5 z" id="path8251" style="fill:none;stroke:#b58e6c;stroke-width:3"/>
</g>
<path d="M 75,7 6.5,98.25 6.5,294 l 137,0 0,-195.75 L 75,7 z m 0,11.125 61.84375,82.375 0,186.84375 -123.6875,0 0,-186.84375 L 75,18.125 z" id="rect21" style="fill:#b58e6c"/>
<path d="m 75,18.125 -61.84375,82.375 0,186.84375 123.6875,0 0,-186.84375 L 75,18.125 z" id="path1262" style="fill:none;stroke:#b58e6c;stroke-width:2"/>
<path d="M 6.499995494115363,98.25472401103809 74.99999549411529,6.998051227870067 143.4999954941154,98.25472401103809 l 0,195.74332721683191 -137.000000000000056,0 z" id="path8287" style="fill:none;stroke:#000000;stroke-width:3"/>
<g id="g8315" style="fill:#c6d2e1" transform="translate(25.39199843216763)">
<path d="m -48.29600906372071,166.5254211425781 -14.54553767204942,4.4509682655335 3.41811724663439,14.8222892684651 -11.12742042541504,-10.3713210029317 -11.12742042541504,10.3713210029317 3.4181172466344,-14.8222892684651 -14.54553767204942,-4.4509682655335 14.54553767204942,-4.4509682655334 -3.41811724663441,-14.8222892684651 11.12742042541505,10.3713210029316 11.12742042541501,-10.3713210029316 -3.41811724663436,14.8222892684651 z" id="path60" transform="matrix(1.140965177076092,0,0,1.140965177076092,155.4960629656242,52.47002162835168)"/>
<path d="m -48.29600906372071,166.5254211425781 -14.54553767204942,4.4509682655335 3.41811724663439,14.8222892684651 -11.12742042541504,-10.3713210029317 -11.12742042541504,10.3713210029317 3.4181172466344,-14.8222892684651 -14.54553767204942,-4.4509682655335 14.54553767204942,-4.4509682655334 -3.41811724663441,-14.8222892684651 11.12742042541505,10.3713210029316 11.12742042541501,-10.3713210029316 -3.41811724663436,14.8222892684651 z" id="path8313" transform="matrix(1.140965177076092,0,0,1.140965177076092,104.712066101289,52.47002162835168)"/>
</g>
</svg>
