<?xml version="1.0" encoding="utf8" standalone="no"?>
<svg height="300" id="svg2" version="1.1" width="150" xmlns="http://www.w3.org/2000/svg" xmlns:svg="http://www.w3.org/2000/svg">
<path d="m 75,18.125 -61.84375,82.375 0,186.84375 123.6875,0 0,-186.84375 L 75,18.125 z" id="path810" style="fill:#0b2811"/>
<g id="g287" transform="translate(200)">
<path d="m -125,18.125 -19.53125,26 c -3.6041667428067,5.64971119129389 -7.4178130874251,10.67962977318656 -11.4375,15.25 l -30.875,41.125 0,186.84375 123.6875,0 0,-186.84375 -31,-41.3125 C -98.08020239931241,54.70483437401136 -101.8488308945308,49.79745037125591 -105.375,44.28125 L -125,18.125 z" id="path7829" style="fill:#b58e6c"/>
<path d="m -154.53125,57.6875 c -0.4571040931003,0.53854123944796 -0.9131374095682,1.06754528102321 -1.375,1.59375 l -30.9375,41.21875 0,186.84375 32.3125,0 0,-6.78125 0,-39.28125 0,-39.28125 0,-39.28125 0,-39.3125 0,-39.28125 0,-26.4375 z" id="path958" style="fill:#b58e6c"/>
<path d="m -154.53125,57.6875 c -0.4799536184614,0.56546161030984 -0.9526652885734,1.13227337914844 -1.4375,1.6875 -0.063013164218,0.0721618840678 -0.1244007073884,0.14680757434343 -0.1875,0.21875 l -1.65625,2.25 0,22.28125 0,39.28125 0,39.3125 0,39.28125 0,39.28125 0,39.28125 0,6.78125 3.28125,0 0,-6.78125 0,-39.28125 0,-39.28125 0,-39.28125 0,-39.3125 0,-39.28125 0,-26.4375 z" id="path1258" style="fill:#b58e6c;stroke:#000000;stroke-width:0.5613337755;stroke-opacity:0.1960784314"/>
<path d="m -183.78125,96.40625 -3.0625,4.09375 0,186.84375 3.0625,0 0,-6.78125 0,-39.28125 0,-39.28125 0,-39.28125 0,-39.3125 0,-27 z" id="rect1242" style="fill:#b58e6c;stroke:#000000;stroke-width:0.5613337755;stroke-opacity:0.1960784314"/>
<path d="m -157.59375,61.53125 -0.96875,1.3125 0,21.28125 0,39.28125 0,39.3125 0,39.28125 0,39.28125 0,39.28125 0,6.78125 0.96875,0 0,-6.78125 0,-39.28125 0,-39.28125 0,-39.28125 0,-39.3125 0,-39.28125 0,-22.59375 z m -2.125,2.84375 -0.96875,1.28125 0,18.46875 0,39.28125 0,39.3125 0,39.28125 0,39.28125 0,39.28125 0,6.78125 0.96875,0 0,-6.78125 0,-39.28125 0,-39.28125 0,-39.28125 0,-39.3125 0,-39.28125 0,-19.75 z m -2.09375,2.78125 -1.03125,1.375 0,15.59375 0,39.28125 0,39.3125 0,39.28125 0,39.28125 0,39.28125 0,6.78125 1.03125,0 0,-6.78125 0,-39.28125 0,-39.28125 0,-39.28125 0,-39.3125 0,-39.28125 0,-16.96875 z m -2.125,2.84375 -0.96875,1.28125 0,12.84375 0,39.28125 0,39.3125 0,39.28125 0,39.28125 0,39.28125 0,6.78125 0.96875,0 0,-6.78125 0,-39.28125 0,-39.28125 0,-39.28125 0,-39.3125 0,-39.28125 0,-14.125 z m -2.09375,2.78125 -1.03125,1.375 0,9.96875 0,39.28125 0,39.3125 0,39.28125 0,39.28125 0,39.28125 0,6.78125 1.03125,0 0,-6.78125 0,-39.28125 0,-39.28125 0,-39.28125 0,-39.3125 0,-39.28125 0,-11.34375 z m -2.15625,2.875 -0.9375,1.25 0,7.21875 0,39.28125 0,39.3125 0,39.28125 0,39.28125 0,39.28125 0,6.78125 0.9375,0 0,-6.78125 0,-39.28125 0,-39.28125 0,-39.28125 0,-39.3125 0,-39.28125 0,-8.46875 z m -2.09375,2.78125 -1,1.34375 0,4.34375 0,39.28125 0,39.3125 0,39.28125 0,39.28125 0,39.28125 0,6.78125 1,0 0,-6.78125 0,-39.28125 0,-39.28125 0,-39.28125 0,-39.3125 0,-39.28125 0,-5.6875 z m -2.125,2.84375 -0.96875,1.28125 0,1.5625 0,39.28125 0,39.3125 0,39.28125 0,39.28125 0,39.28125 0,6.78125 0.96875,0 0,-6.78125 0,-39.28125 0,-39.28125 0,-39.28125 0,-39.3125 0,-39.28125 0,-2.84375 z m -2.09375,2.78125 -1,1.3125 0,38.03125 0,39.3125 0,39.28125 0,39.28125 0,39.28125 0,6.78125 1,0 0,-6.78125 0,-39.28125 0,-39.28125 0,-39.28125 0,-39.3125 0,-39.28125 0,-0.0625 z m -2.125,2.8125 -1.03125,1.375 0.03125,35.15625 -0.03125,0 0.03125,39.3125 -0.03125,0 0.03125,39.28125 -0.03125,0 0.03125,39.28125 -0.03125,0 0.03125,39.28125 -0.03125,0 0,6.78125 1.03125,0 0,-6.78125 0,-39.28125 0,-39.28125 0,-39.28125 0,-39.3125 0,-36.53125 z m -2.125,2.84375 -0.96875,1.28125 0,32.40625 0,39.3125 0,39.28125 0,39.28125 0,39.28125 0,6.78125 0.96875,0 0,-6.78125 0,-39.28125 0,-39.28125 0,-39.28125 0,-39.3125 0,-33.6875 z m -2.125,2.84375 -0.96875,1.28125 0,29.5625 0,39.3125 0,39.28125 0,39.28125 0,39.28125 0,6.78125 0.96875,0 0,-6.78125 0,-39.28125 0,-39.28125 0,-39.28125 0,-39.3125 0,-30.84375 z m -2.09375,2.78125 -0.96875,1.28125 0,26.78125 0,39.3125 0,39.28125 0,39.28125 0,39.28125 0,6.78125 0.96875,0 0,-6.78125 0,-39.28125 0,-39.28125 0,-39.28125 0,-39.3125 0,-28.0625 z" id="rect1632" style="fill-opacity:0.3921568627"/>
<path d="m -167.65625,74.9375 -1.21875,1.625 1.40625,-1.4375 -0.1875,-0.1875 z m 0.96875,1.0625 -2.28125,2.4375 0.59375,0.65625 L -166,76.6875 -166.6875,76 z m 1.53125,1.5625 -2.3125,2.40625 0.59375,0.6875 2.34375,-2.40625 -0.625,-0.6875 z m 1.46875,1.53125 -2.3125,2.4375 0.59375,0.6875 2.34375,-2.46875 -0.625,-0.65625 z m 1.46875,1.5625 -2.3125,2.4375 0.59375,0.625 2.375,-2.40625 -0.65625,-0.65625 z m 1.5,1.5625 -1.875,1.90625 -0.84375,0 -18.90625,19.6875 0.625,0.65625 19.5625,-20.34375 0.84375,0 1.21875,-1.28125 -0.625,-0.625 z m 1.46875,1.5 -0.375,0.40625 -0.84375,0 -20.40625,21.25 0.65625,0.625 21.0625,-21.875 0.28125,0 -0.375,-0.40625 z m -17.8125,20.75 -2.28125,2.46875 0.59375,0.625 2.375,-2.40625 -0.6875,-0.6875 z m 1.53125,1.53125 -2.34375,2.4375 0.59375,0.6875 2.375,-2.4375 -0.625,-0.6875 z m 1.46875,1.5625 -2.3125,2.46875 0.59375,0.65625 2.34375,-2.4375 -0.625,-0.6875 z m 1.46875,1.5625 -2.3125,2.46875 0.59375,0.625 2.34375,-2.46875 -0.625,-0.625 z m 1.46875,1.5625 -2.3125,2.40625 0.59375,0.65625 2.375,-2.4375 -0.65625,-0.625 z m 1.5,1.53125 -2.34375,2.4375 0.65625,0.625 2.34375,-2.40625 -0.65625,-0.65625 z m 1.46875,1.53125 -2.3125,2.4375 0.625,0.65625 2.375,-2.4375 -0.6875,-0.65625 z m 1.46875,1.53125 -2.28125,2.4375 0.59375,0.6875 2.375,-2.4375 -0.6875,-0.6875 z m 1.53125,1.5625 -2.3125,2.40625 0.59375,0.6875 2.34375,-2.40625 -0.625,-0.6875 z m 1.46875,1.5625 -2.3125,2.40625 0.59375,0.6875 2.34375,-2.46875 -0.625,-0.625 z m 1.46875,1.53125 -2.3125,2.4375 0.59375,0.625 2.375,-2.40625 -0.65625,-0.65625 z m 1.5,1.5625 -1.875,1.90625 -0.84375,0 -18.90625,19.6875 0.625,0.65625 19.5625,-20.34375 0.84375,0 1.21875,-1.28125 -0.625,-0.625 z m 1.46875,1.5 -0.375,0.40625 -0.84375,0 -20.40625,21.25 0.65625,0.65625 21.0625,-21.90625 0.28125,0 L -159.25,123 z m -17.8125,20.75 -2.28125,2.46875 0.59375,0.6875 2.375,-2.46875 -0.6875,-0.6875 z m 1.53125,1.5625 -2.34375,2.40625 0.59375,0.6875 2.375,-2.40625 -0.625,-0.6875 z m 1.46875,1.59375 -2.3125,2.40625 0.59375,0.65625 2.34375,-2.4375 -0.625,-0.625 z m 1.46875,1.5 -2.3125,2.46875 0.59375,0.625 2.34375,-2.46875 -0.625,-0.625 z m 1.46875,1.5625 -2.3125,2.40625 0.59375,0.65625 2.375,-2.4375 -0.65625,-0.625 z m 1.5,1.53125 -2.34375,2.4375 0.65625,0.625 2.34375,-2.40625 L -169.625,151.5 z m 1.46875,1.53125 -2.3125,2.46875 0.625,0.625 2.375,-2.40625 -0.6875,-0.6875 z m 1.46875,1.53125 -2.28125,2.4375 0.59375,0.6875 2.375,-2.4375 -0.6875,-0.6875 z m 1.53125,1.5625 -2.3125,2.4375 0.59375,0.65625 2.34375,-2.40625 -0.625,-0.6875 z m 1.46875,1.5625 -2.3125,2.40625 0.59375,0.6875 2.34375,-2.46875 -0.625,-0.625 z m 1.46875,1.53125 -2.3125,2.4375 0.59375,0.625 2.375,-2.40625 -0.65625,-0.65625 z m 1.5,1.5625 -1.875,1.9375 -0.84375,0 -18.90625,19.6875 0.625,0.625 19.5625,-20.3125 0.84375,0 1.21875,-1.28125 -0.625,-0.65625 z m 1.46875,1.5 -0.375,0.4375 -0.84375,0 -20.40625,21.21875 0.65625,0.65625 21.0625,-21.875 0.28125,0 -0.375,-0.4375 z m -17.8125,20.75 -2.28125,2.46875 0.59375,0.625 2.375,-2.40625 -0.6875,-0.6875 z m 1.53125,1.5625 -2.34375,2.40625 0.59375,0.6875 2.375,-2.40625 -0.625,-0.6875 z m 1.46875,1.53125 -2.3125,2.46875 0.59375,0.65625 2.34375,-2.4375 -0.625,-0.6875 z m 1.46875,1.5625 -2.3125,2.4375 0.59375,0.6875 2.34375,-2.46875 -0.625,-0.65625 z m 1.46875,1.5625 -2.3125,2.40625 0.59375,0.65625 2.375,-2.4375 -0.65625,-0.625 z m 1.5,1.5625 -2.34375,2.40625 0.65625,0.65625 2.34375,-2.4375 -0.65625,-0.625 z m 1.46875,1.5 -2.3125,2.46875 0.625,0.625 2.375,-2.40625 -0.6875,-0.6875 z m 1.46875,1.5625 -2.28125,2.40625 0.59375,0.6875 2.375,-2.4375 -0.6875,-0.65625 z m 1.53125,1.53125 -2.3125,2.4375 0.59375,0.6875 2.34375,-2.4375 -0.625,-0.6875 z m 1.46875,1.5625 -2.3125,2.40625 0.59375,0.6875 2.34375,-2.46875 -0.625,-0.625 z m 1.46875,1.5625 -2.3125,2.40625 0.59375,0.65625 2.375,-2.4375 -0.65625,-0.625 z m 1.5,1.53125 -1.875,1.9375 -0.84375,0 -18.90625,19.6875 0.625,0.625 19.5625,-20.3125 0.84375,0 1.21875,-1.28125 -0.625,-0.65625 z m 1.46875,1.53125 -0.375,0.40625 -0.84375,0 -20.40625,21.21875 0.65625,0.65625 21.0625,-21.875 0.28125,0 -0.375,-0.40625 z m -17.8125,20.71875 -2.28125,2.46875 0.59375,0.65625 2.375,-2.4375 -0.6875,-0.6875 z m 1.53125,1.5625 -2.34375,2.40625 0.59375,0.6875 2.375,-2.40625 -0.625,-0.6875 z m 1.46875,1.5625 -2.3125,2.46875 0.59375,0.625 2.34375,-2.40625 -0.625,-0.6875 z m 1.46875,1.53125 -2.3125,2.4375 0.59375,0.6875 2.34375,-2.46875 -0.625,-0.65625 z m 1.46875,1.5625 -2.3125,2.40625 0.59375,0.65625 2.375,-2.4375 -0.65625,-0.625 z m 1.5,1.5625 -2.34375,2.40625 0.65625,0.65625 2.34375,-2.4375 -0.65625,-0.625 z m 1.46875,1.5 -2.3125,2.46875 0.625,0.625 2.375,-2.40625 -0.6875,-0.6875 z m 1.46875,1.5625 -2.28125,2.40625 0.59375,0.6875 2.375,-2.40625 -0.6875,-0.6875 z m 1.53125,1.53125 -2.3125,2.4375 0.59375,0.6875 2.34375,-2.4375 -0.625,-0.6875 z m 1.46875,1.5625 -2.3125,2.4375 0.59375,0.65625 2.34375,-2.4375 -0.625,-0.65625 z m 1.46875,1.5625 -2.3125,2.40625 0.59375,0.65625 2.375,-2.4375 -0.65625,-0.625 z m 1.5,1.53125 -1.875,1.9375 -0.84375,0 -18.90625,19.6875 0.625,0.625 19.5625,-20.3125 0.84375,0 1.21875,-1.28125 -0.625,-0.65625 z m 1.46875,1.53125 -0.375,0.40625 -0.84375,0 -20.40625,21.25 0.65625,0.625 21.0625,-21.875 0.28125,0 -0.375,-0.40625 z m -17.8125,20.71875 -2.28125,2.4375 0.59375,0.6875 2.375,-2.4375 -0.6875,-0.6875 z m 1.53125,1.5625 -2.34375,2.4375 0.59375,0.65625 2.375,-2.40625 -0.625,-0.6875 z m 1.46875,1.5625 -2.3125,2.46875 0.59375,0.625 2.34375,-2.46875 -0.625,-0.625 z m 1.46875,1.53125 -2.3125,2.4375 0.59375,0.625 2.34375,-2.40625 -0.625,-0.65625 z m 1.46875,1.5625 -2.3125,2.4375 0.59375,0.625 2.375,-2.40625 -0.65625,-0.65625 z m 1.5,1.5 -2.34375,2.46875 0.65625,0.65625 2.34375,-2.4375 -0.65625,-0.6875 z m 1.46875,1.5625 -2.3125,2.4375 0.625,0.65625 2.375,-2.40625 -0.6875,-0.6875 z m 1.46875,1.5625 -2.28125,2.40625 0.59375,0.6875 2.375,-2.40625 -0.6875,-0.6875 z m 1.53125,1.53125 -2.3125,2.4375 0.59375,0.6875 2.34375,-2.46875 -0.625,-0.65625 z m 1.46875,1.5625 -2.3125,2.4375 0.59375,0.625 2.34375,-2.40625 -0.625,-0.65625 z m 1.46875,1.5625 -2.3125,2.40625 0.59375,0.65625 2.375,-2.4375 -0.65625,-0.625 z m 1.5,1.5 -1.875,1.96875 -0.84375,0 -6.5,6.78125 1.28125,0 6.5,-6.78125 0.84375,0 1.21875,-1.28125 -0.625,-0.6875 z m 1.46875,1.5625 -0.375,0.40625 -0.84375,0 -6.5,6.78125 1.28125,0 6.53125,-6.78125 0.28125,0 -0.375,-0.40625 z" id="rect3256" style="fill-opacity:0.4147465725"/>
<path d="m -168.7078795196455,76.33908290914961 7.4853015064234,7.79565068291034 0,-0.003236482419 -18.8589962161218,19.64414828872125 18.8589962161218,19.642949758454 0,-0.00119853027 -18.8589962161218,19.6441482887211 18.8589962161218,19.6409118062986 0,-0.00323648242 -18.8589962161218,19.6441482887212 18.8589962161218,19.6429497584555 0,-0.00119853027 -18.8589962161218,19.6441482887212 18.8589962161218,19.6409118062985 0,-0.00323648242 -18.8589962161218,19.6441482887212 18.8589962161218,19.6429497584556 0,-0.00119853027 -6.5003987311723,6.7710282746546" id="path275" style="stroke:#000000;stroke-opacity:0.3921568627;stroke-linejoin:round;fill:none;stroke-width:2.8102140427;stroke-linecap:round"/>
<path d="m -167.6875,75 -2.03125,2.71875 6.15625,6.40625 -18.875,19.65625 18.875,19.625 -18.875,19.65625 18.875,19.65625 -18.875,19.625 18.875,19.65625 -18.875,19.625 18.875,19.65625 -18.875,19.59375 18.875,19.6875 -6.53125,6.78125 4.6875,0 6.5,-6.78125 L -177.75,260.875 -158.90625,241.28125 -177.75,221.625 -158.90625,202 -177.75,182.34375 -158.90625,162.71875 -177.75,143.0625 -158.90625,123.40625 -177.75,103.78125 -158.90625,84.125 -167.6875,75 z" id="path3343" style="fill:#b58e6c;fill-opacity:0.4147465725"/>
<path d="m -95.46875,57.6875 0,26.4375 0,39.28125 0,39.3125 0,39.28125 0,39.28125 0,39.28125 0,6.78125 32.3125,0 0,-186.84375 -30.9375,-41.21875 c -0.46150767473974,-0.52620471897679 -0.91832683486737,-1.05520876055204 -1.375,-1.59375 z" id="path7597" style="fill:#b58e6c"/>
<path d="m -66.21875,96.40625 0,27 0,39.3125 0,39.28125 0,39.28125 0,39.28125 0,6.78125 3.0625,0 0,-186.84375 -3.0625,-4.09375 z" id="path7599" style="fill:#b58e6c;stroke:#000000;stroke-width:0.5613337755;stroke-opacity:0.1960784314"/>
<path d="m -95.4375,57.6875 -0.03125,26.4375 0.03125,0 -0.03125,39.28125 0.03125,0 -0.03125,39.3125 0.03125,0 -0.03125,39.28125 0.03125,0 -0.03125,39.28125 0.03125,0 -0.03125,39.28125 0.03125,0 0,6.78125 3.25,0 0,-6.78125 0,-39.28125 0,-39.28125 0,-39.28125 0,-39.3125 0,-39.28125 0,-22.28125 -2.09375,-2.78125 c -0.38620010375649,-0.45282346117385 -0.7698870000179,-0.91959088685433 -1.15625,-1.375 z" id="path7601" style="fill:#b58e6c;stroke:#000000;stroke-width:0.5613337755;stroke-opacity:0.1960784314"/>
<path d="m -92.34375,61.625 0,22.5 0,39.28125 0,39.3125 0,39.28125 0,39.28125 0,39.28125 0,6.78125 0.96875,0 0,-6.78125 0,-39.28125 0,-39.28125 0,-39.28125 0,-39.3125 0,-39.28125 0,-21.21875 -0.96875,-1.28125 z m 2.09375,2.78125 0,19.71875 0,39.28125 0,39.3125 0,39.28125 0,39.28125 0,39.28125 0,6.78125 0.96875,0 0,-6.78125 0,-39.28125 0,-39.28125 0,-39.28125 0,-39.3125 0,-39.28125 0,-18.4375 -0.96875,-1.28125 z m 2.125,2.84375 0,16.875 0,39.28125 0,39.3125 0,39.28125 0,39.28125 0,39.28125 0,6.78125 0.96875,0 0,-6.78125 0,-39.28125 0,-39.28125 0,-39.28125 0,-39.3125 0,-39.28125 0,-15.59375 L -88.125,67.25 z m 2.09375,2.78125 0,14.09375 -0.03125,0 0.03125,39.28125 -0.03125,0 0.03125,39.3125 -0.03125,0 0.03125,39.28125 -0.03125,0 0.03125,39.28125 -0.03125,0 0.03125,39.28125 -0.03125,0 0,6.78125 1,0 0,-6.78125 0,-39.28125 0,-39.28125 0,-39.28125 0,-39.3125 0,-39.28125 0,-12.8125 -0.96875,-1.28125 z m 2.125,2.84375 0,11.25 0,39.28125 0,39.3125 0,39.28125 0,39.28125 0,39.28125 0,6.78125 1,0 0,-6.78125 0,-39.28125 0,-39.28125 0,-39.28125 0,-39.3125 0,-39.28125 0,-9.9375 -1,-1.3125 z m 2.09375,2.78125 0,8.46875 0,39.28125 0,39.3125 0,39.28125 0,39.28125 0,39.28125 0,6.78125 0.96875,0 0,-6.78125 0,-39.28125 0,-39.28125 0,-39.28125 0,-39.3125 0,-39.28125 0,-7.1875 -0.96875,-1.28125 z m 2.125,2.8125 0,5.65625 0,39.28125 0,39.3125 0,39.28125 0,39.28125 0,39.28125 0,6.78125 1,0 0,-6.78125 0,-39.28125 0,-39.28125 0,-39.28125 0,-39.3125 0,-39.28125 0,-4.3125 -1,-1.34375 z m 2.15625,2.875 0,2.78125 0,39.28125 0,39.3125 0,39.28125 0,39.28125 0,39.28125 0,6.78125 0.90625,0 0,-6.78125 0,-39.28125 0,-39.28125 0,-39.28125 0,-39.3125 0,-39.28125 0,-1.5625 -0.90625,-1.21875 z m 2.0625,2.78125 0,39.28125 0,39.3125 0,39.28125 0,39.28125 0,39.28125 0,6.78125 1,0 0,-6.78125 0,-39.28125 0,-39.28125 0,-39.28125 0,-39.3125 0,-37.96875 -1,-1.3125 z m 2.15625,2.84375 0,36.4375 0,39.3125 0,39.28125 0,39.28125 0,39.28125 0,6.78125 0.96875,0 0,-6.78125 0,-39.28125 0,-39.28125 0,-39.28125 0,-39.3125 0,-35.15625 -0.96875,-1.28125 z m 2.0625,2.75 0,33.6875 0,39.3125 0,39.28125 0,39.28125 0,39.28125 0,6.78125 1,0 0,-6.78125 0,-39.28125 0,-39.28125 0,-39.28125 0,-39.3125 0,-32.34375 -1,-1.34375 z m 2.15625,2.875 0,30.8125 0,39.3125 0,39.28125 0,39.28125 0,39.28125 0,6.78125 0.96875,0 0,-6.78125 0,-39.28125 0,-39.28125 0,-39.28125 0,-39.3125 0,-29.53125 -0.96875,-1.28125 z M -67,95.375 l 0,28.03125 0,39.3125 0,39.28125 0,39.28125 0,39.28125 0,6.78125 0.96875,0 0,-6.78125 0,-39.28125 0,-39.28125 0,-39.28125 0,-39.3125 0,-26.75 L -67,95.375 z" id="path7603" style="fill-opacity:0.3921568627"/>
<path d="m -90.40625,64.1875 -0.34375,0.34375 0.625,0.65625 0.25,-0.25 -0.53125,-0.75 z m 1.28125,1.75 -0.15625,0.15625 0.65625,0.625 0.0625,-0.0625 -0.5625,-0.71875 z m 15.25,20.28125 -16.875,17.59375 0.625,0.65625 16.8125,-17.5 -0.5625,-0.75 z m 1.3125,1.75 L -89.28125,105.375 -88.625,106 -72,88.71875 l -0.5625,-0.75 z m -12.90625,16.5 -2.28125,2.46875 0.59375,0.625 2.34375,-2.40625 -0.65625,-0.6875 z m 1.5,1.53125 -2.3125,2.4375 0.59375,0.6875 2.375,-2.4375 L -83.96875,106 z m 1.5,1.5625 -2.34375,2.46875 0.59375,0.65625 2.375,-2.4375 -0.625,-0.6875 z M -81,109.125 l -2.3125,2.46875 0.59375,0.625 L -80.375,109.75 -81,109.125 z m 1.46875,1.5625 -2.3125,2.40625 0.59375,0.65625 2.375,-2.4375 -0.65625,-0.625 z m 1.5,1.53125 -2.34375,2.4375 0.65625,0.625 2.34375,-2.40625 -0.65625,-0.65625 z m 1.46875,1.53125 -2.3125,2.4375 0.625,0.65625 2.34375,-2.4375 -0.65625,-0.65625 z m 1.46875,1.53125 -2.28125,2.4375 0.59375,0.6875 2.375,-2.4375 -0.6875,-0.6875 z m 1.53125,1.5625 -2.34375,2.40625 0.59375,0.6875 2.375,-2.40625 -0.625,-0.6875 z m 1.46875,1.5625 -2.3125,2.40625 0.59375,0.6875 2.34375,-2.46875 -0.625,-0.625 z m 1.46875,1.53125 -2.3125,2.4375 0.59375,0.625 2.375,-2.40625 -0.65625,-0.65625 z m 1.5,1.5625 -1.875,1.90625 -0.84375,0 -18.90625,19.6875 0.625,0.65625 19.5625,-20.34375 0.84375,0 L -68.5,122.125 -69.125,121.5 z m 1.46875,1.5 -0.375,0.40625 -0.84375,0 -20.40625,21.25 0.65625,0.65625 21.0625,-21.90625 0.28125,0 -0.375,-0.40625 z m -17.8125,20.75 -2.28125,2.46875 0.59375,0.6875 2.34375,-2.46875 -0.65625,-0.6875 z m 1.5,1.5625 -2.3125,2.40625 0.59375,0.6875 2.375,-2.40625 -0.65625,-0.6875 z m 1.5,1.59375 -2.34375,2.40625 0.59375,0.65625 2.375,-2.4375 -0.625,-0.625 z m 1.46875,1.5 -2.3125,2.46875 0.59375,0.625 2.34375,-2.46875 -0.625,-0.625 z m 1.46875,1.5625 -2.3125,2.40625 0.59375,0.65625 2.375,-2.4375 -0.65625,-0.625 z m 1.5,1.53125 -2.34375,2.4375 0.65625,0.625 2.34375,-2.40625 -0.65625,-0.65625 z m 1.46875,1.53125 -2.3125,2.46875 0.625,0.625 2.34375,-2.40625 -0.65625,-0.6875 z m 1.46875,1.53125 -2.28125,2.4375 0.59375,0.6875 2.375,-2.4375 -0.6875,-0.6875 z m 1.53125,1.5625 -2.34375,2.4375 0.59375,0.65625 2.375,-2.40625 -0.625,-0.6875 z m 1.46875,1.5625 -2.3125,2.40625 0.59375,0.6875 2.34375,-2.46875 -0.625,-0.625 z m 1.46875,1.53125 -2.3125,2.4375 0.59375,0.625 2.375,-2.40625 -0.65625,-0.65625 z m 1.5,1.5625 -1.875,1.9375 -0.84375,0 -18.90625,19.6875 0.625,0.625 19.5625,-20.3125 0.84375,0 1.21875,-1.28125 -0.625,-0.65625 z m 1.46875,1.5 -0.375,0.4375 -0.84375,0 -20.40625,21.21875 0.65625,0.65625 21.0625,-21.875 0.28125,0 -0.375,-0.4375 z m -17.8125,20.75 -2.28125,2.46875 0.59375,0.625 2.34375,-2.40625 -0.65625,-0.6875 z m 1.5,1.5625 -2.3125,2.40625 0.59375,0.6875 2.375,-2.40625 -0.65625,-0.6875 z m 1.5,1.53125 -2.34375,2.46875 0.59375,0.65625 2.375,-2.4375 -0.625,-0.6875 z m 1.46875,1.5625 -2.3125,2.4375 0.59375,0.6875 2.34375,-2.46875 L -81,187.6875 z m 1.46875,1.5625 -2.3125,2.40625 0.59375,0.65625 2.375,-2.4375 -0.65625,-0.625 z m 1.5,1.5625 -2.34375,2.40625 0.65625,0.65625 2.34375,-2.4375 -0.65625,-0.625 z m 1.46875,1.5 -2.3125,2.46875 0.625,0.625 2.34375,-2.40625 -0.65625,-0.6875 z m 1.46875,1.5625 -2.28125,2.40625 0.59375,0.6875 2.375,-2.4375 -0.6875,-0.65625 z m 1.53125,1.53125 -2.34375,2.4375 0.59375,0.6875 2.375,-2.4375 -0.625,-0.6875 z m 1.46875,1.5625 -2.3125,2.40625 0.59375,0.6875 2.34375,-2.46875 -0.625,-0.625 z m 1.46875,1.5625 -2.3125,2.40625 0.59375,0.65625 2.375,-2.4375 -0.65625,-0.625 z m 1.5,1.53125 L -71,202 l -0.84375,0 -18.90625,19.6875 0.625,0.625 19.5625,-20.3125 0.84375,0 1.21875,-1.28125 -0.625,-0.65625 z m 1.46875,1.53125 -0.375,0.40625 -0.84375,0 -20.40625,21.21875 0.65625,0.65625 21.0625,-21.875 0.28125,0 -0.375,-0.40625 z m -17.8125,20.71875 -2.28125,2.46875 0.59375,0.65625 2.34375,-2.4375 -0.65625,-0.6875 z m 1.5,1.5625 -2.3125,2.40625 0.59375,0.6875 2.375,-2.40625 -0.65625,-0.6875 z m 1.5,1.5625 -2.34375,2.46875 0.59375,0.625 2.375,-2.40625 -0.625,-0.6875 z m 1.46875,1.53125 -2.3125,2.4375 0.59375,0.6875 L -80.375,227.625 -81,226.96875 z m 1.46875,1.5625 -2.3125,2.40625 0.59375,0.65625 2.375,-2.4375 -0.65625,-0.625 z m 1.5,1.5625 -2.34375,2.40625 0.65625,0.65625 2.34375,-2.4375 -0.65625,-0.625 z m 1.46875,1.5 -2.3125,2.46875 0.625,0.625 2.34375,-2.40625 -0.65625,-0.6875 z m 1.46875,1.5625 -2.28125,2.40625 0.59375,0.6875 2.375,-2.40625 -0.6875,-0.6875 z m 1.53125,1.53125 -2.34375,2.4375 0.59375,0.6875 2.375,-2.4375 -0.625,-0.6875 z m 1.46875,1.5625 -2.3125,2.4375 0.59375,0.65625 2.34375,-2.4375 -0.625,-0.65625 z m 1.46875,1.5625 -2.3125,2.40625 0.59375,0.65625 2.375,-2.4375 -0.65625,-0.625 z m 1.5,1.53125 -1.875,1.9375 -0.84375,0 -18.90625,19.6875 0.625,0.625 19.5625,-20.3125 0.84375,0 L -68.5,240 l -0.625,-0.65625 z m 1.46875,1.53125 -0.375,0.40625 -0.84375,0 -20.40625,21.25 0.65625,0.625 21.0625,-21.875 0.28125,0 -0.375,-0.40625 z m -17.8125,20.71875 -2.28125,2.4375 0.59375,0.6875 2.34375,-2.4375 -0.65625,-0.6875 z m 1.5,1.5625 -2.3125,2.4375 0.59375,0.65625 2.375,-2.40625 -0.65625,-0.6875 z m 1.5,1.5625 -2.34375,2.46875 0.59375,0.625 2.375,-2.46875 -0.625,-0.625 z M -81,266.25 l -2.3125,2.4375 0.59375,0.625 2.34375,-2.40625 L -81,266.25 z m 1.46875,1.5625 -2.3125,2.4375 0.59375,0.625 2.375,-2.40625 -0.65625,-0.65625 z m 1.5,1.5 -2.34375,2.46875 0.65625,0.65625 2.34375,-2.4375 -0.65625,-0.6875 z m 1.46875,1.5625 -2.3125,2.4375 0.625,0.65625 2.34375,-2.40625 -0.65625,-0.6875 z m 1.46875,1.5625 -2.28125,2.40625 0.59375,0.6875 2.375,-2.40625 -0.6875,-0.6875 z m 1.53125,1.53125 -2.34375,2.4375 0.59375,0.6875 2.375,-2.46875 -0.625,-0.65625 z m 1.46875,1.5625 -2.3125,2.4375 0.59375,0.625 2.34375,-2.40625 -0.625,-0.65625 z m 1.46875,1.5625 -2.3125,2.40625 0.59375,0.65625 2.375,-2.4375 -0.65625,-0.625 z m 1.5,1.5 -1.875,1.96875 -0.84375,0 -6.5,6.78125 1.28125,0 6.5,-6.78125 0.84375,0 1.21875,-1.28125 -0.625,-0.6875 z m 1.46875,1.5625 -0.375,0.40625 -0.84375,0 -6.5,6.78125 1.25,0 6.5625,-6.78125 0.28125,0 -0.375,-0.40625 z" id="path7605" style="fill-opacity:0.4147465725"/>
<path d="m -72.89947032060338,87.54083562409512 -15.58592487004276,16.23480977426708 18.85899621612168,19.642949758454 0,-0.00119853027 -18.85899621612168,19.6441482887212 18.85899621612168,19.6409118062985 0,-0.00323648242 -18.85899621612168,19.6441482887211 18.85899621612168,19.6429497584556 0,-0.00119853027 -18.85899621612168,19.6441482887211 18.85899621612168,19.6409118062985 0,-0.00323648242 -18.85899621612168,19.6441482887212 18.85899621612168,19.6429497584554 0,-0.00119853027 -6.51258561565531,6.7837225327802" id="path270" style="stroke:#000000;stroke-opacity:0.3921568627;stroke-linejoin:round;fill:none;stroke-width:2.8102140427;stroke-linecap:round"/>
<path d="m -90.46875,64.125 -0.375,0.375 3,3.125 -2.625,-3.5 z m 16.53125,22.03125 -16.90625,17.625 18.875,19.625 -18.875,19.65625 18.875,19.65625 -18.875,19.625 18.875,19.65625 -18.875,19.625 18.875,19.65625 -18.875,19.59375 18.875,19.6875 -6.53125,6.78125 4.6875,0 6.5,-6.78125 L -86.15625,260.875 -67.3125,241.28125 -86.15625,221.625 -67.3125,202 -86.15625,182.34375 -67.3125,162.71875 -86.15625,143.0625 -67.3125,123.40625 -86.15625,103.78125 -71.875,88.875 -73.9375,86.15625 z" id="path7609" style="fill:#b58e6c;fill-opacity:0.4147465725"/>
<path d="m -127.3125,21.21875 -4.59375,6.09375 0,260.03125 4.59375,0 0,-266.125 z m 4.625,0 0,266.125 4.59375,0 0,-260.03125 -4.59375,-6.09375 z M -136.5,33.4375 l -4.5625,6.09375 0,247.8125 4.5625,0 0,-253.90625 z m 23,0 0,253.90625 4.59375,0 0,-247.78125 -4.59375,-6.125 z m -32.15625,12.46875 c -1.4990660752307,2.26568344847702 -3.0207510079536,4.39511419946017 -4.59375,6.46875 l 0,234.96875 4.59375,0 0,-241.4375 z m 41.3125,0 0,241.4375 4.59375,0 0,-234.96875 c -1.56928755957991,-2.07124054340963 -3.0981630808995,-4.20593842917427 -4.59375,-6.46875 z" id="rect7146" style="fill:#b58e6c;stroke:#000000;stroke-width:1.4051070213;stroke-opacity:0.1960784314"/>
<path d="m -136.34375,185.28125 -0.03125,0.03125 -17.5625,13.8125 90.78125,71.375 0,-27.71875 -73.1875,-57.5 z m -35.0625,27.59375 -0.125,0.09375 -15.3125,12.03125 0,3.40625 74.90625,58.9375 35.25,0 -94.71875,-74.46875 z" id="path7221" style="fill:#b58e6c;stroke:#000000;stroke-width:1.4051070213;stroke-opacity:0.1960784314"/>
<path d="m -118.71875,199.125 -17.625,13.84375 17.625,13.8125 17.625,-13.8125 -17.625,-13.84375 z m -35.125,27.53125 -17.5625,13.84375 17.59375,13.875 17.65625,-13.84375 -17.6875,-13.875 z M -83.5,226.78125 -101.09375,240.625 -83.5,254.53125 -65.875,240.625 -83.5,226.78125 z M -118.59375,254.375 -136.25,268.21875 -118.5625,282.125 -101,268.21875 -118.59375,254.375 z m 55.4375,11.8125 -2.71875,2.125 2.71875,2.15625 0,-4.28125 z m -20.25,15.875 -6.6875,5.28125 13.40625,0 -6.71875,-5.28125 z" id="path7223" style="fill:#b58e6c;stroke:#000000;stroke-width:1.4051070213;stroke-opacity:0.1960784314"/>
<path d="m -136.25,33.125 -6.53125,8.6875 79.625,62.5625 0,-3.875 L -81.25,76.40625 -136.25,33.125 z" id="path7207" style="fill:#b58e6c;stroke:#000000;stroke-width:1.4051070213;stroke-opacity:0.1960784314"/>
<path d="m -129.78125,24.46875 -6.46875,8.65625 55,43.28125 -13.03125,-17.375 c -3.77576075523226,-4.33069792162986 -7.37213793625,-9.08732130157627 -10.78125,-14.375 l -1.4375,-1.875 -23.28125,-18.3125 z" id="path7209" style="fill:#b58e6c;stroke:#000000;stroke-width:1.4051070213;stroke-opacity:0.1960784314"/>
<path d="m -125,18.125 -4.78125,6.34375 L -106.5,42.78125 -125,18.125 z m -17.78125,23.6875 -1.5625,2.0625 c -3.5741275295512,5.62535183437313 -7.3917581035256,10.62963492149803 -11.375,15.1875 -0.038289987978,0.0438137084303 -0.086680019333,0.0812683491091 -0.125,0.125 l 89.90625,70.6875 2.78125,-2.1875 0,-23.3125 -79.625,-62.5625 z" id="path7211" style="fill:#b58e6c;stroke:#000000;stroke-width:1.4051070213;stroke-opacity:0.1960784314"/>
<path d="m -125,18.125 -4.78125,6.375 11.0625,8.65625 3.15625,-2.46875 L -125,18.125 z m -17.75,23.65625 -1.71875,2.25 c -0.040568813401,0.0638271577624 -0.084374034727,0.12382732548359 -0.125,0.1875 -3.5259225412454,5.52614360868115 -7.2581374050331,10.48229382177702 -11.1875,14.96875 l 1.96875,1.5625 17.5625,-13.84375 -6.5,-5.125 z m 24.09375,18.96875 -17.5625,13.84375 17.625,13.875 17.625,-13.84375 -17.6875,-13.875 z m 35.25,27.71875 -17.65625,13.8125 17.6875,13.90625 17.5625,-13.90625 -17.59375,-13.8125 z" id="path7213" style="fill:#b58e6c;stroke:#000000;stroke-width:1.4051070213;stroke-opacity:0.1960784314"/>
<path d="m -162.65625,206 -8.75,6.875 94.6875,74.46875 13.5625,0 0,-3.125 -99.5,-78.21875 z" id="path7217" style="fill:#b58e6c;stroke:#000000;stroke-width:1.4051070213;stroke-opacity:0.1960784314"/>
<path d="m -153.9328123221045,199.1587601273681 -8.7368229769158,6.8521507733024 99.73484393455026,78.4342858517348 0,-13.7499825517601 -90.99802095763445,-71.5364540732771 z" id="path7219" style="fill:#b58e6c;stroke:#000000;stroke-width:1.4051070213;stroke-opacity:0.1960784314"/>
<path d="m -74.66830241559404,95.32583540925904 -112.39690621993534,88.43842598075636 0,13.7043015466048 121.13372919685109,-95.2448957489034 z" id="path7197" style="fill:#b58e6c;stroke:#000000;stroke-width:1.4051070213;stroke-opacity:0.1960784314"/>
<path d="m -83.40512539250977,88.47368463595664 -103.66008324301961,81.49491319714324 0,13.7499825517602 112.39690621993534,-88.39274497560113 -8.73682297691573,-6.85215077330243 z" id="path7199" style="fill:#b58e6c;stroke:#000000;stroke-width:1.4051070213;stroke-opacity:0.1960784314"/>
<path d="m -118.647865420165,88.42800363080128 -68.4173432153644,53.8122240730015 0,27.7283701292971 86.0598166663343,-67.6535686350724 -17.6424734509699,-13.88702556722626 z m 35.15832627908597,27.63700811898641 -103.57566949445035,81.4035511868325 0,27.728370129297 121.13372919685109,-95.2905767540587 -17.55805970240074,-13.8413445620708 z" id="path7201" style="fill:#b58e6c;stroke:#000000;stroke-width:1.4051070213;stroke-opacity:0.1960784314"/>
<path d="m -100.9631850949105,74.63234007388581 -17.6424734509699,13.84134456207083 17.6424734509699,13.79566355691556 17.60026657668533,-13.79566355691556 z m 35.0739125305168,27.54564610867568 -17.55805970240067,13.8413445620708 17.55805970240067,13.8413445620709 2.95448119992324,-2.3297312629229 0,-23.023226598296 z m -70.31665255817208,0.091362010311 -17.6002665766853,13.8413445620708 17.6002665766853,13.8413445620708 17.6002665766854,-13.8413445620708 z m 35.1161194048014,27.591327113831 -17.6424734509699,13.8870255672262 17.6002665766853,13.8413445620708 17.60026657668537,-13.8870255672262 z m -70.3588594324566,0.091362010311 -15.6165434853084,12.288190386789 0,3.1063083505638 15.6165434853084,12.3338713919443 17.6424734509699,-13.8870255672262 z m 35.158326279086,27.6370081189864 -17.64247345097,13.8413445620709 17.5580597024008,13.8870255672262 17.6846803252545,-13.8870255672262 z m -35.2427400276553,27.6370081189864 -15.5321297367391,12.1968283764782 0,3.2890323711852 15.5321297367391,12.2425093816336 17.6002665766853,-13.7956635569155 z" id="path7203" style="fill:#b58e6c;stroke:#000000;stroke-width:1.4051070213;stroke-opacity:0.1960784314"/>
<path d="m -100.9631850949105,74.63234007388581 -17.6424734509699,13.84134456207083 17.6424734509699,13.79566355691556 17.60026657668533,-13.79566355691556 -17.60026657668533,-13.84134456207083 z m 35.0739125305168,27.54564610867568 -17.55805970240067,13.8413445620708 17.55805970240067,13.8413445620709 2.95448119992324,-2.3297312629229 0,-23.023226598296 -2.95448119992324,-2.3297312629228 z m -70.31665255817208,0.091362010311 -17.6002665766853,13.8413445620708 17.6002665766853,13.8413445620708 17.6002665766854,-13.8413445620708 -17.6002665766854,-13.8413445620708 z m 35.1161194048014,27.591327113831 -17.6424734509699,13.8870255672262 17.6002665766853,13.8413445620708 17.60026657668537,-13.8870255672262 -17.55805970240078,-13.8413445620708 z m -70.3588594324566,0.091362010311 -15.6165434853084,12.288190386789 0,3.1063083505638 15.6165434853084,12.3338713919443 17.6424734509699,-13.8870255672262 -17.6424734509699,-13.8413445620709 z m 35.158326279086,27.6370081189864 -17.64247345097,13.8413445620709 17.5580597024008,13.8870255672262 17.6846803252545,-13.8870255672262 -17.6002665766853,-13.8413445620709 z m -35.2427400276553,27.6370081189864 -15.5321297367391,12.1968283764782 0,3.2890323711852 15.5321297367391,12.2425093816336 17.6002665766853,-13.7956635569155 -17.6002665766853,-13.9327065723815 z" id="path7706" style="fill:#b58e6c;stroke:#000000;stroke-width:1.4051070213;stroke-opacity:0.1960784314"/>
<path d="m -125,18.125 -19.53125,26 c -3.6041667428067,5.64971119129389 -7.4178130874251,10.67962977318656 -11.4375,15.25 l -30.875,41.125 0,186.84375 123.6875,0 0,-186.84375 -31,-41.3125 C -98.08020239931241,54.70483437401136 -101.8488308945308,49.79745037125591 -105.375,44.28125 L -125,18.125 z" id="path8251" style="fill:none;stroke:#b58e6c;stroke-width:4.215321064"/>
</g>
<path d="M 100.3919984321676,242.4697282499641 83.79604646651067,247.5481280452086 87.6959992160838,264.4598439450759 75,252.626527840453 62.3040007839162,264.4598439450759 66.20395353348918,247.5481280452086 49.60800156783239,242.4697282499641 66.20395353348918,237.3913284547197 62.30400078391608,220.4796125548525 75,232.3129286594753 87.69599921608369,220.4796125548525 83.79604646651067,237.3913284547197 z" id="path60" style="fill:#c6d2e1"/>
<path d="M 75,7 6.5,98.25 6.5,294 l 137,0 0,-195.75 L 75,7 z m 0,11.125 61.84375,82.375 0,186.84375 -123.6875,0 0,-186.84375 L 75,18.125 z" id="rect21" style="fill:#b58e6c"/>
<path d="m 75,18.125 -61.84375,82.375 0,186.84375 123.6875,0 0,-186.84375 L 75,18.125 z" id="path1262" style="fill:none;stroke:#b58e6c;stroke-width:2"/>
<path d="M 6.499995494115362,98.25472401103809 74.99999549411529,6.998051227870067 143.4999954941154,98.25472401103809 l 0,195.74332721683191 -137.000000000000056,0 z" id="path8287" style="fill:none;stroke:#000000;stroke-width:3"/>
<path d="m 68.17116645635549,138.9076184439394 c 0.94261288036587,0.1961884544756 1.49005983222612,0.9851258017095 3.27771939911618,-0.086255773601 2.42578557020056,-6.2485728021459 5.43782291896582,-11.7727408465487 10.4622214640721,-16.7220071612415 l -1.45513987724604,-0.5088654999246 c -5.79152886097977,5.4464695221474 -9.31819543543217,11.2428981769595 -12.28480098594224,17.317128434767 z" id="path338" style="fill:#b58e6c;stroke:#000000;stroke-opacity:0.3921568627;stroke-linecap:round;stroke-linejoin:round"/>
<path d="m 93.11779874800649,60.48355145026251 c -0.41887029077202,-2.73633980586081 -3.76027024232201,-3.50673357279603 -4.61826104622344,-3.52219225506177 -1.22634433992431,-0.0220954203859 -2.26976655528881,2.92420761062833 0.22507345854149,6.57169838884419 -0.79034488300539,0.86034382462238 -1.84708353254098,1.76196415619943 -1.84370781829682,2.7846981421517 0.002579700467,0.78156714426353 0.48102713054419,1.4275218855969 3.02324911269511,3.40822205310629 -1.72247902884385,0.51045631950848 -2.11604180985836,1.26245216353591 -2.05972200639195,2.19503184228566 0.14745959124923,2.44173114556403 2.51944134508801,2.56175030428757 4.19000895726873,4.34225331339619 -1.5077493321906,0.2145325901994 -2.14239880326966,1.79746132992361 -1.82933997339478,2.75074807724066 0.36749208189576,1.1190399311061 2.65687844943096,0.9185027325329 3.86143996250075,2.42291222887444 -0.85142645636172,0.50425025418519 -2.68033675144272,1.06493673967097 -2.26865473188043,2.97254707127162 0.44463059315565,2.06028408564083 3.71446371858856,1.02128636621113 6.70927420769728,2.83615689239653 4.24807306169947,-2.61165956373726 4.80643669530107,-9.04961554330993 0.77237210856276,-6.99426286343078 -0.0739556174135,-1.68279989975817 3.21493024395521,-6.70467053655362 -0.8798581682084,-6.26997414371317 2.1175304014954,-2.61105228942064 1.57752958558014,-5.51791229084292 -0.81428447239864,-4.94401764934676 0.49952012125995,-3.23354733825208 1.03894374878918,-5.21610300240764 -1.29973180714994,-5.5027837101719 0.44812078239937,-3.57464331843322 -1.30062238665732,-3.41358656079382 -3.16785778332172,-3.0510373878429 z" id="path380" style="fill:#b58e6c;stroke:#000000;stroke-opacity:0.3921568627;stroke-linecap:round;stroke-linejoin:round"/>
<path d="m 90.52772023915504,61.44144147202407 c 1.26117465258642,3.43103244410641 1.14773493151938,6.59618034929251 2.36353556787482,10.0375075887552 1.54620775787936,4.3765455584967 3.51242453801524,8.78722919423126 4.8602990046857,12.77304425724626" id="path382" style="fill:#b58e6c;stroke:#000000;stroke-opacity:0.3921568627;stroke-linecap:round;stroke-linejoin:round"/>
<path d="m 102.2261758444516,103.6853030246136 c 2.1605005548533,-1.7306776725054 1.1573523120005,-5.00972536889748 0.7418295065386,-5.76054358163458 -0.5939155038382,-1.07316029649202 -3.66726432994683,-0.50398680524704 -5.57911498545293,3.48013703103368 -1.14022325874113,-0.2544159013985 -2.44936612525606,-0.7189164404602 -3.33345008985755,-0.2047260622898 -0.67561163410386,0.3929411860702 -0.99588459296183,1.1302299375255 -1.44047157204477,4.3221585360585 -1.30316768474802,-1.2366299544979 -2.15120055445651,-1.2015633902506 -2.93073664240477,-0.6865874053094 -2.04102404159802,1.3483383032043 -0.95921212598746,3.4626668061214 -1.66615368616255,5.7995922954788 -0.93952967287682,-1.1985892852695 -2.62773827345768,-0.9569385722333 -3.2968640359631,-0.2092540347948 -0.78547032074306,0.8776885398008 0.53268008806691,2.7602359117471 -0.16809921807908,4.5555422186288 -0.86235182764956,-0.4853294291387 -2.26222815425433,-1.7890274281674 -3.70857446374248,-0.4788588834791 -1.56210324215591,1.4150266212198 0.97234999149167,3.7275732122341 0.89763496453412,7.2285820036024 4.38553141087441,2.3736058347229 10.24045624827295,-0.3611523430065 6.44371547105418,-2.8275081971496 1.42047213545885,-0.905286611167 7.41394439097918,-0.5672848003373 4.99046888400744,-3.8964017345172 3.31994299168406,0.5286847749973 5.56757462971224,-1.3921452457992 3.8748622578445,-3.1767612755405 3.05022822122099,-1.1838312965656 5.03694291908168,-1.7077296843429 4.11612340423008,-3.876526725382 3.319950677509,-1.3988618904468 2.3062621669253,-2.8329042726706 1.0588302054981,-4.2688441847052 z" id="path350" style="fill:#b58e6c;stroke:#000000;stroke-opacity:0.3921568627;stroke-linecap:round;stroke-linejoin:round"/>
<path d="m 100.1017791983368,101.9209337702393 c -2.34109173226263,2.807460531863 -5.13907808398335,4.2914761003813 -7.51176851317854,7.0647854022148 -3.01749500614284,3.5269864394447 -5.8545930493018,7.4348008227704 -8.63283061114987,10.5946874258617" id="path352" style="fill:#b58e6c;stroke:#000000;stroke-opacity:0.3921568627;stroke-linecap:round;stroke-linejoin:round"/>
<path d="m 103.7257468689551,66.22334231017727 c 0.5577326219981,-2.71144650988892 -2.3079827633065,-4.59456507301266 -3.1071753873419,-4.90710041521243 -1.14230286215042,-0.44671335192677 -3.14420363160457,1.9536667803311 -2.07174561706967,6.24065284035494 -1.03998563671382,0.53222777650909 -2.34411449247001,1.01062481174171 -2.69621493561618,1.97084430717216 -0.2690730352402,0.73379394761288 -0.0448037783547,1.5057219051415 1.65107682896348,4.24616981120073 -1.79253442912858,-0.11966611601312 -2.42280943767315,0.44879041322939 -2.69394589615467,1.3428607674866 -0.70990431215451,2.34090392495153 1.47267982492883,3.2774019353909 2.4207274872582,5.52733365485784 -1.4883815670787,-0.32257183968757 -2.63337067182448,0.94132819441306 -2.67094860136008,1.94399930339385 -0.044111809796,1.17701102199702 2.17237157278322,1.7842231123051 2.77933829347734,3.61337804598951 -0.97356775268706,0.17709082519062 -2.88335421671876,0.0675560623948 -3.1599526667477,1.99938228643826 -0.29873574034865,2.08643807369242 3.12839565964943,2.24797845968449 5.30628549483386,4.99013833071544 4.89074870024282,-0.97337945605466 7.65068771154901,-6.81647656256537 3.15386456477941,-6.29042208312609 0.5152020007274,-1.60369942146896 5.3437257517186,-5.17039443056788 1.3529256786505,-6.18516921894978 2.89266703152,-1.71289418940681 3.3960455067613,-4.62631933169574 0.9538200003082,-4.91900367209186 1.5916479667322,-2.85867198017864 2.7861590297591,-4.53039209183565 0.692700099588,-5.61160386195266 1.661935462712,-3.19638195580842 -0.0338570708,-3.65281336772945 -1.9107553435685,-3.96146009627651 z" id="path368" style="fill:#b58e6c;stroke:#000000;stroke-opacity:0.3921568627;stroke-linecap:round;stroke-linejoin:round"/>
<path d="m 100.9642150821363,66.22187051048642 c -0.00919435317,3.65546995620366 -1.21504386497379,6.58411414539664 -1.2703628208707,10.2334763046717 -0.0703524872482,4.64111624328265 0.24129097978472,9.46014279544849 0.12068330899014,13.66596507940261" id="path370" style="fill:#b58e6c;stroke:#000000;stroke-opacity:0.3921568627;stroke-linecap:round;stroke-linejoin:round"/>
<path d="m 112.7352156415999,80.55028407757086 c 1.5985305770216,-2.26002386004153 -0.2711586282672,-5.1345190275413 -0.8778704969902,-5.7413863102213 -0.8671860616571,-0.86740819810156 -3.6638297433681,0.52837673792038 -4.4010610804603,4.88554389415712 -1.166141140502,0.0703659796177 -2.5526503969062,-0.0145332408777 -3.2603524593346,0.7238122015156 -0.5408216481694,0.5642391343376 -0.6450273206427,1.36130290156243 -0.190831062419,4.5518783228804 -1.5940002614213,-0.82865120860437 -2.3993696489921,-0.56075279203928 -3.0063726701443,0.14947541761703 -1.58928852512193,1.85955836213462 0.034352470237,3.59290540101534 2.764368688e-4,6.03418087425905 -1.23399843107252,-0.89251339098595 -2.78981876167974,-0.19403902133769 -3.22643967043912,0.70935659278003 -0.51253857565186,1.06047395353909 1.27424043552952,2.50578564070878 1.0965116635781,4.42480332042734 -0.96284577245615,-0.22830538298928 -2.66831548002442,-1.09470902969628 -3.69659394591554,0.56393579637263 -1.110575741695,1.79139286586539 1.96395496736028,3.31408319821634 2.85899573516332,6.69957384455734 4.87048412061155,1.0701751470061 9.74247530025994,-3.1751456992514 5.41227001982175,-4.49706625583747 1.1152240552754,-1.26236295989253 6.9689582183524,-2.59268294013862 3.7203499602505,-5.12305790834542 3.3368361533187,-0.4087218433726 4.9665962466458,-2.87556557317326 2.8468667594256,-4.12331412496283 2.6046762854144,-1.98015408199993 4.3694475750138,-3.03233615123409 2.8854958907774,-4.86249368079365 2.8045258699915,-2.26130973866604 1.4342290776937,-3.35963967612659 -0.1612450801824,-4.39524198440587 z" id="path1391" style="fill:#b58e6c;stroke:#000000;stroke-opacity:0.3921568627;stroke-linecap:round;stroke-linejoin:round"/>
<path d="m 110.2061811851978,79.44121027744067 c -1.4747307741996,3.34480407205965 -3.7540748109768,5.5438085272682 -5.2686067484663,8.86451588666543 -1.9261225576606,4.22314590666662 -3.5736929533673,8.76249061182115 -5.37124212179225,12.5667388005642" id="path1393" style="fill:#b58e6c;stroke:#000000;stroke-opacity:0.3921568627;stroke-linecap:round;stroke-linejoin:round"/>
<path d="m 101.6102700759798,79.56398384987278 c 0.6340510609258,-2.69462188549133 -2.17736425571744,-4.65788552283024 -2.96741591652349,-4.99285651216272 -1.1292374907418,-0.47878109525048 -3.19810017364085,1.86413133789499 -2.24708573160188,6.17968312217616 -1.05459530801119,0.50265820094741 -2.37170899767187,0.94405068416809 -2.75077490550213,1.89394817284216 -0.2896798807314,0.72590593229853 -0.0872905460293,1.50385710582876 1.53055486203557,4.29108547747438 -1.78844206314592,-0.17021940460269 -2.43451270861972,0.38021872370169 -2.73077959027177,1.2662789430523 -0.77570216123384,2.31993135142534 1.37957604122975,3.31766774396137 2.26373317401406,5.59346502774082 -1.47868263747891,-0.36445841820054 -2.65889374977108,0.86661634663233 -2.7247608396774,1.86782710368614 -0.0773197612979,1.17529675068846 2.12113950196499,1.84483537962731 2.67622961307747,3.69039527841062 -0.97817882581622,0.14953766804207 -2.88411219301516,-0.0138642972392 -3.21513342347475,1.90938405059465 -0.35751419554992,2.077173675429 3.06369137744826,2.335393265013 5.16330560122879,5.1379394294482 4.91627695676193,-0.8349319126784 7.84005933570504,-6.59779090304295 3.33017836667028,-6.198885683977 0.56026709115785,-1.58851683105304 5.48754990964896,-5.01748736583751 1.52698601782686,-6.14451298805342 2.9398671081219,-1.63055525693791 3.5252872839607,-4.52860963302872 1.0922971373009,-4.89011826880345 1.6717103685184,-2.81260256418301 2.912935948389,-4.44993694398667 0.8508325217029,-5.58981353458807 1.751502979134,-3.14819383198088 0.069270716782,-3.65231342692579 -1.7981668868054,-4.01381961784077 z" id="path362" style="fill:#b58e6c;stroke:#000000;stroke-opacity:0.3921568627;stroke-linecap:round;stroke-linejoin:round"/>
<path d="m 98.84988033452066,79.48455809176019 c -0.11237997644986,3.6537536695474 -1.40042086146845,6.54719115989337 -1.55873464415663,10.19353742741124 -0.20133728479158,4.63728074995217 -0.0258530272508,9.46318417173538 -0.26513767120453,13.66392579121496" id="path364" style="fill:#b58e6c;stroke:#000000;stroke-opacity:0.3921568627;stroke-linecap:round;stroke-linejoin:round"/>
<path d="m 113.0508492198379,98.3963413959551 c 2.2763321901108,-1.57522049691322 1.5051439194746,-4.91643716806553 1.1431897296603,-5.69449651985859 -0.5173487524251,-1.11209663070727 -3.622997172788,-0.75942205099285 -5.8090075172853,3.08112145813837 -1.1196205726267,-0.33359601917563 -2.3930427264945,-0.88858413956592 -3.3109467489433,-0.43753158493328 -0.7014567183521,0.34469164208788 -1.0725469805316,1.05775649784357 -1.7394462090156,4.21074098546009 -1.2134204263331,-1.32480584535638 -2.0618279723713,-1.34917894240608 -2.8754954848066,-0.89002542049111 -2.13038880485819,1.20218087591007 -1.19921128143763,3.38704024412611 -2.06798020680117,5.66875619196752 -0.85333662147619,-1.2614075041107 -2.55431832757293,-1.1385068055342 -3.27413350284077,-0.4394878021967 -0.84497337910969,0.8205612629548 0.33818538556409,2.7907491843073 -0.48652856843259,4.5326054543636 -0.82626896786256,-0.5444951075868 -2.13146679764688,-1.9429731473093 -3.66596470069453,-0.7372470391061 -1.65730996353203,1.3022252350084 0.70907332560884,3.7864867063585 0.38950654735531,7.2736807025004 4.20864855241335,2.674727607938 10.24062062306464,0.3564609966256 6.62581037353253,-2.3695798300203 1.48034956652866,-0.8036479931238 7.43546737827592,-0.046993018892 5.25093924092562,-3.5375645926404 3.2747989622149,0.7597504961641 5.6513572930378,-0.9990577507048 4.0877009044819,-2.8977700106356 3.1256043030547,-0.9674432701647 5.1441145455292,-1.3510071011483 4.3773468652879,-3.5789336054768 3.4097152730208,-1.1630687196235 2.4988809929678,-2.66454228408746 1.3550092775766,-4.18426838707174 z" id="path356" style="fill:#b58e6c;stroke:#000000;stroke-opacity:0.3921568627;stroke-linecap:round;stroke-linejoin:round"/>
<path d="m 111.0551501057658,96.48761275576109 c -2.5318443431253,2.63672322381815 -5.4268351910917,3.9212689887523 -7.9878105034079,6.52171314430291 -3.25694836573804,3.3071432988368 -6.36059623411714,7.0068065902904 -9.35318063382438,9.9644958750342" id="path358" style="fill:#b58e6c;stroke:#000000;stroke-opacity:0.3921568627;stroke-linecap:round;stroke-linejoin:round"/>
<path d="m 104.1122107815644,113.4384854772098 c 2.618389013972,-0.8983578491565 2.7828773816768,-4.3234715362102 2.6456553437536,-5.1705590775806 -0.1961343510383,-1.2107600769802 -3.280944244307,-1.7141281256993 -6.4271619773944,1.3890524439398 -0.98707315186019,-0.6249184935138 -2.06209494788769,-1.5046593268285 -3.06795857161839,-1.319633458573 -0.76867491519391,0.1413956526855 -1.31934991892946,0.7269949281795 -2.816875808605,3.5806736013757 -0.80835944008243,-1.6043860740366 -1.6183140891381,-1.8580844747164 -2.5260513628635,-1.6369740512418 -2.3766874013554,0.5789234098802 -2.07337945100993,2.9344926247966 -3.52875543145234,4.894816033794 -0.4789936297734,-1.4456477384258 -2.14949453598545,-1.7889698445169 -3.03199595565161,-1.3115259233489 -1.03594677115103,0.560459708639 -0.43185647140596,2.777795952338 -1.6983241886022,4.2304748200688 -0.64749670092857,-0.7482936266769 -1.52419629079509,-2.4484936242029 -3.3283171433186,-1.7044457682486 -1.94851192586499,0.8035970088776 -0.34510922082592,3.8368171945273 -1.5990345840641,7.1064220752308 3.32484399230502,3.7164906620667 9.75958047726738,3.1221729765329 7.02021489336822,-0.482550026197 1.64288902025784,-0.3717534170518 7.16918634611439,1.9725999624644 6.01390563298891,-1.979814434865 2.94572388307482,1.6199505745633 5.71039966260594,0.5720938175911 4.72069384411827,-1.6797081142703 3.27085217505436,-0.082914348595 5.31770408064864,0.095697207518 5.18432361021834,-2.2567055713992 3.5973898240659,-0.1940967370788 3.1282051542296,-1.8864051298058 2.4396816991228,-3.6595225486847 z" id="path340" style="fill:#b58e6c;stroke:#000000;stroke-opacity:0.3921568627;stroke-linecap:round;stroke-linejoin:round"/>
<path d="m 102.7093939237383,111.0597957456131 c -3.15238196688392,1.8506844873458 -6.28732996351624,2.3013849315778 -9.45790431325048,4.1092462783733 -4.03221260945243,2.2991674424229 -8.02339936458043,5.0177271432046 -11.70633443780976,7.0522975010042" id="path342" style="fill:#b58e6c;stroke:#000000;stroke-opacity:0.3921568627;stroke-linecap:round;stroke-linejoin:round"/>
<path d="m 58.89955787180245,58.70100893462579 c 0,0 -4.02752267206921,2.63100889810498 -5.32221685741078,4.58112600012474 -3.80414127371146,6.11636340257041 -4.41723359376312,12.0119187984164 -2.90249211844401,18.62759066060573 1.08790025560414,5.02377806132479 -1.43048623863396,11.92916465475436 -1.38658573094846,12.20882405502954 0.32963040213002,-0.14380582669212 0.43765902487744,0.24528885424061 0.76811644675586,-0.29612734096284 1.62663404059302,-2.66505139524628 2.57292943116099,-8.61367945313171 2.68509340358228,-10.61611985736508 0,0 7.47312576425713,-9.15699286192009 8.30714189385759,-14.73275950520039 0.49340784640486,-3.29864964702135 -2.14905703739236,-9.7725340122317 -2.14905703739236,-9.7725340122317 z" id="path484" style="fill:#b58e6c;stroke:#000000;stroke-opacity:0.3921568627;stroke-linecap:round;stroke-linejoin:round"/>
<path d="M 57.72868936776215,62.86255843497476 C 56.43007584016411,68.89685303832324 54.06678955013826,75.17491789274923 51.5516012998533,81.48776261597464" id="path486" style="fill:#b58e6c;stroke:#000000;stroke-opacity:0.3921568627;stroke-linecap:round;stroke-linejoin:round"/>
<path d="m 52.65455996642337,68.83647922353883 c 0,0 -3.34385218613815,3.45858341712291 -4.17389154274673,5.64724154749138 -2.35318072784559,6.80763781092634 -1.6437153243808,12.69237352798972 1.30029241655208,18.8074675049081 2.17480217269516,4.65747876916593 1.25032764530156,11.94939082206939 1.35514762481998,12.21235356968019 0.2895364835559,-0.2133188751355 0.48115457412515,0.1421348650747 0.68333038793826,-0.4590793599833 0.99518436918004,-2.9593994851422 0.59885857212425,-8.96977190287703 0.26420419206199,-10.94723360291593 0,0 5.25659017404592,-10.58614125655734 4.83345948539647,-16.20803746558451 -0.25032609613242,-3.3259401140554 -4.262542564022,-9.05271219359629 -4.262542564022,-9.05271219359629 z" id="path442" style="fill:#b58e6c;stroke:#000000;stroke-opacity:0.3921568627;stroke-linecap:round;stroke-linejoin:round"/>
<path d="m 52.43563214296407,73.15405932189526 c 0.0717744364873,6.1720302076649 -0.84056493020793,12.8178452280353 -1.89331252476191,19.53125739593376" id="path444" style="fill:#b58e6c;stroke:#000000;stroke-opacity:0.3921568627;stroke-linecap:round;stroke-linejoin:round"/>
<path d="m 65.78383038709395,68.85958907709444 c 0,0 1.01011431870177,4.7034897426371 0.55769920155063,7.00011994946625 -1.60123579612544,7.02263739829027 -5.31432635098628,11.64285537472796 -11.04598530367198,15.27736243557048 -4.30817582859569,2.80383558817117 -7.37817329796724,9.48228975639992 -7.60616039347511,9.65009475936212 -0.13300614977575,-0.334134227401 -0.48356561983732,-0.1337024135264 -0.33736164601757,-0.7509203670424 0.71967020541885,-3.03817577449895 4.2333674641977,-7.93057623960011 5.56278888531651,-9.43223765759218 0,0 1.13411175479425,-11.76485943346958 4.4652013871189,-16.31333153145698 1.97068821972795,-2.69089738513266 8.4038178691785,-5.43108758830731 8.4038178691785,-5.43108758830731 z" id="path496" style="fill:#b58e6c;stroke:#000000;stroke-opacity:0.3921568627;stroke-linecap:round;stroke-linejoin:round"/>
<path d="m 63.68725614462901,72.64030379040464 c -3.32365898650341,5.20119211291957 -6.06240978028837,11.32479109509875 -8.71770892190282,17.5799942814443" id="path498" style="fill:#b58e6c;stroke:#000000;stroke-opacity:0.3921568627;stroke-linecap:round;stroke-linejoin:round"/>
<path d="m 56.20464135479151,81.8554643296345 c 0,0 3.00162011084455,3.75944456085099 3.62085748473822,6.01681799471622 1.69852425722297,6.99974338460225 0.43546117311445,12.79095459331818 -3.07391528889133,18.60007094377428 -2.60571025869993,4.430817872955 -2.37530231281133,11.777486962927 -2.50453211491128,12.0293525877878 -0.26805460050677,-0.2397562281698 -0.49244411101727,0.095973129551 -0.63682948201122,-0.5216727793205 -0.71071836755073,-3.0402823295454 0.25249688636279,-8.9861941277392 0.77274622607198,-10.9231218377345 0,0 -4.23140843348574,-11.03600061755556 -3.27826395179831,-16.59264278362845 0.56388473715414,-3.28733551678144 5.09993712680194,-8.60880412559483 5.09993712680194,-8.60880412559483 z" id="path490" style="fill:#b58e6c;stroke:#000000;stroke-opacity:0.3921568627;stroke-linecap:round;stroke-linejoin:round"/>
<path d="m 56.01408211000148,86.17438948201132 c -0.65541497397777,6.13755160189685 -0.37595771110031,12.83987388922598 0.0368822496181,19.62277471415048" id="path492" style="fill:#b58e6c;stroke:#000000;stroke-opacity:0.3921568627;stroke-linecap:round;stroke-linejoin:round"/>
<path d="m 44.00165439948367,77.04727470560965 c 0,0 -2.00620857806999,4.37244483523998 -2.06267836090663,6.71253049793992 0.0399817495667,7.20276291171375 2.6626081239173,12.51833310868773 7.46954372486263,17.30946304363822 3.59750109816543,3.6714927242596 5.14593208854481,10.8568247282181 5.33209700839891,11.070083391238 0.20231038804002,-0.2973328516834 0.5010535590418,-0.025639326102 0.49219808578883,-0.659875232289 -0.0435899250111,-3.1219444517412 -2.41253573818924,-8.6599717604042 -3.38461670238266,-10.41422571245 0,0 1.44456247877348,-11.730787109422 -0.82071703533105,-16.89346715836262 -1.34014996459916,-3.05426568410024 -7.02582672043003,-7.12450882971459 -7.02582672043003,-7.12450882971459 z" id="path436" style="fill:#b58e6c;stroke:#000000;stroke-opacity:0.3921568627;stroke-linecap:round;stroke-linejoin:round"/>
<path d="m 45.22832355153163,81.1927192039743 c 2.11645743671155,5.79825114777286 3.4618691430343,12.37009166208033 4.6972720635322,19.05230387495959" id="path438" style="fill:#b58e6c;stroke:#000000;stroke-opacity:0.3921568627;stroke-linecap:round;stroke-linejoin:round"/>
<path d="m 37.8073452253594,86.9076802206858 c 0,0 -0.34713519769608,4.79819172714672 0.41983768510258,7.00973922656853 2.56097989030614,6.73221910695916 6.87971789859543,10.79201684011687 13.06057520798829,13.59532896083057 4.65580914767267,2.178374200187 8.62352053806555,8.36577275383 8.87260216857199,8.500290321759 0.0853148631754,-0.3493675599142 0.46031216082361,-0.1995614157829 0.22980952430476,-0.7904946934556 -1.1346195006817,-2.908792847556 -5.29369531499514,-7.2658261396097 -6.81877610558345,-8.5683148771405 0,0 -2.75695234414101,-11.49336072407874 -6.68742736406698,-15.53515768613518 C 44.55867892084621,88.72792547020604 37.8073452253594,86.9076802206858 37.8073452253594,86.9076802206858 z" id="path430" style="fill:#b58e6c;stroke:#000000;stroke-opacity:0.3921568627;stroke-linecap:round;stroke-linejoin:round"/>
<path d="m 40.40864585309103,90.3606010627804 c 4.01376204568553,4.68922410369518 7.5763816946984,10.37314542981079 11.07463469808175,16.19898497087649" id="path432" style="fill:#b58e6c;stroke:#000000;stroke-opacity:0.3921568627;stroke-linecap:round;stroke-linejoin:round"/>
<path d="m 42.94216115749268,98.90922098212412 c 0,0 0.51489032062025,4.78309885468308 1.66429538571499,6.82223046923907 3.72151697826535,6.1669849588872 8.69555155512083,9.3907150416704 15.277525716502,11.0457594713237 4.96986890370469,1.3123551560385 9.97827907982359,6.6921750458515 10.24737133209815,6.780072682356 0.0215845954314,-0.3589852685544 0.41729935050931,-0.2785198307769 0.0850200356726,-0.8188198039721 -1.63560207371383,-2.659556936368 -6.50559339931635,-6.2042480690096 -8.23866985750527,-7.2136014854533 0,0 -4.76417989438199,-10.8166869648533 -9.3529735947914,-14.092008161291 -2.71475183387591,-1.93769535199904 -9.68256901769104,-2.52363317220303 -9.68256901769104,-2.52363317220303 z" id="path424" style="fill:#b58e6c;stroke:#000000;stroke-opacity:0.3921568627;stroke-linecap:round;stroke-linejoin:round"/>
<path d="m 46.11801464823015,101.8423731948432 c 4.78630539746157,3.8974849706307 9.30626132028686,8.854219668062 13.78821588838704,13.9620825952962" id="path426" style="fill:#b58e6c;stroke:#000000;stroke-opacity:0.3921568627;stroke-linecap:round;stroke-linejoin:round"/>
<path d="m 82.05063530970952,138.9076184439394 c -0.94261288036581,0.1961884544756 -1.49005983222611,0.9851258017095 -3.27771939911617,-0.086255773601 -2.42578557020056,-6.2485728021459 -5.43782291896582,-11.7727408465487 -10.46222146407213,-16.7220071612415 l 1.45513987724604,-0.5088654999246 c 5.7915288609798,5.4464695221474 9.3181954354322,11.2428981769595 12.28480098594225,17.317128434767 z" id="path412" style="fill:#b58e6c;stroke:#000000;stroke-opacity:0.3921568627;stroke-linecap:round;stroke-linejoin:round"/>
<path d="m 39.79301701260448,109.0631206862174 c 0,0 1.66575193728116,4.5131382849834 3.27771940029951,6.2104157058305 5.11304636079441,5.0732779359133 10.72305563048496,6.9867176690592 17.50992205949444,6.9867176690594 5.13986169688844,0.060784146371 11.30899258342276,4.0568395318585 11.59139577570948,4.0764627763296 -0.0666091375691,-0.3534112909788 0.33678146933441,-0.3718740189693 -0.11722397748332,-0.8148329994211 -2.23478325955216,-2.1804084535118 -7.82215981717809,-4.4304915498805 -9.74905632438446,-4.9867452507503 0,0 -7.25810755062478,-9.3283439980109 -12.50708718535313,-11.385762127356 -3.10532092303142,-1.2171781963506 -10.00566974828255,-0.086255773692 -10.00566974828255,-0.086255773692 z" id="path414" style="fill:#b58e6c;stroke:#000000;stroke-opacity:0.3921568627;stroke-linecap:round;stroke-linejoin:round"/>
<path d="m 43.58827114303108,111.1332591799149 c 5.59224933065454,2.6126338966367 11.18449866130914,6.3174912257112 16.77674799196368,10.1781813010371" id="path416" style="fill:#b58e6c;stroke:#000000;stroke-opacity:0.3921568627;stroke-linecap:round;stroke-linejoin:round"/>
</svg>
