<?xml version="1.0" encoding="utf8" standalone="no"?>
<svg height="300" id="svg2" version="1.1" width="150" xmlns="http://www.w3.org/2000/svg" xmlns:svg="http://www.w3.org/2000/svg">
<path d="M 6.499995494115362,98.25472401103809 74.99999549411529,6.998051227870066 143.4999954941154,98.25472401103809 l 0,195.74332721683191 -137.000000000000056,0 z" id="rect21" style="fill:#b58e6c;stroke:#000000;stroke-width:3"/>
<path d="m 75,18.125 -61.84375,82.375 0,186.84375 123.6875,0 0,-186.84375 L 75,18.125 z" id="path810" style="fill:#0b2811"/>
<path d="m -48.29600906372071,166.5254211425781 -14.54553767204942,4.4509682655335 3.41811724663439,14.8222892684651 -11.12742042541504,-10.3713210029317 -11.12742042541504,10.3713210029317 3.4181172466344,-14.8222892684651 -14.54553767204942,-4.4509682655335 14.54553767204942,-4.4509682655334 -3.41811724663441,-14.8222892684651 11.12742042541505,10.3713210029316 11.12742042541502,-10.3713210029316 -3.41811724663437,14.8222892684651 z" id="path60" style="fill:#ffffff" transform="matrix(1.140965177076092,0,0,1.140965177076092,155.4960629656242,52.47002162835168)"/>
<path d="m 75,18.125 -61.84375,82.375 0,186.84375 123.6875,0 0,-186.84375 L 75,18.125 z" id="path1262" style="fill:none;stroke:#b58e6c;stroke-width:2"/>
</svg>
