<?xml version="1.0" encoding="utf8" standalone="no"?>
<svg height="300" id="svg2" version="1.1" width="150" xmlns="http://www.w3.org/2000/svg" xmlns:svg="http://www.w3.org/2000/svg">
<path d="M 6.499995494115362,98.25472401103809 74.99999549411529,6.998051227870066 143.4999954941154,98.25472401103809 l 0,195.74332721683191 -137.000000000000056,0 z" id="rect21" style="fill:#b58e6c;stroke:#000000;stroke-width:3"/>
<path d="m 75,18.125 -61.84375,82.375 0,186.84375 123.6875,0 0,-186.84375 L 75,18.125 z" id="path810" style="fill:#0b2811"/>
<path d="m -48.29600906372071,166.5254211425781 -14.54553767204942,4.4509682655335 3.41811724663439,14.8222892684651 -11.12742042541504,-10.3713210029317 -11.12742042541504,10.3713210029317 3.4181172466344,-14.8222892684651 -14.54553767204942,-4.4509682655335 14.54553767204942,-4.4509682655334 -3.41811724663441,-14.8222892684651 11.12742042541505,10.3713210029316 11.12742042541502,-10.3713210029316 -3.41811724663437,14.8222892684651 z" id="path60" style="fill:#c6d2e1" transform="matrix(1.140965177076092,0,0,1.140965177076092,155.4960629656242,52.47002162835168)"/>
<path d="m 74.99999549411529,86.63886469599623 -61.84375,61.84374999999997 0,41.78125 61.84375,-61.84375 0,-41.78124999999997 z" id="path958" style="fill:#b58e6c"/>
<path d="m 75,86.63886920188093 61.84375,61.84374999999997 0,41.78125 -61.84375,-61.84375 0,-41.78124999999997 z" id="path1264" style="fill:#b58e6c"/>
<path d="m 75,124.1875 -61.84375,61.84375 0,4.21875 L 75,128.40625 136.84375,190.25 l 0,-4.21875 L 75,124.1875 z" id="path1258" style="fill:#b58e6c;stroke:#000000;stroke-width:0.5;stroke-opacity:0.1960784314"/>
<path d="m 75,86.65625 -61.84375,61.8125 0,4.25 L 75,90.875 l 61.84375,61.84375 0,-4.25 L 75,86.65625 z" id="rect1242" style="fill:#b58e6c;stroke:#000000;stroke-width:0.5;stroke-opacity:0.1960784314"/>
<path d="m 135.1046831137094,179.9407602637504 0,-24.2459782994674 -24.2459782994679,-6e-13 0,-24.2459782994674 -24.24597829946762,-2e-13 1.1e-13,-24.2459782994672 -11.61272876771643,-2.2529425e-6 -11.61272876771638,-2.2529422e-6 1.2e-13,24.2459782994672 -24.24597829946753,2e-13 0,24.2459782994674 -24.24597829946793,6e-13 6e-14,24.2459782994674" id="path1266" style="stroke:#000000;stroke-opacity:0.3921568627;stroke-linejoin:round;fill:none;stroke-width:5;stroke-linecap:round"/>
<path d="m 75,90.59375 -61.84375,61.84375 0,1.28125 L 75,91.875 l 61.84375,61.84375 0,-1.28125 L 75,90.59375 z m 0,2.75 -61.84375,61.84375 0,1.21875 L 75,94.5625 l 61.84375,61.84375 0,-1.21875 L 75,93.34375 z m 0,2.6875 -61.84375,61.84375 0,1.28125 L 75,97.3125 l 61.84375,61.84375 0,-1.28125 L 75,96.03125 z m 0,2.71875 -61.84375,61.875 0,1.21875 L 75,100 l 61.84375,61.84375 0,-1.21875 L 75,98.75 z m 0,2.71875 -61.84375,61.84375 0,1.28125 L 75,102.75 l 61.84375,61.84375 0,-1.28125 L 75,101.46875 z m 0,2.71875 -61.84375,61.875 0,1.21875 L 75,105.4375 l 61.84375,61.84375 0,-1.21875 L 75,104.1875 z m 0,2.71875 L 13.15625,168.75 13.1875,170 75,108.1875 136.8125,170 136.84375,168.75 75,106.90625 z m 0,2.71875 -61.8125,61.84375 0,1.21875 L 75,110.875 l 61.8125,61.8125 0,-1.21875 L 75,109.625 z m 0,2.71875 -61.8125,61.8125 0,1.28125 L 75,113.625 l 61.8125,61.8125 0,-1.28125 L 75,112.34375 z m 0,2.71875 -61.8125,61.84375 0,1.21875 L 75,116.3125 l 61.8125,61.8125 0,-1.21875 L 75,115.0625 z m 0,2.71875 -61.8125,61.8125 0,1.28125 L 75,119.0625 l 61.8125,61.8125 0,-1.28125 L 75,117.78125 z m 0,2.71875 -61.8125,61.84375 0,1.21875 L 75,121.75 l 61.8125,61.8125 0,-1.21875 L 75,120.5 z m 0,2.71875 -61.8125,61.8125 0,1.28125 L 75,124.5 l 61.8125,61.8125 0,-1.28125 L 75,123.21875 z" id="rect1632" style="fill-opacity:0.3921568627"/>
<path d="m 61.875,105.6875 0,24.25 -24.21875,0 0,24.25 -24.25,0 0,25.75 3,0 0,-22.75 24.25,0 0,-24.25 24.21875,0 0,-24.25 20.25,0 0,24.25 24.21875,0 0,24.25 24.25,0 0,22.75 3,0 0,-25.75 -24.25,0 0,-24.25 -24.21875,0 0,-24.25 z" id="path960" style="fill:#b58e6c;fill-opacity:0.4147465725"/>
<path d="m 61.875,105.6875 0,0.40625 26.25,0 0,-0.40625 -26.25,0 z m 0,1.5 0,0.8125 26.25,0 0,-0.8125 -26.25,0 z m 0,1.90625 0,0.8125 3,0 0,-0.8125 -3,0 z m 23.25,0 0,0.8125 3,0 0,-0.8125 -3,0 z M 61.875,111 l 0,0.8125 3,0 0,-0.8125 -3,0 z m 23.25,0 0,0.8125 3,0 0,-0.8125 -3,0 z m -23.25,1.90625 0,0.8125 3,0 0,-0.8125 -3,0 z m 23.25,0 0,0.8125 3,0 0,-0.8125 -3,0 z m -23.25,1.90625 0,0.8125 3,0 0,-0.8125 -3,0 z m 23.25,0 0,0.8125 3,0 0,-0.8125 -3,0 z m -23.25,1.90625 0,0.78125 3,0 0,-0.78125 -3,0 z m 23.25,0 0,0.78125 3,0 0,-0.78125 -3,0 z m -23.25,1.90625 0,0.78125 3,0 0,-0.78125 -3,0 z m 23.25,0 0,0.78125 3,0 0,-0.78125 -3,0 z m -23.25,1.90625 0,0.78125 3,0 0,-0.78125 -3,0 z m 23.25,0 0,0.78125 3,0 0,-0.78125 -3,0 z m -23.25,1.875 0,0.8125 3,0 0,-0.8125 -3,0 z m 23.25,0 0,0.8125 3,0 0,-0.8125 -3,0 z m -23.25,1.90625 0,0.8125 3,0 0,-0.8125 -3,0 z m 23.25,0 0,0.8125 3,0 0,-0.8125 -3,0 z m -23.25,1.90625 0,0.8125 3,0 0,-0.8125 -3,0 z m 23.25,0 0,0.8125 3,0 0,-0.8125 -3,0 z m -23.25,1.90625 0,0.8125 3,0 0,-0.8125 -3,0 z m 23.25,0 0,0.8125 3,0 0,-0.8125 -3,0 z m -47.46875,1.90625 0,0.8125 27.21875,0 0,-0.8125 -27.21875,0 z m 47.46875,0 0,0.8125 27.21875,0 0,-0.8125 -27.21875,0 z m -47.46875,1.90625 0,0.8125 27.21875,0 0,-0.8125 -27.21875,0 z m 47.46875,0 0,0.8125 27.21875,0 0,-0.8125 -27.21875,0 z m -47.46875,1.90625 0,0.8125 3,0 0,-0.8125 -3,0 z m 71.6875,0 0,0.8125 3,0 0,-0.8125 -3,0 z m -71.6875,1.90625 0,0.8125 3,0 0,-0.8125 -3,0 z m 71.6875,0 0,0.8125 3,0 0,-0.8125 -3,0 z m -71.6875,1.90625 0,0.8125 3,0 0,-0.8125 -3,0 z m 71.6875,0 0,0.8125 3,0 0,-0.8125 -3,0 z m -71.6875,1.90625 0,0.8125 3,0 0,-0.8125 -3,0 z m 71.6875,0 0,0.8125 3,0 0,-0.8125 -3,0 z m -71.6875,1.90625 0,0.8125 3,0 0,-0.8125 -3,0 z m 71.6875,0 0,0.8125 3,0 0,-0.8125 -3,0 z m -71.6875,1.90625 0,0.8125 3,0 0,-0.8125 -3,0 z m 71.6875,0 0,0.8125 3,0 0,-0.8125 -3,0 z m -71.6875,1.90625 0,0.8125 3,0 0,-0.8125 -3,0 z m 71.6875,0 0,0.8125 3,0 0,-0.8125 -3,0 z m -71.6875,1.90625 0,0.8125 3,0 0,-0.8125 -3,0 z m 71.6875,0 0,0.8125 3,0 0,-0.8125 -3,0 z m -71.6875,1.90625 0,0.8125 3,0 0,-0.8125 -3,0 z m 71.6875,0 0,0.8125 3,0 0,-0.8125 -3,0 z M 37.65625,151 l 0,0.8125 3,0 0,-0.8125 -3,0 z m 71.6875,0 0,0.8125 3,0 0,-0.8125 -3,0 z m -71.6875,1.90625 0,0.8125 3,0 0,-0.8125 -3,0 z m 71.6875,0 0,0.8125 3,0 0,-0.8125 -3,0 z m -95.9375,1.90625 0,0.8125 27.25,0 0,-0.8125 -27.25,0 z m 95.9375,0 0,0.8125 27.25,0 0,-0.8125 -27.25,0 z m -95.9375,1.90625 0,0.78125 3,0 0,-0.3125 24.25,0 0,-0.46875 -27.25,0 z m 95.9375,0 0,0.46875 24.25,0 0,0.3125 3,0 0,-0.78125 -27.25,0 z m -95.9375,1.90625 0,0.78125 3,0 0,-0.78125 -3,0 z m 120.1875,0 0,0.78125 3,0 0,-0.78125 -3,0 z m -120.1875,1.90625 0,0.78125 3,0 0,-0.78125 -3,0 z m 120.1875,0 0,0.78125 3,0 0,-0.78125 -3,0 z m -120.1875,1.875 0,0.8125 3,0 0,-0.8125 -3,0 z m 120.1875,0 0,0.8125 3,0 0,-0.8125 -3,0 z m -120.1875,1.90625 0,0.8125 3,0 0,-0.8125 -3,0 z m 120.1875,0 0,0.8125 3,0 0,-0.8125 -3,0 z m -120.1875,1.90625 0,0.8125 3,0 0,-0.8125 -3,0 z m 120.1875,0 0,0.8125 3,0 0,-0.8125 -3,0 z m -120.1875,1.90625 0,0.8125 3,0 0,-0.8125 -3,0 z m 120.1875,0 0,0.8125 3,0 0,-0.8125 -3,0 z m -120.1875,1.90625 0,0.8125 3,0 0,-0.8125 -3,0 z m 120.1875,0 0,0.8125 3,0 0,-0.8125 -3,0 z m -120.1875,1.90625 0,0.8125 3,0 0,-0.8125 -3,0 z m 120.1875,0 0,0.8125 3,0 0,-0.8125 -3,0 z m -120.1875,1.90625 0,0.8125 3,0 0,-0.8125 -3,0 z m 120.1875,0 0,0.8125 3,0 0,-0.8125 -3,0 z m -120.1875,1.90625 0,0.8125 3,0 0,-0.8125 -3,0 z m 120.1875,0 0,0.8125 3,0 0,-0.8125 -3,0 z m -120.1875,1.90625 0,0.8125 3,0 0,-0.8125 -3,0 z m 120.1875,0 0,0.8125 3,0 0,-0.8125 -3,0 z m -120.1875,1.90625 0,0.375 3,0 0,-0.375 -3,0 z m 120.1875,0 0,0.375 3,0 0,-0.375 -3,0 z" id="rect3256" style="fill-opacity:0.4147465725"/>
<path d="m 61.875,105.6875 0,24.25 -24.21875,0 0,24.25 -24.25,0 0,25.75 3,0 0,-22.75 24.25,0 0,-24.25 24.21875,0 0,-24.25 20.25,0 0,24.25 24.21875,0 0,24.25 24.25,0 0,22.75 3,0 0,-25.75 -24.25,0 0,-24.25 -24.21875,0 0,-24.25 z" id="path3343" style="fill:#b58e6c;fill-opacity:0.4147465725"/>
<path d="m 75,18.125 -61.84375,82.375 0,186.84375 123.6875,0 0,-186.84375 L 75,18.125 z" id="path1262" style="fill:none;stroke:#b58e6c;stroke-width:2"/>
</svg>
